<?xml version="1.0" encoding="UTF-8"?>
<svg width="145px" height="61px" viewBox="0 0 145 61" version="1.1" xmlns="http://www.w3.org/2000/svg" xmlns:xlink="http://www.w3.org/1999/xlink">
    <!-- Generator: Sketch 42 (36781) - http://www.bohemiancoding.com/sketch -->
    <title>Group 6</title>
    <desc>Created with Sketch.</desc>
    <defs>
        <rect id="path-1" x="0" y="0" width="141" height="20" rx="2"></rect>
        <filter x="-50%" y="-50%" width="200%" height="200%" filterUnits="objectBoundingBox" id="filter-2">
            <feOffset dx="0" dy="1" in="SourceAlpha" result="shadowOffsetOuter1"></feOffset>
            <feGaussianBlur stdDeviation="1" in="shadowOffsetOuter1" result="shadowBlurOuter1"></feGaussianBlur>
            <feColorMatrix values="0 0 0 0 0   0 0 0 0 0   0 0 0 0 0  0 0 0 0.5 0" type="matrix" in="shadowBlurOuter1"></feColorMatrix>
        </filter>
        <path d="M70.5,19.5 L70.5,57.5" id="path-3"></path>
        <filter x="-50%" y="-50%" width="200%" height="200%" filterUnits="objectBoundingBox" id="filter-4">
            <feMorphology radius="0.5" operator="dilate" in="SourceAlpha" result="shadowSpreadOuter1"></feMorphology>
            <feOffset dx="0" dy="1" in="shadowSpreadOuter1" result="shadowOffsetOuter1"></feOffset>
            <feMorphology radius="1" operator="erode" in="SourceAlpha" result="shadowInner"></feMorphology>
            <feOffset dx="0" dy="1" in="shadowInner" result="shadowInner"></feOffset>
            <feComposite in="shadowOffsetOuter1" in2="shadowInner" operator="out" result="shadowOffsetOuter1"></feComposite>
            <feGaussianBlur stdDeviation="0.5" in="shadowOffsetOuter1" result="shadowBlurOuter1"></feGaussianBlur>
            <feColorMatrix values="0 0 0 0 0   0 0 0 0 0   0 0 0 0 0  0 0 0 0.5 0" type="matrix" in="shadowBlurOuter1"></feColorMatrix>
        </filter>
    </defs>
    <g id="Page-1" stroke="none" stroke-width="1" fill="none" fill-rule="evenodd">
        <g id="Index" transform="translate(-24.000000, -351.000000)">
            <g id="Group-6" transform="translate(26.000000, 352.000000)">
                <g id="Rectangle-3">
                    <use fill="black" fill-opacity="1" filter="url(#filter-2)" xlink:href="#path-1"></use>
                    <use fill="#DC1E65" fill-rule="evenodd" xlink:href="#path-1"></use>
                </g>
                <path d="M24.9199219,9.83105469 C24.1158814,9.59993374 23.5307635,9.31591965 23.1645508,8.97900391 C22.798338,8.64208816 22.6152344,8.22623945 22.6152344,7.73144531 C22.6152344,7.17154668 22.8390277,6.70849792 23.2866211,6.34228516 C23.7342145,5.97607239 24.3160771,5.79296875 25.0322266,5.79296875 C25.5205103,5.79296875 25.95589,5.88736885 26.3383789,6.07617188 C26.7208678,6.2649749 27.0170888,6.52538896 27.2270508,6.85742188 C27.4370128,7.18945479 27.5419922,7.55240688 27.5419922,7.94628906 L26.5996094,7.94628906 C26.5996094,7.51659941 26.462892,7.17887493 26.1894531,6.93310547 C25.9160143,6.68733601 25.5302759,6.56445312 25.0322266,6.56445312 C24.5699847,6.56445312 24.209474,6.66617737 23.9506836,6.86962891 C23.6918932,7.07308044 23.5625,7.35546694 23.5625,7.71679688 C23.5625,8.00651187 23.6853829,8.25146384 23.9311523,8.45166016 C24.1769218,8.65185647 24.5952119,8.83496011 25.1860352,9.00097656 C25.7768584,9.16699302 26.2390934,9.35009666 26.5727539,9.55029297 C26.9064144,9.75048928 27.1538078,9.98404814 27.3149414,10.2509766 C27.476075,10.517905 27.5566406,10.8320294 27.5566406,11.1933594 C27.5566406,11.7695341 27.3320335,12.2309553 26.8828125,12.5776367 C26.4335915,12.9243181 25.8330116,13.0976562 25.0810547,13.0976562 C24.592771,13.0976562 24.1370464,13.0040699 23.7138672,12.8168945 C23.290688,12.6297191 22.9643566,12.373374 22.7348633,12.0478516 C22.5053699,11.7223291 22.390625,11.3528667 22.390625,10.9394531 L23.3330078,10.9394531 C23.3330078,11.3691428 23.4916976,11.7084948 23.809082,11.9575195 C24.1264664,12.2065442 24.5504531,12.3310547 25.0810547,12.3310547 C25.5758488,12.3310547 25.9550768,12.2301442 26.21875,12.0283203 C26.4824232,11.8264964 26.6142578,11.551434 26.6142578,11.203125 C26.6142578,10.854816 26.4921887,10.5854502 26.2480469,10.3950195 C26.003905,10.2045889 25.5612011,10.0166025 24.9199219,9.83105469 Z M32.7763672,9.71386719 L29.6953125,9.71386719 L29.6953125,12.2333984 L33.2744141,12.2333984 L33.2744141,13 L28.7578125,13 L28.7578125,5.890625 L33.2255859,5.890625 L33.2255859,6.66210938 L29.6953125,6.66210938 L29.6953125,8.94726562 L32.7763672,8.94726562 L32.7763672,9.71386719 Z M39.4511719,6.66210938 L37.1660156,6.66210938 L37.1660156,13 L36.2333984,13 L36.2333984,6.66210938 L33.953125,6.66210938 L33.953125,5.890625 L39.4511719,5.890625 L39.4511719,6.66210938 Z M45.8378906,9.67480469 C45.8378906,10.3714228 45.7207043,10.9793268 45.4863281,11.4985352 C45.251952,12.0177435 44.919924,12.4140611 44.4902344,12.6875 C44.0605447,12.9609389 43.5592477,13.0976562 42.9863281,13.0976562 C42.4264295,13.0976562 41.9300152,12.9601251 41.4970703,12.6850586 C41.0641254,12.4099921 40.7280285,12.0177434 40.4887695,11.5083008 C40.2495105,10.9988581 40.1266276,10.4088575 40.1201172,9.73828125 L40.1201172,9.22558594 C40.1201172,8.54198877 40.2389311,7.93815366 40.4765625,7.4140625 C40.7141939,6.88997134 41.0502908,6.48877092 41.4848633,6.21044922 C41.9194358,5.93212751 42.4166639,5.79296875 42.9765625,5.79296875 C43.5462268,5.79296875 44.0483377,5.93049993 44.4829102,6.20556641 C44.9174826,6.48063289 45.251952,6.87939192 45.4863281,7.40185547 C45.7207043,7.92431902 45.8378906,8.5322231 45.8378906,9.22558594 L45.8378906,9.67480469 Z M44.9052734,9.21582031 C44.9052734,8.37271714 44.7360043,7.72575095 44.3974609,7.27490234 C44.0589176,6.82405374 43.5852895,6.59863281 42.9765625,6.59863281 C42.3841116,6.59863281 41.9178077,6.82405374 41.5776367,7.27490234 C41.2374657,7.72575095 41.0625,8.3515585 41.0527344,9.15234375 L41.0527344,9.67480469 C41.0527344,10.4918661 41.2244449,11.1339495 41.5678711,11.6010742 C41.9112973,12.068199 42.3841116,12.3017578 42.9863281,12.3017578 C43.5917999,12.3017578 44.0605452,12.0812197 44.3925781,11.6401367 C44.724611,11.1990538 44.8955078,10.5667359 44.9052734,9.74316406 L44.9052734,9.21582031 Z M49.8515625,10.1240234 L48.1816406,10.1240234 L48.1816406,13 L47.2392578,13 L47.2392578,5.890625 L49.5927734,5.890625 C50.3935587,5.890625 51.0096007,6.07291484 51.440918,6.4375 C51.8722352,6.80208516 52.0878906,7.33267881 52.0878906,8.02929688 C52.0878906,8.47200742 51.9682629,8.85774575 51.7290039,9.18652344 C51.4897449,9.51530112 51.1569032,9.76106689 50.7304688,9.92382812 L52.4003906,12.9414062 L52.4003906,13 L51.3945312,13 L49.8515625,10.1240234 Z M48.1816406,9.35742188 L49.6220703,9.35742188 C50.0875674,9.35742188 50.4578437,9.23698037 50.7329102,8.99609375 C51.0079766,8.75520713 51.1455078,8.43294473 51.1455078,8.02929688 C51.1455078,7.58984155 51.014487,7.25293086 50.7524414,7.01855469 C50.4903958,6.78417852 50.1119816,6.6653646 49.6171875,6.66210938 L48.1816406,6.66210938 L48.1816406,9.35742188 Z M55.8769531,13 L55.8769531,5.890625 L57.8837891,5.890625 C58.5022817,5.890625 59.0491513,6.02734238 59.5244141,6.30078125 C59.9996769,6.57422012 60.3666979,6.96321362 60.6254883,7.46777344 C60.8842786,7.97233325 61.0152995,8.55175454 61.0185547,9.20605469 L61.0185547,9.66015625 C61.0185547,10.3307325 60.8891615,10.9182917 60.6303711,11.4228516 C60.3715807,11.9274114 60.0021183,12.3147773 59.5219727,12.5849609 C59.041827,12.8551446 58.4827506,12.9934896 57.8447266,13 L55.8769531,13 Z M56.8144531,6.66210938 L56.8144531,12.2333984 L57.8007812,12.2333984 C58.5234411,12.2333984 59.0857727,12.0087913 59.487793,11.5595703 C59.8898132,11.1103493 60.0908203,10.4707073 60.0908203,9.640625 L60.0908203,9.22558594 C60.0908203,8.41829023 59.9012063,7.7908551 59.5219727,7.34326172 C59.142739,6.89566833 58.6048212,6.66861982 57.9082031,6.66210938 L56.8144531,6.66210938 Z M66.2578125,11.1445312 L63.2792969,11.1445312 L62.6103516,13 L61.6435547,13 L64.3583984,5.890625 L65.1787109,5.890625 L67.8984375,13 L66.9365234,13 L66.2578125,11.1445312 Z M63.5625,10.3730469 L65.9794922,10.3730469 L64.7685547,7.04785156 L63.5625,10.3730469 Z M70.9501953,9.83105469 C70.1461548,9.59993374 69.561037,9.31591965 69.1948242,8.97900391 C68.8286115,8.64208816 68.6455078,8.22623945 68.6455078,7.73144531 C68.6455078,7.17154668 68.8693011,6.70849792 69.3168945,6.34228516 C69.7644879,5.97607239 70.3463506,5.79296875 71.0625,5.79296875 C71.5507837,5.79296875 71.9861635,5.88736885 72.3686523,6.07617188 C72.7511412,6.2649749 73.0473622,6.52538896 73.2573242,6.85742188 C73.4672862,7.18945479 73.5722656,7.55240688 73.5722656,7.94628906 L72.6298828,7.94628906 C72.6298828,7.51659941 72.4931654,7.17887493 72.2197266,6.93310547 C71.9462877,6.68733601 71.5605494,6.56445312 71.0625,6.56445312 C70.6002581,6.56445312 70.2397474,6.66617737 69.980957,6.86962891 C69.7221667,7.07308044 69.5927734,7.35546694 69.5927734,7.71679688 C69.5927734,8.00651187 69.7156563,8.25146384 69.9614258,8.45166016 C70.2071952,8.65185647 70.6254853,8.83496011 71.2163086,9.00097656 C71.8071319,9.16699302 72.2693668,9.35009666 72.6030273,9.55029297 C72.9366879,9.75048928 73.1840812,9.98404814 73.3452148,10.2509766 C73.5063485,10.517905 73.5869141,10.8320294 73.5869141,11.1933594 C73.5869141,11.7695341 73.3623069,12.2309553 72.9130859,12.5776367 C72.4638649,12.9243181 71.863285,13.0976562 71.1113281,13.0976562 C70.6230444,13.0976562 70.1673198,13.0040699 69.7441406,12.8168945 C69.3209614,12.6297191 68.9946301,12.373374 68.7651367,12.0478516 C68.5356434,11.7223291 68.4208984,11.3528667 68.4208984,10.9394531 L69.3632812,10.9394531 C69.3632812,11.3691428 69.5219711,11.7084948 69.8393555,11.9575195 C70.1567399,12.2065442 70.5807265,12.3310547 71.1113281,12.3310547 C71.6061223,12.3310547 71.9853502,12.2301442 72.2490234,12.0283203 C72.5126966,11.8264964 72.6445312,11.551434 72.6445312,11.203125 C72.6445312,10.854816 72.5224622,10.5854502 72.2783203,10.3950195 C72.0341785,10.2045889 71.5914746,10.0166025 70.9501953,9.83105469 Z M81.1894531,11.1445312 L78.2109375,11.1445312 L77.5419922,13 L76.5751953,13 L79.2900391,5.890625 L80.1103516,5.890625 L82.8300781,13 L81.8681641,13 L81.1894531,11.1445312 Z M78.4941406,10.3730469 L80.9111328,10.3730469 L79.7001953,7.04785156 L78.4941406,10.3730469 Z M83.7871094,13 L83.7871094,5.890625 L86.1113281,5.890625 C86.8828164,5.890625 87.4630514,6.05012861 87.8520508,6.36914062 C88.2410501,6.68815264 88.4355469,7.16015313 88.4355469,7.78515625 C88.4355469,8.11718916 88.3411468,8.41096877 88.1523438,8.66650391 C87.9635407,8.92203904 87.7063818,9.11979097 87.3808594,9.25976562 C87.7649759,9.36718804 88.068521,9.57145032 88.2915039,9.87255859 C88.5144868,10.1736669 88.6259766,10.53255 88.6259766,10.9492188 C88.6259766,11.5872428 88.4192729,12.0885398 88.0058594,12.453125 C87.5924458,12.8177102 87.0081418,13 86.2529297,13 L83.7871094,13 Z M84.7246094,9.67480469 L84.7246094,12.2333984 L86.2724609,12.2333984 C86.708661,12.2333984 87.0528959,12.1202811 87.3051758,11.894043 C87.5574557,11.6678049 87.6835938,11.3561218 87.6835938,10.9589844 C87.6835938,10.1028603 87.2181036,9.67480469 86.2871094,9.67480469 L84.7246094,9.67480469 Z M84.7246094,8.92285156 L86.140625,8.92285156 C86.5507833,8.92285156 86.8787423,8.82031353 87.1245117,8.61523438 C87.3702812,8.41015522 87.4931641,8.1318377 87.4931641,7.78027344 C87.4931641,7.38964648 87.3792329,7.1056324 87.1513672,6.92822266 C86.9235015,6.75081292 86.5768252,6.66210938 86.1113281,6.66210938 L84.7246094,6.66210938 L84.7246094,8.92285156 Z M94.03125,9.71386719 L90.9501953,9.71386719 L90.9501953,12.2333984 L94.5292969,12.2333984 L94.5292969,13 L90.0126953,13 L90.0126953,5.890625 L94.4804688,5.890625 L94.4804688,6.66210938 L90.9501953,6.66210938 L90.9501953,8.94726562 L94.03125,8.94726562 L94.03125,9.71386719 Z M96.6386719,12.2333984 L100.007812,12.2333984 L100.007812,13 L95.6962891,13 L95.6962891,5.890625 L96.6386719,5.890625 L96.6386719,12.2333984 Z M106.541016,13 L105.598633,13 L105.598633,9.71386719 L102.014648,9.71386719 L102.014648,13 L101.077148,13 L101.077148,5.890625 L102.014648,5.890625 L102.014648,8.94726562 L105.598633,8.94726562 L105.598633,5.890625 L106.541016,5.890625 L106.541016,13 Z M112.219727,11.1445312 L109.241211,11.1445312 L108.572266,13 L107.605469,13 L110.320312,5.890625 L111.140625,5.890625 L113.860352,13 L112.898438,13 L112.219727,11.1445312 Z M109.524414,10.3730469 L111.941406,10.3730469 L110.730469,7.04785156 L109.524414,10.3730469 Z M116.912109,9.83105469 C116.108069,9.59993374 115.522951,9.31591965 115.156738,8.97900391 C114.790526,8.64208816 114.607422,8.22623945 114.607422,7.73144531 C114.607422,7.17154668 114.831215,6.70849792 115.278809,6.34228516 C115.726402,5.97607239 116.308265,5.79296875 117.024414,5.79296875 C117.512698,5.79296875 117.948078,5.88736885 118.330566,6.07617188 C118.713055,6.2649749 119.009276,6.52538896 119.219238,6.85742188 C119.4292,7.18945479 119.53418,7.55240688 119.53418,7.94628906 L118.591797,7.94628906 C118.591797,7.51659941 118.455079,7.17887493 118.181641,6.93310547 C117.908202,6.68733601 117.522463,6.56445312 117.024414,6.56445312 C116.562172,6.56445312 116.201661,6.66617737 115.942871,6.86962891 C115.684081,7.07308044 115.554688,7.35546694 115.554688,7.71679688 C115.554688,8.00651187 115.67757,8.25146384 115.92334,8.45166016 C116.169109,8.65185647 116.587399,8.83496011 117.178223,9.00097656 C117.769046,9.16699302 118.231281,9.35009666 118.564941,9.55029297 C118.898602,9.75048928 119.145995,9.98404814 119.307129,10.2509766 C119.468263,10.517905 119.548828,10.8320294 119.548828,11.1933594 C119.548828,11.7695341 119.324221,12.2309553 118.875,12.5776367 C118.425779,12.9243181 117.825199,13.0976562 117.073242,13.0976562 C116.584958,13.0976562 116.129234,13.0040699 115.706055,12.8168945 C115.282875,12.6297191 114.956544,12.373374 114.727051,12.0478516 C114.497557,11.7223291 114.382812,11.3528667 114.382812,10.9394531 L115.325195,10.9394531 C115.325195,11.3691428 115.483885,11.7084948 115.80127,11.9575195 C116.118654,12.2065442 116.542641,12.3310547 117.073242,12.3310547 C117.568036,12.3310547 117.947264,12.2301442 118.210938,12.0283203 C118.474611,11.8264964 118.606445,11.551434 118.606445,11.203125 C118.606445,10.854816 118.484376,10.5854502 118.240234,10.3950195 C117.996093,10.2045889 117.553389,10.0166025 116.912109,9.83105469 Z" id="SETOR-DAS-ABELHAS" fill="#FFFFFF"></path>
                <g id="Line">
                    <use fill="black" fill-opacity="1" filter="url(#filter-4)" xlink:href="#path-3"></use>
                    <use stroke="#DC1E65" stroke-width="1" stroke-linecap="square" stroke-dasharray="2" xlink:href="#path-3"></use>
                </g>
            </g>
        </g>
    </g>
</svg>