<?xml version="1.0" encoding="UTF-8"?>
<svg width="75px" height="77px" viewBox="0 0 75 77" version="1.1" xmlns="http://www.w3.org/2000/svg" xmlns:xlink="http://www.w3.org/1999/xlink">
    <!-- Generator: Sketch 42 (36781) - http://www.bohemiancoding.com/sketch -->
    <title>Group 42</title>
    <desc>Created with Sketch.</desc>
    <defs>
        <path d="M25.9257812,53.0136719 L22.6210938,53.0136719 L21.9296875,55 L20.3886719,55 L23.6113281,46.46875 L24.9414062,46.46875 L28.1699219,55 L26.6230469,55 L25.9257812,53.0136719 Z M23.0371094,51.8183594 L25.5097656,51.8183594 L24.2734375,48.2792969 L23.0371094,51.8183594 Z M31.7207031,51.7832031 C31.7207031,50.8066357 31.9472634,50.0224639 32.4003906,49.4306641 C32.8535179,48.8388642 33.4609337,48.5429688 34.2226562,48.5429688 C34.8945346,48.5429688 35.4374979,48.7773414 35.8515625,49.2460938 L35.8515625,46 L37.2753906,46 L37.2753906,55 L35.9863281,55 L35.9160156,54.34375 C35.4902322,54.8593776 34.9218786,55.1171875 34.2109375,55.1171875 C33.4687463,55.1171875 32.8681664,54.8183624 32.4091797,54.2207031 C31.950193,53.6230439 31.7207031,52.810552 31.7207031,51.7832031 Z M33.1445312,51.90625 C33.1445312,52.5507845 33.2685534,53.0537091 33.5166016,53.4150391 C33.7646497,53.776369 34.1171852,53.9570312 34.5742188,53.9570312 C35.1562529,53.9570312 35.5820299,53.6972682 35.8515625,53.1777344 L35.8515625,50.4707031 C35.5898424,49.9628881 35.1679717,49.7089844 34.5859375,49.7089844 C34.1249977,49.7089844 33.7695325,49.8915997 33.5195312,50.2568359 C33.26953,50.6220721 33.1445312,51.1718713 33.1445312,51.90625 Z M42.5488281,55 C42.4863278,54.8789056 42.4316409,54.681642 42.3847656,54.4082031 C41.9316384,54.8808617 41.3769564,55.1171875 40.7207031,55.1171875 C40.0839812,55.1171875 39.5644551,54.9355487 39.1621094,54.5722656 C38.7597636,54.2089826 38.5585938,53.7597683 38.5585938,53.2246094 C38.5585938,52.5488247 38.8095678,52.0302752 39.3115234,51.6689453 C39.8134791,51.3076154 40.5312453,51.1269531 41.4648438,51.1269531 L42.3378906,51.1269531 L42.3378906,50.7109375 C42.3378906,50.3828109 42.2460947,50.1201182 42.0625,49.9228516 C41.8789053,49.725585 41.5996112,49.6269531 41.2246094,49.6269531 C40.900389,49.6269531 40.6347667,49.708007 40.4277344,49.8701172 C40.2207021,50.0322274 40.1171875,50.23828 40.1171875,50.4882812 L38.6933594,50.4882812 C38.6933594,50.1406233 38.8085926,49.8154312 39.0390625,49.5126953 C39.2695324,49.2099594 39.5830058,48.9726571 39.9794922,48.8007812 C40.3759785,48.6289054 40.8183569,48.5429688 41.3066406,48.5429688 C42.0488318,48.5429688 42.6406228,48.7294903 43.0820312,49.1025391 C43.5234397,49.4755878 43.7499999,49.9999966 43.7617188,50.6757812 L43.7617188,53.5351562 C43.7617188,54.1054716 43.8417961,54.5605452 44.0019531,54.9003906 L44.0019531,55 L42.5488281,55 Z M40.984375,53.9746094 C41.2656264,53.9746094 41.5302722,53.9062507 41.7783203,53.7695312 C42.0263684,53.6328118 42.21289,53.4492199 42.3378906,53.21875 L42.3378906,52.0234375 L41.5703125,52.0234375 C41.0429661,52.0234375 40.6464857,52.1152335 40.3808594,52.2988281 C40.115233,52.4824228 39.9824219,52.7421858 39.9824219,53.078125 C39.9824219,53.3515639 40.0732413,53.5693351 40.2548828,53.7314453 C40.4365243,53.8935555 40.679686,53.9746094 40.984375,53.9746094 Z M48.8066406,53.2773438 C48.8066406,53.0234362 48.7021495,52.8300788 48.4931641,52.6972656 C48.2841786,52.5644525 47.9375024,52.4472661 47.453125,52.3457031 C46.9687476,52.2441401 46.5644547,52.1152352 46.2402344,51.9589844 C45.5292933,51.6152327 45.1738281,51.1171908 45.1738281,50.4648438 C45.1738281,49.917966 45.4042946,49.4609393 45.8652344,49.09375 C46.3261742,48.7265607 46.9121058,48.5429688 47.6230469,48.5429688 C48.3808632,48.5429688 48.9931617,48.7304669 49.4599609,49.1054688 C49.9267601,49.4804706 50.1601562,49.9667939 50.1601562,50.5644531 L48.7363281,50.5644531 C48.7363281,50.2910143 48.6347666,50.0634775 48.4316406,49.8818359 C48.2285146,49.7001944 47.9589861,49.609375 47.6230469,49.609375 C47.3105453,49.609375 47.055665,49.6816399 46.8583984,49.8261719 C46.6611318,49.9707038 46.5625,50.1640613 46.5625,50.40625 C46.5625,50.6250011 46.654296,50.7949213 46.8378906,50.9160156 C47.0214853,51.03711 47.3925753,51.1591791 47.9511719,51.2822266 C48.5097684,51.4052741 48.9482406,51.551757 49.2666016,51.7216797 C49.5849625,51.8916024 49.8212883,52.0957019 49.9755859,52.3339844 C50.1298836,52.5722668 50.2070312,52.8613264 50.2070312,53.2011719 C50.2070312,53.7714872 49.9707055,54.2333967 49.4980469,54.5869141 C49.0253883,54.9404315 48.4062538,55.1171875 47.640625,55.1171875 C47.1210912,55.1171875 46.6582052,55.0234384 46.2519531,54.8359375 C45.8457011,54.6484366 45.529298,54.3906266 45.3027344,54.0625 C45.0761707,53.7343734 44.9628906,53.3808613 44.9628906,53.0019531 L46.3457031,53.0019531 C46.3652345,53.3378923 46.4921863,53.5966788 46.7265625,53.7783203 C46.9609387,53.9599618 47.2714824,54.0507812 47.6582031,54.0507812 C48.033205,54.0507812 48.3183584,53.9794929 48.5136719,53.8369141 C48.7089854,53.6943352 48.8066406,53.5078137 48.8066406,53.2773438 Z M4.64746094,69 C4.58496063,68.8789056 4.53027367,68.681642 4.48339844,68.4082031 C4.03027117,68.8808617 3.47558922,69.1171875 2.81933594,69.1171875 C2.182614,69.1171875 1.66308795,68.9355487 1.26074219,68.5722656 C0.858396426,68.2089826 0.657226562,67.7597683 0.657226562,67.2246094 C0.657226562,66.5488247 0.908200615,66.0302752 1.41015625,65.6689453 C1.91211188,65.3076154 2.62987814,65.1269531 3.56347656,65.1269531 L4.43652344,65.1269531 L4.43652344,64.7109375 C4.43652344,64.3828109 4.34472748,64.1201182 4.16113281,63.9228516 C3.97753814,63.725585 3.69824406,63.6269531 3.32324219,63.6269531 C2.99902182,63.6269531 2.73339947,63.708007 2.52636719,63.8701172 C2.3193349,64.0322274 2.21582031,64.23828 2.21582031,64.4882812 L0.791992188,64.4882812 C0.791992188,64.1406233 0.90722541,63.8154312 1.13769531,63.5126953 C1.36816521,63.2099594 1.68163864,62.9726571 2.078125,62.8007812 C2.47461136,62.6289054 2.91698975,62.5429688 3.40527344,62.5429688 C4.14746465,62.5429688 4.73925561,62.7294903 5.18066406,63.1025391 C5.62207252,63.4755878 5.84863275,63.9999966 5.86035156,64.6757812 L5.86035156,67.5351562 C5.86035156,68.1054716 5.94042889,68.5605452 6.10058594,68.9003906 L6.10058594,69 L4.64746094,69 Z M3.08300781,67.9746094 C3.36425922,67.9746094 3.62890501,67.9062507 3.87695312,67.7695312 C4.12500124,67.6328118 4.31152281,67.4492199 4.43652344,67.21875 L4.43652344,66.0234375 L3.66894531,66.0234375 C3.14159893,66.0234375 2.74511852,66.1152335 2.47949219,66.2988281 C2.21386586,66.4824228 2.08105469,66.7421858 2.08105469,67.078125 C2.08105469,67.3515639 2.17187409,67.5693351 2.35351562,67.7314453 C2.53515716,67.8935555 2.77831879,67.9746094 3.08300781,67.9746094 Z M12.9150391,65.8945312 C12.9150391,66.8789112 12.6953147,67.6621065 12.2558594,68.2441406 C11.8164041,68.8261748 11.2119179,69.1171875 10.4423828,69.1171875 C9.7001916,69.1171875 9.12207238,68.8496121 8.70800781,68.3144531 L8.63769531,69 L7.34863281,69 L7.34863281,60 L8.77246094,60 L8.77246094,63.2695312 C9.18261924,62.7851538 9.73534809,62.5429688 10.4306641,62.5429688 C11.2041054,62.5429688 11.8115212,62.8300753 12.2529297,63.4042969 C12.6943381,63.9785185 12.9150391,64.7812448 12.9150391,65.8125 L12.9150391,65.8945312 Z M11.4912109,65.7714844 C11.4912109,65.0839809 11.3701184,64.5683611 11.1279297,64.2246094 C10.885741,63.8808577 10.534182,63.7089844 10.0732422,63.7089844 C9.4560516,63.7089844 9.02246219,63.9785129 8.77246094,64.5175781 L8.77246094,67.1308594 C9.02636846,67.6816434 9.46386408,67.9570312 10.0849609,67.9570312 C10.5302757,67.9570312 10.8740222,67.7910173 11.1162109,67.4589844 C11.3583996,67.1269515 11.4833984,66.6250034 11.4912109,65.953125 L11.4912109,65.7714844 Z M16.8994141,69.1171875 C15.9970658,69.1171875 15.2656278,68.8330107 14.7050781,68.2646484 C14.1445284,67.6962862 13.8642578,66.9394579 13.8642578,65.9941406 L13.8642578,65.8183594 C13.8642578,65.1855437 13.9863269,64.6201197 14.2304688,64.1220703 C14.4746106,63.6240209 14.8173806,63.2363295 15.2587891,62.9589844 C15.7001975,62.6816392 16.1923801,62.5429688 16.7353516,62.5429688 C17.5986371,62.5429688 18.2656226,62.8183566 18.7363281,63.3691406 C19.2070336,63.9199246 19.4423828,64.6992137 19.4423828,65.7070312 L19.4423828,66.28125 L15.2998047,66.28125 C15.3427737,66.8046901 15.5175766,67.2187485 15.8242188,67.5234375 C16.1308609,67.8281265 16.5165992,67.9804688 16.9814453,67.9804688 C17.6337923,67.9804688 18.165037,67.7167995 18.5751953,67.1894531 L19.3427734,67.921875 C19.0888659,68.3007831 18.7500021,68.5947255 18.3261719,68.8037109 C17.9023416,69.0126964 17.4267604,69.1171875 16.8994141,69.1171875 Z M16.7294922,63.6855469 C16.3388652,63.6855469 16.0234387,63.8222643 15.7832031,64.0957031 C15.5429675,64.369142 15.3896488,64.7499976 15.3232422,65.2382812 L18.0361328,65.2382812 L18.0361328,65.1328125 C18.0048827,64.6562476 17.8779308,64.2958997 17.6552734,64.0517578 C17.4326161,63.807616 17.1240254,63.6855469 16.7294922,63.6855469 Z M22.0615234,69 L20.6376953,69 L20.6376953,60 L22.0615234,60 L22.0615234,69 Z M25.0146484,63.3515625 C25.4794945,62.8124973 26.0673793,62.5429688 26.7783203,62.5429688 C28.1298896,62.5429688 28.8154296,63.3144454 28.8349609,64.8574219 L28.8349609,69 L27.4111328,69 L27.4111328,64.9101562 C27.4111328,64.4726541 27.3164072,64.1630868 27.1269531,63.9814453 C26.9374991,63.7998038 26.6591815,63.7089844 26.2919922,63.7089844 C25.7216768,63.7089844 25.2958998,63.9628881 25.0146484,64.4707031 L25.0146484,69 L23.5908203,69 L23.5908203,60 L25.0146484,60 L25.0146484,63.3515625 Z M34.0615234,69 C33.9990231,68.8789056 33.9443362,68.681642 33.8974609,68.4082031 C33.4443337,68.8808617 32.8896517,69.1171875 32.2333984,69.1171875 C31.5966765,69.1171875 31.0771504,68.9355487 30.6748047,68.5722656 C30.2724589,68.2089826 30.0712891,67.7597683 30.0712891,67.2246094 C30.0712891,66.5488247 30.3222631,66.0302752 30.8242188,65.6689453 C31.3261744,65.3076154 32.0439406,65.1269531 32.9775391,65.1269531 L33.8505859,65.1269531 L33.8505859,64.7109375 C33.8505859,64.3828109 33.75879,64.1201182 33.5751953,63.9228516 C33.3916006,63.725585 33.1123066,63.6269531 32.7373047,63.6269531 C32.4130843,63.6269531 32.147462,63.708007 31.9404297,63.8701172 C31.7333974,64.0322274 31.6298828,64.23828 31.6298828,64.4882812 L30.2060547,64.4882812 C30.2060547,64.1406233 30.3212879,63.8154312 30.5517578,63.5126953 C30.7822277,63.2099594 31.0957011,62.9726571 31.4921875,62.8007812 C31.8886739,62.6289054 32.3310522,62.5429688 32.8193359,62.5429688 C33.5615271,62.5429688 34.1533181,62.7294903 34.5947266,63.1025391 C35.036135,63.4755878 35.2626953,63.9999966 35.2744141,64.6757812 L35.2744141,67.5351562 C35.2744141,68.1054716 35.3544914,68.5605452 35.5146484,68.9003906 L35.5146484,69 L34.0615234,69 Z M32.4970703,67.9746094 C32.7783217,67.9746094 33.0429675,67.9062507 33.2910156,67.7695312 C33.5390637,67.6328118 33.7255853,67.4492199 33.8505859,67.21875 L33.8505859,66.0234375 L33.0830078,66.0234375 C32.5556614,66.0234375 32.159181,66.1152335 31.8935547,66.2988281 C31.6279284,66.4824228 31.4951172,66.7421858 31.4951172,67.078125 C31.4951172,67.3515639 31.5859366,67.5693351 31.7675781,67.7314453 C31.9492197,67.8935555 32.1923813,67.9746094 32.4970703,67.9746094 Z M40.3193359,67.2773438 C40.3193359,67.0234362 40.2148448,66.8300788 40.0058594,66.6972656 C39.796874,66.5644525 39.4501977,66.4472661 38.9658203,66.3457031 C38.4814429,66.2441401 38.0771501,66.1152352 37.7529297,65.9589844 C37.0419886,65.6152327 36.6865234,65.1171908 36.6865234,64.4648438 C36.6865234,63.917966 36.9169899,63.4609393 37.3779297,63.09375 C37.8388695,62.7265607 38.4248011,62.5429688 39.1357422,62.5429688 C39.8935585,62.5429688 40.505857,62.7304669 40.9726562,63.1054688 C41.4394555,63.4804706 41.6728516,63.9667939 41.6728516,64.5644531 L40.2490234,64.5644531 C40.2490234,64.2910143 40.147462,64.0634775 39.9443359,63.8818359 C39.7412099,63.7001944 39.4716814,63.609375 39.1357422,63.609375 C38.8232406,63.609375 38.5683604,63.6816399 38.3710938,63.8261719 C38.1738271,63.9707038 38.0751953,64.1640613 38.0751953,64.40625 C38.0751953,64.6250011 38.1669913,64.7949213 38.3505859,64.9160156 C38.5341806,65.03711 38.9052706,65.1591791 39.4638672,65.2822266 C40.0224637,65.4052741 40.4609359,65.551757 40.7792969,65.7216797 C41.0976578,65.8916024 41.3339836,66.0957019 41.4882812,66.3339844 C41.6425789,66.5722668 41.7197266,66.8613264 41.7197266,67.2011719 C41.7197266,67.7714872 41.4834008,68.2333967 41.0107422,68.5869141 C40.5380836,68.9404315 39.9189491,69.1171875 39.1533203,69.1171875 C38.6337865,69.1171875 38.1709005,69.0234384 37.7646484,68.8359375 C37.3583964,68.6484366 37.0419933,68.3906266 36.8154297,68.0625 C36.5888661,67.7343734 36.4755859,67.3808613 36.4755859,67.0019531 L37.8583984,67.0019531 C37.8779298,67.3378923 38.0048816,67.5966788 38.2392578,67.7783203 C38.473634,67.9599618 38.7841778,68.0507812 39.1708984,68.0507812 C39.5459003,68.0507812 39.8310537,67.9794929 40.0263672,67.8369141 C40.2216807,67.6943352 40.3193359,67.5078137 40.3193359,67.2773438 Z M48.3818359,60.28125 L47.4150391,60.28125 L47.4150391,69.7910156 L48.3818359,69.7910156 L48.3818359,70.8984375 L45.9912109,70.8984375 L45.9912109,59.1679688 L48.3818359,59.1679688 L48.3818359,60.28125 Z M57.8095703,61.2597656 L54.3994141,69 L52.9052734,69 L56.3095703,61.6113281 L51.8974609,61.6113281 L51.8974609,60.46875 L57.8095703,60.46875 L57.8095703,61.2597656 Z M61.6474609,67.9804688 C62.0029315,67.9804688 62.2978504,67.8769542 62.5322266,67.6699219 C62.7666027,67.4628896 62.8916015,67.2070328 62.9072266,66.9023438 L64.2490234,66.9023438 C64.2333984,67.296877 64.1103527,67.6650374 63.8798828,68.0068359 C63.6494129,68.3486345 63.336916,68.6191396 62.9423828,68.8183594 C62.5478496,69.0175791 62.1220726,69.1171875 61.6650391,69.1171875 C60.7783159,69.1171875 60.0751979,68.830081 59.5556641,68.2558594 C59.0361302,67.6816378 58.7763672,66.8886769 58.7763672,65.8769531 L58.7763672,65.7304688 C58.7763672,64.7656202 59.0341771,63.993167 59.5498047,63.4130859 C60.0654323,62.8330049 60.7685502,62.5429688 61.6591797,62.5429688 C62.4130897,62.5429688 63.0273414,62.7626931 63.5019531,63.2021484 C63.9765649,63.6416038 64.2255858,64.2187464 64.2490234,64.9335938 L62.9072266,64.9335938 C62.8916015,64.5703107 62.7675793,64.2714855 62.5351562,64.0371094 C62.3027332,63.8027332 62.0068377,63.6855469 61.6474609,63.6855469 C61.1865211,63.6855469 60.8310559,63.8525374 60.5810547,64.1865234 C60.3310534,64.5205095 60.2041016,65.0273404 60.2001953,65.7070312 L60.2001953,65.9355469 C60.2001953,66.6230503 60.3242175,67.1357405 60.5722656,67.4736328 C60.8203137,67.8115251 61.1787086,67.9804688 61.6474609,67.9804688 Z M67.6533203,59.1679688 L70.0556641,59.1679688 L70.0556641,70.8984375 L67.6533203,70.8984375 L67.6533203,69.7910156 L68.6318359,69.7910156 L68.6318359,60.28125 L67.6533203,60.28125 L67.6533203,59.1679688 Z" id="path-1"></path>
        <filter x="-50%" y="-50%" width="200%" height="200%" filterUnits="objectBoundingBox" id="filter-2">
            <feOffset dx="0" dy="2" in="SourceAlpha" result="shadowOffsetOuter1"></feOffset>
            <feGaussianBlur stdDeviation="1" in="shadowOffsetOuter1" result="shadowBlurOuter1"></feGaussianBlur>
            <feColorMatrix values="0 0 0 0 0   0 0 0 0 0   0 0 0 0 0  0 0 0 0.5 0" type="matrix" in="shadowBlurOuter1"></feColorMatrix>
        </filter>
        <ellipse id="path-3" cx="20" cy="20" rx="20" ry="20"></ellipse>
        <filter x="-50%" y="-50%" width="200%" height="200%" filterUnits="objectBoundingBox" id="filter-4">
            <feOffset dx="0" dy="2" in="SourceAlpha" result="shadowOffsetOuter1"></feOffset>
            <feGaussianBlur stdDeviation="2" in="shadowOffsetOuter1" result="shadowBlurOuter1"></feGaussianBlur>
            <feColorMatrix values="0 0 0 0 0   0 0 0 0 0   0 0 0 0 0  0 0 0 0.5 0" type="matrix" in="shadowBlurOuter1"></feColorMatrix>
        </filter>
    </defs>
    <g id="Page-1" stroke="none" stroke-width="1" fill="none" fill-rule="evenodd">
        <g id="Group-42" transform="translate(2.000000, 2.000000)">
            <g id="A-das-abelhas-[-7c-]">
                <use fill="black" fill-opacity="1" filter="url(#filter-2)" xlink:href="#path-1"></use>
                <use fill="#FFFFFF" fill-rule="evenodd" xlink:href="#path-1"></use>
            </g>
            <g id="Group-5" transform="translate(11.000000, 0.000000)">
                <g id="Group-2">
                    <g id="Group" opacity="0.3">
                        <g id="Oval-6">
                            <use fill="black" fill-opacity="1" filter="url(#filter-4)" xlink:href="#path-3"></use>
                            <use fill="#FFFFFF" fill-rule="evenodd" xlink:href="#path-3"></use>
                        </g>
                    </g>
                    <ellipse id="Oval-5" stroke="#FFFFFF" stroke-width="5" fill="#DC1E65" cx="20" cy="20" rx="8" ry="8"></ellipse>
                </g>
            </g>
            <ellipse id="Oval-3" fill="#DC1E65" cx="31" cy="20" rx="13" ry="13"></ellipse>
            <polygon id="7" fill="#FFFFFF" points="34.390625 15.9697266 30.4121094 25 28.6689453 25 32.640625 16.3798828 27.4931641 16.3798828 27.4931641 15.046875 34.390625 15.046875"></polygon>
        </g>
    </g>
</svg>