<?xml version="1.0" encoding="UTF-8"?>
<svg width="66px" height="74px" viewBox="0 0 66 74" version="1.1" xmlns="http://www.w3.org/2000/svg" xmlns:xlink="http://www.w3.org/1999/xlink">
    <!-- Generator: Sketch 42 (36781) - http://www.bohemiancoding.com/sketch -->
    <title>Group 39</title>
    <desc>Created with Sketch.</desc>
    <defs>
        <path d="M5.30957031,48.1914062 L1.80566406,48.1914062 L1.80566406,50.8164062 L5.90136719,50.8164062 L5.90136719,52 L0.323242188,52 L0.323242188,43.46875 L5.86035156,43.46875 L5.86035156,44.6640625 L1.80566406,44.6640625 L1.80566406,47.0195312 L5.30957031,47.0195312 L5.30957031,48.1914062 Z M8.30957031,45.6601562 L8.35058594,46.3222656 C8.79590066,45.8027318 9.40526957,45.5429688 10.1787109,45.5429688 C11.0263714,45.5429688 11.6064437,45.8671843 11.9189453,46.515625 C12.3798851,45.8671843 13.0283161,45.5429688 13.8642578,45.5429688 C14.5634801,45.5429688 15.0839827,45.7363262 15.4257812,46.1230469 C15.7675798,46.5097676 15.9423828,47.0800744 15.9501953,47.8339844 L15.9501953,52 L14.5263672,52 L14.5263672,47.875 C14.5263672,47.4726542 14.4384774,47.1777353 14.2626953,46.9902344 C14.0869132,46.8027334 13.7959005,46.7089844 13.3896484,46.7089844 C13.0654281,46.7089844 12.8007823,46.7958976 12.5957031,46.9697266 C12.390624,47.1435556 12.2470707,47.3710923 12.1650391,47.6523438 L12.1708984,52 L10.7470703,52 L10.7470703,47.828125 C10.727539,47.0820275 10.3466834,46.7089844 9.60449219,46.7089844 C9.03417684,46.7089844 8.629884,46.9414039 8.39160156,47.40625 L8.39160156,52 L6.96777344,52 L6.96777344,45.6601562 L8.30957031,45.6601562 Z M23.0048828,50.9804688 C23.3603533,50.9804688 23.6552723,50.8769542 23.8896484,50.6699219 C24.1240246,50.4628896 24.2490234,50.2070328 24.2646484,49.9023438 L25.6064453,49.9023438 C25.5908202,50.296877 25.4677746,50.6650374 25.2373047,51.0068359 C25.0068348,51.3486345 24.6943379,51.6191396 24.2998047,51.8183594 C23.9052715,52.0175791 23.4794945,52.1171875 23.0224609,52.1171875 C22.1357378,52.1171875 21.4326198,51.830081 20.9130859,51.2558594 C20.3935521,50.6816378 20.1337891,49.8886769 20.1337891,48.8769531 L20.1337891,48.7304688 C20.1337891,47.7656202 20.391599,46.993167 20.9072266,46.4130859 C21.4228541,45.8330049 22.1259721,45.5429688 23.0166016,45.5429688 C23.7705116,45.5429688 24.3847633,45.7626931 24.859375,46.2021484 C25.3339867,46.6416038 25.5830077,47.2187464 25.6064453,47.9335938 L24.2646484,47.9335938 C24.2490234,47.5703107 24.1250012,47.2714855 23.8925781,47.0371094 C23.6601551,46.8027332 23.3642596,46.6855469 23.0048828,46.6855469 C22.543943,46.6855469 22.1884778,46.8525374 21.9384766,47.1865234 C21.6884753,47.5205095 21.5615235,48.0273404 21.5576172,48.7070312 L21.5576172,48.9355469 C21.5576172,49.6230503 21.6816394,50.1357405 21.9296875,50.4736328 C22.1777356,50.8115251 22.5361305,50.9804688 23.0048828,50.9804688 Z M28.1962891,52 L26.7724609,52 L26.7724609,45.6601562 L28.1962891,45.6601562 L28.1962891,52 Z M26.6845703,44.0136719 C26.6845703,43.7949208 26.7539056,43.613282 26.8925781,43.46875 C27.0312507,43.324218 27.2294909,43.2519531 27.4873047,43.2519531 C27.7451185,43.2519531 27.9443352,43.324218 28.0849609,43.46875 C28.2255866,43.613282 28.2958984,43.7949208 28.2958984,44.0136719 C28.2958984,44.2285167 28.2255866,44.4072258 28.0849609,44.5498047 C27.9443352,44.6923835 27.7451185,44.7636719 27.4873047,44.7636719 C27.2294909,44.7636719 27.0312507,44.6923835 26.8925781,44.5498047 C26.7539056,44.4072258 26.6845703,44.2285167 26.6845703,44.0136719 Z M31.0849609,45.6601562 L31.1259766,46.3222656 C31.5712913,45.8027318 32.1806602,45.5429688 32.9541016,45.5429688 C33.8017621,45.5429688 34.3818344,45.8671843 34.6943359,46.515625 C35.1552757,45.8671843 35.8037068,45.5429688 36.6396484,45.5429688 C37.3388707,45.5429688 37.8593733,45.7363262 38.2011719,46.1230469 C38.5429705,46.5097676 38.7177734,47.0800744 38.7255859,47.8339844 L38.7255859,52 L37.3017578,52 L37.3017578,47.875 C37.3017578,47.4726542 37.2138681,47.1777353 37.0380859,46.9902344 C36.8623038,46.8027334 36.5712911,46.7089844 36.1650391,46.7089844 C35.8408187,46.7089844 35.5761729,46.7958976 35.3710937,46.9697266 C35.1660146,47.1435556 35.0224613,47.3710923 34.9404297,47.6523438 L34.9462891,52 L33.5224609,52 L33.5224609,47.828125 C33.5029296,47.0820275 33.122074,46.7089844 32.3798828,46.7089844 C31.8095675,46.7089844 31.4052746,46.9414039 31.1669922,47.40625 L31.1669922,52 L29.7431641,52 L29.7431641,45.6601562 L31.0849609,45.6601562 Z M43.9755859,52 C43.9130856,51.8789056 43.8583987,51.681642 43.8115234,51.4082031 C43.3583962,51.8808617 42.8037142,52.1171875 42.1474609,52.1171875 C41.510739,52.1171875 40.9912129,51.9355487 40.5888672,51.5722656 C40.1865214,51.2089826 39.9853516,50.7597683 39.9853516,50.2246094 C39.9853516,49.5488247 40.2363256,49.0302752 40.7382812,48.6689453 C41.2402369,48.3076154 41.9580031,48.1269531 42.8916016,48.1269531 L43.7646484,48.1269531 L43.7646484,47.7109375 C43.7646484,47.3828109 43.6728525,47.1201182 43.4892578,46.9228516 C43.3056631,46.725585 43.0263691,46.6269531 42.6513672,46.6269531 C42.3271468,46.6269531 42.0615245,46.708007 41.8544922,46.8701172 C41.6474599,47.0322274 41.5439453,47.23828 41.5439453,47.4882812 L40.1201172,47.4882812 C40.1201172,47.1406233 40.2353504,46.8154312 40.4658203,46.5126953 C40.6962902,46.2099594 41.0097636,45.9726571 41.40625,45.8007812 C41.8027364,45.6289054 42.2451147,45.5429688 42.7333984,45.5429688 C43.4755896,45.5429688 44.0673806,45.7294903 44.5087891,46.1025391 C44.9501975,46.4755878 45.1767578,46.9999966 45.1884766,47.6757812 L45.1884766,50.5351562 C45.1884766,51.1054716 45.2685539,51.5605452 45.4287109,51.9003906 L45.4287109,52 L43.9755859,52 Z M42.4111328,50.9746094 C42.6923842,50.9746094 42.95703,50.9062507 43.2050781,50.7695312 C43.4531262,50.6328118 43.6396478,50.4492199 43.7646484,50.21875 L43.7646484,49.0234375 L42.9970703,49.0234375 C42.4697239,49.0234375 42.0732435,49.1152335 41.8076172,49.2988281 C41.5419909,49.4824228 41.4091797,49.7421858 41.4091797,50.078125 C41.4091797,50.3515639 41.4999991,50.5693351 41.6816406,50.7314453 C41.8632822,50.8935555 42.1064438,50.9746094 42.4111328,50.9746094 Z M49.4013672,48.7832031 C49.4013672,47.8066357 49.6279274,47.0224639 50.0810547,46.4306641 C50.534182,45.8388642 51.1415978,45.5429688 51.9033203,45.5429688 C52.5751987,45.5429688 53.118162,45.7773414 53.5322266,46.2460938 L53.5322266,43 L54.9560547,43 L54.9560547,52 L53.6669922,52 L53.5966797,51.34375 C53.1708963,51.8593776 52.6025426,52.1171875 51.8916016,52.1171875 C51.1494104,52.1171875 50.5488304,51.8183624 50.0898438,51.2207031 C49.6308571,50.6230439 49.4013672,49.810552 49.4013672,48.7832031 Z M50.8251953,48.90625 C50.8251953,49.5507845 50.9492175,50.0537091 51.1972656,50.4150391 C51.4453137,50.776369 51.7978493,50.9570312 52.2548828,50.9570312 C52.836917,50.9570312 53.262694,50.6972682 53.5322266,50.1777344 L53.5322266,47.4707031 C53.2705065,46.9628881 52.8486357,46.7089844 52.2666016,46.7089844 C51.8056618,46.7089844 51.4501966,46.8915997 51.2001953,47.2568359 C50.9501941,47.6220721 50.8251953,48.1718713 50.8251953,48.90625 Z M56.1748047,48.7714844 C56.1748047,48.1503875 56.2978503,47.5908228 56.5439453,47.0927734 C56.7900403,46.5947241 57.13574,46.2119154 57.5810547,45.9443359 C58.0263694,45.6767565 58.538083,45.5429688 59.1162109,45.5429688 C59.971684,45.5429688 60.666013,45.8183566 61.1992188,46.3691406 C61.7324245,46.9199246 62.0205076,47.6503861 62.0634766,48.5605469 L62.0693359,48.8945312 C62.0693359,49.5195344 61.94922,50.0781225 61.7089844,50.5703125 C61.4687488,51.0625025 61.1250022,51.443358 60.6777344,51.7128906 C60.2304665,51.9824232 59.7138701,52.1171875 59.1279297,52.1171875 C58.233394,52.1171875 57.5175808,51.8193389 56.9804688,51.2236328 C56.4433567,50.6279267 56.1748047,49.8339893 56.1748047,48.8417969 L56.1748047,48.7714844 Z M57.5986328,48.8945312 C57.5986328,49.5468783 57.7333971,50.0576153 58.0029297,50.4267578 C58.2724623,50.7959003 58.6474585,50.9804688 59.1279297,50.9804688 C59.6084008,50.9804688 59.9824205,50.7929706 60.25,50.4179688 C60.5175795,50.0429669 60.6513672,49.4941442 60.6513672,48.7714844 C60.6513672,48.1308562 60.5136733,47.6230487 60.2382812,47.2480469 C59.9628892,46.873045 59.5888696,46.6855469 59.1162109,46.6855469 C58.6513649,46.6855469 58.2822279,46.8701153 58.0087891,47.2392578 C57.7353502,47.6084003 57.5986328,48.1601526 57.5986328,48.8945312 Z M6.64257812,64.9804688 C6.99804865,64.9804688 7.29296758,64.8769542 7.52734375,64.6699219 C7.76171992,64.4628896 7.88671867,64.2070328 7.90234375,63.9023438 L9.24414062,63.9023438 C9.22851555,64.296877 9.1054699,64.6650374 8.875,65.0068359 C8.6445301,65.3486345 8.33203322,65.6191396 7.9375,65.8183594 C7.54296678,66.0175791 7.11718979,66.1171875 6.66015625,66.1171875 C5.77343307,66.1171875 5.0703151,65.830081 4.55078125,65.2558594 C4.0312474,64.6816378 3.77148438,63.8886769 3.77148438,62.8769531 L3.77148438,62.7304688 C3.77148438,61.7656202 4.0292943,60.993167 4.54492188,60.4130859 C5.06054945,59.8330049 5.76366742,59.5429688 6.65429688,59.5429688 C7.40820689,59.5429688 8.02245856,59.7626931 8.49707031,60.2021484 C8.97168206,60.6416038 9.22070301,61.2187464 9.24414062,61.9335938 L7.90234375,61.9335938 C7.88671867,61.5703107 7.76269647,61.2714855 7.53027344,61.0371094 C7.2978504,60.8027332 7.00195492,60.6855469 6.64257812,60.6855469 C6.18163832,60.6855469 5.82617313,60.8525374 5.57617188,61.1865234 C5.32617062,61.5205095 5.19921877,62.0273404 5.1953125,62.7070312 L5.1953125,62.9355469 C5.1953125,63.6230503 5.3193347,64.1357405 5.56738281,64.4736328 C5.81543093,64.8115251 6.17382578,64.9804688 6.64257812,64.9804688 Z M11.7226562,60.3515625 C12.1875023,59.8124973 12.7753871,59.5429688 13.4863281,59.5429688 C14.8378974,59.5429688 15.5234374,60.3144454 15.5429688,61.8574219 L15.5429688,66 L14.1191406,66 L14.1191406,61.9101562 C14.1191406,61.4726541 14.024415,61.1630868 13.8349609,60.9814453 C13.6455069,60.7998038 13.3671893,60.7089844 13,60.7089844 C12.4296846,60.7089844 12.0039077,60.9628881 11.7226562,61.4707031 L11.7226562,66 L10.2988281,66 L10.2988281,57 L11.7226562,57 L11.7226562,60.3515625 Z M20.7695312,66 C20.7070309,65.8789056 20.652344,65.681642 20.6054688,65.4082031 C20.1523415,65.8808617 19.5976595,66.1171875 18.9414062,66.1171875 C18.3046843,66.1171875 17.7851583,65.9355487 17.3828125,65.5722656 C16.9804667,65.2089826 16.7792969,64.7597683 16.7792969,64.2246094 C16.7792969,63.5488247 17.0302709,63.0302752 17.5322266,62.6689453 C18.0341822,62.3076154 18.7519485,62.1269531 19.6855469,62.1269531 L20.5585938,62.1269531 L20.5585938,61.7109375 C20.5585938,61.3828109 20.4667978,61.1201182 20.2832031,60.9228516 C20.0996085,60.725585 19.8203144,60.6269531 19.4453125,60.6269531 C19.1210921,60.6269531 18.8554698,60.708007 18.6484375,60.8701172 C18.4414052,61.0322274 18.3378906,61.23828 18.3378906,61.4882812 L16.9140625,61.4882812 C16.9140625,61.1406233 17.0292957,60.8154312 17.2597656,60.5126953 C17.4902355,60.2099594 17.803709,59.9726571 18.2001953,59.8007812 C18.5966817,59.6289054 19.0390601,59.5429688 19.5273438,59.5429688 C20.269535,59.5429688 20.8613259,59.7294903 21.3027344,60.1025391 C21.7441428,60.4755878 21.9707031,60.9999966 21.9824219,61.6757812 L21.9824219,64.5351562 C21.9824219,65.1054716 22.0624992,65.5605452 22.2226562,65.9003906 L22.2226562,66 L20.7695312,66 Z M19.2050781,64.9746094 C19.4863295,64.9746094 19.7509753,64.9062507 19.9990234,64.7695312 C20.2470716,64.6328118 20.4335931,64.4492199 20.5585938,64.21875 L20.5585938,63.0234375 L19.7910156,63.0234375 C19.2636692,63.0234375 18.8671888,63.1152335 18.6015625,63.2988281 C18.3359362,63.4824228 18.203125,63.7421858 18.203125,64.078125 C18.203125,64.3515639 18.2939444,64.5693351 18.4755859,64.7314453 C18.6572275,64.8935555 18.9003891,64.9746094 19.2050781,64.9746094 Z M21.7246094,57.1289062 C21.7246094,57.5585959 21.6005872,57.9160142 21.3525391,58.2011719 C21.1044909,58.4863296 20.7929706,58.6289062 20.4179688,58.6289062 C20.2656242,58.6289062 20.1337896,58.6123049 20.0224609,58.5791016 C19.9111323,58.5458983 19.7529307,58.4707037 19.5478516,58.3535156 C19.3427724,58.2363275 19.1982426,58.1660157 19.1142578,58.1425781 C19.030273,58.1191405 18.9375005,58.1074219 18.8359375,58.1074219 C18.6874993,58.1074219 18.561524,58.1630854 18.4580078,58.2744141 C18.3544917,58.3857427 18.3027344,58.5312491 18.3027344,58.7109375 L17.4296875,58.6640625 C17.4296875,58.2343729 17.5537097,57.8730483 17.8017578,57.5800781 C18.0498059,57.2871079 18.3593731,57.140625 18.7304688,57.140625 C18.9531261,57.140625 19.2216781,57.2285147 19.5361328,57.4042969 C19.8505875,57.580079 20.109374,57.6679688 20.3125,57.6679688 C20.4609382,57.6679688 20.5878901,57.6123052 20.6933594,57.5009766 C20.7988287,57.3896479 20.8515625,57.2421884 20.8515625,57.0585938 L21.7246094,57.1289062 Z M23.2070312,62.7714844 C23.2070312,62.1503875 23.3300769,61.5908228 23.5761719,61.0927734 C23.8222669,60.5947241 24.1679665,60.2119154 24.6132812,59.9443359 C25.058596,59.6767565 25.5703096,59.5429688 26.1484375,59.5429688 C27.0039105,59.5429688 27.6982395,59.8183566 28.2314453,60.3691406 C28.7646511,60.9199246 29.0527342,61.6503861 29.0957031,62.5605469 L29.1015625,62.8945312 C29.1015625,63.5195344 28.9814465,64.0781225 28.7412109,64.5703125 C28.5009754,65.0625025 28.1572288,65.443358 27.7099609,65.7128906 C27.2626931,65.9824232 26.7460967,66.1171875 26.1601562,66.1171875 C25.2656205,66.1171875 24.5498074,65.8193389 24.0126953,65.2236328 C23.4755833,64.6279267 23.2070312,63.8339893 23.2070312,62.8417969 L23.2070312,62.7714844 Z M24.6308594,62.8945312 C24.6308594,63.5468783 24.7656237,64.0576153 25.0351562,64.4267578 C25.3046888,64.7959003 25.6796851,64.9804688 26.1601562,64.9804688 C26.6406274,64.9804688 27.0146471,64.7929706 27.2822266,64.4179688 C27.549806,64.0429669 27.6835938,63.4941442 27.6835938,62.7714844 C27.6835938,62.1308562 27.5458998,61.6230487 27.2705078,61.2480469 C26.9951158,60.873045 26.6210961,60.6855469 26.1484375,60.6855469 C25.6835914,60.6855469 25.3144545,60.8701153 25.0410156,61.2392578 C24.7675768,61.6084003 24.6308594,62.1601526 24.6308594,62.8945312 Z M35.7285156,57.28125 L34.7617188,57.28125 L34.7617188,66.7910156 L35.7285156,66.7910156 L35.7285156,67.8984375 L33.3378906,67.8984375 L33.3378906,56.1679688 L35.7285156,56.1679688 L35.7285156,57.28125 Z M45.15625,58.2597656 L41.7460938,66 L40.2519531,66 L43.65625,58.6113281 L39.2441406,58.6113281 L39.2441406,57.46875 L45.15625,57.46875 L45.15625,58.2597656 Z M51.953125,62.8945312 C51.953125,63.8789112 51.7334006,64.6621065 51.2939453,65.2441406 C50.85449,65.8261748 50.2500038,66.1171875 49.4804688,66.1171875 C48.7382775,66.1171875 48.1601583,65.8496121 47.7460938,65.3144531 L47.6757812,66 L46.3867188,66 L46.3867188,57 L47.8105469,57 L47.8105469,60.2695312 C48.2207052,59.7851538 48.773434,59.5429688 49.46875,59.5429688 C50.2421914,59.5429688 50.8496072,59.8300753 51.2910156,60.4042969 C51.7324241,60.9785185 51.953125,61.7812448 51.953125,62.8125 L51.953125,62.8945312 Z M50.5292969,62.7714844 C50.5292969,62.0839809 50.4082043,61.5683611 50.1660156,61.2246094 C49.9238269,60.8808577 49.5722679,60.7089844 49.1113281,60.7089844 C48.4941375,60.7089844 48.0605481,60.9785129 47.8105469,61.5175781 L47.8105469,64.1308594 C48.0644544,64.6816434 48.50195,64.9570312 49.1230469,64.9570312 C49.5683616,64.9570312 49.9121082,64.7910173 50.1542969,64.4589844 C50.3964856,64.1269515 50.5214843,63.6250034 50.5292969,62.953125 L50.5292969,62.7714844 Z M55.4746094,56.1679688 L57.8769531,56.1679688 L57.8769531,67.8984375 L55.4746094,67.8984375 L55.4746094,66.7910156 L56.453125,66.7910156 L56.453125,57.28125 L55.4746094,57.28125 L55.4746094,56.1679688 Z" id="path-1"></path>
        <filter x="-50%" y="-50%" width="200%" height="200%" filterUnits="objectBoundingBox" id="filter-2">
            <feOffset dx="0" dy="2" in="SourceAlpha" result="shadowOffsetOuter1"></feOffset>
            <feGaussianBlur stdDeviation="1" in="shadowOffsetOuter1" result="shadowBlurOuter1"></feGaussianBlur>
            <feColorMatrix values="0 0 0 0 0   0 0 0 0 0   0 0 0 0 0  0 0 0 0.5 0" type="matrix" in="shadowBlurOuter1"></feColorMatrix>
        </filter>
        <ellipse id="path-3" cx="20" cy="20" rx="20" ry="20"></ellipse>
        <filter x="-50%" y="-50%" width="200%" height="200%" filterUnits="objectBoundingBox" id="filter-4">
            <feOffset dx="0" dy="2" in="SourceAlpha" result="shadowOffsetOuter1"></feOffset>
            <feGaussianBlur stdDeviation="2" in="shadowOffsetOuter1" result="shadowBlurOuter1"></feGaussianBlur>
            <feColorMatrix values="0 0 0 0 0   0 0 0 0 0   0 0 0 0 0  0 0 0 0.5 0" type="matrix" in="shadowBlurOuter1"></feColorMatrix>
        </filter>
    </defs>
    <g id="Page-1" stroke="none" stroke-width="1" fill="none" fill-rule="evenodd">
        <g id="Group-39" transform="translate(2.000000, 2.000000)">
            <g id="Em-cima-do-chão-[-7b">
                <use fill="black" fill-opacity="1" filter="url(#filter-2)" xlink:href="#path-1"></use>
                <use fill="#FFFFFF" fill-rule="evenodd" xlink:href="#path-1"></use>
            </g>
            <g id="Group-5" transform="translate(9.000000, 0.000000)">
                <g id="Group-2">
                    <g id="Group" opacity="0.3">
                        <g id="Oval-6">
                            <use fill="black" fill-opacity="1" filter="url(#filter-4)" xlink:href="#path-3"></use>
                            <use fill="#FFFFFF" fill-rule="evenodd" xlink:href="#path-3"></use>
                        </g>
                    </g>
                    <ellipse id="Oval-5" stroke="#FFFFFF" stroke-width="5" fill="#DC1E65" cx="20" cy="20" rx="8" ry="8"></ellipse>
                </g>
            </g>
            <ellipse id="Oval-3" fill="#DC1E65" cx="29" cy="20" rx="13" ry="13"></ellipse>
            <path d="M31.3857422,21.4521484 L32.6230469,21.4521484 L32.6230469,22.7851562 L31.3857422,22.7851562 L31.3857422,25 L29.7246094,25 L29.7246094,22.7851562 L25.4248047,22.7851562 L25.3769531,21.7734375 L29.6699219,15.046875 L31.3857422,15.046875 L31.3857422,21.4521484 Z M27.1201172,21.4521484 L29.7246094,21.4521484 L29.7246094,17.2958984 L29.6015625,17.5146484 L27.1201172,21.4521484 Z" id="4" fill="#FFFFFF"></path>
        </g>
    </g>
</svg>