<?xml version="1.0" encoding="UTF-8"?>
<svg width="57px" height="73px" viewBox="0 0 57 73" version="1.1" xmlns="http://www.w3.org/2000/svg" xmlns:xlink="http://www.w3.org/1999/xlink">
    <!-- Generator: Sketch 42 (36781) - http://www.bohemiancoding.com/sketch -->
    <title>Group 48</title>
    <desc>Created with Sketch.</desc>
    <defs>
        <path d="M2.84570312,42.46875 L5.30664062,49.0078125 L7.76171875,42.46875 L9.67773438,42.46875 L9.67773438,51 L8.20117188,51 L8.20117188,48.1875 L8.34765625,44.4257812 L5.828125,51 L4.76757812,51 L2.25390625,44.4316406 L2.40039062,48.1875 L2.40039062,51 L0.923828125,51 L0.923828125,42.46875 L2.84570312,42.46875 Z M12.8066406,51 L11.3828125,51 L11.3828125,44.6601562 L12.8066406,44.6601562 L12.8066406,51 Z M11.2949219,43.0136719 C11.2949219,42.7949208 11.3642571,42.613282 11.5029297,42.46875 C11.6416023,42.324218 11.8398425,42.2519531 12.0976562,42.2519531 C12.35547,42.2519531 12.5546868,42.324218 12.6953125,42.46875 C12.8359382,42.613282 12.90625,42.7949208 12.90625,43.0136719 C12.90625,43.2285167 12.8359382,43.4072258 12.6953125,43.5498047 C12.5546868,43.6923835 12.35547,43.7636719 12.0976562,43.7636719 C11.8398425,43.7636719 11.6416023,43.6923835 11.5029297,43.5498047 C11.3642571,43.4072258 11.2949219,43.2285167 11.2949219,43.0136719 Z M15.8710938,51 L14.4472656,51 L14.4472656,42 L15.8710938,42 L15.8710938,51 Z M22.0292969,47.8300781 L22.0292969,51 L20.546875,51 L20.546875,42.46875 L23.8105469,42.46875 C24.7636766,42.46875 25.520505,42.7167944 26.0810547,43.2128906 C26.6416044,43.7089869 26.921875,44.3652303 26.921875,45.1816406 C26.921875,46.0175823 26.6474637,46.6679664 26.0986328,47.1328125 C25.5498019,47.5976586 24.7812549,47.8300781 23.7929688,47.8300781 L22.0292969,47.8300781 Z M22.0292969,46.640625 L23.8105469,46.640625 C24.3378933,46.640625 24.740233,46.5166028 25.0175781,46.2685547 C25.2949233,46.0205066 25.4335938,45.6621117 25.4335938,45.1933594 C25.4335938,44.7324196 25.2929702,44.3642592 25.0117188,44.0888672 C24.7304673,43.8134752 24.3437525,43.671875 23.8515625,43.6640625 L22.0292969,43.6640625 L22.0292969,46.640625 Z M29.59375,51 L28.1699219,51 L28.1699219,44.6601562 L29.59375,44.6601562 L29.59375,51 Z M28.0820312,43.0136719 C28.0820312,42.7949208 28.1513665,42.613282 28.2900391,42.46875 C28.4287116,42.324218 28.6269518,42.2519531 28.8847656,42.2519531 C29.1425794,42.2519531 29.3417962,42.324218 29.4824219,42.46875 C29.6230476,42.613282 29.6933594,42.7949208 29.6933594,43.0136719 C29.6933594,43.2285167 29.6230476,43.4072258 29.4824219,43.5498047 C29.3417962,43.6923835 29.1425794,43.7636719 28.8847656,43.7636719 C28.6269518,43.7636719 28.4287116,43.6923835 28.2900391,43.5498047 C28.1513665,43.4072258 28.0820312,43.2285167 28.0820312,43.0136719 Z M32.6582031,51 L31.234375,51 L31.234375,42 L32.6582031,42 L32.6582031,51 Z M33.9414062,47.7714844 C33.9414062,47.1503875 34.0644519,46.5908228 34.3105469,46.0927734 C34.5566419,45.5947241 34.9023415,45.2119154 35.3476562,44.9443359 C35.792971,44.6767565 36.3046846,44.5429688 36.8828125,44.5429688 C37.7382855,44.5429688 38.4326145,44.8183566 38.9658203,45.3691406 C39.4990261,45.9199246 39.7871092,46.6503861 39.8300781,47.5605469 L39.8359375,47.8945312 C39.8359375,48.5195344 39.7158215,49.0781225 39.4755859,49.5703125 C39.2353504,50.0625025 38.8916038,50.443358 38.4443359,50.7128906 C37.9970681,50.9824232 37.4804717,51.1171875 36.8945312,51.1171875 C35.9999955,51.1171875 35.2841824,50.8193389 34.7470703,50.2236328 C34.2099583,49.6279267 33.9414062,48.8339893 33.9414062,47.8417969 L33.9414062,47.7714844 Z M35.3652344,47.8945312 C35.3652344,48.5468783 35.4999987,49.0576153 35.7695312,49.4267578 C36.0390638,49.7959003 36.4140601,49.9804688 36.8945312,49.9804688 C37.3750024,49.9804688 37.7490221,49.7929706 38.0166016,49.4179688 C38.284181,49.0429669 38.4179688,48.4941442 38.4179688,47.7714844 C38.4179688,47.1308562 38.2802748,46.6230487 38.0048828,46.2480469 C37.7294908,45.873045 37.3554711,45.6855469 36.8828125,45.6855469 C36.4179664,45.6855469 36.0488295,45.8701153 35.7753906,46.2392578 C35.5019518,46.6084003 35.3652344,47.1601526 35.3652344,47.8945312 Z M39.0039062,42.1289062 C39.0039062,42.5585959 38.8798841,42.9160142 38.6318359,43.2011719 C38.3837878,43.4863296 38.0722675,43.6289062 37.6972656,43.6289062 C37.5449211,43.6289062 37.4130865,43.6123049 37.3017578,43.5791016 C37.1904291,43.5458983 37.0322276,43.4707037 36.8271484,43.3535156 C36.6220693,43.2363275 36.4775395,43.1660157 36.3935547,43.1425781 C36.3095699,43.1191405 36.2167974,43.1074219 36.1152344,43.1074219 C35.9667961,43.1074219 35.8408208,43.1630854 35.7373047,43.2744141 C35.6337885,43.3857427 35.5820312,43.5312491 35.5820312,43.7109375 L34.7089844,43.6640625 C34.7089844,43.2343729 34.8330066,42.8730483 35.0810547,42.5800781 C35.3291028,42.2871079 35.63867,42.140625 36.0097656,42.140625 C36.232423,42.140625 36.500975,42.2285147 36.8154297,42.4042969 C37.1298844,42.580079 37.3886709,42.6679688 37.5917969,42.6679688 C37.7402351,42.6679688 37.867187,42.6123052 37.9726562,42.5009766 C38.0781255,42.3896479 38.1308594,42.2421884 38.1308594,42.0585938 L39.0039062,42.1289062 Z M43.8320312,51.1171875 C42.929683,51.1171875 42.198245,50.8330107 41.6376953,50.2646484 C41.0771456,49.6962862 40.796875,48.9394579 40.796875,47.9941406 L40.796875,47.8183594 C40.796875,47.1855437 40.9189441,46.6201197 41.1630859,46.1220703 C41.4072278,45.6240209 41.7499978,45.2363295 42.1914062,44.9589844 C42.6328147,44.6816392 43.1249973,44.5429688 43.6679688,44.5429688 C44.5312543,44.5429688 45.1982398,44.8183566 45.6689453,45.3691406 C46.1396508,45.9199246 46.375,46.6992137 46.375,47.7070312 L46.375,48.28125 L42.2324219,48.28125 C42.2753908,48.8046901 42.4501938,49.2187485 42.7568359,49.5234375 C43.0634781,49.8281265 43.4492164,49.9804688 43.9140625,49.9804688 C44.5664095,49.9804688 45.0976542,49.7167995 45.5078125,49.1894531 L46.2753906,49.921875 C46.0214831,50.3007831 45.6826193,50.5947255 45.2587891,50.8037109 C44.8349588,51.0126964 44.3593776,51.1171875 43.8320312,51.1171875 Z M43.6621094,45.6855469 C43.2714824,45.6855469 42.9560559,45.8222643 42.7158203,46.0957031 C42.4755847,46.369142 42.322266,46.7499976 42.2558594,47.2382812 L44.96875,47.2382812 L44.96875,47.1328125 C44.9374998,46.6562476 44.810548,46.2958997 44.5878906,46.0517578 C44.3652333,45.807616 44.0566426,45.6855469 43.6621094,45.6855469 Z M51.0332031,49.2773438 C51.0332031,49.0234362 50.928712,48.8300788 50.7197266,48.6972656 C50.5107411,48.5644525 50.1640649,48.4472661 49.6796875,48.3457031 C49.1953101,48.2441401 48.7910172,48.1152352 48.4667969,47.9589844 C47.7558558,47.6152327 47.4003906,47.1171908 47.4003906,46.4648438 C47.4003906,45.917966 47.6308571,45.4609393 48.0917969,45.09375 C48.5527367,44.7265607 49.1386683,44.5429688 49.8496094,44.5429688 C50.6074257,44.5429688 51.2197242,44.7304669 51.6865234,45.1054688 C52.1533226,45.4804706 52.3867188,45.9667939 52.3867188,46.5644531 L50.9628906,46.5644531 C50.9628906,46.2910143 50.8613291,46.0634775 50.6582031,45.8818359 C50.4550771,45.7001944 50.1855486,45.609375 49.8496094,45.609375 C49.5371078,45.609375 49.2822275,45.6816399 49.0849609,45.8261719 C48.8876943,45.9707038 48.7890625,46.1640613 48.7890625,46.40625 C48.7890625,46.6250011 48.8808585,46.7949213 49.0644531,46.9160156 C49.2480478,47.03711 49.6191378,47.1591791 50.1777344,47.2822266 C50.7363309,47.4052741 51.1748031,47.551757 51.4931641,47.7216797 C51.811525,47.8916024 52.0478508,48.0957019 52.2021484,48.3339844 C52.3564461,48.5722668 52.4335938,48.8613264 52.4335938,49.2011719 C52.4335938,49.7714872 52.197268,50.2333967 51.7246094,50.5869141 C51.2519508,50.9404315 50.6328163,51.1171875 49.8671875,51.1171875 C49.3476537,51.1171875 48.8847677,51.0234384 48.4785156,50.8359375 C48.0722636,50.6484366 47.7558605,50.3906266 47.5292969,50.0625 C47.3027332,49.7343734 47.1894531,49.3808613 47.1894531,49.0019531 L48.5722656,49.0019531 C48.591797,49.3378923 48.7187488,49.5966788 48.953125,49.7783203 C49.1875012,49.9599618 49.4980449,50.0507812 49.8847656,50.0507812 C50.2597675,50.0507812 50.5449209,49.9794929 50.7402344,49.8369141 C50.9355479,49.6943352 51.0332031,49.5078137 51.0332031,49.2773438 Z M16.8378906,56.28125 L15.8710938,56.28125 L15.8710938,65.7910156 L16.8378906,65.7910156 L16.8378906,66.8984375 L14.4472656,66.8984375 L14.4472656,55.1679688 L16.8378906,55.1679688 L16.8378906,56.28125 Z M25.9609375,58.71875 C25.9609375,59.1367208 25.8535167,59.5087874 25.6386719,59.8349609 C25.4238271,60.1611344 25.1308612,60.4179678 24.7597656,60.6054688 C25.2050804,60.812501 25.5478504,61.0957013 25.7880859,61.4550781 C26.0283215,61.8144549 26.1484375,62.2207009 26.1484375,62.6738281 C26.1484375,63.4238319 25.8945338,64.0185525 25.3867188,64.4580078 C24.8789037,64.8974631 24.2031292,65.1171875 23.359375,65.1171875 C22.5117145,65.1171875 21.8330104,64.8964866 21.3232422,64.4550781 C20.813474,64.0136697 20.5585938,63.4199256 20.5585938,62.6738281 C20.5585938,62.2167946 20.6796863,61.8066424 20.921875,61.4433594 C21.1640637,61.0800763 21.5039041,60.8007822 21.9414062,60.6054688 C21.5742169,60.4179678 21.2841808,60.1611344 21.0712891,59.8349609 C20.8583974,59.5087874 20.7519531,59.1367208 20.7519531,58.71875 C20.7519531,57.9921839 20.9863258,57.4160178 21.4550781,56.9902344 C21.9238305,56.564451 22.5566366,56.3515625 23.3535156,56.3515625 C24.1543009,56.3515625 24.7890602,56.564451 25.2578125,56.9902344 C25.7265648,57.4160178 25.9609375,57.9921839 25.9609375,58.71875 Z M24.7246094,62.6035156 C24.7246094,62.1816385 24.5986341,61.8408216 24.3466797,61.5810547 C24.0947253,61.3212878 23.7617208,61.1914062 23.3476562,61.1914062 C22.9335917,61.1914062 22.6025403,61.3203112 22.3544922,61.578125 C22.1064441,61.8359388 21.9824219,62.1777322 21.9824219,62.6035156 C21.9824219,63.0214865 22.104491,63.3554675 22.3486328,63.6054688 C22.5927747,63.85547 22.9296854,63.9804688 23.359375,63.9804688 C23.7890646,63.9804688 24.1240222,63.8593762 24.3642578,63.6171875 C24.6044934,63.3749988 24.7246094,63.0371115 24.7246094,62.6035156 Z M24.5429688,58.7714844 C24.5429688,58.4003888 24.4355479,58.0947278 24.2207031,57.8544922 C24.0058583,57.6142566 23.7167987,57.4941406 23.3535156,57.4941406 C22.9902326,57.4941406 22.7031261,57.6083973 22.4921875,57.8369141 C22.2812489,58.0654308 22.1757812,58.3769512 22.1757812,58.7714844 C22.1757812,59.1621113 22.2822255,59.4726551 22.4951172,59.703125 C22.7080089,59.9335949 22.9960919,60.0488281 23.359375,60.0488281 C23.7226581,60.0488281 24.0107411,59.9335949 24.2236328,59.703125 C24.4365245,59.4726551 24.5429688,59.1621113 24.5429688,58.7714844 Z M30.1035156,63.9804688 C30.4589862,63.9804688 30.7539051,63.8769542 30.9882812,63.6699219 C31.2226574,63.4628896 31.3476562,63.2070328 31.3632812,62.9023438 L32.7050781,62.9023438 C32.689453,63.296877 32.5664074,63.6650374 32.3359375,64.0068359 C32.1054676,64.3486345 31.7929707,64.6191396 31.3984375,64.8183594 C31.0039043,65.0175791 30.5781273,65.1171875 30.1210938,65.1171875 C29.2343706,65.1171875 28.5312526,64.830081 28.0117188,64.2558594 C27.4921849,63.6816378 27.2324219,62.8886769 27.2324219,61.8769531 L27.2324219,61.7304688 C27.2324219,60.7656202 27.4902318,59.993167 28.0058594,59.4130859 C28.521487,58.8330049 29.2246049,58.5429688 30.1152344,58.5429688 C30.8691444,58.5429688 31.4833961,58.7626931 31.9580078,59.2021484 C32.4326196,59.6416038 32.6816405,60.2187464 32.7050781,60.9335938 L31.3632812,60.9335938 C31.3476562,60.5703107 31.223634,60.2714855 30.9912109,60.0371094 C30.7587879,59.8027332 30.4628924,59.6855469 30.1035156,59.6855469 C29.6425758,59.6855469 29.2871106,59.8525374 29.0371094,60.1865234 C28.7871081,60.5205095 28.6601563,61.0273404 28.65625,61.7070312 L28.65625,61.9355469 C28.65625,62.6230503 28.7802722,63.1357405 29.0283203,63.4736328 C29.2763684,63.8115251 29.6347633,63.9804688 30.1035156,63.9804688 Z M36.109375,55.1679688 L38.5117188,55.1679688 L38.5117188,66.8984375 L36.109375,66.8984375 L36.109375,65.7910156 L37.0878906,65.7910156 L37.0878906,56.28125 L36.109375,56.28125 L36.109375,55.1679688 Z" id="path-1"></path>
        <filter x="-50%" y="-50%" width="200%" height="200%" filterUnits="objectBoundingBox" id="filter-2">
            <feOffset dx="0" dy="2" in="SourceAlpha" result="shadowOffsetOuter1"></feOffset>
            <feGaussianBlur stdDeviation="1" in="shadowOffsetOuter1" result="shadowBlurOuter1"></feGaussianBlur>
            <feColorMatrix values="0 0 0 0 0   0 0 0 0 0   0 0 0 0 0  0 0 0 0.5 0" type="matrix" in="shadowBlurOuter1"></feColorMatrix>
        </filter>
        <circle id="path-3" cx="20" cy="20" r="20"></circle>
        <filter x="-50%" y="-50%" width="200%" height="200%" filterUnits="objectBoundingBox" id="filter-4">
            <feOffset dx="0" dy="2" in="SourceAlpha" result="shadowOffsetOuter1"></feOffset>
            <feGaussianBlur stdDeviation="2" in="shadowOffsetOuter1" result="shadowBlurOuter1"></feGaussianBlur>
            <feColorMatrix values="0 0 0 0 0   0 0 0 0 0   0 0 0 0 0  0 0 0 0.5 0" type="matrix" in="shadowBlurOuter1"></feColorMatrix>
        </filter>
    </defs>
    <g id="Page-1" stroke="none" stroke-width="1" fill="none" fill-rule="evenodd">
        <g id="Group-48" transform="translate(2.000000, 2.000000)">
            <g id="Mil-Pilões-[-8c-]">
                <use fill="black" fill-opacity="1" filter="url(#filter-2)" xlink:href="#path-1"></use>
                <use fill="#FFFFFF" fill-rule="evenodd" xlink:href="#path-1"></use>
            </g>
            <g id="Group-5" transform="translate(6.000000, 0.000000)">
                <g id="Group-2">
                    <g id="Group" opacity="0.3">
                        <g id="Oval-6">
                            <use fill="black" fill-opacity="1" filter="url(#filter-4)" xlink:href="#path-3"></use>
                            <use fill="#FFFFFF" fill-rule="evenodd" xlink:href="#path-3"></use>
                        </g>
                    </g>
                    <circle id="Oval-5" stroke="#FFFFFF" stroke-width="5" fill="#DC1E65" cx="20" cy="20" r="8"></circle>
                </g>
            </g>
            <ellipse id="Oval-3" fill="#DC1E65" cx="26" cy="20" rx="13" ry="13"></ellipse>
            <ellipse id="Oval-3" fill="#DC1E65" cx="26" cy="20" rx="13" ry="13"></ellipse>
            <path d="M23.6738281,24 L22.2558594,24 L22.2558594,17.1503906 L20.1640625,17.8652344 L20.1640625,16.6640625 L23.4921875,15.4394531 L23.6738281,15.4394531 L23.6738281,24 Z M32.3164062,16.2597656 L28.90625,24 L27.4121094,24 L30.8164062,16.6113281 L26.4042969,16.6113281 L26.4042969,15.46875 L32.3164062,15.46875 L32.3164062,16.2597656 Z" id="17" fill="#FFFFFF"></path>
        </g>
    </g>
</svg>