<?xml version="1.0" encoding="UTF-8"?>
<svg width="68px" height="73px" viewBox="0 0 68 73" version="1.1" xmlns="http://www.w3.org/2000/svg" xmlns:xlink="http://www.w3.org/1999/xlink">
    <!-- Generator: Sketch 42 (36781) - http://www.bohemiancoding.com/sketch -->
    <title>Group 51</title>
    <desc>Created with Sketch.</desc>
    <defs>
        <path d="M1.61132812,47.8300781 L1.61132812,51 L0.12890625,51 L0.12890625,42.46875 L3.39257812,42.46875 C4.34570789,42.46875 5.10253626,42.7167944 5.66308594,43.2128906 C6.22363562,43.7089869 6.50390625,44.3652303 6.50390625,45.1816406 C6.50390625,46.0175823 6.22949493,46.6679664 5.68066406,47.1328125 C5.13183319,47.5976586 4.36328619,47.8300781 3.375,47.8300781 L1.61132812,47.8300781 Z M1.61132812,46.640625 L3.39257812,46.640625 C3.91992451,46.640625 4.32226424,46.5166028 4.59960938,46.2685547 C4.87695451,46.0205066 5.015625,45.6621117 5.015625,45.1933594 C5.015625,44.7324196 4.87500141,44.3642592 4.59375,44.0888672 C4.31249859,43.8134752 3.92578371,43.671875 3.43359375,43.6640625 L1.61132812,43.6640625 L1.61132812,46.640625 Z M7.31835938,47.7714844 C7.31835938,47.1503875 7.44140502,46.5908228 7.6875,46.0927734 C7.93359498,45.5947241 8.27929465,45.2119154 8.72460938,44.9443359 C9.1699241,44.6767565 9.68163773,44.5429688 10.2597656,44.5429688 C11.1152387,44.5429688 11.8095676,44.8183566 12.3427734,45.3691406 C12.8759792,45.9199246 13.1640623,46.6503861 13.2070312,47.5605469 L13.2128906,47.8945312 C13.2128906,48.5195344 13.0927746,49.0781225 12.8525391,49.5703125 C12.6123035,50.0625025 12.2685569,50.443358 11.8212891,50.7128906 C11.3740212,50.9824232 10.8574248,51.1171875 10.2714844,51.1171875 C9.37694865,51.1171875 8.6611355,50.8193389 8.12402344,50.2236328 C7.58691138,49.6279267 7.31835938,48.8339893 7.31835938,47.8417969 L7.31835938,47.7714844 Z M8.7421875,47.8945312 C8.7421875,48.5468783 8.87695178,49.0576153 9.14648438,49.4267578 C9.41601697,49.7959003 9.79101322,49.9804688 10.2714844,49.9804688 C10.7519555,49.9804688 11.1259752,49.7929706 11.3935547,49.4179688 C11.6611342,49.0429669 11.7949219,48.4941442 11.7949219,47.7714844 C11.7949219,47.1308562 11.6572279,46.6230487 11.3818359,46.2480469 C11.1064439,45.873045 10.7324242,45.6855469 10.2597656,45.6855469 C9.79491955,45.6855469 9.42578262,45.8701153 9.15234375,46.2392578 C8.87890488,46.6084003 8.7421875,47.1601526 8.7421875,47.8945312 Z M17.7363281,45.9609375 C17.5488272,45.9296873 17.3554697,45.9140625 17.15625,45.9140625 C16.503903,45.9140625 16.0644543,46.16406 15.8378906,46.6640625 L15.8378906,51 L14.4140625,51 L14.4140625,44.6601562 L15.7734375,44.6601562 L15.8085938,45.3691406 C16.1523455,44.8183566 16.6289032,44.5429688 17.2382812,44.5429688 C17.4414073,44.5429688 17.6093743,44.5703122 17.7421875,44.625 L17.7363281,45.9609375 Z M21.1289062,49.9804688 C21.4843768,49.9804688 21.7792957,49.8769542 22.0136719,49.6699219 C22.248048,49.4628896 22.3730468,49.2070328 22.3886719,48.9023438 L23.7304688,48.9023438 C23.7148437,49.296877 23.591798,49.6650374 23.3613281,50.0068359 C23.1308582,50.3486345 22.8183613,50.6191396 22.4238281,50.8183594 C22.0292949,51.0175791 21.6035179,51.1171875 21.1464844,51.1171875 C20.2597612,51.1171875 19.5566432,50.830081 19.0371094,50.2558594 C18.5175755,49.6816378 18.2578125,48.8886769 18.2578125,47.8769531 L18.2578125,47.7304688 C18.2578125,46.7656202 18.5156224,45.993167 19.03125,45.4130859 C19.5468776,44.8330049 20.2499955,44.5429688 21.140625,44.5429688 C21.894535,44.5429688 22.5087867,44.7626931 22.9833984,45.2021484 C23.4580102,45.6416038 23.7070311,46.2187464 23.7304688,46.9335938 L22.3886719,46.9335938 C22.3730468,46.5703107 22.2490246,46.2714855 22.0166016,46.0371094 C21.7841785,45.8027332 21.488283,45.6855469 21.1289062,45.6855469 C20.6679664,45.6855469 20.3125013,45.8525374 20.0625,46.1865234 C19.8124987,46.5205095 19.6855469,47.0273404 19.6816406,47.7070312 L19.6816406,47.9355469 C19.6816406,48.6230503 19.8056628,49.1357405 20.0537109,49.4736328 C20.3017591,49.8115251 20.6601539,49.9804688 21.1289062,49.9804688 Z M28.59375,51 C28.5312497,50.8789056 28.4765627,50.681642 28.4296875,50.4082031 C27.9765602,50.8808617 27.4218783,51.1171875 26.765625,51.1171875 C26.1289031,51.1171875 25.609377,50.9355487 25.2070312,50.5722656 C24.8046855,50.2089826 24.6035156,49.7597683 24.6035156,49.2246094 C24.6035156,48.5488247 24.8544897,48.0302752 25.3564453,47.6689453 C25.8584009,47.3076154 26.5761672,47.1269531 27.5097656,47.1269531 L28.3828125,47.1269531 L28.3828125,46.7109375 C28.3828125,46.3828109 28.2910165,46.1201182 28.1074219,45.9228516 C27.9238272,45.725585 27.6445331,45.6269531 27.2695312,45.6269531 C26.9453109,45.6269531 26.6796885,45.708007 26.4726562,45.8701172 C26.265624,46.0322274 26.1621094,46.23828 26.1621094,46.4882812 L24.7382812,46.4882812 C24.7382812,46.1406233 24.8535145,45.8154312 25.0839844,45.5126953 C25.3144543,45.2099594 25.6279277,44.9726571 26.0244141,44.8007812 C26.4209004,44.6289054 26.8632788,44.5429688 27.3515625,44.5429688 C28.0937537,44.5429688 28.6855447,44.7294903 29.1269531,45.1025391 C29.5683616,45.4755878 29.7949218,45.9999966 29.8066406,46.6757812 L29.8066406,49.5351562 C29.8066406,50.1054716 29.8867179,50.5605452 30.046875,50.9003906 L30.046875,51 L28.59375,51 Z M27.0292969,49.9746094 C27.3105483,49.9746094 27.5751941,49.9062507 27.8232422,49.7695312 C28.0712903,49.6328118 28.2578119,49.4492199 28.3828125,49.21875 L28.3828125,48.0234375 L27.6152344,48.0234375 C27.087888,48.0234375 26.6914076,48.1152335 26.4257812,48.2988281 C26.1601549,48.4824228 26.0273438,48.7421858 26.0273438,49.078125 C26.0273438,49.3515639 26.1181632,49.5693351 26.2998047,49.7314453 C26.4814462,49.8935555 26.7246079,49.9746094 27.0292969,49.9746094 Z M35.90625,47.8300781 L35.90625,51 L34.4238281,51 L34.4238281,42.46875 L37.6875,42.46875 C38.6406298,42.46875 39.3974581,42.7167944 39.9580078,43.2128906 C40.5185575,43.7089869 40.7988281,44.3652303 40.7988281,45.1816406 C40.7988281,46.0175823 40.5244168,46.6679664 39.9755859,47.1328125 C39.4267551,47.5976586 38.6582081,47.8300781 37.6699219,47.8300781 L35.90625,47.8300781 Z M35.90625,46.640625 L37.6875,46.640625 C38.2148464,46.640625 38.6171861,46.5166028 38.8945312,46.2685547 C39.1718764,46.0205066 39.3105469,45.6621117 39.3105469,45.1933594 C39.3105469,44.7324196 39.1699233,44.3642592 38.8886719,44.0888672 C38.6074205,43.8134752 38.2207056,43.671875 37.7285156,43.6640625 L35.90625,43.6640625 L35.90625,46.640625 Z M43.4707031,51 L42.046875,51 L42.046875,44.6601562 L43.4707031,44.6601562 L43.4707031,51 Z M41.9589844,43.0136719 C41.9589844,42.7949208 42.0283196,42.613282 42.1669922,42.46875 C42.3056648,42.324218 42.503905,42.2519531 42.7617188,42.2519531 C43.0195325,42.2519531 43.2187493,42.324218 43.359375,42.46875 C43.5000007,42.613282 43.5703125,42.7949208 43.5703125,43.0136719 C43.5703125,43.2285167 43.5000007,43.4072258 43.359375,43.5498047 C43.2187493,43.6923835 43.0195325,43.7636719 42.7617188,43.7636719 C42.503905,43.7636719 42.3056648,43.6923835 42.1669922,43.5498047 C42.0283196,43.4072258 41.9589844,43.2285167 41.9589844,43.0136719 Z M44.7714844,47.7832031 C44.7714844,46.7988232 45.0029274,46.0126983 45.4658203,45.4248047 C45.9287133,44.8369111 46.5429649,44.5429688 47.3085938,44.5429688 C48.0312536,44.5429688 48.5996073,44.7949194 49.0136719,45.2988281 L49.078125,44.6601562 L50.3613281,44.6601562 L50.3613281,50.8066406 C50.3613281,51.638676 50.1025417,52.2949195 49.5849609,52.7753906 C49.0673802,53.2558618 48.369145,53.4960938 47.4902344,53.4960938 C47.0253883,53.4960938 46.5712913,53.399415 46.1279297,53.2060547 C45.6845681,53.0126943 45.3476574,52.7597672 45.1171875,52.4472656 L45.7910156,51.5917969 C46.2285178,52.1113307 46.7675749,52.3710938 47.4082031,52.3710938 C47.8808617,52.3710938 48.2539049,52.2431653 48.5273438,51.9873047 C48.8007826,51.731444 48.9375,51.3554712 48.9375,50.859375 L48.9375,50.4316406 C48.5273417,50.8886742 47.9804722,51.1171875 47.296875,51.1171875 C46.5546838,51.1171875 45.9482445,50.8222686 45.4775391,50.2324219 C45.0068336,49.6425752 44.7714844,48.8261771 44.7714844,47.7832031 Z M46.1894531,47.90625 C46.1894531,48.5429719 46.3193346,49.0439435 46.5791016,49.4091797 C46.8388685,49.7744159 47.1992164,49.9570312 47.6601562,49.9570312 C48.2343779,49.9570312 48.6601549,49.71094 48.9375,49.21875 L48.9375,46.4296875 C48.6679674,45.9492163 48.2460966,45.7089844 47.671875,45.7089844 C47.2031227,45.7089844 46.8388685,45.8945294 46.5791016,46.265625 C46.3193346,46.6367206 46.1894531,47.1835901 46.1894531,47.90625 Z M51.5742188,47.7832031 C51.5742188,46.7988232 51.8056617,46.0126983 52.2685547,45.4248047 C52.7314476,44.8369111 53.3456993,44.5429688 54.1113281,44.5429688 C54.833988,44.5429688 55.4023417,44.7949194 55.8164062,45.2988281 L55.8808594,44.6601562 L57.1640625,44.6601562 L57.1640625,50.8066406 C57.1640625,51.638676 56.905276,52.2949195 56.3876953,52.7753906 C55.8701146,53.2558618 55.1718794,53.4960938 54.2929688,53.4960938 C53.8281227,53.4960938 53.3740257,53.399415 52.9306641,53.2060547 C52.4873025,53.0126943 52.1503918,52.7597672 51.9199219,52.4472656 L52.59375,51.5917969 C53.0312522,52.1113307 53.5703093,52.3710938 54.2109375,52.3710938 C54.6835961,52.3710938 55.0566393,52.2431653 55.3300781,51.9873047 C55.603517,51.731444 55.7402344,51.3554712 55.7402344,50.859375 L55.7402344,50.4316406 C55.3300761,50.8886742 54.7832065,51.1171875 54.0996094,51.1171875 C53.3574182,51.1171875 52.7509789,50.8222686 52.2802734,50.2324219 C51.809568,49.6425752 51.5742188,48.8261771 51.5742188,47.7832031 Z M52.9921875,47.90625 C52.9921875,48.5429719 53.122069,49.0439435 53.3818359,49.4091797 C53.6416029,49.7744159 54.0019508,49.9570312 54.4628906,49.9570312 C55.0371122,49.9570312 55.4628892,49.71094 55.7402344,49.21875 L55.7402344,46.4296875 C55.4707018,45.9492163 55.048831,45.7089844 54.4746094,45.7089844 C54.005857,45.7089844 53.6416029,45.8945294 53.3818359,46.265625 C53.122069,46.6367206 52.9921875,47.1835901 52.9921875,47.90625 Z M60.84375,48.9609375 L62.1328125,44.6601562 L63.6503906,44.6601562 L61.1308594,51.9609375 C60.7441387,53.0273491 60.0878953,53.5605469 59.1621094,53.5605469 C58.9550771,53.5605469 58.7265638,53.525391 58.4765625,53.4550781 L58.4765625,52.3535156 L58.7460938,52.3710938 C59.1054705,52.3710938 59.3759757,52.3056647 59.5576172,52.1748047 C59.7392587,52.0439447 59.882812,51.8242203 59.9882812,51.515625 L60.1933594,50.9707031 L57.9667969,44.6601562 L59.5019531,44.6601562 L60.84375,48.9609375 Z M21.7324219,56.28125 L20.765625,56.28125 L20.765625,65.7910156 L21.7324219,65.7910156 L21.7324219,66.8984375 L19.3417969,66.8984375 L19.3417969,55.1679688 L21.7324219,55.1679688 L21.7324219,56.28125 Z M30.8554688,58.71875 C30.8554688,59.1367208 30.7480479,59.5087874 30.5332031,59.8349609 C30.3183583,60.1611344 30.0253925,60.4179678 29.6542969,60.6054688 C30.0996116,60.812501 30.4423816,61.0957013 30.6826172,61.4550781 C30.9228528,61.8144549 31.0429688,62.2207009 31.0429688,62.6738281 C31.0429688,63.4238319 30.789065,64.0185525 30.28125,64.4580078 C29.773435,64.8974631 29.0976605,65.1171875 28.2539062,65.1171875 C27.4062458,65.1171875 26.7275416,64.8964866 26.2177734,64.4550781 C25.7080053,64.0136697 25.453125,63.4199256 25.453125,62.6738281 C25.453125,62.2167946 25.5742175,61.8066424 25.8164062,61.4433594 C26.058595,61.0800763 26.3984353,60.8007822 26.8359375,60.6054688 C26.4687482,60.4179678 26.178712,60.1611344 25.9658203,59.8349609 C25.7529286,59.5087874 25.6464844,59.1367208 25.6464844,58.71875 C25.6464844,57.9921839 25.880857,57.4160178 26.3496094,56.9902344 C26.8183617,56.564451 27.4511679,56.3515625 28.2480469,56.3515625 C29.0488321,56.3515625 29.6835914,56.564451 30.1523438,56.9902344 C30.6210961,57.4160178 30.8554688,57.9921839 30.8554688,58.71875 Z M29.6191406,62.6035156 C29.6191406,62.1816385 29.4931653,61.8408216 29.2412109,61.5810547 C28.9892566,61.3212878 28.6562521,61.1914062 28.2421875,61.1914062 C27.8281229,61.1914062 27.4970716,61.3203112 27.2490234,61.578125 C27.0009753,61.8359388 26.8769531,62.1777322 26.8769531,62.6035156 C26.8769531,63.0214865 26.9990222,63.3554675 27.2431641,63.6054688 C27.4873059,63.85547 27.8242166,63.9804688 28.2539062,63.9804688 C28.6835959,63.9804688 29.0185535,63.8593762 29.2587891,63.6171875 C29.4990246,63.3749988 29.6191406,63.0371115 29.6191406,62.6035156 Z M29.4375,58.7714844 C29.4375,58.4003888 29.3300792,58.0947278 29.1152344,57.8544922 C28.9003896,57.6142566 28.6113299,57.4941406 28.2480469,57.4941406 C27.8847638,57.4941406 27.5976573,57.6083973 27.3867188,57.8369141 C27.1757802,58.0654308 27.0703125,58.3769512 27.0703125,58.7714844 C27.0703125,59.1621113 27.1767567,59.4726551 27.3896484,59.703125 C27.6025401,59.9335949 27.8906232,60.0488281 28.2539062,60.0488281 C28.6171893,60.0488281 28.9052724,59.9335949 29.1181641,59.703125 C29.3310558,59.4726551 29.4375,59.1621113 29.4375,58.7714844 Z M36.1816406,65 C36.1191403,64.8789056 36.0644534,64.681642 36.0175781,64.4082031 C35.5644509,64.8808617 35.0097689,65.1171875 34.3535156,65.1171875 C33.7167937,65.1171875 33.1972676,64.9355487 32.7949219,64.5722656 C32.3925761,64.2089826 32.1914062,63.7597683 32.1914062,63.2246094 C32.1914062,62.5488247 32.4423803,62.0302752 32.9443359,61.6689453 C33.4462916,61.3076154 34.1640578,61.1269531 35.0976562,61.1269531 L35.9707031,61.1269531 L35.9707031,60.7109375 C35.9707031,60.3828109 35.8789072,60.1201182 35.6953125,59.9228516 C35.5117178,59.725585 35.2324237,59.6269531 34.8574219,59.6269531 C34.5332015,59.6269531 34.2675792,59.708007 34.0605469,59.8701172 C33.8535146,60.0322274 33.75,60.23828 33.75,60.4882812 L32.3261719,60.4882812 C32.3261719,60.1406233 32.4414051,59.8154312 32.671875,59.5126953 C32.9023449,59.2099594 33.2158183,58.9726571 33.6123047,58.8007812 C34.008791,58.6289054 34.4511694,58.5429688 34.9394531,58.5429688 C35.6816443,58.5429688 36.2734353,58.7294903 36.7148438,59.1025391 C37.1562522,59.4755878 37.3828124,59.9999966 37.3945312,60.6757812 L37.3945312,63.5351562 C37.3945312,64.1054716 37.4746086,64.5605452 37.6347656,64.9003906 L37.6347656,65 L36.1816406,65 Z M34.6171875,63.9746094 C34.8984389,63.9746094 35.1630847,63.9062507 35.4111328,63.7695312 C35.6591809,63.6328118 35.8457025,63.4492199 35.9707031,63.21875 L35.9707031,62.0234375 L35.203125,62.0234375 C34.6757786,62.0234375 34.2792982,62.1152335 34.0136719,62.2988281 C33.7480455,62.4824228 33.6152344,62.7421858 33.6152344,63.078125 C33.6152344,63.3515639 33.7060538,63.5693351 33.8876953,63.7314453 C34.0693368,63.8935555 34.3124985,63.9746094 34.6171875,63.9746094 Z M41.2148438,55.1679688 L43.6171875,55.1679688 L43.6171875,66.8984375 L41.2148438,66.8984375 L41.2148438,65.7910156 L42.1933594,65.7910156 L42.1933594,56.28125 L41.2148438,56.28125 L41.2148438,55.1679688 Z" id="path-1"></path>
        <filter x="-50%" y="-50%" width="200%" height="200%" filterUnits="objectBoundingBox" id="filter-2">
            <feOffset dx="0" dy="2" in="SourceAlpha" result="shadowOffsetOuter1"></feOffset>
            <feGaussianBlur stdDeviation="1" in="shadowOffsetOuter1" result="shadowBlurOuter1"></feGaussianBlur>
            <feColorMatrix values="0 0 0 0 0   0 0 0 0 0   0 0 0 0 0  0 0 0 0.5 0" type="matrix" in="shadowBlurOuter1"></feColorMatrix>
        </filter>
        <circle id="path-3" cx="20" cy="20" r="20"></circle>
        <filter x="-50%" y="-50%" width="200%" height="200%" filterUnits="objectBoundingBox" id="filter-4">
            <feOffset dx="0" dy="2" in="SourceAlpha" result="shadowOffsetOuter1"></feOffset>
            <feGaussianBlur stdDeviation="2" in="shadowOffsetOuter1" result="shadowBlurOuter1"></feGaussianBlur>
            <feColorMatrix values="0 0 0 0 0   0 0 0 0 0   0 0 0 0 0  0 0 0 0.5 0" type="matrix" in="shadowBlurOuter1"></feColorMatrix>
        </filter>
    </defs>
    <g id="Page-1" stroke="none" stroke-width="1" fill="none" fill-rule="evenodd">
        <g id="Group-51" transform="translate(2.000000, 2.000000)">
            <g id="Porca-Piggy-[-8a-]">
                <use fill="black" fill-opacity="1" filter="url(#filter-2)" xlink:href="#path-1"></use>
                <use fill="#FFFFFF" fill-rule="evenodd" xlink:href="#path-1"></use>
            </g>
            <g id="Group-5" transform="translate(10.000000, 0.000000)">
                <g id="Group-2">
                    <g id="Group" opacity="0.3">
                        <g id="Oval-6">
                            <use fill="black" fill-opacity="1" filter="url(#filter-4)" xlink:href="#path-3"></use>
                            <use fill="#FFFFFF" fill-rule="evenodd" xlink:href="#path-3"></use>
                        </g>
                    </g>
                    <circle id="Oval-5" stroke="#FFFFFF" stroke-width="5" fill="#DC1E65" cx="20" cy="20" r="8"></circle>
                </g>
            </g>
            <ellipse id="Oval-3" fill="#DC1E65" cx="30" cy="20" rx="13" ry="13"></ellipse>
            <ellipse id="Oval-3" fill="#DC1E65" cx="30" cy="20" rx="13" ry="13"></ellipse>
            <path d="M27.6738281,24 L26.2558594,24 L26.2558594,17.1503906 L24.1640625,17.8652344 L24.1640625,16.6640625 L27.4921875,15.4394531 L27.6738281,15.4394531 L27.6738281,24 Z M35.4550781,20.9589844 L36.515625,20.9589844 L36.515625,22.1015625 L35.4550781,22.1015625 L35.4550781,24 L34.03125,24 L34.03125,22.1015625 L30.3457031,22.1015625 L30.3046875,21.234375 L33.984375,15.46875 L35.4550781,15.46875 L35.4550781,20.9589844 Z M31.7988281,20.9589844 L34.03125,20.9589844 L34.03125,17.3964844 L33.9257812,17.5839844 L31.7988281,20.9589844 Z" id="14" fill="#FFFFFF"></path>
        </g>
    </g>
</svg>