<?xml version="1.0" encoding="UTF-8"?>
<svg width="48px" height="74px" viewBox="0 0 48 74" version="1.1" xmlns="http://www.w3.org/2000/svg" xmlns:xlink="http://www.w3.org/1999/xlink">
    <!-- Generator: Sketch 42 (36781) - http://www.bohemiancoding.com/sketch -->
    <title>Group 59</title>
    <desc>Created with Sketch.</desc>
    <defs>
        <path d="M7.39746094,48.2226562 C7.31152301,49.1328171 6.97558887,49.8427709 6.38964844,50.3525391 C5.80370801,50.8623072 5.02441893,51.1171875 4.05175781,51.1171875 C3.37206691,51.1171875 2.77344009,50.9560563 2.25585938,50.6337891 C1.73827866,50.3115218 1.33886859,49.8535186 1.05761719,49.2597656 C0.776365781,48.6660127 0.629882871,47.9765664 0.618164062,47.1914062 L0.618164062,46.3945312 C0.618164062,45.5898397 0.760740762,44.8808624 1.04589844,44.2675781 C1.33105611,43.6542938 1.74023171,43.1816423 2.2734375,42.8496094 C2.80664329,42.5175765 3.42284807,42.3515625 4.12207031,42.3515625 C5.06348127,42.3515625 5.82128619,42.6074193 6.39550781,43.1191406 C6.96972943,43.6308619 7.30371047,44.353511 7.39746094,45.2871094 L5.92089844,45.2871094 C5.85058559,44.6738251 5.67187644,44.2314467 5.38476562,43.9599609 C5.09765481,43.6884752 4.67676059,43.5527344 4.12207031,43.5527344 C3.47753584,43.5527344 2.9824236,43.7880836 2.63671875,44.2587891 C2.2910139,44.7294945 2.11425785,45.4199173 2.10644531,46.3300781 L2.10644531,47.0859375 C2.10644531,48.0078171 2.27148272,48.7109351 2.6015625,49.1953125 C2.93164228,49.6796899 3.41503588,49.921875 4.05175781,49.921875 C4.63379197,49.921875 5.0712876,49.7910169 5.36425781,49.5292969 C5.65722803,49.2675768 5.84277305,48.8320343 5.92089844,48.2226562 L7.39746094,48.2226562 Z M12.3720703,51 C12.30957,50.8789056 12.254883,50.681642 12.2080078,50.4082031 C11.7548805,50.8808617 11.2001986,51.1171875 10.5439453,51.1171875 C9.90722338,51.1171875 9.38769732,50.9355487 8.98535156,50.5722656 C8.5830058,50.2089826 8.38183594,49.7597683 8.38183594,49.2246094 C8.38183594,48.5488247 8.63280999,48.0302752 9.13476562,47.6689453 C9.63672126,47.3076154 10.3544875,47.1269531 11.2880859,47.1269531 L12.1611328,47.1269531 L12.1611328,46.7109375 C12.1611328,46.3828109 12.0693369,46.1201182 11.8857422,45.9228516 C11.7021475,45.725585 11.4228534,45.6269531 11.0478516,45.6269531 C10.7236312,45.6269531 10.4580088,45.708007 10.2509766,45.8701172 C10.0439443,46.0322274 9.94042969,46.23828 9.94042969,46.4882812 L8.51660156,46.4882812 C8.51660156,46.1406233 8.63183479,45.8154312 8.86230469,45.5126953 C9.09277459,45.2099594 9.40624802,44.9726571 9.80273438,44.8007812 C10.1992207,44.6289054 10.6415991,44.5429688 11.1298828,44.5429688 C11.872074,44.5429688 12.463865,44.7294903 12.9052734,45.1025391 C13.3466819,45.4755878 13.5732421,45.9999966 13.5849609,46.6757812 L13.5849609,49.5351562 C13.5849609,50.1054716 13.6650383,50.5605452 13.8251953,50.9003906 L13.8251953,51 L12.3720703,51 Z M10.8076172,49.9746094 C11.0888686,49.9746094 11.3535144,49.9062507 11.6015625,49.7695312 C11.8496106,49.6328118 12.0361322,49.4492199 12.1611328,49.21875 L12.1611328,48.0234375 L11.3935547,48.0234375 C10.8662083,48.0234375 10.4697279,48.1152335 10.2041016,48.2988281 C9.93847523,48.4824228 9.80566406,48.7421858 9.80566406,49.078125 C9.80566406,49.3515639 9.89648347,49.5693351 10.078125,49.7314453 C10.2597665,49.8935555 10.5029282,49.9746094 10.8076172,49.9746094 Z M16.8603516,43.1191406 L16.8603516,44.6601562 L17.9794922,44.6601562 L17.9794922,45.7148438 L16.8603516,45.7148438 L16.8603516,49.2539062 C16.8603516,49.496095 16.9082026,49.6708979 17.0039062,49.7783203 C17.0996099,49.8857427 17.2705066,49.9394531 17.5166016,49.9394531 C17.6806649,49.9394531 17.8466788,49.9199221 18.0146484,49.8808594 L18.0146484,50.9824219 C17.6904281,51.0722661 17.3779312,51.1171875 17.0771484,51.1171875 C15.983393,51.1171875 15.4365234,50.5136779 15.4365234,49.3066406 L15.4365234,45.7148438 L14.3935547,45.7148438 L14.3935547,44.6601562 L15.4365234,44.6601562 L15.4365234,43.1191406 L16.8603516,43.1191406 Z M22.8544922,51 C22.7919919,50.8789056 22.7373049,50.681642 22.6904297,50.4082031 C22.2373024,50.8808617 21.6826205,51.1171875 21.0263672,51.1171875 C20.3896453,51.1171875 19.8701192,50.9355487 19.4677734,50.5722656 C19.0654277,50.2089826 18.8642578,49.7597683 18.8642578,49.2246094 C18.8642578,48.5488247 19.1152319,48.0302752 19.6171875,47.6689453 C20.1191431,47.3076154 20.8369094,47.1269531 21.7705078,47.1269531 L22.6435547,47.1269531 L22.6435547,46.7109375 C22.6435547,46.3828109 22.5517587,46.1201182 22.3681641,45.9228516 C22.1845694,45.725585 21.9052753,45.6269531 21.5302734,45.6269531 C21.2060531,45.6269531 20.9404307,45.708007 20.7333984,45.8701172 C20.5263662,46.0322274 20.4228516,46.23828 20.4228516,46.4882812 L18.9990234,46.4882812 C18.9990234,46.1406233 19.1142567,45.8154312 19.3447266,45.5126953 C19.5751965,45.2099594 19.8886699,44.9726571 20.2851562,44.8007812 C20.6816426,44.6289054 21.124021,44.5429688 21.6123047,44.5429688 C22.3544959,44.5429688 22.9462869,44.7294903 23.3876953,45.1025391 C23.8291038,45.4755878 24.055664,45.9999966 24.0673828,46.6757812 L24.0673828,49.5351562 C24.0673828,50.1054716 24.1474601,50.5605452 24.3076172,50.9003906 L24.3076172,51 L22.8544922,51 Z M21.2900391,49.9746094 C21.5712905,49.9746094 21.8359363,49.9062507 22.0839844,49.7695312 C22.3320325,49.6328118 22.5185541,49.4492199 22.6435547,49.21875 L22.6435547,48.0234375 L21.8759766,48.0234375 C21.3486302,48.0234375 20.9521498,48.1152335 20.6865234,48.2988281 C20.4208971,48.4824228 20.2880859,48.7421858 20.2880859,49.078125 C20.2880859,49.3515639 20.3789053,49.5693351 20.5605469,49.7314453 C20.7421884,49.8935555 20.98535,49.9746094 21.2900391,49.9746094 Z M27.3427734,43.1191406 L27.3427734,44.6601562 L28.4619141,44.6601562 L28.4619141,45.7148438 L27.3427734,45.7148438 L27.3427734,49.2539062 C27.3427734,49.496095 27.3906245,49.6708979 27.4863281,49.7783203 C27.5820317,49.8857427 27.7529285,49.9394531 27.9990234,49.9394531 C28.1630868,49.9394531 28.3291007,49.9199221 28.4970703,49.8808594 L28.4970703,50.9824219 C28.1728499,51.0722661 27.8603531,51.1171875 27.5595703,51.1171875 C26.4658148,51.1171875 25.9189453,50.5136779 25.9189453,49.3066406 L25.9189453,45.7148438 L24.8759766,45.7148438 L24.8759766,44.6601562 L25.9189453,44.6601562 L25.9189453,43.1191406 L27.3427734,43.1191406 Z M33.3369141,51 C33.2744137,50.8789056 33.2197268,50.681642 33.1728516,50.4082031 C32.7197243,50.8808617 32.1650423,51.1171875 31.5087891,51.1171875 C30.8720671,51.1171875 30.3525411,50.9355487 29.9501953,50.5722656 C29.5478496,50.2089826 29.3466797,49.7597683 29.3466797,49.2246094 C29.3466797,48.5488247 29.5976537,48.0302752 30.0996094,47.6689453 C30.601565,47.3076154 31.3193313,47.1269531 32.2529297,47.1269531 L33.1259766,47.1269531 L33.1259766,46.7109375 C33.1259766,46.3828109 33.0341806,46.1201182 32.8505859,45.9228516 C32.6669913,45.725585 32.3876972,45.6269531 32.0126953,45.6269531 C31.6884749,45.6269531 31.4228526,45.708007 31.2158203,45.8701172 C31.008788,46.0322274 30.9052734,46.23828 30.9052734,46.4882812 L29.4814453,46.4882812 C29.4814453,46.1406233 29.5966785,45.8154312 29.8271484,45.5126953 C30.0576183,45.2099594 30.3710918,44.9726571 30.7675781,44.8007812 C31.1640645,44.6289054 31.6064429,44.5429688 32.0947266,44.5429688 C32.8369178,44.5429688 33.4287087,44.7294903 33.8701172,45.1025391 C34.3115256,45.4755878 34.5380859,45.9999966 34.5498047,46.6757812 L34.5498047,49.5351562 C34.5498047,50.1054716 34.629882,50.5605452 34.7900391,50.9003906 L34.7900391,51 L33.3369141,51 Z M31.7724609,49.9746094 C32.0537123,49.9746094 32.3183581,49.9062507 32.5664062,49.7695312 C32.8144544,49.6328118 33.0009759,49.4492199 33.1259766,49.21875 L33.1259766,48.0234375 L32.3583984,48.0234375 C31.8310521,48.0234375 31.4345716,48.1152335 31.1689453,48.2988281 C30.903319,48.4824228 30.7705078,48.7421858 30.7705078,49.078125 C30.7705078,49.3515639 30.8613272,49.5693351 31.0429688,49.7314453 C31.2246103,49.8935555 31.4677719,49.9746094 31.7724609,49.9746094 Z M39.8818359,50.3789062 C39.4638651,50.8710962 38.870121,51.1171875 38.1005859,51.1171875 C37.4130825,51.1171875 36.8925799,50.9160176 36.5390625,50.5136719 C36.1855451,50.1113261 36.0087891,49.5293007 36.0087891,48.7675781 L36.0087891,44.6601562 L37.4326172,44.6601562 L37.4326172,48.75 C37.4326172,49.5546915 37.7665982,49.9570312 38.4345703,49.9570312 C39.12598,49.9570312 39.5927722,49.7089869 39.8349609,49.2128906 L39.8349609,44.6601562 L41.2587891,44.6601562 L41.2587891,51 L39.9169922,51 L39.8818359,50.3789062 Z M4.66992188,56.28125 L3.703125,56.28125 L3.703125,65.7910156 L4.66992188,65.7910156 L4.66992188,66.8984375 L2.27929688,66.8984375 L2.27929688,55.1679688 L4.66992188,55.1679688 L4.66992188,56.28125 Z M12.8496094,56.4277344 L12.8496094,57.6054688 L12.6738281,57.6054688 C11.8769491,57.6171876 11.2402368,57.8359354 10.7636719,58.2617188 C10.287107,58.6875021 10.0039067,59.2910117 9.9140625,60.0722656 C10.371096,59.5917945 10.9550746,59.3515625 11.6660156,59.3515625 C12.4199256,59.3515625 13.0146463,59.6171848 13.4501953,60.1484375 C13.8857444,60.6796902 14.1035156,61.3652302 14.1035156,62.2050781 C14.1035156,63.07227 13.8486354,63.7744114 13.3388672,64.3115234 C12.829099,64.8486355 12.1601604,65.1171875 11.3320312,65.1171875 C10.4804645,65.1171875 9.79004171,64.8027375 9.26074219,64.1738281 C8.73144267,63.5449187 8.46679688,62.7207082 8.46679688,61.7011719 L8.46679688,61.2148438 C8.46679688,59.7187425 8.83105104,58.5468792 9.55957031,57.6992188 C10.2880896,56.8515583 11.3359307,56.4277344 12.703125,56.4277344 L12.8496094,56.4277344 Z M11.3203125,60.5 C11.0078109,60.5 10.721681,60.5878897 10.4619141,60.7636719 C10.2021471,60.939454 10.0117194,61.1738267 9.890625,61.4667969 L9.890625,61.9003906 C9.890625,62.5332063 10.0234362,63.0361309 10.2890625,63.4091797 C10.5546888,63.7822284 10.8984354,63.96875 11.3203125,63.96875 C11.7421896,63.96875 12.0761706,63.8105485 12.3222656,63.4941406 C12.5683606,63.1777328 12.6914062,62.7617213 12.6914062,62.2460938 C12.6914062,61.7304662 12.5664075,61.3105485 12.3164062,60.9863281 C12.066405,60.6621078 11.7343771,60.5 11.3203125,60.5 Z M18.8847656,63.2773438 C18.8847656,63.0234362 18.7802745,62.8300788 18.5712891,62.6972656 C18.3623036,62.5644525 18.0156274,62.4472661 17.53125,62.3457031 C17.0468726,62.2441401 16.6425797,62.1152352 16.3183594,61.9589844 C15.6074183,61.6152327 15.2519531,61.1171908 15.2519531,60.4648438 C15.2519531,59.917966 15.4824196,59.4609393 15.9433594,59.09375 C16.4042992,58.7265607 16.9902308,58.5429688 17.7011719,58.5429688 C18.4589882,58.5429688 19.0712867,58.7304669 19.5380859,59.1054688 C20.0048851,59.4804706 20.2382812,59.9667939 20.2382812,60.5644531 L18.8144531,60.5644531 C18.8144531,60.2910143 18.7128916,60.0634775 18.5097656,59.8818359 C18.3066396,59.7001944 18.0371111,59.609375 17.7011719,59.609375 C17.3886703,59.609375 17.13379,59.6816399 16.9365234,59.8261719 C16.7392568,59.9707038 16.640625,60.1640613 16.640625,60.40625 C16.640625,60.6250011 16.732421,60.7949213 16.9160156,60.9160156 C17.0996103,61.03711 17.4707003,61.1591791 18.0292969,61.2822266 C18.5878934,61.4052741 19.0263656,61.551757 19.3447266,61.7216797 C19.6630875,61.8916024 19.8994133,62.0957019 20.0537109,62.3339844 C20.2080086,62.5722668 20.2851562,62.8613264 20.2851562,63.2011719 C20.2851562,63.7714872 20.0488305,64.2333967 19.5761719,64.5869141 C19.1035133,64.9404315 18.4843788,65.1171875 17.71875,65.1171875 C17.1992162,65.1171875 16.7363302,65.0234384 16.3300781,64.8359375 C15.9238261,64.6484366 15.607423,64.3906266 15.3808594,64.0625 C15.1542957,63.7343734 15.0410156,63.3808613 15.0410156,63.0019531 L16.4238281,63.0019531 C16.4433595,63.3378923 16.5703113,63.5966788 16.8046875,63.7783203 C17.0390637,63.9599618 17.3496074,64.0507812 17.7363281,64.0507812 C18.11133,64.0507812 18.3964834,63.9794929 18.5917969,63.8369141 C18.7871104,63.6943352 18.8847656,63.5078137 18.8847656,63.2773438 Z M25.3652344,64.3789062 C24.9472635,64.8710962 24.3535195,65.1171875 23.5839844,65.1171875 C22.8964809,65.1171875 22.3759783,64.9160176 22.0224609,64.5136719 C21.6689435,64.1113261 21.4921875,63.5293007 21.4921875,62.7675781 L21.4921875,58.6601562 L22.9160156,58.6601562 L22.9160156,62.75 C22.9160156,63.5546915 23.2499967,63.9570312 23.9179688,63.9570312 C24.6093785,63.9570312 25.0761707,63.7089869 25.3183594,63.2128906 L25.3183594,58.6601562 L26.7421875,58.6601562 L26.7421875,65 L25.4003906,65 L25.3652344,64.3789062 Z M33.7441406,61.8945312 C33.7441406,62.8750049 33.5214866,63.6572236 33.0761719,64.2412109 C32.6308571,64.8251982 32.0332069,65.1171875 31.2832031,65.1171875 C30.5878871,65.1171875 30.0312521,64.8886742 29.6132812,64.4316406 L29.6132812,67.4375 L28.1894531,67.4375 L28.1894531,58.6601562 L29.5019531,58.6601562 L29.5605469,59.3046875 C29.9785177,58.7968725 30.5468714,58.5429688 31.265625,58.5429688 C32.0390664,58.5429688 32.6455056,58.8310518 33.0849609,59.4072266 C33.5244163,59.9834013 33.7441406,60.783198 33.7441406,61.8066406 L33.7441406,61.8945312 Z M32.3261719,61.7714844 C32.3261719,61.1386687 32.2001966,60.6367206 31.9482422,60.265625 C31.6962878,59.8945294 31.3359398,59.7089844 30.8671875,59.7089844 C30.2851533,59.7089844 29.8671888,59.9492163 29.6132812,60.4296875 L29.6132812,63.2421875 C29.871095,63.7343775 30.2929658,63.9804688 30.8789062,63.9804688 C31.3320335,63.9804688 31.6865222,63.7978534 31.9423828,63.4326172 C32.1982435,63.067381 32.3261719,62.5136756 32.3261719,61.7714844 Z M37.2773438,55.1679688 L39.6796875,55.1679688 L39.6796875,66.8984375 L37.2773438,66.8984375 L37.2773438,65.7910156 L38.2558594,65.7910156 L38.2558594,56.28125 L37.2773438,56.28125 L37.2773438,55.1679688 Z" id="path-1"></path>
        <filter x="-50%" y="-50%" width="200%" height="200%" filterUnits="objectBoundingBox" id="filter-2">
            <feOffset dx="0" dy="2" in="SourceAlpha" result="shadowOffsetOuter1"></feOffset>
            <feGaussianBlur stdDeviation="1" in="shadowOffsetOuter1" result="shadowBlurOuter1"></feGaussianBlur>
            <feColorMatrix values="0 0 0 0 0   0 0 0 0 0   0 0 0 0 0  0 0 0 0.5 0" type="matrix" in="shadowBlurOuter1"></feColorMatrix>
        </filter>
        <circle id="path-3" cx="20" cy="20" r="20"></circle>
        <filter x="-50%" y="-50%" width="200%" height="200%" filterUnits="objectBoundingBox" id="filter-4">
            <feOffset dx="0" dy="2" in="SourceAlpha" result="shadowOffsetOuter1"></feOffset>
            <feGaussianBlur stdDeviation="2" in="shadowOffsetOuter1" result="shadowBlurOuter1"></feGaussianBlur>
            <feColorMatrix values="0 0 0 0 0   0 0 0 0 0   0 0 0 0 0  0 0 0 0.5 0" type="matrix" in="shadowBlurOuter1"></feColorMatrix>
        </filter>
    </defs>
    <g id="Page-1" stroke="none" stroke-width="1" fill="none" fill-rule="evenodd">
        <g id="Group-59" transform="translate(3.000000, 2.000000)">
            <g id="Catatau-[-6sup-]">
                <use fill="black" fill-opacity="1" filter="url(#filter-2)" xlink:href="#path-1"></use>
                <use fill="#FFFFFF" fill-rule="evenodd" xlink:href="#path-1"></use>
            </g>
            <g id="Group-5" transform="translate(1.000000, 0.000000)">
                <g id="Group-2">
                    <g id="Group" opacity="0.3">
                        <g id="Oval-6">
                            <use fill="black" fill-opacity="1" filter="url(#filter-4)" xlink:href="#path-3"></use>
                            <use fill="#FFFFFF" fill-rule="evenodd" xlink:href="#path-3"></use>
                        </g>
                    </g>
                    <circle id="Oval-5" stroke="#FFFFFF" stroke-width="5" fill="#DC1E65" cx="20" cy="20" r="8"></circle>
                </g>
            </g>
            <ellipse id="Oval-3" fill="#DC1E65" cx="21" cy="20" rx="13" ry="13"></ellipse>
            <ellipse id="Oval-3" fill="#DC1E65" cx="21" cy="20" rx="13" ry="13"></ellipse>
            <path d="M20.5546875,24 L14.8183594,24 L14.8183594,23.0214844 L17.6601562,19.921875 C18.0703146,19.4648415 18.3623038,19.0830093 18.5361328,18.7763672 C18.7099618,18.469725 18.796875,18.1621109 18.796875,17.8535156 C18.796875,17.4472636 18.6826183,17.1191419 18.4541016,16.8691406 C18.2255848,16.6191394 17.9179707,16.4941406 17.53125,16.4941406 C17.0703102,16.4941406 16.7128919,16.6347642 16.4589844,16.9160156 C16.2050769,17.197267 16.078125,17.5820288 16.078125,18.0703125 L14.6542969,18.0703125 C14.6542969,17.5507787 14.7724598,17.0830099 15.0087891,16.6669922 C15.2451184,16.2509745 15.5830056,15.9277355 16.0224609,15.6972656 C16.4619163,15.4667957 16.9687471,15.3515625 17.5429688,15.3515625 C18.3710979,15.3515625 19.0244117,15.5595682 19.5029297,15.9755859 C19.9814477,16.3916036 20.2207031,16.9667932 20.2207031,17.7011719 C20.2207031,18.1269553 20.1005871,18.5732399 19.8603516,19.0400391 C19.620116,19.5068383 19.2265652,20.0371064 18.6796875,20.6308594 L16.59375,22.8632812 L20.5546875,22.8632812 L20.5546875,24 Z M27.375,24 L21.6386719,24 L21.6386719,23.0214844 L24.4804688,19.921875 C24.8906271,19.4648415 25.1826163,19.0830093 25.3564453,18.7763672 C25.5302743,18.469725 25.6171875,18.1621109 25.6171875,17.8535156 C25.6171875,17.4472636 25.5029308,17.1191419 25.2744141,16.8691406 C25.0458973,16.6191394 24.7382832,16.4941406 24.3515625,16.4941406 C23.8906227,16.4941406 23.5332044,16.6347642 23.2792969,16.9160156 C23.0253894,17.197267 22.8984375,17.5820288 22.8984375,18.0703125 L21.4746094,18.0703125 C21.4746094,17.5507787 21.5927723,17.0830099 21.8291016,16.6669922 C22.0654309,16.2509745 22.4033181,15.9277355 22.8427734,15.6972656 C23.2822288,15.4667957 23.7890596,15.3515625 24.3632812,15.3515625 C25.1914104,15.3515625 25.8447242,15.5595682 26.3232422,15.9755859 C26.8017602,16.3916036 27.0410156,16.9667932 27.0410156,17.7011719 C27.0410156,18.1269553 26.9208996,18.5732399 26.6806641,19.0400391 C26.4404285,19.5068383 26.0468777,20.0371064 25.5,20.6308594 L23.4140625,22.8632812 L27.375,22.8632812 L27.375,24 Z" id="22" fill="#FFFFFF"></path>
        </g>
    </g>
</svg>