<?xml version="1.0" encoding="UTF-8"?>
<svg width="58px" height="59px" viewBox="0 0 58 59" version="1.1" xmlns="http://www.w3.org/2000/svg" xmlns:xlink="http://www.w3.org/1999/xlink">
    <!-- Generator: Sketch 42 (36781) - http://www.bohemiancoding.com/sketch -->
    <title>Group 62</title>
    <desc>Created with Sketch.</desc>
    <defs>
        <path d="M7.20605469,43.6640625 L4.54589844,43.6640625 L4.54589844,51 L3.07519531,51 L3.07519531,43.6640625 L0.438476562,43.6640625 L0.438476562,42.46875 L7.20605469,42.46875 L7.20605469,43.6640625 Z M6.70214844,47.7714844 C6.70214844,47.1503875 6.82519408,46.5908228 7.07128906,46.0927734 C7.31738404,45.5947241 7.66308371,45.2119154 8.10839844,44.9443359 C8.55371316,44.6767565 9.0654268,44.5429688 9.64355469,44.5429688 C10.4990277,44.5429688 11.1933567,44.8183566 11.7265625,45.3691406 C12.2597683,45.9199246 12.5478513,46.6503861 12.5908203,47.5605469 L12.5966797,47.8945312 C12.5966797,48.5195344 12.4765637,49.0781225 12.2363281,49.5703125 C11.9960925,50.0625025 11.652346,50.443358 11.2050781,50.7128906 C10.7578103,50.9824232 10.2412139,51.1171875 9.65527344,51.1171875 C8.76073771,51.1171875 8.04492456,50.8193389 7.5078125,50.2236328 C6.97070044,49.6279267 6.70214844,48.8339893 6.70214844,47.8417969 L6.70214844,47.7714844 Z M8.12597656,47.8945312 C8.12597656,48.5468783 8.26074084,49.0576153 8.53027344,49.4267578 C8.79980604,49.7959003 9.17480229,49.9804688 9.65527344,49.9804688 C10.1357446,49.9804688 10.5097643,49.7929706 10.7773438,49.4179688 C11.0449232,49.0429669 11.1787109,48.4941442 11.1787109,47.7714844 C11.1787109,47.1308562 11.041017,46.6230488 10.765625,46.2480469 C10.490233,45.873045 10.1162133,45.6855469 9.64355469,45.6855469 C9.17870861,45.6855469 8.80957168,45.8701153 8.53613281,46.2392578 C8.26269395,46.6084003 8.12597656,47.1601526 8.12597656,47.8945312 Z M16.4052734,49.9804688 C16.760744,49.9804688 17.0556629,49.8769542 17.2900391,49.6699219 C17.5244152,49.4628896 17.649414,49.2070328 17.6650391,48.9023438 L19.0068359,48.9023438 C18.9912109,49.296877 18.8681652,49.6650374 18.6376953,50.0068359 C18.4072254,50.3486345 18.0947285,50.6191396 17.7001953,50.8183594 C17.3056621,51.0175791 16.8798851,51.1171875 16.4228516,51.1171875 C15.5361284,51.1171875 14.8330104,50.830081 14.3134766,50.2558594 C13.7939427,49.6816378 13.5341797,48.8886769 13.5341797,47.8769531 L13.5341797,47.7304688 C13.5341797,46.7656202 13.7919896,45.993167 14.3076172,45.4130859 C14.8232448,44.8330049 15.5263627,44.5429688 16.4169922,44.5429688 C17.1709022,44.5429688 17.7851539,44.7626931 18.2597656,45.2021484 C18.7343774,45.6416038 18.9833983,46.2187464 19.0068359,46.9335938 L17.6650391,46.9335938 C17.649414,46.5703107 17.5253918,46.2714855 17.2929688,46.0371094 C17.0605457,45.8027332 16.7646502,45.6855469 16.4052734,45.6855469 C15.9443336,45.6855469 15.5888684,45.8525374 15.3388672,46.1865234 C15.0888659,46.5205095 14.9619141,47.0273404 14.9580078,47.7070312 L14.9580078,47.9355469 C14.9580078,48.6230503 15.08203,49.1357405 15.3300781,49.4736328 C15.5781262,49.8115251 15.9365211,49.9804688 16.4052734,49.9804688 Z M19.8154297,47.7714844 C19.8154297,47.1503875 19.9384753,46.5908228 20.1845703,46.0927734 C20.4306653,45.5947241 20.776365,45.2119154 21.2216797,44.9443359 C21.6669944,44.6767565 22.178708,44.5429688 22.7568359,44.5429688 C23.612309,44.5429688 24.306638,44.8183566 24.8398438,45.3691406 C25.3730495,45.9199246 25.6611326,46.6503861 25.7041016,47.5605469 L25.7099609,47.8945312 C25.7099609,48.5195344 25.589845,49.0781225 25.3496094,49.5703125 C25.1093738,50.0625025 24.7656272,50.443358 24.3183594,50.7128906 C23.8710915,50.9824232 23.3544951,51.1171875 22.7685547,51.1171875 C21.874019,51.1171875 21.1582058,50.8193389 20.6210938,50.2236328 C20.0839817,49.6279267 19.8154297,48.8339893 19.8154297,47.8417969 L19.8154297,47.7714844 Z M21.2392578,47.8945312 C21.2392578,48.5468783 21.3740221,49.0576153 21.6435547,49.4267578 C21.9130873,49.7959003 22.2880835,49.9804688 22.7685547,49.9804688 C23.2490258,49.9804688 23.6230455,49.7929706 23.890625,49.4179688 C24.1582045,49.0429669 24.2919922,48.4941442 24.2919922,47.7714844 C24.2919922,47.1308562 24.1542983,46.6230488 23.8789062,46.2480469 C23.6035142,45.873045 23.2294946,45.6855469 22.7568359,45.6855469 C22.2919899,45.6855469 21.9228529,45.8701153 21.6494141,46.2392578 C21.3759752,46.6084003 21.2392578,47.1601526 21.2392578,47.8945312 Z M32.3369141,42.28125 L31.3701172,42.28125 L31.3701172,51.7910156 L32.3369141,51.7910156 L32.3369141,52.8984375 L29.9462891,52.8984375 L29.9462891,41.1679688 L32.3369141,41.1679688 L32.3369141,42.28125 Z M41.7646484,43.2597656 L38.3544922,51 L36.8603516,51 L40.2646484,43.6113281 L35.8525391,43.6113281 L35.8525391,42.46875 L41.7646484,42.46875 L41.7646484,43.2597656 Z M45.6025391,49.9804688 C45.9580096,49.9804688 46.2529285,49.8769542 46.4873047,49.6699219 C46.7216809,49.4628896 46.8466796,49.2070328 46.8623047,48.9023438 L48.2041016,48.9023438 C48.1884765,49.296877 48.0654308,49.6650374 47.8349609,50.0068359 C47.604491,50.3486345 47.2919942,50.6191396 46.8974609,50.8183594 C46.5029277,51.0175791 46.0771507,51.1171875 45.6201172,51.1171875 C44.733394,51.1171875 44.030276,50.830081 43.5107422,50.2558594 C42.9912083,49.6816378 42.7314453,48.8886769 42.7314453,47.8769531 L42.7314453,47.7304688 C42.7314453,46.7656202 42.9892552,45.993167 43.5048828,45.4130859 C44.0205104,44.8330049 44.7236284,44.5429688 45.6142578,44.5429688 C46.3681678,44.5429688 46.9824195,44.7626931 47.4570312,45.2021484 C47.931643,45.6416038 48.1806639,46.2187464 48.2041016,46.9335938 L46.8623047,46.9335938 C46.8466796,46.5703107 46.7226574,46.2714855 46.4902344,46.0371094 C46.2578113,45.8027332 45.9619159,45.6855469 45.6025391,45.6855469 C45.1415993,45.6855469 44.7861341,45.8525374 44.5361328,46.1865234 C44.2861316,46.5205095 44.1591797,47.0273404 44.1552734,47.7070312 L44.1552734,47.9355469 C44.1552734,48.6230503 44.2792956,49.1357405 44.5273438,49.4736328 C44.7753919,49.8115251 45.1337867,49.9804688 45.6025391,49.9804688 Z M51.6083984,41.1679688 L54.0107422,41.1679688 L54.0107422,52.8984375 L51.6083984,52.8984375 L51.6083984,51.7910156 L52.5869141,51.7910156 L52.5869141,42.28125 L51.6083984,42.28125 L51.6083984,41.1679688 Z" id="path-1"></path>
        <filter x="-50%" y="-50%" width="200%" height="200%" filterUnits="objectBoundingBox" id="filter-2">
            <feOffset dx="0" dy="2" in="SourceAlpha" result="shadowOffsetOuter1"></feOffset>
            <feGaussianBlur stdDeviation="1" in="shadowOffsetOuter1" result="shadowBlurOuter1"></feGaussianBlur>
            <feColorMatrix values="0 0 0 0 0   0 0 0 0 0   0 0 0 0 0  0 0 0 0.5 0" type="matrix" in="shadowBlurOuter1"></feColorMatrix>
        </filter>
        <ellipse id="path-3" cx="20" cy="20" rx="20" ry="20"></ellipse>
        <filter x="-50%" y="-50%" width="200%" height="200%" filterUnits="objectBoundingBox" id="filter-4">
            <feOffset dx="0" dy="2" in="SourceAlpha" result="shadowOffsetOuter1"></feOffset>
            <feGaussianBlur stdDeviation="2" in="shadowOffsetOuter1" result="shadowBlurOuter1"></feGaussianBlur>
            <feColorMatrix values="0 0 0 0 0   0 0 0 0 0   0 0 0 0 0  0 0 0 0.5 0" type="matrix" in="shadowBlurOuter1"></feColorMatrix>
        </filter>
    </defs>
    <g id="Page-1" stroke="none" stroke-width="1" fill="none" fill-rule="evenodd">
        <g id="Group-62" transform="translate(2.000000, 2.000000)">
            <g id="Toco-[-7c-]">
                <use fill="black" fill-opacity="1" filter="url(#filter-2)" xlink:href="#path-1"></use>
                <use fill="#FFFFFF" fill-rule="evenodd" xlink:href="#path-1"></use>
            </g>
            <g id="Group-5" transform="translate(9.000000, 0.000000)">
                <g id="Group-2">
                    <g id="Group" opacity="0.3">
                        <g id="Oval-6">
                            <use fill="black" fill-opacity="1" filter="url(#filter-4)" xlink:href="#path-3"></use>
                            <use fill="#FFFFFF" fill-rule="evenodd" xlink:href="#path-3"></use>
                        </g>
                    </g>
                    <ellipse id="Oval-5" stroke="#FFFFFF" stroke-width="5" fill="#DC1E65" cx="20" cy="20" rx="8" ry="8"></ellipse>
                </g>
            </g>
            <ellipse id="Oval-3" fill="#DC1E65" cx="29" cy="20" rx="13" ry="13"></ellipse>
            <ellipse id="Oval-3" fill="#DC1E65" cx="29" cy="20" rx="13" ry="13"></ellipse>
            <path d="M28.5546875,24 L22.8183594,24 L22.8183594,23.0214844 L25.6601562,19.921875 C26.0703146,19.4648415 26.3623038,19.0830093 26.5361328,18.7763672 C26.7099618,18.469725 26.796875,18.1621109 26.796875,17.8535156 C26.796875,17.4472636 26.6826183,17.1191419 26.4541016,16.8691406 C26.2255848,16.6191394 25.9179707,16.4941406 25.53125,16.4941406 C25.0703102,16.4941406 24.7128919,16.6347642 24.4589844,16.9160156 C24.2050769,17.197267 24.078125,17.5820288 24.078125,18.0703125 L22.6542969,18.0703125 C22.6542969,17.5507787 22.7724598,17.0830099 23.0087891,16.6669922 C23.2451184,16.2509745 23.5830056,15.9277355 24.0224609,15.6972656 C24.4619163,15.4667957 24.9687471,15.3515625 25.5429688,15.3515625 C26.3710979,15.3515625 27.0244117,15.5595682 27.5029297,15.9755859 C27.9814477,16.3916036 28.2207031,16.9667932 28.2207031,17.7011719 C28.2207031,18.1269553 28.1005871,18.5732399 27.8603516,19.0400391 C27.620116,19.5068383 27.2265652,20.0371064 26.6796875,20.6308594 L24.59375,22.8632812 L28.5546875,22.8632812 L28.5546875,24 Z M30.0195312,19.7695312 L30.4824219,15.46875 L35.0644531,15.46875 L35.0644531,16.6992188 L31.6660156,16.6992188 L31.4316406,18.7382812 C31.8261738,18.5117176 32.2714819,18.3984375 32.7675781,18.3984375 C33.5800822,18.3984375 34.2119118,18.6582005 34.6630859,19.1777344 C35.1142601,19.6972682 35.3398438,20.39648 35.3398438,21.2753906 C35.3398438,22.1425825 35.0898463,22.8330052 34.5898438,23.3466797 C34.0898412,23.8603541 33.4043012,24.1171875 32.5332031,24.1171875 C31.7519492,24.1171875 31.1044948,23.89551 30.5908203,23.4521484 C30.0771459,23.0087868 29.7988283,22.4238318 29.7558594,21.6972656 L31.1328125,21.6972656 C31.1875003,22.1113302 31.3359363,22.4287098 31.578125,22.6494141 C31.8203137,22.8701183 32.1367168,22.9804688 32.5273438,22.9804688 C32.9648459,22.9804688 33.3056628,22.8242203 33.5498047,22.5117188 C33.7939465,22.1992172 33.9160156,21.7734402 33.9160156,21.234375 C33.9160156,20.7148412 33.7812513,20.3037125 33.5117188,20.0009766 C33.2421862,19.6982407 32.8710961,19.546875 32.3984375,19.546875 C32.1406237,19.546875 31.9218759,19.5810543 31.7421875,19.6494141 C31.5624991,19.7177738 31.3671886,19.8515615 31.15625,20.0507812 L30.0195312,19.7695312 Z" id="25" fill="#FFFFFF"></path>
        </g>
    </g>
</svg>