<?xml version="1.0" encoding="UTF-8"?>
<svg width="108px" height="60px" viewBox="0 0 108 60" version="1.1" xmlns="http://www.w3.org/2000/svg" xmlns:xlink="http://www.w3.org/1999/xlink">
    <!-- Generator: Sketch 42 (36781) - http://www.bohemiancoding.com/sketch -->
    <title>Group 36</title>
    <desc>Created with Sketch.</desc>
    <defs>
        <path d="M0.220703125,51 L0.220703125,42.46875 L3.14453125,42.46875 C4.10937982,42.46875 4.84374748,42.6621074 5.34765625,43.0488281 C5.85156502,43.4355488 6.10351562,44.0117149 6.10351562,44.7773438 C6.10351562,45.1679707 5.99804793,45.5195297 5.78710938,45.8320312 C5.57617082,46.1445328 5.26758016,46.3867179 4.86132812,46.5585938 C5.32226793,46.6835944 5.67870968,46.9189436 5.93066406,47.2646484 C6.18261845,47.6103533 6.30859375,48.0253882 6.30859375,48.5097656 C6.30859375,49.3105509 6.05176038,49.9257791 5.53808594,50.3554688 C5.02441149,50.7851584 4.28906729,51 3.33203125,51 L0.220703125,51 Z M1.703125,47.1503906 L1.703125,49.8164062 L3.34960938,49.8164062 C3.81445545,49.8164062 4.17773307,49.701173 4.43945312,49.4707031 C4.70117318,49.2402332 4.83203125,48.9199239 4.83203125,48.5097656 C4.83203125,47.6230424 4.37891078,47.169922 3.47265625,47.1503906 L1.703125,47.1503906 Z M1.703125,46.0605469 L3.15625,46.0605469 C3.6171898,46.0605469 3.97753776,45.9560557 4.23730469,45.7470703 C4.49707161,45.5380849 4.62695312,45.2421894 4.62695312,44.859375 C4.62695312,44.4374979 4.50683714,44.1328134 4.26660156,43.9453125 C4.02636599,43.7578116 3.65234629,43.6640625 3.14453125,43.6640625 L1.703125,43.6640625 L1.703125,46.0605469 Z M11.4414062,51 C11.3789059,50.8789056 11.324219,50.681642 11.2773438,50.4082031 C10.8242165,50.8808617 10.2695345,51.1171875 9.61328125,51.1171875 C8.97655932,51.1171875 8.45703326,50.9355487 8.0546875,50.5722656 C7.65234174,50.2089826 7.45117188,49.7597683 7.45117188,49.2246094 C7.45117188,48.5488247 7.70214593,48.0302752 8.20410156,47.6689453 C8.7060572,47.3076154 9.42382346,47.1269531 10.3574219,47.1269531 L11.2304688,47.1269531 L11.2304688,46.7109375 C11.2304688,46.3828109 11.1386728,46.1201182 10.9550781,45.9228516 C10.7714835,45.725585 10.4921894,45.6269531 10.1171875,45.6269531 C9.79296713,45.6269531 9.52734479,45.708007 9.3203125,45.8701172 C9.11328021,46.0322274 9.00976562,46.23828 9.00976562,46.4882812 L7.5859375,46.4882812 C7.5859375,46.1406233 7.70117072,45.8154312 7.93164062,45.5126953 C8.16211053,45.2099594 8.47558396,44.9726571 8.87207031,44.8007812 C9.26855667,44.6289054 9.71093506,44.5429688 10.1992188,44.5429688 C10.94141,44.5429688 11.5332009,44.7294903 11.9746094,45.1025391 C12.4160178,45.4755878 12.6425781,45.9999966 12.6542969,46.6757812 L12.6542969,49.5351562 C12.6542969,50.1054716 12.7343742,50.5605452 12.8945312,50.9003906 L12.8945312,51 L11.4414062,51 Z M9.87695312,49.9746094 C10.1582045,49.9746094 10.4228503,49.9062507 10.6708984,49.7695312 C10.9189466,49.6328118 11.1054681,49.4492199 11.2304688,49.21875 L11.2304688,48.0234375 L10.4628906,48.0234375 C9.93554424,48.0234375 9.53906383,48.1152335 9.2734375,48.2988281 C9.00781117,48.4824228 8.875,48.7421858 8.875,49.078125 C8.875,49.3515639 8.9658194,49.5693351 9.14746094,49.7314453 C9.32910247,49.8935555 9.5722641,49.9746094 9.87695312,49.9746094 Z M15.4667969,44.6601562 L15.5078125,45.3925781 C15.9765648,44.826169 16.5917931,44.5429688 17.3535156,44.5429688 C18.6738347,44.5429688 19.345703,45.2988206 19.3691406,46.8105469 L19.3691406,51 L17.9453125,51 L17.9453125,46.8925781 C17.9453125,46.4902324 17.8583993,46.1923838 17.6845703,45.9990234 C17.5107413,45.8056631 17.2265645,45.7089844 16.8320312,45.7089844 C16.2578096,45.7089844 15.8300795,45.9687474 15.5488281,46.4882812 L15.5488281,51 L14.125,51 L14.125,44.6601562 L15.4667969,44.6601562 Z M24.6074219,51 C24.5449216,50.8789056 24.4902346,50.681642 24.4433594,50.4082031 C23.9902321,50.8808617 23.4355502,51.1171875 22.7792969,51.1171875 C22.1425749,51.1171875 21.6230489,50.9355487 21.2207031,50.5722656 C20.8183574,50.2089826 20.6171875,49.7597683 20.6171875,49.2246094 C20.6171875,48.5488247 20.8681616,48.0302752 21.3701172,47.6689453 C21.8720728,47.3076154 22.5898391,47.1269531 23.5234375,47.1269531 L24.3964844,47.1269531 L24.3964844,46.7109375 C24.3964844,46.3828109 24.3046884,46.1201182 24.1210938,45.9228516 C23.9374991,45.725585 23.658205,45.6269531 23.2832031,45.6269531 C22.9589828,45.6269531 22.6933604,45.708007 22.4863281,45.8701172 C22.2792958,46.0322274 22.1757812,46.23828 22.1757812,46.4882812 L20.7519531,46.4882812 C20.7519531,46.1406233 20.8671863,45.8154312 21.0976562,45.5126953 C21.3281262,45.2099594 21.6415996,44.9726571 22.0380859,44.8007812 C22.4345723,44.6289054 22.8769507,44.5429688 23.3652344,44.5429688 C24.1074256,44.5429688 24.6992165,44.7294903 25.140625,45.1025391 C25.5820335,45.4755878 25.8085937,45.9999966 25.8203125,46.6757812 L25.8203125,49.5351562 C25.8203125,50.1054716 25.9003898,50.5605452 26.0605469,50.9003906 L26.0605469,51 L24.6074219,51 Z M23.0429688,49.9746094 C23.3242202,49.9746094 23.5888659,49.9062507 23.8369141,49.7695312 C24.0849622,49.6328118 24.2714838,49.4492199 24.3964844,49.21875 L24.3964844,48.0234375 L23.6289062,48.0234375 C23.1015599,48.0234375 22.7050795,48.1152335 22.4394531,48.2988281 C22.1738268,48.4824228 22.0410156,48.7421858 22.0410156,49.078125 C22.0410156,49.3515639 22.131835,49.5693351 22.3134766,49.7314453 C22.4951181,49.8935555 22.7382797,49.9746094 23.0429688,49.9746094 Z M28.6328125,44.6601562 L28.6738281,45.3925781 C29.1425805,44.826169 29.7578087,44.5429688 30.5195312,44.5429688 C31.8398504,44.5429688 32.5117186,45.2988206 32.5351562,46.8105469 L32.5351562,51 L31.1113281,51 L31.1113281,46.8925781 C31.1113281,46.4902324 31.0244149,46.1923838 30.8505859,45.9990234 C30.6767569,45.8056631 30.3925801,45.7089844 29.9980469,45.7089844 C29.4238253,45.7089844 28.9960952,45.9687474 28.7148438,46.4882812 L28.7148438,51 L27.2910156,51 L27.2910156,44.6601562 L28.6328125,44.6601562 Z M37.7734375,51 C37.7109372,50.8789056 37.6562502,50.681642 37.609375,50.4082031 C37.1562477,50.8808617 36.6015658,51.1171875 35.9453125,51.1171875 C35.3085906,51.1171875 34.7890645,50.9355487 34.3867188,50.5722656 C33.984373,50.2089826 33.7832031,49.7597683 33.7832031,49.2246094 C33.7832031,48.5488247 34.0341772,48.0302752 34.5361328,47.6689453 C35.0380884,47.3076154 35.7558547,47.1269531 36.6894531,47.1269531 L37.5625,47.1269531 L37.5625,46.7109375 C37.5625,46.3828109 37.470704,46.1201182 37.2871094,45.9228516 C37.1035147,45.725585 36.8242206,45.6269531 36.4492188,45.6269531 C36.1249984,45.6269531 35.859376,45.708007 35.6523438,45.8701172 C35.4453115,46.0322274 35.3417969,46.23828 35.3417969,46.4882812 L33.9179688,46.4882812 C33.9179688,46.1406233 34.033202,45.8154312 34.2636719,45.5126953 C34.4941418,45.2099594 34.8076152,44.9726571 35.2041016,44.8007812 C35.6005879,44.6289054 36.0429663,44.5429688 36.53125,44.5429688 C37.2734412,44.5429688 37.8652322,44.7294903 38.3066406,45.1025391 C38.7480491,45.4755878 38.9746093,45.9999966 38.9863281,46.6757812 L38.9863281,49.5351562 C38.9863281,50.1054716 39.0664054,50.5605452 39.2265625,50.9003906 L39.2265625,51 L37.7734375,51 Z M36.2089844,49.9746094 C36.4902358,49.9746094 36.7548816,49.9062507 37.0029297,49.7695312 C37.2509778,49.6328118 37.4374994,49.4492199 37.5625,49.21875 L37.5625,48.0234375 L36.7949219,48.0234375 C36.2675755,48.0234375 35.8710951,48.1152335 35.6054688,48.2988281 C35.3398424,48.4824228 35.2070312,48.7421858 35.2070312,49.078125 C35.2070312,49.3515639 35.2978507,49.5693351 35.4794922,49.7314453 C35.6611337,49.8935555 35.9042954,49.9746094 36.2089844,49.9746094 Z M47.0957031,42.46875 L48.5722656,42.46875 L48.5722656,48.4511719 C48.5722656,49.2675822 48.3173854,49.9160132 47.8076172,50.3964844 C47.297849,50.8769555 46.6250042,51.1171875 45.7890625,51.1171875 C44.898433,51.1171875 44.2109399,50.8925804 43.7265625,50.4433594 C43.2421851,49.9941384 43,49.3691446 43,48.5683594 L44.4765625,48.5683594 C44.4765625,49.0214866 44.5888661,49.3623035 44.8134766,49.5908203 C45.0380871,49.8193371 45.3632791,49.9335938 45.7890625,49.9335938 C46.187502,49.9335938 46.5048816,49.8017591 46.7412109,49.5380859 C46.9775402,49.2744127 47.0957031,48.9101586 47.0957031,48.4453125 L47.0957031,42.46875 Z M49.8613281,47.7714844 C49.8613281,47.1503875 49.9843738,46.5908228 50.2304688,46.0927734 C50.4765637,45.5947241 50.8222634,45.2119154 51.2675781,44.9443359 C51.7128929,44.6767565 52.2246065,44.5429688 52.8027344,44.5429688 C53.6582074,44.5429688 54.3525364,44.8183566 54.8857422,45.3691406 C55.418948,45.9199246 55.707031,46.6503861 55.75,47.5605469 L55.7558594,47.8945312 C55.7558594,48.5195344 55.6357434,49.0781225 55.3955078,49.5703125 C55.1552722,50.0625025 54.8115257,50.443358 54.3642578,50.7128906 C53.91699,50.9824232 53.4003936,51.1171875 52.8144531,51.1171875 C51.9199174,51.1171875 51.2041042,50.8193389 50.6669922,50.2236328 C50.1298801,49.6279267 49.8613281,48.8339893 49.8613281,47.8417969 L49.8613281,47.7714844 Z M51.2851562,47.8945312 C51.2851562,48.5468783 51.4199205,49.0576153 51.6894531,49.4267578 C51.9589857,49.7959003 52.333982,49.9804688 52.8144531,49.9804688 C53.2949243,49.9804688 53.668944,49.7929706 53.9365234,49.4179688 C54.2041029,49.0429669 54.3378906,48.4941442 54.3378906,47.7714844 C54.3378906,47.1308562 54.2001967,46.6230488 53.9248047,46.2480469 C53.6494127,45.873045 53.275393,45.6855469 52.8027344,45.6855469 C52.3378883,45.6855469 51.9687514,45.8701153 51.6953125,46.2392578 C51.4218736,46.6084003 51.2851562,47.1601526 51.2851562,47.8945312 Z M59.7519531,51.1171875 C58.8496049,51.1171875 58.1181669,50.8330107 57.5576172,50.2646484 C56.9970675,49.6962862 56.7167969,48.9394579 56.7167969,47.9941406 L56.7167969,47.8183594 C56.7167969,47.1855437 56.838866,46.6201197 57.0830078,46.1220703 C57.3271497,45.6240209 57.6699197,45.2363295 58.1113281,44.9589844 C58.5527366,44.6816392 59.0449192,44.5429688 59.5878906,44.5429688 C60.4511762,44.5429688 61.1181617,44.8183566 61.5888672,45.3691406 C62.0595727,45.9199246 62.2949219,46.6992137 62.2949219,47.7070312 L62.2949219,48.28125 L58.1523438,48.28125 C58.1953127,48.8046901 58.3701157,49.2187485 58.6767578,49.5234375 C58.9834,49.8281265 59.3691383,49.9804688 59.8339844,49.9804688 C60.4863314,49.9804688 61.0175761,49.7167995 61.4277344,49.1894531 L62.1953125,49.921875 C61.941405,50.3007831 61.6025412,50.5947255 61.1787109,50.8037109 C60.7548807,51.0126964 60.2792995,51.1171875 59.7519531,51.1171875 Z M59.5820312,45.6855469 C59.1914043,45.6855469 58.8759778,45.8222643 58.6357422,46.0957031 C58.3955066,46.369142 58.2421878,46.7499976 58.1757812,47.2382812 L60.8886719,47.2382812 L60.8886719,47.1328125 C60.8574217,46.6562476 60.7304699,46.2958997 60.5078125,46.0517578 C60.2851551,45.807616 59.9765645,45.6855469 59.5820312,45.6855469 Z M68.8222656,42.28125 L67.8554688,42.28125 L67.8554688,51.7910156 L68.8222656,51.7910156 L68.8222656,52.8984375 L66.4316406,52.8984375 L66.4316406,41.1679688 L68.8222656,41.1679688 L68.8222656,42.28125 Z M77.3886719,47.9589844 L78.4492188,47.9589844 L78.4492188,49.1015625 L77.3886719,49.1015625 L77.3886719,51 L75.9648438,51 L75.9648438,49.1015625 L72.2792969,49.1015625 L72.2382812,48.234375 L75.9179688,42.46875 L77.3886719,42.46875 L77.3886719,47.9589844 Z M73.7324219,47.9589844 L75.9648438,47.9589844 L75.9648438,44.3964844 L75.859375,44.5839844 L73.7324219,47.9589844 Z M83.0371094,49.2773438 C83.0371094,49.0234362 82.9326182,48.8300788 82.7236328,48.6972656 C82.5146474,48.5644525 82.1679712,48.4472661 81.6835938,48.3457031 C81.1992163,48.2441401 80.7949235,48.1152352 80.4707031,47.9589844 C79.7597621,47.6152327 79.4042969,47.1171908 79.4042969,46.4648438 C79.4042969,45.917966 79.6347633,45.4609393 80.0957031,45.09375 C80.5566429,44.7265607 81.1425746,44.5429688 81.8535156,44.5429688 C82.6113319,44.5429688 83.2236305,44.7304669 83.6904297,45.1054688 C84.1572289,45.4804706 84.390625,45.9667939 84.390625,46.5644531 L82.9667969,46.5644531 C82.9667969,46.2910143 82.8652354,46.0634775 82.6621094,45.8818359 C82.4589834,45.7001944 82.1894548,45.609375 81.8535156,45.609375 C81.5410141,45.609375 81.2861338,45.6816399 81.0888672,45.8261719 C80.8916006,45.9707038 80.7929688,46.1640613 80.7929688,46.40625 C80.7929688,46.6250011 80.8847647,46.7949213 81.0683594,46.9160156 C81.251954,47.03711 81.6230441,47.1591791 82.1816406,47.2822266 C82.7402372,47.4052741 83.1787093,47.551757 83.4970703,47.7216797 C83.8154313,47.8916024 84.051757,48.0957019 84.2060547,48.3339844 C84.3603523,48.5722668 84.4375,48.8613264 84.4375,49.2011719 C84.4375,49.7714872 84.2011742,50.2333967 83.7285156,50.5869141 C83.255857,50.9404315 82.6367226,51.1171875 81.8710938,51.1171875 C81.3515599,51.1171875 80.8886739,51.0234384 80.4824219,50.8359375 C80.0761698,50.6484366 79.7597668,50.3906266 79.5332031,50.0625 C79.3066395,49.7343734 79.1933594,49.3808613 79.1933594,49.0019531 L80.5761719,49.0019531 C80.5957032,49.3378923 80.7226551,49.5966788 80.9570312,49.7783203 C81.1914074,49.9599618 81.5019512,50.0507812 81.8886719,50.0507812 C82.2636737,50.0507812 82.5488271,49.9794929 82.7441406,49.8369141 C82.9394541,49.6943352 83.0371094,49.5078137 83.0371094,49.2773438 Z M89.5175781,50.3789062 C89.0996073,50.8710962 88.5058632,51.1171875 87.7363281,51.1171875 C87.0488247,51.1171875 86.5283221,50.9160176 86.1748047,50.5136719 C85.8212873,50.1113261 85.6445312,49.5293007 85.6445312,48.7675781 L85.6445312,44.6601562 L87.0683594,44.6601562 L87.0683594,48.75 C87.0683594,49.5546915 87.4023404,49.9570312 88.0703125,49.9570312 C88.7617222,49.9570312 89.2285144,49.7089869 89.4707031,49.2128906 L89.4707031,44.6601562 L90.8945312,44.6601562 L90.8945312,51 L89.5527344,51 L89.5175781,50.3789062 Z M97.8964844,47.8945312 C97.8964844,48.8750049 97.6738304,49.6572236 97.2285156,50.2412109 C96.7832009,50.8251982 96.1855506,51.1171875 95.4355469,51.1171875 C94.7402309,51.1171875 94.1835958,50.8886742 93.765625,50.4316406 L93.765625,53.4375 L92.3417969,53.4375 L92.3417969,44.6601562 L93.6542969,44.6601562 L93.7128906,45.3046875 C94.1308615,44.7968725 94.6992152,44.5429688 95.4179688,44.5429688 C96.1914101,44.5429688 96.7978494,44.8310518 97.2373047,45.4072266 C97.67676,45.9834013 97.8964844,46.783198 97.8964844,47.8066406 L97.8964844,47.8945312 Z M96.4785156,47.7714844 C96.4785156,47.1386687 96.3525403,46.6367206 96.1005859,46.265625 C95.8486316,45.8945294 95.4882836,45.7089844 95.0195312,45.7089844 C94.4374971,45.7089844 94.0195325,45.9492163 93.765625,46.4296875 L93.765625,49.2421875 C94.0234388,49.7343775 94.4453096,49.9804688 95.03125,49.9804688 C95.4843773,49.9804688 95.8388659,49.7978534 96.0947266,49.4326172 C96.3505872,49.067381 96.4785156,48.5136756 96.4785156,47.7714844 Z M101.429688,41.1679688 L103.832031,41.1679688 L103.832031,52.8984375 L101.429688,52.8984375 L101.429688,51.7910156 L102.408203,51.7910156 L102.408203,42.28125 L101.429688,42.28125 L101.429688,41.1679688 Z" id="path-1"></path>
        <filter x="-50%" y="-50%" width="200%" height="200%" filterUnits="objectBoundingBox" id="filter-2">
            <feOffset dx="0" dy="2" in="SourceAlpha" result="shadowOffsetOuter1"></feOffset>
            <feGaussianBlur stdDeviation="1" in="shadowOffsetOuter1" result="shadowBlurOuter1"></feGaussianBlur>
            <feColorMatrix values="0 0 0 0 0   0 0 0 0 0   0 0 0 0 0  0 0 0 0.5 0" type="matrix" in="shadowBlurOuter1"></feColorMatrix>
        </filter>
        <circle id="path-3" cx="20" cy="20" r="20"></circle>
        <filter x="-50%" y="-50%" width="200%" height="200%" filterUnits="objectBoundingBox" id="filter-4">
            <feOffset dx="0" dy="2" in="SourceAlpha" result="shadowOffsetOuter1"></feOffset>
            <feGaussianBlur stdDeviation="2" in="shadowOffsetOuter1" result="shadowBlurOuter1"></feGaussianBlur>
            <feColorMatrix values="0 0 0 0 0   0 0 0 0 0   0 0 0 0 0  0 0 0 0.5 0" type="matrix" in="shadowBlurOuter1"></feColorMatrix>
        </filter>
    </defs>
    <g id="Page-1" stroke="none" stroke-width="1" fill="none" fill-rule="evenodd">
        <g id="Group-36" transform="translate(2.000000, 2.000000)">
            <g id="Group-35">
                <g id="Banana-Joe-[-4sup-]">
                    <use fill="black" fill-opacity="1" filter="url(#filter-2)" xlink:href="#path-1"></use>
                    <use fill="#FFFFFF" fill-rule="evenodd" xlink:href="#path-1"></use>
                </g>
                <g id="Group-5" transform="translate(26.000000, 0.000000)">
                    <g id="Group-2">
                        <g id="Group" opacity="0.3">
                            <g id="Oval-6">
                                <use fill="black" fill-opacity="1" filter="url(#filter-4)" xlink:href="#path-3"></use>
                                <use fill="#FFFFFF" fill-rule="evenodd" xlink:href="#path-3"></use>
                            </g>
                        </g>
                        <circle id="Oval-5" stroke="#FFFFFF" stroke-width="5" fill="#DC1E65" cx="20" cy="20" r="8"></circle>
                    </g>
                </g>
                <ellipse id="Oval-3" fill="#DC1E65" cx="46" cy="20" rx="13" ry="13"></ellipse>
                <polygon id="1" fill="#FFFFFF" points="47.5839844 24 46.1660156 24 46.1660156 17.1503906 44.0742188 17.8652344 44.0742188 16.6640625 47.4023438 15.4394531 47.5839844 15.4394531"></polygon>
            </g>
        </g>
    </g>
</svg>