<?xml version="1.0" encoding="UTF-8"?>
<svg width="82px" height="73px" viewBox="0 0 82 73" version="1.1" xmlns="http://www.w3.org/2000/svg" xmlns:xlink="http://www.w3.org/1999/xlink">
    <!-- Generator: Sketch 42 (36781) - http://www.bohemiancoding.com/sketch -->
    <title>Group 58</title>
    <desc>Created with Sketch.</desc>
    <defs>
        <path d="M7.6953125,49.8925781 C7.38671721,50.2949239 6.95898711,50.5996083 6.41210938,50.8066406 C5.86523164,51.0136729 5.2441441,51.1171875 4.54882812,51.1171875 C3.8339808,51.1171875 3.20117463,50.9550797 2.65039062,50.6308594 C2.09960662,50.306639 1.67480618,49.8427765 1.37597656,49.2392578 C1.07714694,48.6357392 0.921875059,47.9316446 0.91015625,47.1269531 L0.91015625,46.4589844 C0.91015625,45.1699154 1.21874691,44.1630896 1.8359375,43.4384766 C2.45312809,42.7138636 3.3144476,42.3515625 4.41992188,42.3515625 C5.36914537,42.3515625 6.12304408,42.5859352 6.68164062,43.0546875 C7.24023717,43.5234398 7.57617131,44.1992143 7.68945312,45.0820312 L6.23632812,45.0820312 C6.0722648,44.0546824 5.47656764,43.5410156 4.44921875,43.5410156 C3.78515293,43.5410156 3.28027517,43.780271 2.93457031,44.2587891 C2.58886546,44.7373071 2.41015631,45.4394485 2.3984375,46.3652344 L2.3984375,47.0214844 C2.3984375,47.943364 2.59277149,48.6591771 2.98144531,49.1689453 C3.37011913,49.6787135 3.91015279,49.9335938 4.6015625,49.9335938 C5.35937879,49.9335938 5.8984359,49.7617205 6.21875,49.4179688 L6.21875,47.7480469 L4.4609375,47.7480469 L4.4609375,46.6230469 L7.6953125,46.6230469 L7.6953125,49.8925781 Z M12.5058594,45.9609375 C12.3183584,45.9296873 12.125001,45.9140625 11.9257812,45.9140625 C11.2734342,45.9140625 10.8339855,46.16406 10.6074219,46.6640625 L10.6074219,51 L9.18359375,51 L9.18359375,44.6601562 L10.5429688,44.6601562 L10.578125,45.3691406 C10.9218767,44.8183566 11.3984345,44.5429688 12.0078125,44.5429688 C12.2109385,44.5429688 12.3789056,44.5703122 12.5117188,44.625 L12.5058594,45.9609375 Z M17.2460938,50.3789062 C16.8281229,50.8710962 16.2343788,51.1171875 15.4648438,51.1171875 C14.7773403,51.1171875 14.2568377,50.9160176 13.9033203,50.5136719 C13.5498029,50.1113261 13.3730469,49.5293007 13.3730469,48.7675781 L13.3730469,44.6601562 L14.796875,44.6601562 L14.796875,48.75 C14.796875,49.5546915 15.130856,49.9570312 15.7988281,49.9570312 C16.4902378,49.9570312 16.95703,49.7089869 17.1992188,49.2128906 L17.1992188,44.6601562 L18.6230469,44.6601562 L18.6230469,51 L17.28125,51 L17.2460938,50.3789062 Z M25.625,47.8945312 C25.625,48.8750049 25.402346,49.6572236 24.9570312,50.2412109 C24.5117165,50.8251982 23.9140662,51.1171875 23.1640625,51.1171875 C22.4687465,51.1171875 21.9121115,50.8886742 21.4941406,50.4316406 L21.4941406,53.4375 L20.0703125,53.4375 L20.0703125,44.6601562 L21.3828125,44.6601562 L21.4414062,45.3046875 C21.8593771,44.7968725 22.4277308,44.5429688 23.1464844,44.5429688 C23.9199257,44.5429688 24.526365,44.8310518 24.9658203,45.4072266 C25.4052756,45.9834013 25.625,46.783198 25.625,47.8066406 L25.625,47.8945312 Z M24.2070312,47.7714844 C24.2070312,47.1386687 24.0810559,46.6367206 23.8291016,46.265625 C23.5771472,45.8945294 23.2167992,45.7089844 22.7480469,45.7089844 C22.1660127,45.7089844 21.7480481,45.9492163 21.4941406,46.4296875 L21.4941406,49.2421875 C21.7519544,49.7343775 22.1738252,49.9804688 22.7597656,49.9804688 C23.2128929,49.9804688 23.5673815,49.7978534 23.8232422,49.4326172 C24.0791028,49.067381 24.2070312,48.5136756 24.2070312,47.7714844 Z M26.5625,47.7714844 C26.5625,47.1503875 26.6855456,46.5908228 26.9316406,46.0927734 C27.1777356,45.5947241 27.5234353,45.2119154 27.96875,44.9443359 C28.4140647,44.6767565 28.9257784,44.5429688 29.5039062,44.5429688 C30.3593793,44.5429688 31.0537083,44.8183566 31.5869141,45.3691406 C32.1201199,45.9199246 32.4082029,46.6503861 32.4511719,47.5605469 L32.4570312,47.8945312 C32.4570312,48.5195344 32.3369153,49.0781225 32.0966797,49.5703125 C31.8564441,50.0625025 31.5126975,50.443358 31.0654297,50.7128906 C30.6181618,50.9824232 30.1015654,51.1171875 29.515625,51.1171875 C28.6210893,51.1171875 27.9052761,50.8193389 27.3681641,50.2236328 C26.831052,49.6279267 26.5625,48.8339893 26.5625,47.8417969 L26.5625,47.7714844 Z M27.9863281,47.8945312 C27.9863281,48.5468783 28.1210924,49.0576153 28.390625,49.4267578 C28.6601576,49.7959003 29.0351538,49.9804688 29.515625,49.9804688 C29.9960962,49.9804688 30.3701158,49.7929706 30.6376953,49.4179688 C30.9052748,49.0429669 31.0390625,48.4941442 31.0390625,47.7714844 C31.0390625,47.1308562 30.9013686,46.6230488 30.6259766,46.2480469 C30.3505846,45.873045 29.9765649,45.6855469 29.5039062,45.6855469 C29.0390602,45.6855469 28.6699232,45.8701153 28.3964844,46.2392578 C28.1230455,46.6084003 27.9863281,47.1601526 27.9863281,47.8945312 Z M36.3828125,47.7832031 C36.3828125,46.8066357 36.6093727,46.0224639 37.0625,45.4306641 C37.5156273,44.8388642 38.1230431,44.5429688 38.8847656,44.5429688 C39.556644,44.5429688 40.0996073,44.7773414 40.5136719,45.2460938 L40.5136719,42 L41.9375,42 L41.9375,51 L40.6484375,51 L40.578125,50.34375 C40.1523416,50.8593776 39.5839879,51.1171875 38.8730469,51.1171875 C38.1308557,51.1171875 37.5302757,50.8183624 37.0712891,50.2207031 C36.6123024,49.6230439 36.3828125,48.810552 36.3828125,47.7832031 Z M37.8066406,47.90625 C37.8066406,48.5507845 37.9306628,49.0537091 38.1787109,49.4150391 C38.4267591,49.776369 38.7792946,49.9570312 39.2363281,49.9570312 C39.8183623,49.9570312 40.2441393,49.6972682 40.5136719,49.1777344 L40.5136719,46.4707031 C40.2519518,45.9628881 39.830081,45.7089844 39.2480469,45.7089844 C38.7871071,45.7089844 38.4316419,45.8915997 38.1816406,46.2568359 C37.9316394,46.6220721 37.8066406,47.1718713 37.8066406,47.90625 Z M46.2148438,51.1171875 C45.3124955,51.1171875 44.5810575,50.8330107 44.0205078,50.2646484 C43.4599581,49.6962862 43.1796875,48.9394579 43.1796875,47.9941406 L43.1796875,47.8183594 C43.1796875,47.1855437 43.3017566,46.6201197 43.5458984,46.1220703 C43.7900403,45.6240209 44.1328103,45.2363295 44.5742188,44.9589844 C45.0156272,44.6816392 45.5078098,44.5429688 46.0507812,44.5429688 C46.9140668,44.5429688 47.5810523,44.8183566 48.0517578,45.3691406 C48.5224633,45.9199246 48.7578125,46.6992137 48.7578125,47.7070312 L48.7578125,48.28125 L44.6152344,48.28125 C44.6582033,48.8046901 44.8330063,49.2187485 45.1396484,49.5234375 C45.4462906,49.8281265 45.8320289,49.9804688 46.296875,49.9804688 C46.949222,49.9804688 47.4804667,49.7167995 47.890625,49.1894531 L48.6582031,49.921875 C48.4042956,50.3007831 48.0654318,50.5947255 47.6416016,50.8037109 C47.2177713,51.0126964 46.7421901,51.1171875 46.2148438,51.1171875 Z M46.0449219,45.6855469 C45.6542949,45.6855469 45.3388684,45.8222643 45.0986328,46.0957031 C44.8583972,46.369142 44.7050785,46.7499976 44.6386719,47.2382812 L47.3515625,47.2382812 L47.3515625,47.1328125 C47.3203123,46.6562476 47.1933605,46.2958997 46.9707031,46.0517578 C46.7480458,45.807616 46.4394551,45.6855469 46.0449219,45.6855469 Z M56.1699219,45.9609375 C55.9824209,45.9296873 55.7890635,45.9140625 55.5898438,45.9140625 C54.9374967,45.9140625 54.498048,46.16406 54.2714844,46.6640625 L54.2714844,51 L52.8476562,51 L52.8476562,44.6601562 L54.2070312,44.6601562 L54.2421875,45.3691406 C54.5859392,44.8183566 55.062497,44.5429688 55.671875,44.5429688 C55.875001,44.5429688 56.0429681,44.5703122 56.1757812,44.625 L56.1699219,45.9609375 Z M58.5839844,51 L57.1601562,51 L57.1601562,44.6601562 L58.5839844,44.6601562 L58.5839844,51 Z M57.0722656,43.0136719 C57.0722656,42.7949208 57.1416009,42.613282 57.2802734,42.46875 C57.418946,42.324218 57.6171862,42.2519531 57.875,42.2519531 C58.1328138,42.2519531 58.3320305,42.324218 58.4726562,42.46875 C58.613282,42.613282 58.6835938,42.7949208 58.6835938,43.0136719 C58.6835938,43.2285167 58.613282,43.4072258 58.4726562,43.5498047 C58.3320305,43.6923835 58.1328138,43.7636719 57.875,43.7636719 C57.6171862,43.7636719 57.418946,43.6923835 57.2802734,43.5498047 C57.1416009,43.4072258 57.0722656,43.2285167 57.0722656,43.0136719 Z M63.6875,49.2773438 C63.6875,49.0234362 63.5830089,48.8300788 63.3740234,48.6972656 C63.165038,48.5644525 62.8183618,48.4472661 62.3339844,48.3457031 C61.849607,48.2441401 61.4453141,48.1152352 61.1210938,47.9589844 C60.4101527,47.6152327 60.0546875,47.1171908 60.0546875,46.4648438 C60.0546875,45.917966 60.2851539,45.4609393 60.7460938,45.09375 C61.2070336,44.7265607 61.7929652,44.5429688 62.5039062,44.5429688 C63.2617225,44.5429688 63.8740211,44.7304669 64.3408203,45.1054688 C64.8076195,45.4804706 65.0410156,45.9667939 65.0410156,46.5644531 L63.6171875,46.5644531 C63.6171875,46.2910143 63.515626,46.0634775 63.3125,45.8818359 C63.109374,45.7001944 62.8398454,45.609375 62.5039062,45.609375 C62.1914047,45.609375 61.9365244,45.6816399 61.7392578,45.8261719 C61.5419912,45.9707038 61.4433594,46.1640613 61.4433594,46.40625 C61.4433594,46.6250011 61.5351553,46.7949213 61.71875,46.9160156 C61.9023447,47.03711 62.2734347,47.1591791 62.8320312,47.2822266 C63.3906278,47.4052741 63.8291,47.551757 64.1474609,47.7216797 C64.4658219,47.8916024 64.7021477,48.0957019 64.8564453,48.3339844 C65.010743,48.5722668 65.0878906,48.8613264 65.0878906,49.2011719 C65.0878906,49.7714872 64.8515649,50.2333967 64.3789062,50.5869141 C63.9062476,50.9404315 63.2871132,51.1171875 62.5214844,51.1171875 C62.0019505,51.1171875 61.5390645,51.0234384 61.1328125,50.8359375 C60.7265605,50.6484366 60.4101574,50.3906266 60.1835938,50.0625 C59.9570301,49.7343734 59.84375,49.3808613 59.84375,49.0019531 L61.2265625,49.0019531 C61.2460938,49.3378923 61.3730457,49.5966788 61.6074219,49.7783203 C61.841798,49.9599618 62.1523418,50.0507812 62.5390625,50.0507812 C62.9140644,50.0507812 63.1992178,49.9794929 63.3945312,49.8369141 C63.5898447,49.6943352 63.6875,49.5078137 63.6875,49.2773438 Z M68.9316406,49.9804688 C69.2871112,49.9804688 69.5820301,49.8769542 69.8164062,49.6699219 C70.0507824,49.4628896 70.1757812,49.2070328 70.1914062,48.9023438 L71.5332031,48.9023438 C71.517578,49.296877 71.3945324,49.6650374 71.1640625,50.0068359 C70.9335926,50.3486345 70.6210957,50.6191396 70.2265625,50.8183594 C69.8320293,51.0175791 69.4062523,51.1171875 68.9492188,51.1171875 C68.0624956,51.1171875 67.3593776,50.830081 66.8398438,50.2558594 C66.3203099,49.6816378 66.0605469,48.8886769 66.0605469,47.8769531 L66.0605469,47.7304688 C66.0605469,46.7656202 66.3183568,45.993167 66.8339844,45.4130859 C67.349612,44.8330049 68.0527299,44.5429688 68.9433594,44.5429688 C69.6972694,44.5429688 70.3115211,44.7626931 70.7861328,45.2021484 C71.2607446,45.6416038 71.5097655,46.2187464 71.5332031,46.9335938 L70.1914062,46.9335938 C70.1757812,46.5703107 70.051759,46.2714855 69.8193359,46.0371094 C69.5869129,45.8027332 69.2910174,45.6855469 68.9316406,45.6855469 C68.4707008,45.6855469 68.1152356,45.8525374 67.8652344,46.1865234 C67.6152331,46.5205095 67.4882813,47.0273404 67.484375,47.7070312 L67.484375,47.9355469 C67.484375,48.6230503 67.6083972,49.1357405 67.8564453,49.4736328 C68.1044934,49.8115251 68.4628883,49.9804688 68.9316406,49.9804688 Z M72.3417969,47.7714844 C72.3417969,47.1503875 72.4648425,46.5908228 72.7109375,46.0927734 C72.9570325,45.5947241 73.3027321,45.2119154 73.7480469,44.9443359 C74.1933616,44.6767565 74.7050752,44.5429688 75.2832031,44.5429688 C76.1386762,44.5429688 76.8330051,44.8183566 77.3662109,45.3691406 C77.8994167,45.9199246 78.1874998,46.6503861 78.2304688,47.5605469 L78.2363281,47.8945312 C78.2363281,48.5195344 78.1162121,49.0781225 77.8759766,49.5703125 C77.635741,50.0625025 77.2919944,50.443358 76.8447266,50.7128906 C76.3974587,50.9824232 75.8808623,51.1171875 75.2949219,51.1171875 C74.4003862,51.1171875 73.684573,50.8193389 73.1474609,50.2236328 C72.6103489,49.6279267 72.3417969,48.8339893 72.3417969,47.8417969 L72.3417969,47.7714844 Z M73.765625,47.8945312 C73.765625,48.5468783 73.9003893,49.0576153 74.1699219,49.4267578 C74.4394545,49.7959003 74.8144507,49.9804688 75.2949219,49.9804688 C75.775393,49.9804688 76.1494127,49.7929706 76.4169922,49.4179688 C76.6845717,49.0429669 76.8183594,48.4941442 76.8183594,47.7714844 C76.8183594,47.1308562 76.6806654,46.6230488 76.4052734,46.2480469 C76.1298814,45.873045 75.7558617,45.6855469 75.2832031,45.6855469 C74.8183571,45.6855469 74.4492201,45.8701153 74.1757812,46.2392578 C73.9023424,46.6084003 73.765625,47.1601526 73.765625,47.8945312 Z M29.7324219,56.28125 L28.765625,56.28125 L28.765625,65.7910156 L29.7324219,65.7910156 L29.7324219,66.8984375 L27.3417969,66.8984375 L27.3417969,55.1679688 L29.7324219,55.1679688 L29.7324219,56.28125 Z M38.8554688,58.71875 C38.8554688,59.1367208 38.7480479,59.5087874 38.5332031,59.8349609 C38.3183583,60.1611344 38.0253925,60.4179678 37.6542969,60.6054688 C38.0996116,60.812501 38.4423816,61.0957013 38.6826172,61.4550781 C38.9228528,61.8144549 39.0429688,62.2207009 39.0429688,62.6738281 C39.0429688,63.4238319 38.789065,64.0185525 38.28125,64.4580078 C37.773435,64.8974631 37.0976605,65.1171875 36.2539062,65.1171875 C35.4062458,65.1171875 34.7275416,64.8964866 34.2177734,64.4550781 C33.7080053,64.0136697 33.453125,63.4199256 33.453125,62.6738281 C33.453125,62.2167946 33.5742175,61.8066424 33.8164062,61.4433594 C34.058595,61.0800763 34.3984353,60.8007822 34.8359375,60.6054688 C34.4687482,60.4179678 34.178712,60.1611344 33.9658203,59.8349609 C33.7529286,59.5087874 33.6464844,59.1367208 33.6464844,58.71875 C33.6464844,57.9921839 33.880857,57.4160178 34.3496094,56.9902344 C34.8183617,56.564451 35.4511679,56.3515625 36.2480469,56.3515625 C37.0488321,56.3515625 37.6835914,56.564451 38.1523438,56.9902344 C38.6210961,57.4160178 38.8554688,57.9921839 38.8554688,58.71875 Z M37.6191406,62.6035156 C37.6191406,62.1816385 37.4931653,61.8408216 37.2412109,61.5810547 C36.9892566,61.3212878 36.6562521,61.1914062 36.2421875,61.1914062 C35.8281229,61.1914062 35.4970716,61.3203112 35.2490234,61.578125 C35.0009753,61.8359388 34.8769531,62.1777322 34.8769531,62.6035156 C34.8769531,63.0214865 34.9990222,63.3554675 35.2431641,63.6054688 C35.4873059,63.85547 35.8242166,63.9804688 36.2539062,63.9804688 C36.6835959,63.9804688 37.0185535,63.8593762 37.2587891,63.6171875 C37.4990246,63.3749988 37.6191406,63.0371115 37.6191406,62.6035156 Z M37.4375,58.7714844 C37.4375,58.4003888 37.3300792,58.0947278 37.1152344,57.8544922 C36.9003896,57.6142566 36.6113299,57.4941406 36.2480469,57.4941406 C35.8847638,57.4941406 35.5976573,57.6083973 35.3867188,57.8369141 C35.1757802,58.0654308 35.0703125,58.3769512 35.0703125,58.7714844 C35.0703125,59.1621113 35.1767567,59.4726551 35.3896484,59.703125 C35.6025401,59.9335949 35.8906232,60.0488281 36.2539062,60.0488281 C36.6171893,60.0488281 36.9052724,59.9335949 37.1181641,59.703125 C37.3310558,59.4726551 37.4375,59.1621113 37.4375,58.7714844 Z M44.1816406,65 C44.1191403,64.8789056 44.0644534,64.681642 44.0175781,64.4082031 C43.5644509,64.8808617 43.0097689,65.1171875 42.3535156,65.1171875 C41.7167937,65.1171875 41.1972676,64.9355487 40.7949219,64.5722656 C40.3925761,64.2089826 40.1914062,63.7597683 40.1914062,63.2246094 C40.1914062,62.5488247 40.4423803,62.0302752 40.9443359,61.6689453 C41.4462916,61.3076154 42.1640578,61.1269531 43.0976562,61.1269531 L43.9707031,61.1269531 L43.9707031,60.7109375 C43.9707031,60.3828109 43.8789072,60.1201182 43.6953125,59.9228516 C43.5117178,59.725585 43.2324237,59.6269531 42.8574219,59.6269531 C42.5332015,59.6269531 42.2675792,59.708007 42.0605469,59.8701172 C41.8535146,60.0322274 41.75,60.23828 41.75,60.4882812 L40.3261719,60.4882812 C40.3261719,60.1406233 40.4414051,59.8154312 40.671875,59.5126953 C40.9023449,59.2099594 41.2158183,58.9726571 41.6123047,58.8007812 C42.008791,58.6289054 42.4511694,58.5429688 42.9394531,58.5429688 C43.6816443,58.5429688 44.2734353,58.7294903 44.7148438,59.1025391 C45.1562522,59.4755878 45.3828124,59.9999966 45.3945312,60.6757812 L45.3945312,63.5351562 C45.3945312,64.1054716 45.4746086,64.5605452 45.6347656,64.9003906 L45.6347656,65 L44.1816406,65 Z M42.6171875,63.9746094 C42.8984389,63.9746094 43.1630847,63.9062507 43.4111328,63.7695312 C43.6591809,63.6328118 43.8457025,63.4492199 43.9707031,63.21875 L43.9707031,62.0234375 L43.203125,62.0234375 C42.6757786,62.0234375 42.2792982,62.1152335 42.0136719,62.2988281 C41.7480455,62.4824228 41.6152344,62.7421858 41.6152344,63.078125 C41.6152344,63.3515639 41.7060538,63.5693351 41.8876953,63.7314453 C42.0693368,63.8935555 42.3124985,63.9746094 42.6171875,63.9746094 Z M49.2148438,55.1679688 L51.6171875,55.1679688 L51.6171875,66.8984375 L49.2148438,66.8984375 L49.2148438,65.7910156 L50.1933594,65.7910156 L50.1933594,56.28125 L49.2148438,56.28125 L49.2148438,55.1679688 Z" id="path-1"></path>
        <filter x="-50%" y="-50%" width="200%" height="200%" filterUnits="objectBoundingBox" id="filter-2">
            <feOffset dx="0" dy="2" in="SourceAlpha" result="shadowOffsetOuter1"></feOffset>
            <feGaussianBlur stdDeviation="1" in="shadowOffsetOuter1" result="shadowBlurOuter1"></feGaussianBlur>
            <feColorMatrix values="0 0 0 0 0   0 0 0 0 0   0 0 0 0 0  0 0 0 0.5 0" type="matrix" in="shadowBlurOuter1"></feColorMatrix>
        </filter>
        <circle id="path-3" cx="20" cy="20" r="20"></circle>
        <filter x="-50%" y="-50%" width="200%" height="200%" filterUnits="objectBoundingBox" id="filter-4">
            <feOffset dx="0" dy="2" in="SourceAlpha" result="shadowOffsetOuter1"></feOffset>
            <feGaussianBlur stdDeviation="2" in="shadowOffsetOuter1" result="shadowBlurOuter1"></feGaussianBlur>
            <feColorMatrix values="0 0 0 0 0   0 0 0 0 0   0 0 0 0 0  0 0 0 0.5 0" type="matrix" in="shadowBlurOuter1"></feColorMatrix>
        </filter>
    </defs>
    <g id="Page-1" stroke="none" stroke-width="1" fill="none" fill-rule="evenodd">
        <g id="Group-58" transform="translate(1.000000, 2.000000)">
            <g id="Grupo-de-risco-[-8a">
                <use fill="black" fill-opacity="1" filter="url(#filter-2)" xlink:href="#path-1"></use>
                <use fill="#FFFFFF" fill-rule="evenodd" xlink:href="#path-1"></use>
            </g>
            <g id="Group-5" transform="translate(19.000000, 0.000000)">
                <g id="Group-2">
                    <g id="Group" opacity="0.3">
                        <g id="Oval-6">
                            <use fill="black" fill-opacity="1" filter="url(#filter-4)" xlink:href="#path-3"></use>
                            <use fill="#FFFFFF" fill-rule="evenodd" xlink:href="#path-3"></use>
                        </g>
                    </g>
                    <circle id="Oval-5" stroke="#FFFFFF" stroke-width="5" fill="#DC1E65" cx="20" cy="20" r="8"></circle>
                </g>
            </g>
            <ellipse id="Oval-3" fill="#DC1E65" cx="39" cy="20" rx="13" ry="13"></ellipse>
            <ellipse id="Oval-3" fill="#DC1E65" cx="39" cy="20" rx="13" ry="13"></ellipse>
            <path d="M39.5546875,24 L33.8183594,24 L33.8183594,23.0214844 L36.6601562,19.921875 C37.0703146,19.4648415 37.3623038,19.0830093 37.5361328,18.7763672 C37.7099618,18.469725 37.796875,18.1621109 37.796875,17.8535156 C37.796875,17.4472636 37.6826183,17.1191419 37.4541016,16.8691406 C37.2255848,16.6191394 36.9179707,16.4941406 36.53125,16.4941406 C36.0703102,16.4941406 35.7128919,16.6347642 35.4589844,16.9160156 C35.2050769,17.197267 35.078125,17.5820288 35.078125,18.0703125 L33.6542969,18.0703125 C33.6542969,17.5507787 33.7724598,17.0830099 34.0087891,16.6669922 C34.2451184,16.2509745 34.5830056,15.9277355 35.0224609,15.6972656 C35.4619163,15.4667957 35.9687471,15.3515625 36.5429688,15.3515625 C37.3710979,15.3515625 38.0244117,15.5595682 38.5029297,15.9755859 C38.9814477,16.3916036 39.2207031,16.9667932 39.2207031,17.7011719 C39.2207031,18.1269553 39.1005871,18.5732399 38.8603516,19.0400391 C38.620116,19.5068383 38.2265652,20.0371064 37.6796875,20.6308594 L35.59375,22.8632812 L39.5546875,22.8632812 L39.5546875,24 Z M44.4941406,24 L43.0761719,24 L43.0761719,17.1503906 L40.984375,17.8652344 L40.984375,16.6640625 L44.3125,15.4394531 L44.4941406,15.4394531 L44.4941406,24 Z" id="21" fill="#FFFFFF"></path>
        </g>
    </g>
</svg>