<?xml version="1.0" encoding="UTF-8"?>
<svg width="81px" height="73px" viewBox="0 0 81 73" version="1.1" xmlns="http://www.w3.org/2000/svg" xmlns:xlink="http://www.w3.org/1999/xlink">
    <!-- Generator: Sketch 42 (36781) - http://www.bohemiancoding.com/sketch -->
    <title>Group 56</title>
    <desc>Created with Sketch.</desc>
    <defs>
        <path d="M7.08496094,51 L5.60253906,51 L1.79980469,44.9472656 L1.79980469,51 L0.317382812,51 L0.317382812,42.46875 L1.79980469,42.46875 L5.61425781,48.5449219 L5.61425781,42.46875 L7.08496094,42.46875 L7.08496094,51 Z M12.4873047,51 C12.4248044,50.8789056 12.3701174,50.681642 12.3232422,50.4082031 C11.8701149,50.8808617 11.315433,51.1171875 10.6591797,51.1171875 C10.0224578,51.1171875 9.5029317,50.9355487 9.10058594,50.5722656 C8.69824018,50.2089826 8.49707031,49.7597683 8.49707031,49.2246094 C8.49707031,48.5488247 8.74804437,48.0302752 9.25,47.6689453 C9.75195563,47.3076154 10.4697219,47.1269531 11.4033203,47.1269531 L12.2763672,47.1269531 L12.2763672,46.7109375 C12.2763672,46.3828109 12.1845712,46.1201182 12.0009766,45.9228516 C11.8173819,45.725585 11.5380878,45.6269531 11.1630859,45.6269531 C10.8388656,45.6269531 10.5732432,45.708007 10.3662109,45.8701172 C10.1591787,46.0322274 10.0556641,46.23828 10.0556641,46.4882812 L8.63183594,46.4882812 C8.63183594,46.1406233 8.74706916,45.8154312 8.97753906,45.5126953 C9.20800896,45.2099594 9.52148239,44.9726571 9.91796875,44.8007812 C10.3144551,44.6289054 10.7568335,44.5429688 11.2451172,44.5429688 C11.9873084,44.5429688 12.5790994,44.7294903 13.0205078,45.1025391 C13.4619163,45.4755878 13.6884765,45.9999966 13.7001953,46.6757812 L13.7001953,49.5351562 C13.7001953,50.1054716 13.7802726,50.5605452 13.9404297,50.9003906 L13.9404297,51 L12.4873047,51 Z M10.9228516,49.9746094 C11.204103,49.9746094 11.4687488,49.9062507 11.7167969,49.7695312 C11.964845,49.6328118 12.1513666,49.4492199 12.2763672,49.21875 L12.2763672,48.0234375 L11.5087891,48.0234375 C10.9814427,48.0234375 10.5849623,48.1152335 10.3193359,48.2988281 C10.0537096,48.4824228 9.92089844,48.7421858 9.92089844,49.078125 C9.92089844,49.3515639 10.0117178,49.5693351 10.1933594,49.7314453 C10.3750009,49.8935555 10.6181625,49.9746094 10.9228516,49.9746094 Z M13.4423828,42.1289062 C13.4423828,42.5585959 13.3183606,42.9160142 13.0703125,43.2011719 C12.8222644,43.4863296 12.5107441,43.6289062 12.1357422,43.6289062 C11.9833977,43.6289062 11.8515631,43.6123049 11.7402344,43.5791016 C11.6289057,43.5458983 11.4707042,43.4707037 11.265625,43.3535156 C11.0605458,43.2363275 10.916016,43.1660157 10.8320312,43.1425781 C10.7480465,43.1191405 10.6552739,43.1074219 10.5537109,43.1074219 C10.4052727,43.1074219 10.2792974,43.1630854 10.1757812,43.2744141 C10.0722651,43.3857427 10.0205078,43.5312491 10.0205078,43.7109375 L9.14746094,43.6640625 C9.14746094,43.2343729 9.27148313,42.8730483 9.51953125,42.5800781 C9.76757937,42.2871079 10.0771466,42.140625 10.4482422,42.140625 C10.6708996,42.140625 10.9394516,42.2285147 11.2539062,42.4042969 C11.5683609,42.580079 11.8271474,42.6679688 12.0302734,42.6679688 C12.1787117,42.6679688 12.3056635,42.6123052 12.4111328,42.5009766 C12.5166021,42.3896479 12.5693359,42.2421884 12.5693359,42.0585938 L13.4423828,42.1289062 Z M14.9248047,47.7714844 C14.9248047,47.1503875 15.0478503,46.5908228 15.2939453,46.0927734 C15.5400403,45.5947241 15.88574,45.2119154 16.3310547,44.9443359 C16.7763694,44.6767565 17.288083,44.5429688 17.8662109,44.5429688 C18.721684,44.5429688 19.416013,44.8183566 19.9492188,45.3691406 C20.4824245,45.9199246 20.7705076,46.6503861 20.8134766,47.5605469 L20.8193359,47.8945312 C20.8193359,48.5195344 20.69922,49.0781225 20.4589844,49.5703125 C20.2187488,50.0625025 19.8750022,50.443358 19.4277344,50.7128906 C18.9804665,50.9824232 18.4638701,51.1171875 17.8779297,51.1171875 C16.983394,51.1171875 16.2675808,50.8193389 15.7304688,50.2236328 C15.1933567,49.6279267 14.9248047,48.8339893 14.9248047,47.8417969 L14.9248047,47.7714844 Z M16.3486328,47.8945312 C16.3486328,48.5468783 16.4833971,49.0576153 16.7529297,49.4267578 C17.0224623,49.7959003 17.3974585,49.9804688 17.8779297,49.9804688 C18.3584008,49.9804688 18.7324205,49.7929706 19,49.4179688 C19.2675795,49.0429669 19.4013672,48.4941442 19.4013672,47.7714844 C19.4013672,47.1308562 19.2636733,46.6230487 18.9882812,46.2480469 C18.7128892,45.873045 18.3388696,45.6855469 17.8662109,45.6855469 C17.4013649,45.6855469 17.0322279,45.8701153 16.7587891,46.2392578 C16.4853502,46.6084003 16.3486328,47.1601526 16.3486328,47.8945312 Z M27.8037109,51.1171875 C26.9013627,51.1171875 26.1699247,50.8330107 25.609375,50.2646484 C25.0488253,49.6962862 24.7685547,48.9394579 24.7685547,47.9941406 L24.7685547,47.8183594 C24.7685547,47.1855437 24.8906238,46.6201197 25.1347656,46.1220703 C25.3789075,45.6240209 25.7216775,45.2363295 26.1630859,44.9589844 C26.6044944,44.6816392 27.096677,44.5429688 27.6396484,44.5429688 C28.502934,44.5429688 29.1699195,44.8183566 29.640625,45.3691406 C30.1113305,45.9199246 30.3466797,46.6992137 30.3466797,47.7070312 L30.3466797,48.28125 L26.2041016,48.28125 C26.2470705,48.8046901 26.4218735,49.2187485 26.7285156,49.5234375 C27.0351578,49.8281265 27.4208961,49.9804688 27.8857422,49.9804688 C28.5380892,49.9804688 29.0693339,49.7167995 29.4794922,49.1894531 L30.2470703,49.921875 C29.9931628,50.3007831 29.654299,50.5947255 29.2304688,50.8037109 C28.8066385,51.0126964 28.3310573,51.1171875 27.8037109,51.1171875 Z M27.6337891,45.6855469 C27.2431621,45.6855469 26.9277356,45.8222643 26.6875,46.0957031 C26.4472644,46.369142 26.2939456,46.7499976 26.2275391,47.2382812 L28.9404297,47.2382812 L28.9404297,47.1328125 C28.9091795,46.6562476 28.7822277,46.2958997 28.5595703,46.0517578 C28.3369129,45.807616 28.0283223,45.6855469 27.6337891,45.6855469 Z M27.9560547,42 L29.5791016,42 L27.9560547,43.7753906 L26.8134766,43.7753906 L27.9560547,42 Z M34.1728516,47.7714844 C34.1728516,47.1503875 34.2958972,46.5908228 34.5419922,46.0927734 C34.7880872,45.5947241 35.1337868,45.2119154 35.5791016,44.9443359 C36.0244163,44.6767565 36.5361299,44.5429688 37.1142578,44.5429688 C37.9697308,44.5429688 38.6640598,44.8183566 39.1972656,45.3691406 C39.7304714,45.9199246 40.0185545,46.6503861 40.0615234,47.5605469 L40.0673828,47.8945312 C40.0673828,48.5195344 39.9472668,49.0781225 39.7070312,49.5703125 C39.4667957,50.0625025 39.1230491,50.443358 38.6757812,50.7128906 C38.2285134,50.9824232 37.711917,51.1171875 37.1259766,51.1171875 C36.2314408,51.1171875 35.5156277,50.8193389 34.9785156,50.2236328 C34.4414036,49.6279267 34.1728516,48.8339893 34.1728516,47.8417969 L34.1728516,47.7714844 Z M35.5966797,47.8945312 C35.5966797,48.5468783 35.731444,49.0576153 36.0009766,49.4267578 C36.2705092,49.7959003 36.6455054,49.9804688 37.1259766,49.9804688 C37.6064477,49.9804688 37.9804674,49.7929706 38.2480469,49.4179688 C38.5156263,49.0429669 38.6494141,48.4941442 38.6494141,47.7714844 C38.6494141,47.1308562 38.5117201,46.6230487 38.2363281,46.2480469 C37.9609361,45.873045 37.5869164,45.6855469 37.1142578,45.6855469 C36.6494117,45.6855469 36.2802748,45.8701153 36.0068359,46.2392578 C35.7333971,46.6084003 35.5966797,47.1601526 35.5966797,47.8945312 Z M44.6376953,51 L44.6376953,45.7148438 L43.6708984,45.7148438 L43.6708984,44.6601562 L44.6376953,44.6601562 L44.6376953,44.2265625 C44.6416016,43.7304663 44.7470693,43.3046893 44.9541016,42.9492188 C45.1611338,42.5937482 45.4540997,42.3261728 45.8330078,42.1464844 C46.211916,41.966796 46.6669895,41.8769531 47.1982422,41.8769531 C47.5107437,41.8769531 47.8105454,41.9101559 48.0976562,41.9765625 C48.3847671,42.0429691 48.6826156,42.1269526 48.9912109,42.2285156 L48.7744141,43.40625 C48.2353489,43.2187491 47.7431663,43.125 47.2978516,43.125 C46.8642556,43.125 46.5498057,43.2197256 46.3544922,43.4091797 C46.1591787,43.5986338 46.0615234,43.8828106 46.0615234,44.2617188 L46.0615234,44.6601562 L47.3095703,44.6601562 L47.3095703,45.7148438 L46.0615234,45.7148438 L46.0615234,51 L44.6376953,51 Z M49.6650391,51 L48.2412109,51 L48.2412109,44.6601562 L49.6650391,44.6601562 L49.6650391,51 Z M52.5830078,44.6601562 L52.6240234,45.3222656 C53.0693382,44.8027318 53.6787071,44.5429688 54.4521484,44.5429688 C55.2998089,44.5429688 55.8798813,44.8671843 56.1923828,45.515625 C56.6533226,44.8671843 57.3017536,44.5429688 58.1376953,44.5429688 C58.8369176,44.5429688 59.3574202,44.7363262 59.6992188,45.1230469 C60.0410173,45.5097676 60.2158203,46.0800744 60.2236328,46.8339844 L60.2236328,51 L58.7998047,51 L58.7998047,46.875 C58.7998047,46.4726542 58.7119149,46.1777353 58.5361328,45.9902344 C58.3603507,45.8027334 58.069338,45.7089844 57.6630859,45.7089844 C57.3388656,45.7089844 57.0742198,45.7958976 56.8691406,45.9697266 C56.6640615,46.1435556 56.5205082,46.3710923 56.4384766,46.6523438 L56.4443359,51 L55.0205078,51 L55.0205078,46.828125 C55.0009765,46.0820275 54.6201209,45.7089844 53.8779297,45.7089844 C53.3076143,45.7089844 52.9033215,45.9414039 52.6650391,46.40625 L52.6650391,51 L51.2412109,51 L51.2412109,44.6601562 L52.5830078,44.6601562 Z M64.4072266,47.7832031 C64.4072266,46.8066357 64.6337868,46.0224639 65.0869141,45.4306641 C65.5400413,44.8388642 66.1474571,44.5429688 66.9091797,44.5429688 C67.581058,44.5429688 68.1240214,44.7773414 68.5380859,45.2460938 L68.5380859,42 L69.9619141,42 L69.9619141,51 L68.6728516,51 L68.6025391,50.34375 C68.1767557,50.8593776 67.608402,51.1171875 66.8974609,51.1171875 C66.1552697,51.1171875 65.5546898,50.8183624 65.0957031,50.2207031 C64.6367165,49.6230439 64.4072266,48.810552 64.4072266,47.7832031 Z M65.8310547,47.90625 C65.8310547,48.5507845 65.9550769,49.0537091 66.203125,49.4150391 C66.4511731,49.776369 66.8037087,49.9570312 67.2607422,49.9570312 C67.8427763,49.9570312 68.2685533,49.6972682 68.5380859,49.1777344 L68.5380859,46.4707031 C68.2763659,45.9628881 67.8544951,45.7089844 67.2724609,45.7089844 C66.8115211,45.7089844 66.4560559,45.8915997 66.2060547,46.2568359 C65.9560534,46.6220721 65.8310547,47.1718713 65.8310547,47.90625 Z M71.1806641,47.7714844 C71.1806641,47.1503875 71.3037097,46.5908228 71.5498047,46.0927734 C71.7958997,45.5947241 72.1415993,45.2119154 72.5869141,44.9443359 C73.0322288,44.6767565 73.5439424,44.5429688 74.1220703,44.5429688 C74.9775433,44.5429688 75.6718723,44.8183566 76.2050781,45.3691406 C76.7382839,45.9199246 77.026367,46.6503861 77.0693359,47.5605469 L77.0751953,47.8945312 C77.0751953,48.5195344 76.9550793,49.0781225 76.7148438,49.5703125 C76.4746082,50.0625025 76.1308616,50.443358 75.6835938,50.7128906 C75.2363259,50.9824232 74.7197295,51.1171875 74.1337891,51.1171875 C73.2392533,51.1171875 72.5234402,50.8193389 71.9863281,50.2236328 C71.4492161,49.6279267 71.1806641,48.8339893 71.1806641,47.8417969 L71.1806641,47.7714844 Z M72.6044922,47.8945312 C72.6044922,48.5468783 72.7392565,49.0576153 73.0087891,49.4267578 C73.2783217,49.7959003 73.6533179,49.9804688 74.1337891,49.9804688 C74.6142602,49.9804688 74.9882799,49.7929706 75.2558594,49.4179688 C75.5234388,49.0429669 75.6572266,48.4941442 75.6572266,47.7714844 C75.6572266,47.1308562 75.5195326,46.6230487 75.2441406,46.2480469 C74.9687486,45.873045 74.5947289,45.6855469 74.1220703,45.6855469 C73.6572242,45.6855469 73.2880873,45.8701153 73.0146484,46.2392578 C72.7412096,46.6084003 72.6044922,47.1601526 72.6044922,47.8945312 Z M7.44824219,58.6601562 L7.48925781,59.3222656 C7.93457254,58.8027318 8.54394145,58.5429688 9.31738281,58.5429688 C10.1650433,58.5429688 10.7451156,58.8671843 11.0576172,59.515625 C11.518557,58.8671843 12.166988,58.5429688 13.0029297,58.5429688 C13.7021519,58.5429688 14.2226545,58.7363262 14.5644531,59.1230469 C14.9062517,59.5097676 15.0810546,60.0800744 15.0888672,60.8339844 L15.0888672,65 L13.6650391,65 L13.6650391,60.875 C13.6650391,60.4726542 13.5771493,60.1777353 13.4013672,59.9902344 C13.2255851,59.8027334 12.9345723,59.7089844 12.5283203,59.7089844 C12.2040999,59.7089844 11.9394542,59.7958976 11.734375,59.9697266 C11.5292958,60.1435556 11.3857426,60.3710923 11.3037109,60.6523438 L11.3095703,65 L9.88574219,65 L9.88574219,60.828125 C9.86621084,60.0820275 9.48535527,59.7089844 8.74316406,59.7089844 C8.17284871,59.7089844 7.76855588,59.9414039 7.53027344,60.40625 L7.53027344,65 L6.10644531,65 L6.10644531,58.6601562 L7.44824219,58.6601562 Z M20.3916016,64.3789062 C19.9736307,64.8710962 19.3798867,65.1171875 18.6103516,65.1171875 C17.9228481,65.1171875 17.4023455,64.9160176 17.0488281,64.5136719 C16.6953107,64.1113261 16.5185547,63.5293007 16.5185547,62.7675781 L16.5185547,58.6601562 L17.9423828,58.6601562 L17.9423828,62.75 C17.9423828,63.5546915 18.2763638,63.9570312 18.9443359,63.9570312 C19.6357456,63.9570312 20.1025379,63.7089869 20.3447266,63.2128906 L20.3447266,58.6601562 L21.7685547,58.6601562 L21.7685547,65 L20.4267578,65 L20.3916016,64.3789062 Z M24.5400391,58.6601562 L24.5810547,59.3925781 C25.049807,58.826169 25.6650353,58.5429688 26.4267578,58.5429688 C27.7470769,58.5429688 28.4189452,59.2988206 28.4423828,60.8105469 L28.4423828,65 L27.0185547,65 L27.0185547,60.8925781 C27.0185547,60.4902324 26.9316415,60.1923838 26.7578125,59.9990234 C26.5839835,59.8056631 26.2998067,59.7089844 25.9052734,59.7089844 C25.3310518,59.7089844 24.9033217,59.9687474 24.6220703,60.4882812 L24.6220703,65 L23.1982422,65 L23.1982422,58.6601562 L24.5400391,58.6601562 Z M29.6259766,61.7832031 C29.6259766,60.8066357 29.8525368,60.0224639 30.3056641,59.4306641 C30.7587913,58.8388642 31.3662071,58.5429688 32.1279297,58.5429688 C32.799808,58.5429688 33.3427714,58.7773414 33.7568359,59.2460938 L33.7568359,56 L35.1806641,56 L35.1806641,65 L33.8916016,65 L33.8212891,64.34375 C33.3955057,64.8593776 32.827152,65.1171875 32.1162109,65.1171875 C31.3740197,65.1171875 30.7734398,64.8183624 30.3144531,64.2207031 C29.8554665,63.6230439 29.6259766,62.810552 29.6259766,61.7832031 Z M31.0498047,61.90625 C31.0498047,62.5507845 31.1738269,63.0537091 31.421875,63.4150391 C31.6699231,63.776369 32.0224587,63.9570312 32.4794922,63.9570312 C33.0615263,63.9570312 33.4873033,63.6972682 33.7568359,63.1777344 L33.7568359,60.4707031 C33.4951159,59.9628881 33.0732451,59.7089844 32.4912109,59.7089844 C32.0302711,59.7089844 31.6748059,59.8915997 31.4248047,60.2568359 C31.1748034,60.6220721 31.0498047,61.1718713 31.0498047,61.90625 Z M36.3994141,61.7714844 C36.3994141,61.1503875 36.5224597,60.5908228 36.7685547,60.0927734 C37.0146497,59.5947241 37.3603493,59.2119154 37.8056641,58.9443359 C38.2509788,58.6767565 38.7626924,58.5429688 39.3408203,58.5429688 C40.1962933,58.5429688 40.8906223,58.8183566 41.4238281,59.3691406 C41.9570339,59.9199246 42.245117,60.6503861 42.2880859,61.5605469 L42.2939453,61.8945312 C42.2939453,62.5195344 42.1738293,63.0781225 41.9335938,63.5703125 C41.6933582,64.0625025 41.3496116,64.443358 40.9023438,64.7128906 C40.4550759,64.9824232 39.9384795,65.1171875 39.3525391,65.1171875 C38.4580033,65.1171875 37.7421902,64.8193389 37.2050781,64.2236328 C36.6679661,63.6279267 36.3994141,62.8339893 36.3994141,61.8417969 L36.3994141,61.7714844 Z M37.8232422,61.8945312 C37.8232422,62.5468783 37.9580065,63.0576153 38.2275391,63.4267578 C38.4970717,63.7959003 38.8720679,63.9804688 39.3525391,63.9804688 C39.8330102,63.9804688 40.2070299,63.7929706 40.4746094,63.4179688 C40.7421888,63.0429669 40.8759766,62.4941442 40.8759766,61.7714844 C40.8759766,61.1308562 40.7382826,60.6230487 40.4628906,60.2480469 C40.1874986,59.873045 39.8134789,59.6855469 39.3408203,59.6855469 C38.8759742,59.6855469 38.5068373,59.8701153 38.2333984,60.2392578 C37.9599596,60.6084003 37.8232422,61.1601526 37.8232422,61.8945312 Z M48.9208984,56.28125 L47.9541016,56.28125 L47.9541016,65.7910156 L48.9208984,65.7910156 L48.9208984,66.8984375 L46.5302734,66.8984375 L46.5302734,55.1679688 L48.9208984,55.1679688 L48.9208984,56.28125 Z M58.3486328,57.2597656 L54.9384766,65 L53.4443359,65 L56.8486328,57.6113281 L52.4365234,57.6113281 L52.4365234,56.46875 L58.3486328,56.46875 L58.3486328,57.2597656 Z M63.3701172,65 C63.3076169,64.8789056 63.2529299,64.681642 63.2060547,64.4082031 C62.7529274,64.8808617 62.1982455,65.1171875 61.5419922,65.1171875 C60.9052703,65.1171875 60.3857442,64.9355487 59.9833984,64.5722656 C59.5810527,64.2089826 59.3798828,63.7597683 59.3798828,63.2246094 C59.3798828,62.5488247 59.6308569,62.0302752 60.1328125,61.6689453 C60.6347681,61.3076154 61.3525344,61.1269531 62.2861328,61.1269531 L63.1591797,61.1269531 L63.1591797,60.7109375 C63.1591797,60.3828109 63.0673837,60.1201182 62.8837891,59.9228516 C62.7001944,59.725585 62.4209003,59.6269531 62.0458984,59.6269531 C61.7216781,59.6269531 61.4560557,59.708007 61.2490234,59.8701172 C61.0419912,60.0322274 60.9384766,60.23828 60.9384766,60.4882812 L59.5146484,60.4882812 C59.5146484,60.1406233 59.6298817,59.8154312 59.8603516,59.5126953 C60.0908215,59.2099594 60.4042949,58.9726571 60.8007812,58.8007812 C61.1972676,58.6289054 61.639646,58.5429688 62.1279297,58.5429688 C62.8701209,58.5429688 63.4619119,58.7294903 63.9033203,59.1025391 C64.3447288,59.4755878 64.571289,59.9999966 64.5830078,60.6757812 L64.5830078,63.5351562 C64.5830078,64.1054716 64.6630851,64.5605452 64.8232422,64.9003906 L64.8232422,65 L63.3701172,65 Z M61.8056641,63.9746094 C62.0869155,63.9746094 62.3515613,63.9062507 62.5996094,63.7695312 C62.8476575,63.6328118 63.0341791,63.4492199 63.1591797,63.21875 L63.1591797,62.0234375 L62.3916016,62.0234375 C61.8642552,62.0234375 61.4677748,62.1152335 61.2021484,62.2988281 C60.9365221,62.4824228 60.8037109,62.7421858 60.8037109,63.078125 C60.8037109,63.3515639 60.8945303,63.5693351 61.0761719,63.7314453 C61.2578134,63.8935555 61.500975,63.9746094 61.8056641,63.9746094 Z M68.4033203,55.1679688 L70.8056641,55.1679688 L70.8056641,66.8984375 L68.4033203,66.8984375 L68.4033203,65.7910156 L69.3818359,65.7910156 L69.3818359,56.28125 L68.4033203,56.28125 L68.4033203,55.1679688 Z" id="path-1"></path>
        <filter x="-50%" y="-50%" width="200%" height="200%" filterUnits="objectBoundingBox" id="filter-2">
            <feOffset dx="0" dy="2" in="SourceAlpha" result="shadowOffsetOuter1"></feOffset>
            <feGaussianBlur stdDeviation="1" in="shadowOffsetOuter1" result="shadowBlurOuter1"></feGaussianBlur>
            <feColorMatrix values="0 0 0 0 0   0 0 0 0 0   0 0 0 0 0  0 0 0 0.5 0" type="matrix" in="shadowBlurOuter1"></feColorMatrix>
        </filter>
        <circle id="path-3" cx="20" cy="20" r="20"></circle>
        <filter x="-50%" y="-50%" width="200%" height="200%" filterUnits="objectBoundingBox" id="filter-4">
            <feOffset dx="0" dy="2" in="SourceAlpha" result="shadowOffsetOuter1"></feOffset>
            <feGaussianBlur stdDeviation="2" in="shadowOffsetOuter1" result="shadowBlurOuter1"></feGaussianBlur>
            <feColorMatrix values="0 0 0 0 0   0 0 0 0 0   0 0 0 0 0  0 0 0 0.5 0" type="matrix" in="shadowBlurOuter1"></feColorMatrix>
        </filter>
    </defs>
    <g id="Page-1" stroke="none" stroke-width="1" fill="none" fill-rule="evenodd">
        <g id="Group-56" transform="translate(2.000000, 2.000000)">
            <g id="Não-é-o-fim-do-mundo">
                <use fill="black" fill-opacity="1" filter="url(#filter-2)" xlink:href="#path-1"></use>
                <use fill="#FFFFFF" fill-rule="evenodd" xlink:href="#path-1"></use>
            </g>
            <g id="Group-5" transform="translate(18.000000, 0.000000)">
                <g id="Group-2">
                    <g id="Group" opacity="0.3">
                        <g id="Oval-6">
                            <use fill="black" fill-opacity="1" filter="url(#filter-4)" xlink:href="#path-3"></use>
                            <use fill="#FFFFFF" fill-rule="evenodd" xlink:href="#path-3"></use>
                        </g>
                    </g>
                    <circle id="Oval-5" stroke="#FFFFFF" stroke-width="5" fill="#DC1E65" cx="20" cy="20" r="8"></circle>
                </g>
            </g>
            <ellipse id="Oval-3" fill="#DC1E65" cx="38" cy="20" rx="13" ry="13"></ellipse>
            <ellipse id="Oval-3" fill="#DC1E65" cx="38" cy="20" rx="13" ry="13"></ellipse>
            <path d="M39.765625,20.4316406 C39.2890601,20.9355494 38.7324251,21.1875 38.0957031,21.1875 C37.3456994,21.1875 36.7480491,20.9248073 36.3027344,20.3994141 C35.8574196,19.8740208 35.6347656,19.183598 35.6347656,18.328125 C35.6347656,17.7656222 35.7480457,17.2558617 35.9746094,16.7988281 C36.201173,16.3417946 36.5234354,15.9863294 36.9414062,15.7324219 C37.3593771,15.4785144 37.8437472,15.3515625 38.3945312,15.3515625 C39.2539105,15.3515625 39.9355444,15.6718718 40.4394531,16.3125 C40.9433619,16.9531282 41.1953125,17.8105415 41.1953125,18.8847656 L41.1953125,19.2832031 C41.1953125,20.8222733 40.8476597,21.9960897 40.1523438,22.8046875 C39.4570278,23.6132853 38.4199288,24.0234374 37.0410156,24.0351562 L36.8710938,24.0351562 L36.8710938,22.8574219 L37.0761719,22.8574219 C37.9160198,22.8457031 38.5605446,22.6435567 39.0097656,22.2509766 C39.4589866,21.8583965 39.7109372,21.2519572 39.765625,20.4316406 Z M38.3945312,20.0742188 C38.6796889,20.0742188 38.9472644,19.9921883 39.1972656,19.828125 C39.4472669,19.6640617 39.6406243,19.4375014 39.7773438,19.1484375 L39.7773438,18.5917969 C39.7773438,17.9628875 39.6484388,17.4570332 39.390625,17.0742188 C39.1328112,16.6914043 38.7988302,16.5 38.3886719,16.5 C37.9785136,16.5 37.6513684,16.6689436 37.4072266,17.0068359 C37.1630847,17.3447283 37.0410156,17.7714818 37.0410156,18.2871094 C37.0410156,18.8222683 37.1640613,19.2539046 37.4101562,19.5820312 C37.6562512,19.9101579 37.9843729,20.0742188 38.3945312,20.0742188 Z" id="9" fill="#FFFFFF"></path>
        </g>
    </g>
</svg>