<?xml version="1.0" encoding="UTF-8"?>
<svg width="78px" height="59px" viewBox="0 0 78 59" version="1.1" xmlns="http://www.w3.org/2000/svg" xmlns:xlink="http://www.w3.org/1999/xlink">
    <!-- Generator: Sketch 42 (36781) - http://www.bohemiancoding.com/sketch -->
    <title>Group 54</title>
    <desc>Created with Sketch.</desc>
    <defs>
        <path d="M5.08984375,47.1914062 L1.5859375,47.1914062 L1.5859375,49.8164062 L5.68164062,49.8164062 L5.68164062,51 L0.103515625,51 L0.103515625,42.46875 L5.640625,42.46875 L5.640625,43.6640625 L1.5859375,43.6640625 L1.5859375,46.0195312 L5.08984375,46.0195312 L5.08984375,47.1914062 Z M8.265625,51 L6.84179688,51 L6.84179688,42 L8.265625,42 L8.265625,51 Z M12.9414062,51 L12.9414062,42.46875 L15.4609375,42.46875 C16.2148475,42.46875 16.8837861,42.6367171 17.4677734,42.9726562 C18.0517607,43.3085954 18.5039046,43.7851532 18.8242188,44.4023438 C19.1445329,45.0195343 19.3046875,45.7265585 19.3046875,46.5234375 L19.3046875,46.9511719 C19.3046875,47.7597697 19.1435563,48.4707001 18.8212891,49.0839844 C18.4990218,49.6972687 18.040042,50.1699202 17.4443359,50.5019531 C16.8486298,50.833986 16.1660195,51 15.3964844,51 L12.9414062,51 Z M14.4238281,43.6640625 L14.4238281,49.8164062 L15.390625,49.8164062 C16.1679726,49.8164062 16.7646464,49.5732446 17.1806641,49.0869141 C17.5966818,48.6005835 17.8085937,47.9023483 17.8164062,46.9921875 L17.8164062,46.5175781 C17.8164062,45.5917922 17.6152364,44.8847681 17.2128906,44.3964844 C16.8105449,43.9082007 16.2265663,43.6640625 15.4609375,43.6640625 L14.4238281,43.6640625 Z M22.1582031,51 L20.734375,51 L20.734375,44.6601562 L22.1582031,44.6601562 L22.1582031,51 Z M20.6464844,43.0136719 C20.6464844,42.7949208 20.7158196,42.613282 20.8544922,42.46875 C20.9931648,42.324218 21.191405,42.2519531 21.4492188,42.2519531 C21.7070325,42.2519531 21.9062493,42.324218 22.046875,42.46875 C22.1875007,42.613282 22.2578125,42.7949208 22.2578125,43.0136719 C22.2578125,43.2285167 22.1875007,43.4072258 22.046875,43.5498047 C21.9062493,43.6923835 21.7070325,43.7636719 21.4492188,43.7636719 C21.191405,43.7636719 20.9931648,43.6923835 20.8544922,43.5498047 C20.7158196,43.4072258 20.6464844,43.2285167 20.6464844,43.0136719 Z M27.4960938,51 C27.4335934,50.8789056 27.3789065,50.681642 27.3320312,50.4082031 C26.878904,50.8808617 26.324222,51.1171875 25.6679688,51.1171875 C25.0312468,51.1171875 24.5117208,50.9355487 24.109375,50.5722656 C23.7070292,50.2089826 23.5058594,49.7597683 23.5058594,49.2246094 C23.5058594,48.5488247 23.7568334,48.0302752 24.2587891,47.6689453 C24.7607447,47.3076154 25.478511,47.1269531 26.4121094,47.1269531 L27.2851562,47.1269531 L27.2851562,46.7109375 C27.2851562,46.3828109 27.1933603,46.1201182 27.0097656,45.9228516 C26.826171,45.725585 26.5468769,45.6269531 26.171875,45.6269531 C25.8476546,45.6269531 25.5820323,45.708007 25.375,45.8701172 C25.1679677,46.0322274 25.0644531,46.23828 25.0644531,46.4882812 L23.640625,46.4882812 C23.640625,46.1406233 23.7558582,45.8154312 23.9863281,45.5126953 C24.216798,45.2099594 24.5302715,44.9726571 24.9267578,44.8007812 C25.3232442,44.6289054 25.7656226,44.5429688 26.2539062,44.5429688 C26.9960975,44.5429688 27.5878884,44.7294903 28.0292969,45.1025391 C28.4707053,45.4755878 28.6972656,45.9999966 28.7089844,46.6757812 L28.7089844,49.5351562 C28.7089844,50.1054716 28.7890617,50.5605452 28.9492188,50.9003906 L28.9492188,51 L27.4960938,51 Z M25.9316406,49.9746094 C26.212892,49.9746094 26.4775378,49.9062507 26.7255859,49.7695312 C26.9736341,49.6328118 27.1601556,49.4492199 27.2851562,49.21875 L27.2851562,48.0234375 L26.5175781,48.0234375 C25.9902317,48.0234375 25.5937513,48.1152335 25.328125,48.2988281 C25.0624987,48.4824228 24.9296875,48.7421858 24.9296875,49.078125 C24.9296875,49.3515639 25.0205069,49.5693351 25.2021484,49.7314453 C25.38379,49.8935555 25.6269516,49.9746094 25.9316406,49.9746094 Z M35.7636719,47.8945312 C35.7636719,48.8789112 35.5439475,49.6621065 35.1044922,50.2441406 C34.6650369,50.8261748 34.0605507,51.1171875 33.2910156,51.1171875 C32.5488244,51.1171875 31.9707052,50.8496121 31.5566406,50.3144531 L31.4863281,51 L30.1972656,51 L30.1972656,42 L31.6210938,42 L31.6210938,45.2695312 C32.0312521,44.7851538 32.5839809,44.5429688 33.2792969,44.5429688 C34.0527382,44.5429688 34.660154,44.8300753 35.1015625,45.4042969 C35.542971,45.9785185 35.7636719,46.7812448 35.7636719,47.8125 L35.7636719,47.8945312 Z M34.3398438,47.7714844 C34.3398438,47.0839809 34.2187512,46.5683611 33.9765625,46.2246094 C33.7343738,45.8808577 33.3828148,45.7089844 32.921875,45.7089844 C32.3046844,45.7089844 31.871095,45.9785129 31.6210938,46.5175781 L31.6210938,49.1308594 C31.8750013,49.6816434 32.3124969,49.9570312 32.9335938,49.9570312 C33.3789085,49.9570312 33.722655,49.7910173 33.9648438,49.4589844 C34.2070325,49.1269515 34.3320312,48.6250034 34.3398438,47.953125 L34.3398438,47.7714844 Z M38.4707031,51 L37.046875,51 L37.046875,42 L38.4707031,42 L38.4707031,51 Z M39.7539062,47.7714844 C39.7539062,47.1503875 39.8769519,46.5908228 40.1230469,46.0927734 C40.3691419,45.5947241 40.7148415,45.2119154 41.1601562,44.9443359 C41.605471,44.6767565 42.1171846,44.5429688 42.6953125,44.5429688 C43.5507855,44.5429688 44.2451145,44.8183566 44.7783203,45.3691406 C45.3115261,45.9199246 45.5996092,46.6503861 45.6425781,47.5605469 L45.6484375,47.8945312 C45.6484375,48.5195344 45.5283215,49.0781225 45.2880859,49.5703125 C45.0478504,50.0625025 44.7041038,50.443358 44.2568359,50.7128906 C43.8095681,50.9824232 43.2929717,51.1171875 42.7070312,51.1171875 C41.8124955,51.1171875 41.0966824,50.8193389 40.5595703,50.2236328 C40.0224583,49.6279267 39.7539062,48.8339893 39.7539062,47.8417969 L39.7539062,47.7714844 Z M41.1777344,47.8945312 C41.1777344,48.5468783 41.3124987,49.0576153 41.5820312,49.4267578 C41.8515638,49.7959003 42.2265601,49.9804688 42.7070312,49.9804688 C43.1875024,49.9804688 43.5615221,49.7929706 43.8291016,49.4179688 C44.096681,49.0429669 44.2304688,48.4941442 44.2304688,47.7714844 C44.2304688,47.1308562 44.0927748,46.6230487 43.8173828,46.2480469 C43.5419908,45.873045 43.1679711,45.6855469 42.6953125,45.6855469 C42.2304664,45.6855469 41.8613295,45.8701153 41.5878906,46.2392578 C41.3144518,46.6084003 41.1777344,47.1601526 41.1777344,47.8945312 Z M52.2753906,42.28125 L51.3085938,42.28125 L51.3085938,51.7910156 L52.2753906,51.7910156 L52.2753906,52.8984375 L49.8847656,52.8984375 L49.8847656,41.1679688 L52.2753906,41.1679688 L52.2753906,42.28125 Z M61.703125,43.2597656 L58.2929688,51 L56.7988281,51 L60.203125,43.6113281 L55.7910156,43.6113281 L55.7910156,42.46875 L61.703125,42.46875 L61.703125,43.2597656 Z M65.5410156,49.9804688 C65.8964862,49.9804688 66.1914051,49.8769542 66.4257812,49.6699219 C66.6601574,49.4628896 66.7851562,49.2070328 66.8007812,48.9023438 L68.1425781,48.9023438 C68.126953,49.296877 68.0039074,49.6650374 67.7734375,50.0068359 C67.5429676,50.3486345 67.2304707,50.6191396 66.8359375,50.8183594 C66.4414043,51.0175791 66.0156273,51.1171875 65.5585938,51.1171875 C64.6718706,51.1171875 63.9687526,50.830081 63.4492188,50.2558594 C62.9296849,49.6816378 62.6699219,48.8886769 62.6699219,47.8769531 L62.6699219,47.7304688 C62.6699219,46.7656202 62.9277318,45.993167 63.4433594,45.4130859 C63.958987,44.8330049 64.6621049,44.5429688 65.5527344,44.5429688 C66.3066444,44.5429688 66.9208961,44.7626931 67.3955078,45.2021484 C67.8701196,45.6416038 68.1191405,46.2187464 68.1425781,46.9335938 L66.8007812,46.9335938 C66.7851562,46.5703107 66.661134,46.2714855 66.4287109,46.0371094 C66.1962879,45.8027332 65.9003924,45.6855469 65.5410156,45.6855469 C65.0800758,45.6855469 64.7246106,45.8525374 64.4746094,46.1865234 C64.2246081,46.5205095 64.0976563,47.0273404 64.09375,47.7070312 L64.09375,47.9355469 C64.09375,48.6230503 64.2177722,49.1357405 64.4658203,49.4736328 C64.7138684,49.8115251 65.0722633,49.9804688 65.5410156,49.9804688 Z M71.546875,41.1679688 L73.9492188,41.1679688 L73.9492188,52.8984375 L71.546875,52.8984375 L71.546875,51.7910156 L72.5253906,51.7910156 L72.5253906,42.28125 L71.546875,42.28125 L71.546875,41.1679688 Z" id="path-1"></path>
        <filter x="-50%" y="-50%" width="200%" height="200%" filterUnits="objectBoundingBox" id="filter-2">
            <feOffset dx="0" dy="2" in="SourceAlpha" result="shadowOffsetOuter1"></feOffset>
            <feGaussianBlur stdDeviation="1" in="shadowOffsetOuter1" result="shadowBlurOuter1"></feGaussianBlur>
            <feColorMatrix values="0 0 0 0 0   0 0 0 0 0   0 0 0 0 0  0 0 0 0.5 0" type="matrix" in="shadowBlurOuter1"></feColorMatrix>
        </filter>
        <circle id="path-3" cx="20" cy="20" r="20"></circle>
        <filter x="-50%" y="-50%" width="200%" height="200%" filterUnits="objectBoundingBox" id="filter-4">
            <feOffset dx="0" dy="2" in="SourceAlpha" result="shadowOffsetOuter1"></feOffset>
            <feGaussianBlur stdDeviation="2" in="shadowOffsetOuter1" result="shadowBlurOuter1"></feGaussianBlur>
            <feColorMatrix values="0 0 0 0 0   0 0 0 0 0   0 0 0 0 0  0 0 0 0.5 0" type="matrix" in="shadowBlurOuter1"></feColorMatrix>
        </filter>
    </defs>
    <g id="Page-1" stroke="none" stroke-width="1" fill="none" fill-rule="evenodd">
        <g id="Group-54" transform="translate(2.000000, 2.000000)">
            <g id="El-Diablo-[-7c-]">
                <use fill="black" fill-opacity="1" filter="url(#filter-2)" xlink:href="#path-1"></use>
                <use fill="#FFFFFF" fill-rule="evenodd" xlink:href="#path-1"></use>
            </g>
            <g id="Group-5" transform="translate(16.000000, 0.000000)">
                <g id="Group-2">
                    <g id="Group" opacity="0.3">
                        <g id="Oval-6">
                            <use fill="black" fill-opacity="1" filter="url(#filter-4)" xlink:href="#path-3"></use>
                            <use fill="#FFFFFF" fill-rule="evenodd" xlink:href="#path-3"></use>
                        </g>
                    </g>
                    <circle id="Oval-5" stroke="#FFFFFF" stroke-width="5" fill="#DC1E65" cx="20" cy="20" r="8"></circle>
                </g>
            </g>
            <ellipse id="Oval-3" fill="#DC1E65" cx="36" cy="20" rx="13" ry="13"></ellipse>
            <ellipse id="Oval-3" fill="#DC1E65" cx="36" cy="20" rx="13" ry="13"></ellipse>
            <path d="M34.6738281,24 L33.2558594,24 L33.2558594,17.1503906 L31.1640625,17.8652344 L31.1640625,16.6640625 L34.4921875,15.4394531 L34.6738281,15.4394531 L34.6738281,24 Z M41.4941406,24 L40.0761719,24 L40.0761719,17.1503906 L37.984375,17.8652344 L37.984375,16.6640625 L41.3125,15.4394531 L41.4941406,15.4394531 L41.4941406,24 Z" id="11" fill="#FFFFFF"></path>
        </g>
    </g>
</svg>