<?xml version="1.0" encoding="UTF-8"?>
<svg width="75px" height="74px" viewBox="0 0 75 74" version="1.1" xmlns="http://www.w3.org/2000/svg" xmlns:xlink="http://www.w3.org/1999/xlink">
    <!-- Generator: Sketch 42 (36781) - http://www.bohemiancoding.com/sketch -->
    <title>Group 63</title>
    <desc>Created with Sketch.</desc>
    <defs>
        <path d="M19.8095703,46.9570312 C19.8095703,47.7929729 19.6650405,48.526364 19.3759766,49.1572266 C19.0869126,49.7880891 18.6738308,50.2724592 18.1367188,50.6103516 C17.5996067,50.9482439 16.9814488,51.1171875 16.2822266,51.1171875 C15.5908169,51.1171875 14.9746121,50.9482439 14.4335938,50.6103516 C13.8925754,50.2724592 13.4746108,49.7910188 13.1796875,49.1660156 C12.8847642,48.5410125 12.7353516,47.8203166 12.7314453,47.0039062 L12.7314453,46.5234375 C12.7314453,45.6914021 12.8789048,44.9570344 13.1738281,44.3203125 C13.4687515,43.6835906 13.8847629,43.1962908 14.421875,42.8583984 C14.9589871,42.5205061 15.5751918,42.3515625 16.2705078,42.3515625 C16.9658238,42.3515625 17.5820286,42.518553 18.1191406,42.8525391 C18.6562527,43.1865251 19.0712876,43.6669891 19.3642578,44.2939453 C19.657228,44.9209016 19.805664,45.6503865 19.8095703,46.4824219 L19.8095703,46.9570312 Z M18.3271484,46.5117188 C18.3271484,45.5664015 18.1484393,44.8417994 17.7910156,44.3378906 C17.433592,43.8339819 16.9267611,43.5820312 16.2705078,43.5820312 C15.6298796,43.5820312 15.1289081,43.8330053 14.7675781,44.3349609 C14.4062482,44.8369166 14.2216797,45.5468704 14.2138672,46.4648438 L14.2138672,46.9570312 C14.2138672,47.8945359 14.3964825,48.6191381 14.7617188,49.1308594 C15.126955,49.6425807 15.6337858,49.8984375 16.2822266,49.8984375 C16.9384798,49.8984375 17.4433576,49.64844 17.796875,49.1484375 C18.1503924,48.648435 18.3271484,47.9179736 18.3271484,46.9570312 L18.3271484,46.5117188 Z M24.4677734,45.9609375 C24.2802725,45.9296873 24.0869151,45.9140625 23.8876953,45.9140625 C23.2353483,45.9140625 22.7958996,46.16406 22.5693359,46.6640625 L22.5693359,51 L21.1455078,51 L21.1455078,44.6601562 L22.5048828,44.6601562 L22.5400391,45.3691406 C22.8837908,44.8183566 23.3603485,44.5429688 23.9697266,44.5429688 C24.1728526,44.5429688 24.3408196,44.5703122 24.4736328,44.625 L24.4677734,45.9609375 Z M24.9892578,47.7773438 C24.9892578,46.7851513 25.215818,45.9980498 25.6689453,45.4160156 C26.1220726,44.8339815 26.7353477,44.5429688 27.5087891,44.5429688 C28.2158238,44.5429688 28.7763651,44.7910131 29.1904297,45.2871094 L29.2724609,44.6601562 L30.5380859,44.6601562 L30.5380859,53.4375 L29.1142578,53.4375 L29.1142578,50.4609375 C28.7001932,50.8984397 28.1611361,51.1171875 27.4970703,51.1171875 C26.739254,51.1171875 26.1318382,50.821292 25.6748047,50.2294922 C25.2177712,49.6376924 24.9892578,48.8203177 24.9892578,47.7773438 Z M26.4130859,47.9003906 C26.4130859,48.5488314 26.5410143,49.0576153 26.796875,49.4267578 C27.0527357,49.7959003 27.4072243,49.9804688 27.8603516,49.9804688 C28.4228544,49.9804688 28.8408189,49.7402368 29.1142578,49.2597656 L29.1142578,46.3769531 C28.8408189,45.9160133 28.4267606,45.6855469 27.8720703,45.6855469 C27.418943,45.6855469 27.0625013,45.8671857 26.8027344,46.2304688 C26.5429675,46.5937518 26.4130859,47.1503869 26.4130859,47.9003906 Z M35.9111328,50.3789062 C35.493162,50.8710962 34.8994179,51.1171875 34.1298828,51.1171875 C33.4423794,51.1171875 32.9218768,50.9160176 32.5683594,50.5136719 C32.214842,50.1113261 32.0380859,49.5293007 32.0380859,48.7675781 L32.0380859,44.6601562 L33.4619141,44.6601562 L33.4619141,48.75 C33.4619141,49.5546915 33.7958951,49.9570312 34.4638672,49.9570312 C35.1552769,49.9570312 35.6220691,49.7089869 35.8642578,49.2128906 L35.8642578,44.6601562 L37.2880859,44.6601562 L37.2880859,51 L35.9462891,51 L35.9111328,50.3789062 Z M40.2705078,51 L38.8466797,51 L38.8466797,44.6601562 L40.2705078,44.6601562 L40.2705078,51 Z M40.0009766,42.0410156 L41.6240234,42.0410156 L40.0009766,43.8164062 L38.8583984,43.8164062 L40.0009766,42.0410156 Z M41.6240234,47.7832031 C41.6240234,46.8066357 41.8505837,46.0224639 42.3037109,45.4306641 C42.7568382,44.8388642 43.364254,44.5429688 44.1259766,44.5429688 C44.7978549,44.5429688 45.3408182,44.7773414 45.7548828,45.2460938 L45.7548828,42 L47.1787109,42 L47.1787109,51 L45.8896484,51 L45.8193359,50.34375 C45.3935526,50.8593776 44.8251989,51.1171875 44.1142578,51.1171875 C43.3720666,51.1171875 42.7714867,50.8183624 42.3125,50.2207031 C41.8535133,49.6230439 41.6240234,48.810552 41.6240234,47.7832031 Z M43.0478516,47.90625 C43.0478516,48.5507845 43.1718738,49.0537091 43.4199219,49.4150391 C43.66797,49.776369 44.0205055,49.9570312 44.4775391,49.9570312 C45.0595732,49.9570312 45.4853502,49.6972682 45.7548828,49.1777344 L45.7548828,46.4707031 C45.4931628,45.9628881 45.071292,45.7089844 44.4892578,45.7089844 C44.028318,45.7089844 43.6728528,45.8915997 43.4228516,46.2568359 C43.1728503,46.6220721 43.0478516,47.1718713 43.0478516,47.90625 Z M51.4560547,51.1171875 C50.5537064,51.1171875 49.8222684,50.8330107 49.2617188,50.2646484 C48.7011691,49.6962862 48.4208984,48.9394579 48.4208984,47.9941406 L48.4208984,47.8183594 C48.4208984,47.1855437 48.5429675,46.6201197 48.7871094,46.1220703 C49.0312512,45.6240209 49.3740212,45.2363295 49.8154297,44.9589844 C50.2568381,44.6816392 50.7490207,44.5429688 51.2919922,44.5429688 C52.1552778,44.5429688 52.8222633,44.8183566 53.2929688,45.3691406 C53.7636742,45.9199246 53.9990234,46.6992137 53.9990234,47.7070312 L53.9990234,48.28125 L49.8564453,48.28125 C49.8994143,48.8046901 50.0742172,49.2187485 50.3808594,49.5234375 C50.6875015,49.8281265 51.0732399,49.9804688 51.5380859,49.9804688 C52.1904329,49.9804688 52.7216776,49.7167995 53.1318359,49.1894531 L53.8994141,49.921875 C53.6455065,50.3007831 53.3066427,50.5947255 52.8828125,50.8037109 C52.4589823,51.0126964 51.9834011,51.1171875 51.4560547,51.1171875 Z M51.2861328,45.6855469 C50.8955059,45.6855469 50.5800793,45.8222643 50.3398438,46.0957031 C50.0996082,46.369142 49.9462894,46.7499976 49.8798828,47.2382812 L52.5927734,47.2382812 L52.5927734,47.1328125 C52.5615233,46.6562476 52.4345714,46.2958997 52.2119141,46.0517578 C51.9892567,45.807616 51.680666,45.6855469 51.2861328,45.6855469 Z M58.8916016,51 C58.8291012,50.8789056 58.7744143,50.681642 58.7275391,50.4082031 C58.2744118,50.8808617 57.7197298,51.1171875 57.0634766,51.1171875 C56.4267546,51.1171875 55.9072286,50.9355487 55.5048828,50.5722656 C55.1025371,50.2089826 54.9013672,49.7597683 54.9013672,49.2246094 C54.9013672,48.5488247 55.1523412,48.0302752 55.6542969,47.6689453 C56.1562525,47.3076154 56.8740188,47.1269531 57.8076172,47.1269531 L58.6806641,47.1269531 L58.6806641,46.7109375 C58.6806641,46.3828109 58.5888681,46.1201182 58.4052734,45.9228516 C58.2216788,45.725585 57.9423847,45.6269531 57.5673828,45.6269531 C57.2431624,45.6269531 56.9775401,45.708007 56.7705078,45.8701172 C56.5634755,46.0322274 56.4599609,46.23828 56.4599609,46.4882812 L55.0361328,46.4882812 C55.0361328,46.1406233 55.151366,45.8154312 55.3818359,45.5126953 C55.6123058,45.2099594 55.9257793,44.9726571 56.3222656,44.8007812 C56.718752,44.6289054 57.1611304,44.5429688 57.6494141,44.5429688 C58.3916053,44.5429688 58.9833962,44.7294903 59.4248047,45.1025391 C59.8662131,45.4755878 60.0927734,45.9999966 60.1044922,46.6757812 L60.1044922,49.5351562 C60.1044922,50.1054716 60.1845695,50.5605452 60.3447266,50.9003906 L60.3447266,51 L58.8916016,51 Z M57.3271484,49.9746094 C57.6083998,49.9746094 57.8730456,49.9062507 58.1210938,49.7695312 C58.3691419,49.6328118 58.5556634,49.4492199 58.6806641,49.21875 L58.6806641,48.0234375 L57.9130859,48.0234375 C57.3857396,48.0234375 56.9892591,48.1152335 56.7236328,48.2988281 C56.4580065,48.4824228 56.3251953,48.7421858 56.3251953,49.078125 C56.3251953,49.3515639 56.4160147,49.5693351 56.5976562,49.7314453 C56.7792978,49.8935555 57.0224594,49.9746094 57.3271484,49.9746094 Z M2.33691406,58.6601562 L2.37792969,59.3925781 C2.84668203,58.826169 3.46191025,58.5429688 4.22363281,58.5429688 C5.54395191,58.5429688 6.2158202,59.2988206 6.23925781,60.8105469 L6.23925781,65 L4.81542969,65 L4.81542969,60.8925781 C4.81542969,60.4902324 4.72851649,60.1923838 4.5546875,59.9990234 C4.38085851,59.8056631 4.09668166,59.7089844 3.70214844,59.7089844 C3.12792682,59.7089844 2.70019672,59.9687474 2.41894531,60.4882812 L2.41894531,65 L0.995117188,65 L0.995117188,58.6601562 L2.33691406,58.6601562 Z M10.4814453,65.1171875 C9.57909705,65.1171875 8.84765905,64.8330107 8.28710938,64.2646484 C7.7265597,63.6962862 7.44628906,62.9394579 7.44628906,61.9941406 L7.44628906,61.8183594 C7.44628906,61.1855437 7.56835815,60.6201197 7.8125,60.1220703 C8.05664185,59.6240209 8.39941186,59.2363295 8.84082031,58.9589844 C9.28222877,58.6816392 9.77441135,58.5429688 10.3173828,58.5429688 C11.1806684,58.5429688 11.8476539,58.8183566 12.3183594,59.3691406 C12.7890649,59.9199246 13.0244141,60.6992137 13.0244141,61.7070312 L13.0244141,62.28125 L8.88183594,62.28125 C8.9248049,62.8046901 9.09960784,63.2187485 9.40625,63.5234375 C9.71289216,63.8281265 10.0986305,63.9804688 10.5634766,63.9804688 C11.2158236,63.9804688 11.7470683,63.7167995 12.1572266,63.1894531 L12.9248047,63.921875 C12.6708972,64.3007831 12.3320334,64.5947255 11.9082031,64.8037109 C11.4843729,65.0126964 11.0087917,65.1171875 10.4814453,65.1171875 Z M10.3115234,59.6855469 C9.92089648,59.6855469 9.60546995,59.8222643 9.36523438,60.0957031 C9.1249988,60.369142 8.97168002,60.7499976 8.90527344,61.2382812 L11.6181641,61.2382812 L11.6181641,61.1328125 C11.5869139,60.6562476 11.4599621,60.2958997 11.2373047,60.0517578 C11.0146473,59.807616 10.7060567,59.6855469 10.3115234,59.6855469 Z M13.8798828,61.7832031 C13.8798828,60.7988232 14.1113258,60.0126983 14.5742188,59.4248047 C15.0371117,58.8369111 15.6513634,58.5429688 16.4169922,58.5429688 C17.1396521,58.5429688 17.7080057,58.7949194 18.1220703,59.2988281 L18.1865234,58.6601562 L19.4697266,58.6601562 L19.4697266,64.8066406 C19.4697266,65.638676 19.2109401,66.2949195 18.6933594,66.7753906 C18.1757787,67.2558618 17.4775435,67.4960938 16.5986328,67.4960938 C16.1337867,67.4960938 15.6796897,67.399415 15.2363281,67.2060547 C14.7929665,67.0126943 14.4560558,66.7597672 14.2255859,66.4472656 L14.8994141,65.5917969 C15.3369163,66.1113307 15.8759734,66.3710938 16.5166016,66.3710938 C16.9892602,66.3710938 17.3623033,66.2431653 17.6357422,65.9873047 C17.9091811,65.731444 18.0458984,65.3554712 18.0458984,64.859375 L18.0458984,64.4316406 C17.6357401,64.8886742 17.0888706,65.1171875 16.4052734,65.1171875 C15.6630822,65.1171875 15.056643,64.8222686 14.5859375,64.2324219 C14.115232,63.6425752 13.8798828,62.8261771 13.8798828,61.7832031 Z M15.2978516,61.90625 C15.2978516,62.5429719 15.4277331,63.0439435 15.6875,63.4091797 C15.9472669,63.7744159 16.3076149,63.9570312 16.7685547,63.9570312 C17.3427763,63.9570312 17.7685533,63.71094 18.0458984,63.21875 L18.0458984,60.4296875 C17.7763658,59.9492163 17.3544951,59.7089844 16.7802734,59.7089844 C16.3115211,59.7089844 15.9472669,59.8945294 15.6875,60.265625 C15.4277331,60.6367206 15.2978516,61.1835901 15.2978516,61.90625 Z M24.2509766,59.9609375 C24.0634756,59.9296873 23.8701182,59.9140625 23.6708984,59.9140625 C23.0185514,59.9140625 22.5791027,60.16406 22.3525391,60.6640625 L22.3525391,65 L20.9287109,65 L20.9287109,58.6601562 L22.2880859,58.6601562 L22.3232422,59.3691406 C22.6669939,58.8183566 23.1435516,58.5429688 23.7529297,58.5429688 C23.9560557,58.5429688 24.1240228,58.5703122 24.2568359,58.625 L24.2509766,59.9609375 Z M28.7626953,65 C28.700195,64.8789056 28.645508,64.681642 28.5986328,64.4082031 C28.1455055,64.8808617 27.5908236,65.1171875 26.9345703,65.1171875 C26.2978484,65.1171875 25.7783223,64.9355487 25.3759766,64.5722656 C24.9736308,64.2089826 24.7724609,63.7597683 24.7724609,63.2246094 C24.7724609,62.5488247 25.023435,62.0302752 25.5253906,61.6689453 C26.0273463,61.3076154 26.7451125,61.1269531 27.6787109,61.1269531 L28.5517578,61.1269531 L28.5517578,60.7109375 C28.5517578,60.3828109 28.4599619,60.1201182 28.2763672,59.9228516 C28.0927725,59.725585 27.8134784,59.6269531 27.4384766,59.6269531 C27.1142562,59.6269531 26.8486338,59.708007 26.6416016,59.8701172 C26.4345693,60.0322274 26.3310547,60.23828 26.3310547,60.4882812 L24.9072266,60.4882812 C24.9072266,60.1406233 25.0224598,59.8154312 25.2529297,59.5126953 C25.4833996,59.2099594 25.796873,58.9726571 26.1933594,58.8007812 C26.5898457,58.6289054 27.0322241,58.5429688 27.5205078,58.5429688 C28.262699,58.5429688 28.85449,58.7294903 29.2958984,59.1025391 C29.7373069,59.4755878 29.9638671,59.9999966 29.9755859,60.6757812 L29.9755859,63.5351562 C29.9755859,64.1054716 30.0556633,64.5605452 30.2158203,64.9003906 L30.2158203,65 L28.7626953,65 Z M27.1982422,63.9746094 C27.4794936,63.9746094 27.7441394,63.9062507 27.9921875,63.7695312 C28.2402356,63.6328118 28.4267572,63.4492199 28.5517578,63.21875 L28.5517578,62.0234375 L27.7841797,62.0234375 C27.2568333,62.0234375 26.8603529,62.1152335 26.5947266,62.2988281 C26.3291002,62.4824228 26.1962891,62.7421858 26.1962891,63.078125 C26.1962891,63.3515639 26.2871085,63.5693351 26.46875,63.7314453 C26.6503915,63.8935555 26.8935532,63.9746094 27.1982422,63.9746094 Z M36.8896484,56.28125 L35.9228516,56.28125 L35.9228516,65.7910156 L36.8896484,65.7910156 L36.8896484,66.8984375 L34.4990234,66.8984375 L34.4990234,55.1679688 L36.8896484,55.1679688 L36.8896484,56.28125 Z M45.0693359,56.4277344 L45.0693359,57.6054688 L44.8935547,57.6054688 C44.0966757,57.6171876 43.4599633,57.8359354 42.9833984,58.2617188 C42.5068336,58.6875021 42.2236333,59.2910117 42.1337891,60.0722656 C42.5908226,59.5917945 43.1748011,59.3515625 43.8857422,59.3515625 C44.6396522,59.3515625 45.2343728,59.6171848 45.6699219,60.1484375 C46.1054709,60.6796902 46.3232422,61.3652302 46.3232422,62.2050781 C46.3232422,63.07227 46.0683619,63.7744114 45.5585938,64.3115234 C45.0488256,64.8486355 44.379887,65.1171875 43.5517578,65.1171875 C42.7001911,65.1171875 42.0097683,64.8027375 41.4804688,64.1738281 C40.9511692,63.5449187 40.6865234,62.7207082 40.6865234,61.7011719 L40.6865234,61.2148438 C40.6865234,59.7187425 41.0507776,58.5468792 41.7792969,57.6992188 C42.5078161,56.8515583 43.5556572,56.4277344 44.9228516,56.4277344 L45.0693359,56.4277344 Z M43.5400391,60.5 C43.2275375,60.5 42.9414075,60.5878897 42.6816406,60.7636719 C42.4218737,60.939454 42.2314459,61.1738267 42.1103516,61.4667969 L42.1103516,61.9003906 C42.1103516,62.5332063 42.2431627,63.0361309 42.5087891,63.4091797 C42.7744154,63.7822284 43.118162,63.96875 43.5400391,63.96875 C43.9619162,63.96875 44.2958972,63.8105485 44.5419922,63.4941406 C44.7880872,63.1777328 44.9111328,62.7617213 44.9111328,62.2460938 C44.9111328,61.7304662 44.7861341,61.3105485 44.5361328,60.9863281 C44.2861316,60.6621078 43.9541036,60.5 43.5400391,60.5 Z M51.1044922,63.2773438 C51.1044922,63.0234362 51.000001,62.8300788 50.7910156,62.6972656 C50.5820302,62.5644525 50.235354,62.4472661 49.7509766,62.3457031 C49.2665991,62.2441401 48.8623063,62.1152352 48.5380859,61.9589844 C47.8271449,61.6152327 47.4716797,61.1171908 47.4716797,60.4648438 C47.4716797,59.917966 47.7021461,59.4609393 48.1630859,59.09375 C48.6240257,58.7265607 49.2099574,58.5429688 49.9208984,58.5429688 C50.6787147,58.5429688 51.2910133,58.7304669 51.7578125,59.1054688 C52.2246117,59.4804706 52.4580078,59.9667939 52.4580078,60.5644531 L51.0341797,60.5644531 C51.0341797,60.2910143 50.9326182,60.0634775 50.7294922,59.8818359 C50.5263662,59.7001944 50.2568376,59.609375 49.9208984,59.609375 C49.6083969,59.609375 49.3535166,59.6816399 49.15625,59.8261719 C48.9589834,59.9707038 48.8603516,60.1640613 48.8603516,60.40625 C48.8603516,60.6250011 48.9521475,60.7949213 49.1357422,60.9160156 C49.3193369,61.03711 49.6904269,61.1591791 50.2490234,61.2822266 C50.80762,61.4052741 51.2460922,61.551757 51.5644531,61.7216797 C51.8828141,61.8916024 52.1191399,62.0957019 52.2734375,62.3339844 C52.4277351,62.5722668 52.5048828,62.8613264 52.5048828,63.2011719 C52.5048828,63.7714872 52.2685571,64.2333967 51.7958984,64.5869141 C51.3232398,64.9404315 50.7041054,65.1171875 49.9384766,65.1171875 C49.4189427,65.1171875 48.9560567,65.0234384 48.5498047,64.8359375 C48.1435527,64.6484366 47.8271496,64.3906266 47.6005859,64.0625 C47.3740223,63.7343734 47.2607422,63.3808613 47.2607422,63.0019531 L48.6435547,63.0019531 C48.663086,63.3378923 48.7900379,63.5966788 49.0244141,63.7783203 C49.2587902,63.9599618 49.569334,64.0507812 49.9560547,64.0507812 C50.3310566,64.0507812 50.61621,63.9794929 50.8115234,63.8369141 C51.0068369,63.6943352 51.1044922,63.5078137 51.1044922,63.2773438 Z M57.5849609,64.3789062 C57.1669901,64.8710962 56.573246,65.1171875 55.8037109,65.1171875 C55.1162075,65.1171875 54.5957049,64.9160176 54.2421875,64.5136719 C53.8886701,64.1113261 53.7119141,63.5293007 53.7119141,62.7675781 L53.7119141,58.6601562 L55.1357422,58.6601562 L55.1357422,62.75 C55.1357422,63.5546915 55.4697232,63.9570312 56.1376953,63.9570312 C56.829105,63.9570312 57.2958972,63.7089869 57.5380859,63.2128906 L57.5380859,58.6601562 L58.9619141,58.6601562 L58.9619141,65 L57.6201172,65 L57.5849609,64.3789062 Z M65.9638672,61.8945312 C65.9638672,62.8750049 65.7412132,63.6572236 65.2958984,64.2412109 C64.8505837,64.8251982 64.2529334,65.1171875 63.5029297,65.1171875 C62.8076137,65.1171875 62.2509787,64.8886742 61.8330078,64.4316406 L61.8330078,67.4375 L60.4091797,67.4375 L60.4091797,58.6601562 L61.7216797,58.6601562 L61.7802734,59.3046875 C62.1982443,58.7968725 62.766598,58.5429688 63.4853516,58.5429688 C64.2587929,58.5429688 64.8652322,58.8310518 65.3046875,59.4072266 C65.7441428,59.9834013 65.9638672,60.783198 65.9638672,61.8066406 L65.9638672,61.8945312 Z M64.5458984,61.7714844 C64.5458984,61.1386687 64.4199231,60.6367206 64.1679688,60.265625 C63.9160144,59.8945294 63.5556664,59.7089844 63.0869141,59.7089844 C62.5048799,59.7089844 62.0869153,59.9492163 61.8330078,60.4296875 L61.8330078,63.2421875 C62.0908216,63.7343775 62.5126924,63.9804688 63.0986328,63.9804688 C63.5517601,63.9804688 63.9062487,63.7978534 64.1621094,63.4326172 C64.41797,63.067381 64.5458984,62.5136756 64.5458984,61.7714844 Z M69.4970703,55.1679688 L71.8994141,55.1679688 L71.8994141,66.8984375 L69.4970703,66.8984375 L69.4970703,65.7910156 L70.4755859,65.7910156 L70.4755859,56.28125 L69.4970703,56.28125 L69.4970703,55.1679688 Z" id="path-1"></path>
        <filter x="-50%" y="-50%" width="200%" height="200%" filterUnits="objectBoundingBox" id="filter-2">
            <feOffset dx="0" dy="2" in="SourceAlpha" result="shadowOffsetOuter1"></feOffset>
            <feGaussianBlur stdDeviation="1" in="shadowOffsetOuter1" result="shadowBlurOuter1"></feGaussianBlur>
            <feColorMatrix values="0 0 0 0 0   0 0 0 0 0   0 0 0 0 0  0 0 0 0.5 0" type="matrix" in="shadowBlurOuter1"></feColorMatrix>
        </filter>
        <ellipse id="path-3" cx="20" cy="20" rx="20" ry="20"></ellipse>
        <filter x="-50%" y="-50%" width="200%" height="200%" filterUnits="objectBoundingBox" id="filter-4">
            <feOffset dx="0" dy="2" in="SourceAlpha" result="shadowOffsetOuter1"></feOffset>
            <feGaussianBlur stdDeviation="2" in="shadowOffsetOuter1" result="shadowBlurOuter1"></feGaussianBlur>
            <feColorMatrix values="0 0 0 0 0   0 0 0 0 0   0 0 0 0 0  0 0 0 0.5 0" type="matrix" in="shadowBlurOuter1"></feColorMatrix>
        </filter>
    </defs>
    <g id="Page-1" stroke="none" stroke-width="1" fill="none" fill-rule="evenodd">
        <g id="Group-63" transform="translate(1.000000, 2.000000)">
            <g id="Orquídea-negra-[-6su">
                <use fill="black" fill-opacity="1" filter="url(#filter-2)" xlink:href="#path-1"></use>
                <use fill="#FFFFFF" fill-rule="evenodd" xlink:href="#path-1"></use>
            </g>
            <g id="Group-5" transform="translate(18.000000, 0.000000)">
                <g id="Group-2">
                    <g id="Group" opacity="0.3">
                        <g id="Oval-6">
                            <use fill="black" fill-opacity="1" filter="url(#filter-4)" xlink:href="#path-3"></use>
                            <use fill="#FFFFFF" fill-rule="evenodd" xlink:href="#path-3"></use>
                        </g>
                    </g>
                    <ellipse id="Oval-5" stroke="#FFFFFF" stroke-width="5" fill="#DC1E65" cx="20" cy="20" rx="8" ry="8"></ellipse>
                </g>
            </g>
            <ellipse id="Oval-3" fill="#DC1E65" cx="38" cy="20" rx="13" ry="13"></ellipse>
            <ellipse id="Oval-3" fill="#DC1E65" cx="38" cy="20" rx="13" ry="13"></ellipse>
            <path d="M37.5546875,24 L31.8183594,24 L31.8183594,23.0214844 L34.6601562,19.921875 C35.0703146,19.4648415 35.3623038,19.0830093 35.5361328,18.7763672 C35.7099618,18.469725 35.796875,18.1621109 35.796875,17.8535156 C35.796875,17.4472636 35.6826183,17.1191419 35.4541016,16.8691406 C35.2255848,16.6191394 34.9179707,16.4941406 34.53125,16.4941406 C34.0703102,16.4941406 33.7128919,16.6347642 33.4589844,16.9160156 C33.2050769,17.197267 33.078125,17.5820288 33.078125,18.0703125 L31.6542969,18.0703125 C31.6542969,17.5507787 31.7724598,17.0830099 32.0087891,16.6669922 C32.2451184,16.2509745 32.5830056,15.9277355 33.0224609,15.6972656 C33.4619163,15.4667957 33.9687471,15.3515625 34.5429688,15.3515625 C35.3710979,15.3515625 36.0244117,15.5595682 36.5029297,15.9755859 C36.9814477,16.3916036 37.2207031,16.9667932 37.2207031,17.7011719 C37.2207031,18.1269553 37.1005871,18.5732399 36.8603516,19.0400391 C36.620116,19.5068383 36.2265652,20.0371064 35.6796875,20.6308594 L33.59375,22.8632812 L37.5546875,22.8632812 L37.5546875,24 Z M43.0683594,15.4277344 L43.0683594,16.6054688 L42.8925781,16.6054688 C42.0956991,16.6171876 41.4589868,16.8359354 40.9824219,17.2617188 C40.505857,17.6875021 40.2226567,18.2910117 40.1328125,19.0722656 C40.589846,18.5917945 41.1738246,18.3515625 41.8847656,18.3515625 C42.6386756,18.3515625 43.2333963,18.6171848 43.6689453,19.1484375 C44.1044944,19.6796902 44.3222656,20.3652302 44.3222656,21.2050781 C44.3222656,22.07227 44.0673854,22.7744114 43.5576172,23.3115234 C43.047849,23.8486355 42.3789104,24.1171875 41.5507812,24.1171875 C40.6992145,24.1171875 40.0087917,23.8027375 39.4794922,23.1738281 C38.9501927,22.5449187 38.6855469,21.7207082 38.6855469,20.7011719 L38.6855469,20.2148438 C38.6855469,18.7187425 39.049801,17.5468792 39.7783203,16.6992188 C40.5068396,15.8515583 41.5546807,15.4277344 42.921875,15.4277344 L43.0683594,15.4277344 Z M41.5390625,19.5 C41.2265609,19.5 40.940431,19.5878897 40.6806641,19.7636719 C40.4208971,19.939454 40.2304694,20.1738267 40.109375,20.4667969 L40.109375,20.9003906 C40.109375,21.5332063 40.2421862,22.0361309 40.5078125,22.4091797 C40.7734388,22.7822284 41.1171854,22.96875 41.5390625,22.96875 C41.9609396,22.96875 42.2949206,22.8105485 42.5410156,22.4941406 C42.7871106,22.1777328 42.9101562,21.7617213 42.9101562,21.2460938 C42.9101562,20.7304662 42.7851575,20.3105485 42.5351562,19.9863281 C42.285155,19.6621078 41.9531271,19.5 41.5390625,19.5 Z" id="26" fill="#FFFFFF"></path>
        </g>
    </g>
</svg>