<?xml version="1.0" encoding="UTF-8"?>
<svg width="76px" height="74px" viewBox="0 0 76 74" version="1.1" xmlns="http://www.w3.org/2000/svg" xmlns:xlink="http://www.w3.org/1999/xlink">
    <!-- Generator: Sketch 42 (36781) - http://www.bohemiancoding.com/sketch -->
    <title>Group 47</title>
    <desc>Created with Sketch.</desc>
    <defs>
        <path d="M13.078125,51 L13.078125,42.46875 L16.0019531,42.46875 C16.9668017,42.46875 17.7011694,42.6621074 18.2050781,43.0488281 C18.7089869,43.4355488 18.9609375,44.0117149 18.9609375,44.7773438 C18.9609375,45.1679707 18.8554698,45.5195297 18.6445312,45.8320312 C18.4335927,46.1445328 18.125002,46.3867179 17.71875,46.5585938 C18.1796898,46.6835944 18.5361316,46.9189436 18.7880859,47.2646484 C19.0400403,47.6103533 19.1660156,48.0253882 19.1660156,48.5097656 C19.1660156,49.3105509 18.9091823,49.9257791 18.3955078,50.3554688 C17.8818334,50.7851584 17.1464892,51 16.1894531,51 L13.078125,51 Z M14.5605469,47.1503906 L14.5605469,49.8164062 L16.2070312,49.8164062 C16.6718773,49.8164062 17.0351549,49.701173 17.296875,49.4707031 C17.5585951,49.2402332 17.6894531,48.9199239 17.6894531,48.5097656 C17.6894531,47.6230424 17.2363327,47.169922 16.3300781,47.1503906 L14.5605469,47.1503906 Z M14.5605469,46.0605469 L16.0136719,46.0605469 C16.4746117,46.0605469 16.8349596,45.9560557 17.0947266,45.7470703 C17.3544935,45.5380849 17.484375,45.2421894 17.484375,44.859375 C17.484375,44.4374979 17.364259,44.1328134 17.1240234,43.9453125 C16.8837879,43.7578116 16.5097682,43.6640625 16.0019531,43.6640625 L14.5605469,43.6640625 L14.5605469,46.0605469 Z M23.3027344,51.1171875 C22.4003861,51.1171875 21.6689481,50.8330107 21.1083984,50.2646484 C20.5478488,49.6962862 20.2675781,48.9394579 20.2675781,47.9941406 L20.2675781,47.8183594 C20.2675781,47.1855437 20.3896472,46.6201197 20.6337891,46.1220703 C20.8779309,45.6240209 21.2207009,45.2363295 21.6621094,44.9589844 C22.1035178,44.6816392 22.5957004,44.5429688 23.1386719,44.5429688 C24.0019574,44.5429688 24.668943,44.8183566 25.1396484,45.3691406 C25.6103539,45.9199246 25.8457031,46.6992137 25.8457031,47.7070312 L25.8457031,48.28125 L21.703125,48.28125 C21.746094,48.8046901 21.9208969,49.2187485 22.2275391,49.5234375 C22.5341812,49.8281265 22.9199196,49.9804688 23.3847656,49.9804688 C24.0371126,49.9804688 24.5683573,49.7167995 24.9785156,49.1894531 L25.7460938,49.921875 C25.4921862,50.3007831 25.1533224,50.5947255 24.7294922,50.8037109 C24.3056619,51.0126964 23.8300808,51.1171875 23.3027344,51.1171875 Z M23.1328125,45.6855469 C22.7421855,45.6855469 22.426759,45.8222643 22.1865234,46.0957031 C21.9462879,46.369142 21.7929691,46.7499976 21.7265625,47.2382812 L24.4394531,47.2382812 L24.4394531,47.1328125 C24.408203,46.6562476 24.2812511,46.2958997 24.0585938,46.0517578 C23.8359364,45.807616 23.5273457,45.6855469 23.1328125,45.6855469 Z M30.7382812,51 C30.6757809,50.8789056 30.621094,50.681642 30.5742188,50.4082031 C30.1210915,50.8808617 29.5664095,51.1171875 28.9101562,51.1171875 C28.2734343,51.1171875 27.7539083,50.9355487 27.3515625,50.5722656 C26.9492167,50.2089826 26.7480469,49.7597683 26.7480469,49.2246094 C26.7480469,48.5488247 26.9990209,48.0302752 27.5009766,47.6689453 C28.0029322,47.3076154 28.7206985,47.1269531 29.6542969,47.1269531 L30.5273438,47.1269531 L30.5273438,46.7109375 C30.5273438,46.3828109 30.4355478,46.1201182 30.2519531,45.9228516 C30.0683585,45.725585 29.7890644,45.6269531 29.4140625,45.6269531 C29.0898421,45.6269531 28.8242198,45.708007 28.6171875,45.8701172 C28.4101552,46.0322274 28.3066406,46.23828 28.3066406,46.4882812 L26.8828125,46.4882812 C26.8828125,46.1406233 26.9980457,45.8154312 27.2285156,45.5126953 C27.4589855,45.2099594 27.772459,44.9726571 28.1689453,44.8007812 C28.5654317,44.6289054 29.0078101,44.5429688 29.4960938,44.5429688 C30.238285,44.5429688 30.8300759,44.7294903 31.2714844,45.1025391 C31.7128928,45.4755878 31.9394531,45.9999966 31.9511719,46.6757812 L31.9511719,49.5351562 C31.9511719,50.1054716 32.0312492,50.5605452 32.1914062,50.9003906 L32.1914062,51 L30.7382812,51 Z M29.1738281,49.9746094 C29.4550795,49.9746094 29.7197253,49.9062507 29.9677734,49.7695312 C30.2158216,49.6328118 30.4023431,49.4492199 30.5273438,49.21875 L30.5273438,48.0234375 L29.7597656,48.0234375 C29.2324192,48.0234375 28.8359388,48.1152335 28.5703125,48.2988281 C28.3046862,48.4824228 28.171875,48.7421858 28.171875,49.078125 C28.171875,49.3515639 28.2626944,49.5693351 28.4443359,49.7314453 C28.6259775,49.8935555 28.8691391,49.9746094 29.1738281,49.9746094 Z M35.2265625,43.1191406 L35.2265625,44.6601562 L36.3457031,44.6601562 L36.3457031,45.7148438 L35.2265625,45.7148438 L35.2265625,49.2539062 C35.2265625,49.496095 35.2744136,49.6708979 35.3701172,49.7783203 C35.4658208,49.8857427 35.6367175,49.9394531 35.8828125,49.9394531 C36.0468758,49.9394531 36.2128898,49.9199221 36.3808594,49.8808594 L36.3808594,50.9824219 C36.056639,51.0722661 35.7441421,51.1171875 35.4433594,51.1171875 C34.3496039,51.1171875 33.8027344,50.5136779 33.8027344,49.3066406 L33.8027344,45.7148438 L32.7597656,45.7148438 L32.7597656,44.6601562 L33.8027344,44.6601562 L33.8027344,43.1191406 L35.2265625,43.1191406 Z M41.2207031,51 C41.1582028,50.8789056 41.1035159,50.681642 41.0566406,50.4082031 C40.6035134,50.8808617 40.0488314,51.1171875 39.3925781,51.1171875 C38.7558562,51.1171875 38.2363301,50.9355487 37.8339844,50.5722656 C37.4316386,50.2089826 37.2304688,49.7597683 37.2304688,49.2246094 C37.2304688,48.5488247 37.4814428,48.0302752 37.9833984,47.6689453 C38.4853541,47.3076154 39.2031203,47.1269531 40.1367188,47.1269531 L41.0097656,47.1269531 L41.0097656,46.7109375 C41.0097656,46.3828109 40.9179697,46.1201182 40.734375,45.9228516 C40.5507803,45.725585 40.2714862,45.6269531 39.8964844,45.6269531 C39.572264,45.6269531 39.3066417,45.708007 39.0996094,45.8701172 C38.8925771,46.0322274 38.7890625,46.23828 38.7890625,46.4882812 L37.3652344,46.4882812 C37.3652344,46.1406233 37.4804676,45.8154312 37.7109375,45.5126953 C37.9414074,45.2099594 38.2548808,44.9726571 38.6513672,44.8007812 C39.0478535,44.6289054 39.4902319,44.5429688 39.9785156,44.5429688 C40.7207068,44.5429688 41.3124978,44.7294903 41.7539062,45.1025391 C42.1953147,45.4755878 42.4218749,45.9999966 42.4335938,46.6757812 L42.4335938,49.5351562 C42.4335938,50.1054716 42.5136711,50.5605452 42.6738281,50.9003906 L42.6738281,51 L41.2207031,51 Z M39.65625,49.9746094 C39.9375014,49.9746094 40.2021472,49.9062507 40.4501953,49.7695312 C40.6982434,49.6328118 40.884765,49.4492199 41.0097656,49.21875 L41.0097656,48.0234375 L40.2421875,48.0234375 C39.7148411,48.0234375 39.3183607,48.1152335 39.0527344,48.2988281 C38.787108,48.4824228 38.6542969,48.7421858 38.6542969,49.078125 C38.6542969,49.3515639 38.7451163,49.5693351 38.9267578,49.7314453 C39.1083993,49.8935555 39.351561,49.9746094 39.65625,49.9746094 Z M46.6464844,47.7832031 C46.6464844,46.8066357 46.8730446,46.0224639 47.3261719,45.4306641 C47.7792991,44.8388642 48.3867149,44.5429688 49.1484375,44.5429688 C49.8203159,44.5429688 50.3632792,44.7773414 50.7773438,45.2460938 L50.7773438,42 L52.2011719,42 L52.2011719,51 L50.9121094,51 L50.8417969,50.34375 C50.4160135,50.8593776 49.8476598,51.1171875 49.1367188,51.1171875 C48.3945275,51.1171875 47.7939476,50.8183624 47.3349609,50.2207031 C46.8759743,49.6230439 46.6464844,48.810552 46.6464844,47.7832031 Z M48.0703125,47.90625 C48.0703125,48.5507845 48.1943347,49.0537091 48.4423828,49.4150391 C48.6904309,49.776369 49.0429665,49.9570312 49.5,49.9570312 C50.0820342,49.9570312 50.5078112,49.6972682 50.7773438,49.1777344 L50.7773438,46.4707031 C50.5156237,45.9628881 50.0937529,45.7089844 49.5117188,45.7089844 C49.0507789,45.7089844 48.6953138,45.8915997 48.4453125,46.2568359 C48.1953112,46.6220721 48.0703125,47.1718713 48.0703125,47.90625 Z M53.4199219,47.7714844 C53.4199219,47.1503875 53.5429675,46.5908228 53.7890625,46.0927734 C54.0351575,45.5947241 54.3808571,45.2119154 54.8261719,44.9443359 C55.2714866,44.6767565 55.7832002,44.5429688 56.3613281,44.5429688 C57.2168012,44.5429688 57.9111301,44.8183566 58.4443359,45.3691406 C58.9775417,45.9199246 59.2656248,46.6503861 59.3085938,47.5605469 L59.3144531,47.8945312 C59.3144531,48.5195344 59.1943371,49.0781225 58.9541016,49.5703125 C58.713866,50.0625025 58.3701194,50.443358 57.9228516,50.7128906 C57.4755837,50.9824232 56.9589873,51.1171875 56.3730469,51.1171875 C55.4785112,51.1171875 54.762698,50.8193389 54.2255859,50.2236328 C53.6884739,49.6279267 53.4199219,48.8339893 53.4199219,47.8417969 L53.4199219,47.7714844 Z M54.84375,47.8945312 C54.84375,48.5468783 54.9785143,49.0576153 55.2480469,49.4267578 C55.5175795,49.7959003 55.8925757,49.9804688 56.3730469,49.9804688 C56.853518,49.9804688 57.2275377,49.7929706 57.4951172,49.4179688 C57.7626967,49.0429669 57.8964844,48.4941442 57.8964844,47.7714844 C57.8964844,47.1308562 57.7587904,46.6230487 57.4833984,46.2480469 C57.2080064,45.873045 56.8339867,45.6855469 56.3613281,45.6855469 C55.8964821,45.6855469 55.5273451,45.8701153 55.2539062,46.2392578 C54.9804674,46.6084003 54.84375,47.1601526 54.84375,47.8945312 Z M5.32617188,61.1914062 L1.82226562,61.1914062 L1.82226562,63.8164062 L5.91796875,63.8164062 L5.91796875,65 L0.33984375,65 L0.33984375,56.46875 L5.87695312,56.46875 L5.87695312,57.6640625 L1.82226562,57.6640625 L1.82226562,60.0195312 L5.32617188,60.0195312 L5.32617188,61.1914062 Z M8.30859375,58.6601562 L8.34960938,59.3925781 C8.81836172,58.826169 9.43358994,58.5429688 10.1953125,58.5429688 C11.5156316,58.5429688 12.1874999,59.2988206 12.2109375,60.8105469 L12.2109375,65 L10.7871094,65 L10.7871094,60.8925781 C10.7871094,60.4902324 10.7001962,60.1923838 10.5263672,59.9990234 C10.3525382,59.8056631 10.0683613,59.7089844 9.67382812,59.7089844 C9.0996065,59.7089844 8.67187641,59.9687474 8.390625,60.4882812 L8.390625,65 L6.96679688,65 L6.96679688,58.6601562 L8.30859375,58.6601562 Z M13.4121094,61.7832031 C13.4121094,60.7988232 13.6435524,60.0126983 14.1064453,59.4248047 C14.5693383,58.8369111 15.1835899,58.5429688 15.9492188,58.5429688 C16.6718786,58.5429688 17.2402323,58.7949194 17.6542969,59.2988281 L17.71875,58.6601562 L19.0019531,58.6601562 L19.0019531,64.8066406 C19.0019531,65.638676 18.7431667,66.2949195 18.2255859,66.7753906 C17.7080052,67.2558618 17.00977,67.4960938 16.1308594,67.4960938 C15.6660133,67.4960938 15.2119163,67.399415 14.7685547,67.2060547 C14.3251931,67.0126943 13.9882824,66.7597672 13.7578125,66.4472656 L14.4316406,65.5917969 C14.8691428,66.1113307 15.4081999,66.3710938 16.0488281,66.3710938 C16.5214867,66.3710938 16.8945299,66.2431653 17.1679688,65.9873047 C17.4414076,65.731444 17.578125,65.3554712 17.578125,64.859375 L17.578125,64.4316406 C17.1679667,64.8886742 16.6210972,65.1171875 15.9375,65.1171875 C15.1953088,65.1171875 14.5888695,64.8222686 14.1181641,64.2324219 C13.6474586,63.6425752 13.4121094,62.8261771 13.4121094,61.7832031 Z M14.8300781,61.90625 C14.8300781,62.5429719 14.9599596,63.0439435 15.2197266,63.4091797 C15.4794935,63.7744159 15.8398414,63.9570312 16.3007812,63.9570312 C16.8750029,63.9570312 17.3007799,63.71094 17.578125,63.21875 L17.578125,60.4296875 C17.3085924,59.9492163 16.8867216,59.7089844 16.3125,59.7089844 C15.8437477,59.7089844 15.4794935,59.8945294 15.2197266,60.265625 C14.9599596,60.6367206 14.8300781,61.1835901 14.8300781,61.90625 Z M20.1972656,61.7714844 C20.1972656,61.1503875 20.3203113,60.5908228 20.5664062,60.0927734 C20.8125012,59.5947241 21.1582009,59.2119154 21.6035156,58.9443359 C22.0488304,58.6767565 22.560544,58.5429688 23.1386719,58.5429688 C23.9941449,58.5429688 24.6884739,58.8183566 25.2216797,59.3691406 C25.7548855,59.9199246 26.0429685,60.6503861 26.0859375,61.5605469 L26.0917969,61.8945312 C26.0917969,62.5195344 25.9716809,63.0781225 25.7314453,63.5703125 C25.4912097,64.0625025 25.1474632,64.443358 24.7001953,64.7128906 C24.2529275,64.9824232 23.7363311,65.1171875 23.1503906,65.1171875 C22.2558549,65.1171875 21.5400417,64.8193389 21.0029297,64.2236328 C20.4658176,63.6279267 20.1972656,62.8339893 20.1972656,61.8417969 L20.1972656,61.7714844 Z M21.6210938,61.8945312 C21.6210938,62.5468783 21.755858,63.0576153 22.0253906,63.4267578 C22.2949232,63.7959003 22.6699195,63.9804688 23.1503906,63.9804688 C23.6308618,63.9804688 24.0048815,63.7929706 24.2724609,63.4179688 C24.5400404,63.0429669 24.6738281,62.4941442 24.6738281,61.7714844 C24.6738281,61.1308562 24.5361342,60.6230487 24.2607422,60.2480469 C23.9853502,59.873045 23.6113305,59.6855469 23.1386719,59.6855469 C22.6738258,59.6855469 22.3046889,59.8701153 22.03125,60.2392578 C21.7578111,60.6084003 21.6210938,61.1601526 21.6210938,61.8945312 Z M30.6152344,59.9609375 C30.4277334,59.9296873 30.234376,59.9140625 30.0351562,59.9140625 C29.3828092,59.9140625 28.9433605,60.16406 28.7167969,60.6640625 L28.7167969,65 L27.2929688,65 L27.2929688,58.6601562 L28.6523438,58.6601562 L28.6875,59.3691406 C29.0312517,58.8183566 29.5078095,58.5429688 30.1171875,58.5429688 C30.3203135,58.5429688 30.4882806,58.5703122 30.6210938,58.625 L30.6152344,59.9609375 Z M31.1367188,61.7832031 C31.1367188,60.8066357 31.363279,60.0224639 31.8164062,59.4306641 C32.2695335,58.8388642 32.8769493,58.5429688 33.6386719,58.5429688 C34.3105502,58.5429688 34.8535136,58.7773414 35.2675781,59.2460938 L35.2675781,56 L36.6914062,56 L36.6914062,65 L35.4023438,65 L35.3320312,64.34375 C34.9062479,64.8593776 34.3378942,65.1171875 33.6269531,65.1171875 C32.8847619,65.1171875 32.284182,64.8183624 31.8251953,64.2207031 C31.3662086,63.6230439 31.1367188,62.810552 31.1367188,61.7832031 Z M32.5605469,61.90625 C32.5605469,62.5507845 32.6845691,63.0537091 32.9326172,63.4150391 C33.1806653,63.776369 33.5332008,63.9570312 33.9902344,63.9570312 C34.5722685,63.9570312 34.9980455,63.6972682 35.2675781,63.1777344 L35.2675781,60.4707031 C35.0058581,59.9628881 34.5839873,59.7089844 34.0019531,59.7089844 C33.5410133,59.7089844 33.1855481,59.8915997 32.9355469,60.2568359 C32.6855456,60.6220721 32.5605469,61.1718713 32.5605469,61.90625 Z M40.96875,65.1171875 C40.0664017,65.1171875 39.3349637,64.8330107 38.7744141,64.2646484 C38.2138644,63.6962862 37.9335938,62.9394579 37.9335938,61.9941406 L37.9335938,61.8183594 C37.9335938,61.1855437 38.0556628,60.6201197 38.2998047,60.1220703 C38.5439465,59.6240209 38.8867165,59.2363295 39.328125,58.9589844 C39.7695335,58.6816392 40.261716,58.5429688 40.8046875,58.5429688 C41.6679731,58.5429688 42.3349586,58.8183566 42.8056641,59.3691406 C43.2763695,59.9199246 43.5117188,60.6992137 43.5117188,61.7070312 L43.5117188,62.28125 L39.3691406,62.28125 C39.4121096,62.8046901 39.5869125,63.2187485 39.8935547,63.5234375 C40.2001968,63.8281265 40.5859352,63.9804688 41.0507812,63.9804688 C41.7031283,63.9804688 42.2343729,63.7167995 42.6445312,63.1894531 L43.4121094,63.921875 C43.1582019,64.3007831 42.8193381,64.5947255 42.3955078,64.8037109 C41.9716776,65.0126964 41.4960964,65.1171875 40.96875,65.1171875 Z M40.7988281,59.6855469 C40.4082012,59.6855469 40.0927746,59.8222643 39.8525391,60.0957031 C39.6123035,60.369142 39.4589847,60.7499976 39.3925781,61.2382812 L42.1054688,61.2382812 L42.1054688,61.1328125 C42.0742186,60.6562476 41.9472667,60.2958997 41.7246094,60.0517578 C41.501952,59.807616 41.1933613,59.6855469 40.7988281,59.6855469 Z M50.0390625,56.28125 L49.0722656,56.28125 L49.0722656,65.7910156 L50.0390625,65.7910156 L50.0390625,66.8984375 L47.6484375,66.8984375 L47.6484375,55.1679688 L50.0390625,55.1679688 L50.0390625,56.28125 Z M59.4667969,57.2597656 L56.0566406,65 L54.5625,65 L57.9667969,57.6113281 L53.5546875,57.6113281 L53.5546875,56.46875 L59.4667969,56.46875 L59.4667969,57.2597656 Z M63.3046875,63.9804688 C63.660158,63.9804688 63.955077,63.8769542 64.1894531,63.6699219 C64.4238293,63.4628896 64.548828,63.2070328 64.5644531,62.9023438 L65.90625,62.9023438 C65.8906249,63.296877 65.7675793,63.6650374 65.5371094,64.0068359 C65.3066395,64.3486345 64.9941426,64.6191396 64.5996094,64.8183594 C64.2050762,65.0175791 63.7792992,65.1171875 63.3222656,65.1171875 C62.4355424,65.1171875 61.7324245,64.830081 61.2128906,64.2558594 C60.6933568,63.6816378 60.4335938,62.8886769 60.4335938,61.8769531 L60.4335938,61.7304688 C60.4335938,60.7656202 60.6914037,59.993167 61.2070312,59.4130859 C61.7226588,58.8330049 62.4257768,58.5429688 63.3164062,58.5429688 C64.0703163,58.5429688 64.6845679,58.7626931 65.1591797,59.2021484 C65.6337914,59.6416038 65.8828124,60.2187464 65.90625,60.9335938 L64.5644531,60.9335938 C64.548828,60.5703107 64.4248058,60.2714855 64.1923828,60.0371094 C63.9599598,59.8027332 63.6640643,59.6855469 63.3046875,59.6855469 C62.8437477,59.6855469 62.4882825,59.8525374 62.2382812,60.1865234 C61.98828,60.5205095 61.8613281,61.0273404 61.8574219,61.7070312 L61.8574219,61.9355469 C61.8574219,62.6230503 61.9814441,63.1357405 62.2294922,63.4736328 C62.4775403,63.8115251 62.8359352,63.9804688 63.3046875,63.9804688 Z M69.3105469,55.1679688 L71.7128906,55.1679688 L71.7128906,66.8984375 L69.3105469,66.8984375 L69.3105469,65.7910156 L70.2890625,65.7910156 L70.2890625,56.28125 L69.3105469,56.28125 L69.3105469,55.1679688 Z" id="path-1"></path>
        <filter x="-50%" y="-50%" width="200%" height="200%" filterUnits="objectBoundingBox" id="filter-2">
            <feOffset dx="0" dy="2" in="SourceAlpha" result="shadowOffsetOuter1"></feOffset>
            <feGaussianBlur stdDeviation="1" in="shadowOffsetOuter1" result="shadowBlurOuter1"></feGaussianBlur>
            <feColorMatrix values="0 0 0 0 0   0 0 0 0 0   0 0 0 0 0  0 0 0 0.5 0" type="matrix" in="shadowBlurOuter1"></feColorMatrix>
        </filter>
        <circle id="path-3" cx="20" cy="20" r="20"></circle>
        <filter x="-50%" y="-50%" width="200%" height="200%" filterUnits="objectBoundingBox" id="filter-4">
            <feOffset dx="0" dy="2" in="SourceAlpha" result="shadowOffsetOuter1"></feOffset>
            <feGaussianBlur stdDeviation="2" in="shadowOffsetOuter1" result="shadowBlurOuter1"></feGaussianBlur>
            <feColorMatrix values="0 0 0 0 0   0 0 0 0 0   0 0 0 0 0  0 0 0 0.5 0" type="matrix" in="shadowBlurOuter1"></feColorMatrix>
        </filter>
    </defs>
    <g id="Page-1" stroke="none" stroke-width="1" fill="none" fill-rule="evenodd">
        <g id="Group-47" transform="translate(1.000000, 2.000000)">
            <g id="Group-34" transform="translate(0.790916, 0.000000)">
                <g id="Beata-do-Engorde-[-7">
                    <use fill="black" fill-opacity="1" filter="url(#filter-2)" xlink:href="#path-1"></use>
                    <use fill="#FFFFFF" fill-rule="evenodd" xlink:href="#path-1"></use>
                </g>
                <g id="Group-5" transform="translate(16.000000, 0.000000)">
                    <g id="Group-2">
                        <g id="Group" opacity="0.3">
                            <g id="Oval-6">
                                <use fill="black" fill-opacity="1" filter="url(#filter-4)" xlink:href="#path-3"></use>
                                <use fill="#FFFFFF" fill-rule="evenodd" xlink:href="#path-3"></use>
                            </g>
                        </g>
                        <circle id="Oval-5" stroke="#FFFFFF" stroke-width="5" fill="#DC1E65" cx="20" cy="20" r="8"></circle>
                    </g>
                </g>
                <ellipse id="Oval-3" fill="#DC1E65" cx="36" cy="20" rx="13" ry="13"></ellipse>
                <ellipse id="Oval-3" fill="#DC1E65" cx="36" cy="20" rx="13" ry="13"></ellipse>
                <path d="M33.6738281,24 L32.2558594,24 L32.2558594,17.1503906 L30.1640625,17.8652344 L30.1640625,16.6640625 L33.4921875,15.4394531 L33.6738281,15.4394531 L33.6738281,24 Z M42.0117188,17.71875 C42.0117188,18.1367208 41.9042979,18.5087874 41.6894531,18.8349609 C41.4746083,19.1611344 41.1816425,19.4179678 40.8105469,19.6054688 C41.2558616,19.812501 41.5986316,20.0957013 41.8388672,20.4550781 C42.0791028,20.8144549 42.1992188,21.2207009 42.1992188,21.6738281 C42.1992188,22.4238319 41.945315,23.0185525 41.4375,23.4580078 C40.929685,23.8974631 40.2539105,24.1171875 39.4101562,24.1171875 C38.5624958,24.1171875 37.8837916,23.8964866 37.3740234,23.4550781 C36.8642553,23.0136697 36.609375,22.4199256 36.609375,21.6738281 C36.609375,21.2167946 36.7304675,20.8066424 36.9726562,20.4433594 C37.214845,20.0800763 37.5546853,19.8007822 37.9921875,19.6054688 C37.6249982,19.4179678 37.334962,19.1611344 37.1220703,18.8349609 C36.9091786,18.5087874 36.8027344,18.1367208 36.8027344,17.71875 C36.8027344,16.9921839 37.037107,16.4160178 37.5058594,15.9902344 C37.9746117,15.564451 38.6074179,15.3515625 39.4042969,15.3515625 C40.2050821,15.3515625 40.8398414,15.564451 41.3085938,15.9902344 C41.7773461,16.4160178 42.0117188,16.9921839 42.0117188,17.71875 Z M40.7753906,21.6035156 C40.7753906,21.1816385 40.6494153,20.8408216 40.3974609,20.5810547 C40.1455066,20.3212878 39.8125021,20.1914062 39.3984375,20.1914062 C38.9843729,20.1914062 38.6533216,20.3203112 38.4052734,20.578125 C38.1572253,20.8359388 38.0332031,21.1777322 38.0332031,21.6035156 C38.0332031,22.0214865 38.1552722,22.3554675 38.3994141,22.6054688 C38.6435559,22.85547 38.9804666,22.9804688 39.4101562,22.9804688 C39.8398459,22.9804688 40.1748035,22.8593762 40.4150391,22.6171875 C40.6552746,22.3749988 40.7753906,22.0371115 40.7753906,21.6035156 Z M40.59375,17.7714844 C40.59375,17.4003888 40.4863292,17.0947278 40.2714844,16.8544922 C40.0566396,16.6142566 39.7675799,16.4941406 39.4042969,16.4941406 C39.0410138,16.4941406 38.7539073,16.6083973 38.5429688,16.8369141 C38.3320302,17.0654308 38.2265625,17.3769512 38.2265625,17.7714844 C38.2265625,18.1621113 38.3330067,18.4726551 38.5458984,18.703125 C38.7587901,18.9335949 39.0468732,19.0488281 39.4101562,19.0488281 C39.7734393,19.0488281 40.0615224,18.9335949 40.2744141,18.703125 C40.4873058,18.4726551 40.59375,18.1621113 40.59375,17.7714844 Z" id="18" fill="#FFFFFF"></path>
            </g>
        </g>
    </g>
</svg>