<?xml version="1.0" encoding="UTF-8"?>
<svg width="69px" height="77px" viewBox="0 0 69 77" version="1.1" xmlns="http://www.w3.org/2000/svg" xmlns:xlink="http://www.w3.org/1999/xlink">
    <!-- Generator: Sketch 42 (36781) - http://www.bohemiancoding.com/sketch -->
    <title>Group 40</title>
    <desc>Created with Sketch.</desc>
    <defs>
        <path d="M5.9765625,51.1914062 L2.47265625,51.1914062 L2.47265625,53.8164062 L6.56835938,53.8164062 L6.56835938,55 L0.990234375,55 L0.990234375,46.46875 L6.52734375,46.46875 L6.52734375,47.6640625 L2.47265625,47.6640625 L2.47265625,50.0195312 L5.9765625,50.0195312 L5.9765625,51.1914062 Z M8.9765625,48.6601562 L9.01757812,49.3222656 C9.46289285,48.8027318 10.0722618,48.5429688 10.8457031,48.5429688 C11.6933636,48.5429688 12.2734359,48.8671843 12.5859375,49.515625 C13.0468773,48.8671843 13.6953083,48.5429688 14.53125,48.5429688 C15.2304722,48.5429688 15.7509749,48.7363262 16.0927734,49.1230469 C16.434572,49.5097676 16.609375,50.0800744 16.6171875,50.8339844 L16.6171875,55 L15.1933594,55 L15.1933594,50.875 C15.1933594,50.4726542 15.1054696,50.1777353 14.9296875,49.9902344 C14.7539054,49.8027334 14.4628927,49.7089844 14.0566406,49.7089844 C13.7324203,49.7089844 13.4677745,49.7958976 13.2626953,49.9697266 C13.0576162,50.1435556 12.9140629,50.3710923 12.8320312,50.6523438 L12.8378906,55 L11.4140625,55 L11.4140625,50.828125 C11.3945312,50.0820275 11.0136756,49.7089844 10.2714844,49.7089844 C9.70116902,49.7089844 9.29687619,49.9414039 9.05859375,50.40625 L9.05859375,55 L7.63476562,55 L7.63476562,48.6601562 L8.9765625,48.6601562 Z M26.6308594,51.8945312 C26.6308594,52.8789112 26.411135,53.6621065 25.9716797,54.2441406 C25.5322244,54.8261748 24.9277382,55.1171875 24.1582031,55.1171875 C23.4160119,55.1171875 22.8378927,54.8496121 22.4238281,54.3144531 L22.3535156,55 L21.0644531,55 L21.0644531,46 L22.4882812,46 L22.4882812,49.2695312 C22.8984396,48.7851538 23.4511684,48.5429688 24.1464844,48.5429688 C24.9199257,48.5429688 25.5273415,48.8300753 25.96875,49.4042969 C26.4101585,49.9785185 26.6308594,50.7812448 26.6308594,51.8125 L26.6308594,51.8945312 Z M25.2070312,51.7714844 C25.2070312,51.0839809 25.0859387,50.5683611 24.84375,50.2246094 C24.6015613,49.8808577 24.2500023,49.7089844 23.7890625,49.7089844 C23.1718719,49.7089844 22.7382825,49.9785129 22.4882812,50.5175781 L22.4882812,53.1308594 C22.7421888,53.6816434 23.1796844,53.9570312 23.8007812,53.9570312 C24.246096,53.9570312 24.5898425,53.7910173 24.8320312,53.4589844 C25.07422,53.1269515 25.1992187,52.6250034 25.2070312,51.953125 L25.2070312,51.7714844 Z M31.6113281,55 C31.5488278,54.8789056 31.4941409,54.681642 31.4472656,54.4082031 C30.9941384,54.8808617 30.4394564,55.1171875 29.7832031,55.1171875 C29.1464812,55.1171875 28.6269551,54.9355487 28.2246094,54.5722656 C27.8222636,54.2089826 27.6210938,53.7597683 27.6210938,53.2246094 C27.6210938,52.5488247 27.8720678,52.0302752 28.3740234,51.6689453 C28.8759791,51.3076154 29.5937453,51.1269531 30.5273438,51.1269531 L31.4003906,51.1269531 L31.4003906,50.7109375 C31.4003906,50.3828109 31.3085947,50.1201182 31.125,49.9228516 C30.9414053,49.725585 30.6621112,49.6269531 30.2871094,49.6269531 C29.962889,49.6269531 29.6972667,49.708007 29.4902344,49.8701172 C29.2832021,50.0322274 29.1796875,50.23828 29.1796875,50.4882812 L27.7558594,50.4882812 C27.7558594,50.1406233 27.8710926,49.8154312 28.1015625,49.5126953 C28.3320324,49.2099594 28.6455058,48.9726571 29.0419922,48.8007812 C29.4384785,48.6289054 29.8808569,48.5429688 30.3691406,48.5429688 C31.1113318,48.5429688 31.7031228,48.7294903 32.1445312,49.1025391 C32.5859397,49.4755878 32.8124999,49.9999966 32.8242188,50.6757812 L32.8242188,53.5351562 C32.8242188,54.1054716 32.9042961,54.5605452 33.0644531,54.9003906 L33.0644531,55 L31.6113281,55 Z M30.046875,53.9746094 C30.3281264,53.9746094 30.5927722,53.9062507 30.8408203,53.7695312 C31.0888684,53.6328118 31.27539,53.4492199 31.4003906,53.21875 L31.4003906,52.0234375 L30.6328125,52.0234375 C30.1054661,52.0234375 29.7089857,52.1152335 29.4433594,52.2988281 C29.177733,52.4824228 29.0449219,52.7421858 29.0449219,53.078125 C29.0449219,53.3515639 29.1357413,53.5693351 29.3173828,53.7314453 C29.4990243,53.8935555 29.742186,53.9746094 30.046875,53.9746094 Z M35.8300781,55 L34.40625,55 L34.40625,48.6601562 L35.8300781,48.6601562 L35.8300781,55 Z M34.3183594,47.0136719 C34.3183594,46.7949208 34.3876946,46.613282 34.5263672,46.46875 C34.6650398,46.324218 34.86328,46.2519531 35.1210938,46.2519531 C35.3789075,46.2519531 35.5781243,46.324218 35.71875,46.46875 C35.8593757,46.613282 35.9296875,46.7949208 35.9296875,47.0136719 C35.9296875,47.2285167 35.8593757,47.4072258 35.71875,47.5498047 C35.5781243,47.6923835 35.3789075,47.7636719 35.1210938,47.7636719 C34.86328,47.7636719 34.6650398,47.6923835 34.5263672,47.5498047 C34.3876946,47.4072258 34.3183594,47.2285167 34.3183594,47.0136719 Z M39.65625,50.7460938 L40.8632812,48.6601562 L42.4453125,48.6601562 L40.5058594,51.7832031 L42.5097656,55 L40.9394531,55 L39.6738281,52.8320312 L38.4140625,55 L36.8320312,55 L38.8359375,51.7832031 L36.9023438,48.6601562 L38.4726562,48.6601562 L39.65625,50.7460938 Z M42.9140625,51.7714844 C42.9140625,51.1503875 43.0371081,50.5908228 43.2832031,50.0927734 C43.5292981,49.5947241 43.8749978,49.2119154 44.3203125,48.9443359 C44.7656272,48.6767565 45.2773409,48.5429688 45.8554688,48.5429688 C46.7109418,48.5429688 47.4052708,48.8183566 47.9384766,49.3691406 C48.4716824,49.9199246 48.7597654,50.6503861 48.8027344,51.5605469 L48.8085938,51.8945312 C48.8085938,52.5195344 48.6884778,53.0781225 48.4482422,53.5703125 C48.2080066,54.0625025 47.86426,54.443358 47.4169922,54.7128906 C46.9697243,54.9824232 46.4531279,55.1171875 45.8671875,55.1171875 C44.9726518,55.1171875 44.2568386,54.8193389 43.7197266,54.2236328 C43.1826145,53.6279267 42.9140625,52.8339893 42.9140625,51.8417969 L42.9140625,51.7714844 Z M44.3378906,51.8945312 C44.3378906,52.5468783 44.4726549,53.0576153 44.7421875,53.4267578 C45.0117201,53.7959003 45.3867163,53.9804688 45.8671875,53.9804688 C46.3476587,53.9804688 46.7216783,53.7929706 46.9892578,53.4179688 C47.2568373,53.0429669 47.390625,52.4941442 47.390625,51.7714844 C47.390625,51.1308562 47.2529311,50.6230487 46.9775391,50.2480469 C46.7021471,49.873045 46.3281274,49.6855469 45.8554688,49.6855469 C45.3906227,49.6855469 45.0214857,49.8701153 44.7480469,50.2392578 C44.474608,50.6084003 44.3378906,51.1601526 44.3378906,51.8945312 Z M52.734375,51.7832031 C52.734375,50.8066357 52.9609352,50.0224639 53.4140625,49.4306641 C53.8671898,48.8388642 54.4746056,48.5429688 55.2363281,48.5429688 C55.9082065,48.5429688 56.4511698,48.7773414 56.8652344,49.2460938 L56.8652344,46 L58.2890625,46 L58.2890625,55 L57,55 L56.9296875,54.34375 C56.5039041,54.8593776 55.9355504,55.1171875 55.2246094,55.1171875 C54.4824182,55.1171875 53.8818382,54.8183624 53.4228516,54.2207031 C52.9638649,53.6230439 52.734375,52.810552 52.734375,51.7832031 Z M54.1582031,51.90625 C54.1582031,52.5507845 54.2822253,53.0537091 54.5302734,53.4150391 C54.7783216,53.776369 55.1308571,53.9570312 55.5878906,53.9570312 C56.1699248,53.9570312 56.5957018,53.6972682 56.8652344,53.1777344 L56.8652344,50.4707031 C56.6035143,49.9628881 56.1816435,49.7089844 55.5996094,49.7089844 C55.1386696,49.7089844 54.7832044,49.8915997 54.5332031,50.2568359 C54.2832019,50.6220721 54.1582031,51.1718713 54.1582031,51.90625 Z M59.5078125,51.7714844 C59.5078125,51.1503875 59.6308581,50.5908228 59.8769531,50.0927734 C60.1230481,49.5947241 60.4687478,49.2119154 60.9140625,48.9443359 C61.3593772,48.6767565 61.8710909,48.5429688 62.4492188,48.5429688 C63.3046918,48.5429688 63.9990208,48.8183566 64.5322266,49.3691406 C65.0654324,49.9199246 65.3535154,50.6503861 65.3964844,51.5605469 L65.4023438,51.8945312 C65.4023438,52.5195344 65.2822278,53.0781225 65.0419922,53.5703125 C64.8017566,54.0625025 64.45801,54.443358 64.0107422,54.7128906 C63.5634743,54.9824232 63.0468779,55.1171875 62.4609375,55.1171875 C61.5664018,55.1171875 60.8505886,54.8193389 60.3134766,54.2236328 C59.7763645,53.6279267 59.5078125,52.8339893 59.5078125,51.8417969 L59.5078125,51.7714844 Z M60.9316406,51.8945312 C60.9316406,52.5468783 61.0664049,53.0576153 61.3359375,53.4267578 C61.6054701,53.7959003 61.9804663,53.9804688 62.4609375,53.9804688 C62.9414087,53.9804688 63.3154283,53.7929706 63.5830078,53.4179688 C63.8505873,53.0429669 63.984375,52.4941442 63.984375,51.7714844 C63.984375,51.1308562 63.8466811,50.6230487 63.5712891,50.2480469 C63.2958971,49.873045 62.9218774,49.6855469 62.4492188,49.6855469 C61.9843727,49.6855469 61.6152357,49.8701153 61.3417969,50.2392578 C61.068358,50.6084003 60.9316406,51.1601526 60.9316406,51.8945312 Z M12.0820312,67.9804688 C12.4375018,67.9804688 12.7324207,67.8769542 12.9667969,67.6699219 C13.201173,67.4628896 13.3261718,67.2070328 13.3417969,66.9023438 L14.6835938,66.9023438 C14.6679687,67.296877 14.544923,67.6650374 14.3144531,68.0068359 C14.0839832,68.3486345 13.7714863,68.6191396 13.3769531,68.8183594 C12.9824199,69.0175791 12.5566429,69.1171875 12.0996094,69.1171875 C11.2128862,69.1171875 10.5097682,68.830081 9.99023438,68.2558594 C9.47070053,67.6816378 9.2109375,66.8886769 9.2109375,65.8769531 L9.2109375,65.7304688 C9.2109375,64.7656202 9.46874742,63.993167 9.984375,63.4130859 C10.5000026,62.8330049 11.2031205,62.5429688 12.09375,62.5429688 C12.84766,62.5429688 13.4619117,62.7626931 13.9365234,63.2021484 C14.4111352,63.6416038 14.6601561,64.2187464 14.6835938,64.9335938 L13.3417969,64.9335938 C13.3261718,64.5703107 13.2021496,64.2714855 12.9697266,64.0371094 C12.7373035,63.8027332 12.441408,63.6855469 12.0820312,63.6855469 C11.6210914,63.6855469 11.2656263,63.8525374 11.015625,64.1865234 C10.7656237,64.5205095 10.6386719,65.0273404 10.6347656,65.7070312 L10.6347656,65.9355469 C10.6347656,66.6230503 10.7587878,67.1357405 11.0068359,67.4736328 C11.2548841,67.8115251 11.6132789,67.9804688 12.0820312,67.9804688 Z M18.5507812,69.1171875 C17.648433,69.1171875 16.916995,68.8330107 16.3564453,68.2646484 C15.7958956,67.6962862 15.515625,66.9394579 15.515625,65.9941406 L15.515625,65.8183594 C15.515625,65.1855437 15.6376941,64.6201197 15.8818359,64.1220703 C16.1259778,63.6240209 16.4687478,63.2363295 16.9101562,62.9589844 C17.3515647,62.6816392 17.8437473,62.5429688 18.3867188,62.5429688 C19.2500043,62.5429688 19.9169898,62.8183566 20.3876953,63.3691406 C20.8584008,63.9199246 21.09375,64.6992137 21.09375,65.7070312 L21.09375,66.28125 L16.9511719,66.28125 C16.9941408,66.8046901 17.1689438,67.2187485 17.4755859,67.5234375 C17.7822281,67.8281265 18.1679664,67.9804688 18.6328125,67.9804688 C19.2851595,67.9804688 19.8164042,67.7167995 20.2265625,67.1894531 L20.9941406,67.921875 C20.7402331,68.3007831 20.4013693,68.5947255 19.9775391,68.8037109 C19.5537088,69.0126964 19.0781276,69.1171875 18.5507812,69.1171875 Z M18.3808594,63.6855469 C17.9902324,63.6855469 17.6748059,63.8222643 17.4345703,64.0957031 C17.1943347,64.369142 17.041016,64.7499976 16.9746094,65.2382812 L19.6875,65.2382812 L19.6875,65.1328125 C19.6562498,64.6562476 19.529298,64.2958997 19.3066406,64.0517578 C19.0839833,63.807616 18.7753926,63.6855469 18.3808594,63.6855469 Z M18.703125,60 L20.3261719,60 L18.703125,61.7753906 L17.5605469,61.7753906 L18.703125,60 Z M26.0390625,68.3789062 C25.6210917,68.8710962 25.0273476,69.1171875 24.2578125,69.1171875 C23.5703091,69.1171875 23.0498065,68.9160176 22.6962891,68.5136719 C22.3427717,68.1113261 22.1660156,67.5293007 22.1660156,66.7675781 L22.1660156,62.6601562 L23.5898438,62.6601562 L23.5898438,66.75 C23.5898438,67.5546915 23.9238248,67.9570312 24.5917969,67.9570312 C25.2832066,67.9570312 25.7499988,67.7089869 25.9921875,67.2128906 L25.9921875,62.6601562 L27.4160156,62.6601562 L27.4160156,69 L26.0742188,69 L26.0390625,68.3789062 Z M34.2890625,60.28125 L33.3222656,60.28125 L33.3222656,69.7910156 L34.2890625,69.7910156 L34.2890625,70.8984375 L31.8984375,70.8984375 L31.8984375,59.1679688 L34.2890625,59.1679688 L34.2890625,60.28125 Z M43.7167969,61.2597656 L40.3066406,69 L38.8125,69 L42.2167969,61.6113281 L37.8046875,61.6113281 L37.8046875,60.46875 L43.7167969,60.46875 L43.7167969,61.2597656 Z M50.5136719,65.8945312 C50.5136719,66.8789112 50.2939475,67.6621065 49.8544922,68.2441406 C49.4150369,68.8261748 48.8105507,69.1171875 48.0410156,69.1171875 C47.2988244,69.1171875 46.7207052,68.8496121 46.3066406,68.3144531 L46.2363281,69 L44.9472656,69 L44.9472656,60 L46.3710938,60 L46.3710938,63.2695312 C46.7812521,62.7851538 47.3339809,62.5429688 48.0292969,62.5429688 C48.8027382,62.5429688 49.410154,62.8300753 49.8515625,63.4042969 C50.292971,63.9785185 50.5136719,64.7812448 50.5136719,65.8125 L50.5136719,65.8945312 Z M49.0898438,65.7714844 C49.0898438,65.0839809 48.9687512,64.5683611 48.7265625,64.2246094 C48.4843738,63.8808577 48.1328148,63.7089844 47.671875,63.7089844 C47.0546844,63.7089844 46.621095,63.9785129 46.3710938,64.5175781 L46.3710938,67.1308594 C46.6250013,67.6816434 47.0624969,67.9570312 47.6835938,67.9570312 C48.1289085,67.9570312 48.472655,67.7910173 48.7148438,67.4589844 C48.9570325,67.1269515 49.0820312,66.6250034 49.0898438,65.953125 L49.0898438,65.7714844 Z M54.0351562,59.1679688 L56.4375,59.1679688 L56.4375,70.8984375 L54.0351562,70.8984375 L54.0351562,69.7910156 L55.0136719,69.7910156 L55.0136719,60.28125 L54.0351562,60.28125 L54.0351562,59.1679688 Z" id="path-1"></path>
        <filter x="-50%" y="-50%" width="200%" height="200%" filterUnits="objectBoundingBox" id="filter-2">
            <feOffset dx="0" dy="2" in="SourceAlpha" result="shadowOffsetOuter1"></feOffset>
            <feGaussianBlur stdDeviation="1" in="shadowOffsetOuter1" result="shadowBlurOuter1"></feGaussianBlur>
            <feColorMatrix values="0 0 0 0 0   0 0 0 0 0   0 0 0 0 0  0 0 0 0.5 0" type="matrix" in="shadowBlurOuter1"></feColorMatrix>
        </filter>
        <ellipse id="path-3" cx="20" cy="20" rx="20" ry="20"></ellipse>
        <filter x="-50%" y="-50%" width="200%" height="200%" filterUnits="objectBoundingBox" id="filter-4">
            <feOffset dx="0" dy="2" in="SourceAlpha" result="shadowOffsetOuter1"></feOffset>
            <feGaussianBlur stdDeviation="2" in="shadowOffsetOuter1" result="shadowBlurOuter1"></feGaussianBlur>
            <feColorMatrix values="0 0 0 0 0   0 0 0 0 0   0 0 0 0 0  0 0 0 0.5 0" type="matrix" in="shadowBlurOuter1"></feColorMatrix>
        </filter>
    </defs>
    <g id="Page-1" stroke="none" stroke-width="1" fill="none" fill-rule="evenodd">
        <g id="Group-40" transform="translate(1.000000, 2.000000)">
            <g id="Em-baixo-do-céu-[-7b">
                <use fill="black" fill-opacity="1" filter="url(#filter-2)" xlink:href="#path-1"></use>
                <use fill="#FFFFFF" fill-rule="evenodd" xlink:href="#path-1"></use>
            </g>
            <g id="Group-5" transform="translate(9.000000, 0.000000)">
                <g id="Group-2">
                    <g id="Group" opacity="0.3">
                        <g id="Oval-6">
                            <use fill="black" fill-opacity="1" filter="url(#filter-4)" xlink:href="#path-3"></use>
                            <use fill="#FFFFFF" fill-rule="evenodd" xlink:href="#path-3"></use>
                        </g>
                    </g>
                    <ellipse id="Oval-5" stroke="#FFFFFF" stroke-width="5" fill="#DC1E65" cx="20" cy="20" rx="8" ry="8"></ellipse>
                </g>
            </g>
            <ellipse id="Oval-3" fill="#DC1E65" cx="29" cy="20" rx="13" ry="13"></ellipse>
            <path d="M26.2109375,20.0644531 L26.7509766,15.046875 L32.0966797,15.046875 L32.0966797,16.4824219 L28.1318359,16.4824219 L27.8583984,18.8613281 C28.3186872,18.5970039 28.8382133,18.4648438 29.4169922,18.4648438 C30.3649136,18.4648438 31.1020481,18.7679006 31.628418,19.3740234 C32.1547878,19.9801463 32.4179688,20.7958933 32.4179688,21.8212891 C32.4179688,22.8330129 32.126305,23.6385061 31.5429688,24.237793 C30.9596325,24.8370798 30.1598358,25.1367188 29.1435547,25.1367188 C28.2320918,25.1367188 27.4767283,24.878095 26.8774414,24.3608398 C26.2781546,23.8435847 25.9534508,23.1611371 25.9033203,22.3134766 L27.5097656,22.3134766 C27.573568,22.7965519 27.7467434,23.1668281 28.0292969,23.4243164 C28.3118504,23.6818047 28.6809873,23.8105469 29.1367188,23.8105469 C29.647138,23.8105469 30.0447577,23.628257 30.3295898,23.2636719 C30.614422,22.8990867 30.7568359,22.4023469 30.7568359,21.7734375 C30.7568359,21.1673147 30.5996109,20.6876645 30.2851562,20.3344727 C29.9707016,19.9812808 29.5377632,19.8046875 28.9863281,19.8046875 C28.6855454,19.8046875 28.4303396,19.8445634 28.2207031,19.9243164 C28.0110667,20.0040694 27.7832044,20.1601551 27.5371094,20.3925781 L26.2109375,20.0644531 Z" id="5" fill="#FFFFFF"></path>
        </g>
    </g>
</svg>