<?xml version="1.0" encoding="UTF-8"?>
<svg width="209px" height="24px" viewBox="0 0 209 24" version="1.1" xmlns="http://www.w3.org/2000/svg" xmlns:xlink="http://www.w3.org/1999/xlink">
    <!-- Generator: Sketch 42 (36781) - http://www.bohemiancoding.com/sketch -->
    <title>Group 2</title>
    <desc>Created with Sketch.</desc>
    <defs>
        <rect id="path-1" x="-1.42108547e-14" y="0" width="205" height="20" rx="2"></rect>
        <filter x="-50%" y="-50%" width="200%" height="200%" filterUnits="objectBoundingBox" id="filter-2">
            <feOffset dx="0" dy="1" in="SourceAlpha" result="shadowOffsetOuter1"></feOffset>
            <feGaussianBlur stdDeviation="1" in="shadowOffsetOuter1" result="shadowBlurOuter1"></feGaussianBlur>
            <feColorMatrix values="0 0 0 0 0   0 0 0 0 0   0 0 0 0 0  0 0 0 0.5 0" type="matrix" in="shadowBlurOuter1"></feColorMatrix>
        </filter>
    </defs>
    <g id="Page-1" stroke="none" stroke-width="1" fill="none" fill-rule="evenodd">
        <g id="Index" transform="translate(-62.000000, -228.000000)">
            <g id="Group-2" transform="translate(64.000000, 229.000000)">
                <g id="Rectangle-3">
                    <use fill="black" fill-opacity="1" filter="url(#filter-2)" xlink:href="#path-1"></use>
                    <use fill="#DC1E65" fill-rule="evenodd" xlink:href="#path-1"></use>
                </g>
                <path d="M16.5292969,10.0380859 C15.7252564,9.80696499 15.1401385,9.5229509 14.7739258,9.18603516 C14.407713,8.84911941 14.2246094,8.4332707 14.2246094,7.93847656 C14.2246094,7.37857793 14.4484027,6.91552917 14.8959961,6.54931641 C15.3435895,6.18310364 15.9254521,6 16.6416016,6 C17.1298853,6 17.565265,6.0944001 17.9477539,6.28320312 C18.3302428,6.47200615 18.6264638,6.73242021 18.8364258,7.06445312 C19.0463878,7.39648604 19.1513672,7.75943813 19.1513672,8.15332031 L18.2089844,8.15332031 C18.2089844,7.72363066 18.072267,7.38590618 17.7988281,7.14013672 C17.5253893,6.89436726 17.1396509,6.77148438 16.6416016,6.77148438 C16.1793597,6.77148438 15.818849,6.87320862 15.5600586,7.07666016 C15.3012682,7.28011169 15.171875,7.56249819 15.171875,7.92382812 C15.171875,8.21354312 15.2947579,8.45849509 15.5405273,8.65869141 C15.7862968,8.85888772 16.2045869,9.04199136 16.7954102,9.20800781 C17.3862334,9.37402427 17.8484684,9.55712791 18.1821289,9.75732422 C18.5157894,9.95752053 18.7631828,10.1910794 18.9243164,10.4580078 C19.08545,10.7249362 19.1660156,11.0390607 19.1660156,11.4003906 C19.1660156,11.9765654 18.9414085,12.4379865 18.4921875,12.784668 C18.0429665,13.1313494 17.4423866,13.3046875 16.6904297,13.3046875 C16.202146,13.3046875 15.7464214,13.2111012 15.3232422,13.0239258 C14.900063,12.8367504 14.5737316,12.5804053 14.3442383,12.2548828 C14.1147449,11.9293604 14,11.5598979 14,11.1464844 L14.9423828,11.1464844 C14.9423828,11.576174 15.1010726,11.9155261 15.418457,12.1645508 C15.7358414,12.4135755 16.1598281,12.5380859 16.6904297,12.5380859 C17.1852238,12.5380859 17.5644518,12.4371755 17.828125,12.2353516 C18.0917982,12.0335276 18.2236328,11.7584653 18.2236328,11.4101562 C18.2236328,11.0618472 18.1015637,10.7924814 17.8574219,10.6020508 C17.61328,10.4116201 17.1705761,10.2236337 16.5292969,10.0380859 Z M24.3857422,9.92089844 L21.3046875,9.92089844 L21.3046875,12.4404297 L24.8837891,12.4404297 L24.8837891,13.2070312 L20.3671875,13.2070312 L20.3671875,6.09765625 L24.8349609,6.09765625 L24.8349609,6.86914062 L21.3046875,6.86914062 L21.3046875,9.15429688 L24.3857422,9.15429688 L24.3857422,9.92089844 Z M31.0605469,6.86914062 L28.7753906,6.86914062 L28.7753906,13.2070312 L27.8427734,13.2070312 L27.8427734,6.86914062 L25.5625,6.86914062 L25.5625,6.09765625 L31.0605469,6.09765625 L31.0605469,6.86914062 Z M37.4472656,9.88183594 C37.4472656,10.578454 37.3300793,11.1863581 37.0957031,11.7055664 C36.861327,12.2247747 36.529299,12.6210924 36.0996094,12.8945312 C35.6699197,13.1679701 35.1686227,13.3046875 34.5957031,13.3046875 C34.0358045,13.3046875 33.5393902,13.1671563 33.1064453,12.8920898 C32.6735004,12.6170234 32.3374035,12.2247747 32.0981445,11.715332 C31.8588855,11.2058894 31.7360026,10.6158888 31.7294922,9.9453125 L31.7294922,9.43261719 C31.7294922,8.74902002 31.8483061,8.14518491 32.0859375,7.62109375 C32.3235689,7.09700259 32.6596658,6.69580217 33.0942383,6.41748047 C33.5288108,6.13915876 34.0260389,6 34.5859375,6 C35.1556018,6 35.6577127,6.13753118 36.0922852,6.41259766 C36.5268576,6.68766414 36.861327,7.08642317 37.0957031,7.60888672 C37.3300793,8.13135027 37.4472656,8.73925435 37.4472656,9.43261719 L37.4472656,9.88183594 Z M36.5146484,9.42285156 C36.5146484,8.57974839 36.3453793,7.9327822 36.0068359,7.48193359 C35.6682926,7.03108499 35.1946645,6.80566406 34.5859375,6.80566406 C33.9934866,6.80566406 33.5271827,7.03108499 33.1870117,7.48193359 C32.8468407,7.9327822 32.671875,8.55858975 32.6621094,9.359375 L32.6621094,9.88183594 C32.6621094,10.6988973 32.8338199,11.3409807 33.1772461,11.8081055 C33.5206723,12.2752302 33.9934866,12.5087891 34.5957031,12.5087891 C35.2011749,12.5087891 35.6699202,12.2882509 36.0019531,11.847168 C36.333986,11.406085 36.5048828,10.7737671 36.5146484,9.95019531 L36.5146484,9.42285156 Z M41.4609375,10.3310547 L39.7910156,10.3310547 L39.7910156,13.2070312 L38.8486328,13.2070312 L38.8486328,6.09765625 L41.2021484,6.09765625 C42.0029337,6.09765625 42.6189757,6.27994609 43.050293,6.64453125 C43.4816102,7.00911641 43.6972656,7.53971006 43.6972656,8.23632812 C43.6972656,8.67903867 43.5776379,9.064777 43.3383789,9.39355469 C43.0991199,9.72233237 42.7662782,9.96809814 42.3398438,10.1308594 L44.0097656,13.1484375 L44.0097656,13.2070312 L43.0039062,13.2070312 L41.4609375,10.3310547 Z M39.7910156,9.56445312 L41.2314453,9.56445312 C41.6969424,9.56445312 42.0672187,9.44401162 42.3422852,9.203125 C42.6173516,8.96223838 42.7548828,8.63997598 42.7548828,8.23632812 C42.7548828,7.7968728 42.623862,7.45996211 42.3618164,7.22558594 C42.0997708,6.99120977 41.7213566,6.87239585 41.2265625,6.86914062 L39.7910156,6.86914062 L39.7910156,9.56445312 Z M47.4863281,13.2070312 L47.4863281,6.09765625 L49.4931641,6.09765625 C50.1116567,6.09765625 50.6585263,6.23437363 51.1337891,6.5078125 C51.6090519,6.78125137 51.9760729,7.17024487 52.2348633,7.67480469 C52.4936536,8.1793645 52.6246745,8.75878579 52.6279297,9.41308594 L52.6279297,9.8671875 C52.6279297,10.5377638 52.4985365,11.125323 52.2397461,11.6298828 C51.9809557,12.1344426 51.6114933,12.5218085 51.1313477,12.7919922 C50.651202,13.0621758 50.0921256,13.2005208 49.4541016,13.2070312 L47.4863281,13.2070312 Z M48.4238281,6.86914062 L48.4238281,12.4404297 L49.4101562,12.4404297 C50.1328161,12.4404297 50.6951477,12.2158226 51.097168,11.7666016 C51.4991882,11.3173806 51.7001953,10.6777385 51.7001953,9.84765625 L51.7001953,9.43261719 C51.7001953,8.62532148 51.5105813,7.99788635 51.1313477,7.55029297 C50.752114,7.10269958 50.2141962,6.87565107 49.5175781,6.86914062 L48.4238281,6.86914062 Z M58.0625,9.92089844 L54.9814453,9.92089844 L54.9814453,12.4404297 L58.5605469,12.4404297 L58.5605469,13.2070312 L54.0439453,13.2070312 L54.0439453,6.09765625 L58.5117188,6.09765625 L58.5117188,6.86914062 L54.9814453,6.86914062 L54.9814453,9.15429688 L58.0625,9.15429688 L58.0625,9.92089844 Z M66.2216797,9.92089844 L63.140625,9.92089844 L63.140625,12.4404297 L66.7197266,12.4404297 L66.7197266,13.2070312 L62.203125,13.2070312 L62.203125,6.09765625 L66.6708984,6.09765625 L66.6708984,6.86914062 L63.140625,6.86914062 L63.140625,9.15429688 L66.2216797,9.15429688 L66.2216797,9.92089844 Z M69.9814453,10.0380859 C69.1774048,9.80696499 68.592287,9.5229509 68.2260742,9.18603516 C67.8598615,8.84911941 67.6767578,8.4332707 67.6767578,7.93847656 C67.6767578,7.37857793 67.9005511,6.91552917 68.3481445,6.54931641 C68.7957379,6.18310364 69.3776006,6 70.09375,6 C70.5820337,6 71.0174135,6.0944001 71.3999023,6.28320312 C71.7823912,6.47200615 72.0786122,6.73242021 72.2885742,7.06445312 C72.4985362,7.39648604 72.6035156,7.75943813 72.6035156,8.15332031 L71.6611328,8.15332031 C71.6611328,7.72363066 71.5244154,7.38590618 71.2509766,7.14013672 C70.9775377,6.89436726 70.5917994,6.77148438 70.09375,6.77148438 C69.6315081,6.77148438 69.2709974,6.87320862 69.012207,7.07666016 C68.7534167,7.28011169 68.6240234,7.56249819 68.6240234,7.92382812 C68.6240234,8.21354312 68.7469063,8.45849509 68.9926758,8.65869141 C69.2384452,8.85888772 69.6567353,9.04199136 70.2475586,9.20800781 C70.8383819,9.37402427 71.3006168,9.55712791 71.6342773,9.75732422 C71.9679379,9.95752053 72.2153312,10.1910794 72.3764648,10.4580078 C72.5375985,10.7249362 72.6181641,11.0390607 72.6181641,11.4003906 C72.6181641,11.9765654 72.3935569,12.4379865 71.9443359,12.784668 C71.4951149,13.1313494 70.894535,13.3046875 70.1425781,13.3046875 C69.6542944,13.3046875 69.1985698,13.2111012 68.7753906,13.0239258 C68.3522114,12.8367504 68.0258801,12.5804053 67.7963867,12.2548828 C67.5668934,11.9293604 67.4521484,11.5598979 67.4521484,11.1464844 L68.3945312,11.1464844 C68.3945312,11.576174 68.5532211,11.9155261 68.8706055,12.1645508 C69.1879899,12.4135755 69.6119765,12.5380859 70.1425781,12.5380859 C70.6373723,12.5380859 71.0166002,12.4371755 71.2802734,12.2353516 C71.5439466,12.0335276 71.6757812,11.7584653 71.6757812,11.4101562 C71.6757812,11.0618472 71.5537122,10.7924814 71.3095703,10.6020508 C71.0654285,10.4116201 70.6227246,10.2236337 69.9814453,10.0380859 Z M79.0488281,10.9511719 C78.9609371,11.7031288 78.6834333,12.2833638 78.2163086,12.6918945 C77.7491839,13.1004252 77.1282591,13.3046875 76.3535156,13.3046875 C75.5136677,13.3046875 74.8406601,13.0035837 74.3344727,12.4013672 C73.8282852,11.7991506 73.5751953,10.9934946 73.5751953,9.984375 L73.5751953,9.30078125 C73.5751953,8.63997065 73.6931954,8.05892178 73.9291992,7.55761719 C74.165203,7.0563126 74.4996723,6.67138806 74.9326172,6.40283203 C75.3655621,6.134276 75.8668591,6 76.4365234,6 C77.1917355,6 77.7971982,6.21077263 78.2529297,6.63232422 C78.7086611,7.05387581 78.973958,7.63736606 79.0488281,8.3828125 L78.1064453,8.3828125 C78.0250647,7.81640342 77.8484714,7.40625127 77.5766602,7.15234375 C77.3048489,6.89843623 76.9248071,6.77148438 76.4365234,6.77148438 C75.8375621,6.77148438 75.368003,6.99283633 75.027832,7.43554688 C74.6876611,7.87825742 74.5175781,8.50813394 74.5175781,9.32519531 L74.5175781,10.0136719 C74.5175781,10.7851601 74.6787093,11.3987607 75.0009766,11.8544922 C75.3232438,12.3102236 75.7740856,12.5380859 76.3535156,12.5380859 C76.8743516,12.5380859 77.2739244,12.4200858 77.5522461,12.184082 C77.8305678,11.9480782 78.015299,11.5371123 78.1064453,10.9511719 L79.0488281,10.9511719 Z M84.2539062,11.3515625 L81.2753906,11.3515625 L80.6064453,13.2070312 L79.6396484,13.2070312 L82.3544922,6.09765625 L83.1748047,6.09765625 L85.8945312,13.2070312 L84.9326172,13.2070312 L84.2539062,11.3515625 Z M81.5585938,10.5800781 L83.9755859,10.5800781 L82.7646484,7.25488281 L81.5585938,10.5800781 Z M87.7939453,12.4404297 L91.1630859,12.4404297 L91.1630859,13.2070312 L86.8515625,13.2070312 L86.8515625,6.09765625 L87.7939453,6.09765625 L87.7939453,12.4404297 Z M96.2509766,11.3515625 L93.2724609,11.3515625 L92.6035156,13.2070312 L91.6367188,13.2070312 L94.3515625,6.09765625 L95.171875,6.09765625 L97.8916016,13.2070312 L96.9296875,13.2070312 L96.2509766,11.3515625 Z M93.5556641,10.5800781 L95.9726562,10.5800781 L94.7617188,7.25488281 L93.5556641,10.5800781 Z M98.8486328,13.2070312 L98.8486328,6.09765625 L100.855469,6.09765625 C101.473961,6.09765625 102.020831,6.23437363 102.496094,6.5078125 C102.971357,6.78125137 103.338378,7.17024487 103.597168,7.67480469 C103.855958,8.1793645 103.986979,8.75878579 103.990234,9.41308594 L103.990234,9.8671875 C103.990234,10.5377638 103.860841,11.125323 103.602051,11.6298828 C103.34326,12.1344426 102.973798,12.5218085 102.493652,12.7919922 C102.013507,13.0621758 101.45443,13.2005208 100.816406,13.2070312 L98.8486328,13.2070312 Z M99.7861328,6.86914062 L99.7861328,12.4404297 L100.772461,12.4404297 C101.495121,12.4404297 102.057452,12.2158226 102.459473,11.7666016 C102.861493,11.3173806 103.0625,10.6777385 103.0625,9.84765625 L103.0625,9.43261719 C103.0625,8.62532148 102.872886,7.99788635 102.493652,7.55029297 C102.114419,7.10269958 101.576501,6.87565107 100.879883,6.86914062 L99.7861328,6.86914062 Z M109.229492,11.3515625 L106.250977,11.3515625 L105.582031,13.2070312 L104.615234,13.2070312 L107.330078,6.09765625 L108.150391,6.09765625 L110.870117,13.2070312 L109.908203,13.2070312 L109.229492,11.3515625 Z M106.53418,10.5800781 L108.951172,10.5800781 L107.740234,7.25488281 L106.53418,10.5800781 Z M115.513672,6.09765625 L117.837891,11.8984375 L120.162109,6.09765625 L121.37793,6.09765625 L121.37793,13.2070312 L120.44043,13.2070312 L120.44043,10.4384766 L120.52832,7.45019531 L118.194336,13.2070312 L117.476562,13.2070312 L115.147461,7.46484375 L115.240234,10.4384766 L115.240234,13.2070312 L114.302734,13.2070312 L114.302734,6.09765625 L115.513672,6.09765625 Z M128.501953,9.88183594 C128.501953,10.578454 128.384767,11.1863581 128.150391,11.7055664 C127.916014,12.2247747 127.583987,12.6210924 127.154297,12.8945312 C126.724607,13.1679701 126.22331,13.3046875 125.650391,13.3046875 C125.090492,13.3046875 124.594078,13.1671563 124.161133,12.8920898 C123.728188,12.6170234 123.392091,12.2247747 123.152832,11.715332 C122.913573,11.2058894 122.79069,10.6158888 122.78418,9.9453125 L122.78418,9.43261719 C122.78418,8.74902002 122.902994,8.14518491 123.140625,7.62109375 C123.378256,7.09700259 123.714353,6.69580217 124.148926,6.41748047 C124.583498,6.13915876 125.080726,6 125.640625,6 C126.210289,6 126.7124,6.13753118 127.146973,6.41259766 C127.581545,6.68766414 127.916014,7.08642317 128.150391,7.60888672 C128.384767,8.13135027 128.501953,8.73925435 128.501953,9.43261719 L128.501953,9.88183594 Z M127.569336,9.42285156 C127.569336,8.57974839 127.400067,7.9327822 127.061523,7.48193359 C126.72298,7.03108499 126.249352,6.80566406 125.640625,6.80566406 C125.048174,6.80566406 124.58187,7.03108499 124.241699,7.48193359 C123.901528,7.9327822 123.726563,8.55858975 123.716797,9.359375 L123.716797,9.88183594 C123.716797,10.6988973 123.888507,11.3409807 124.231934,11.8081055 C124.57536,12.2752302 125.048174,12.5087891 125.650391,12.5087891 C126.255862,12.5087891 126.724608,12.2882509 127.056641,11.847168 C127.388674,11.406085 127.55957,10.7737671 127.569336,9.95019531 L127.569336,9.42285156 Z M132.515625,10.3310547 L130.845703,10.3310547 L130.845703,13.2070312 L129.90332,13.2070312 L129.90332,6.09765625 L132.256836,6.09765625 C133.057621,6.09765625 133.673663,6.27994609 134.10498,6.64453125 C134.536298,7.00911641 134.751953,7.53971006 134.751953,8.23632812 C134.751953,8.67903867 134.632325,9.064777 134.393066,9.39355469 C134.153807,9.72233237 133.820966,9.96809814 133.394531,10.1308594 L135.064453,13.1484375 L135.064453,13.2070312 L134.058594,13.2070312 L132.515625,10.3310547 Z M130.845703,9.56445312 L132.286133,9.56445312 C132.75163,9.56445312 133.121906,9.44401162 133.396973,9.203125 C133.672039,8.96223838 133.80957,8.63997598 133.80957,8.23632812 C133.80957,7.7968728 133.678549,7.45996211 133.416504,7.22558594 C133.154458,6.99120977 132.776044,6.87239585 132.28125,6.86914062 L130.845703,6.86914062 L130.845703,9.56445312 Z M138.672852,10.3310547 L137.00293,10.3310547 L137.00293,13.2070312 L136.060547,13.2070312 L136.060547,6.09765625 L138.414062,6.09765625 C139.214848,6.09765625 139.83089,6.27994609 140.262207,6.64453125 C140.693524,7.00911641 140.90918,7.53971006 140.90918,8.23632812 C140.90918,8.67903867 140.789552,9.064777 140.550293,9.39355469 C140.311034,9.72233237 139.978192,9.96809814 139.551758,10.1308594 L141.22168,13.1484375 L141.22168,13.2070312 L140.21582,13.2070312 L138.672852,10.3310547 Z M137.00293,9.56445312 L138.443359,9.56445312 C138.908856,9.56445312 139.279133,9.44401162 139.554199,9.203125 C139.829266,8.96223838 139.966797,8.63997598 139.966797,8.23632812 C139.966797,7.7968728 139.835776,7.45996211 139.57373,7.22558594 C139.311685,6.99120977 138.933271,6.87239585 138.438477,6.86914062 L137.00293,6.86914062 L137.00293,9.56445312 Z M147.691406,9.88183594 C147.691406,10.578454 147.57422,11.1863581 147.339844,11.7055664 C147.105468,12.2247747 146.77344,12.6210924 146.34375,12.8945312 C145.91406,13.1679701 145.412763,13.3046875 144.839844,13.3046875 C144.279945,13.3046875 143.783531,13.1671563 143.350586,12.8920898 C142.917641,12.6170234 142.581544,12.2247747 142.342285,11.715332 C142.103026,11.2058894 141.980143,10.6158888 141.973633,9.9453125 L141.973633,9.43261719 C141.973633,8.74902002 142.092447,8.14518491 142.330078,7.62109375 C142.56771,7.09700259 142.903806,6.69580217 143.338379,6.41748047 C143.772951,6.13915876 144.270179,6 144.830078,6 C145.399742,6 145.901853,6.13753118 146.336426,6.41259766 C146.770998,6.68766414 147.105468,7.08642317 147.339844,7.60888672 C147.57422,8.13135027 147.691406,8.73925435 147.691406,9.43261719 L147.691406,9.88183594 Z M146.758789,9.42285156 C146.758789,8.57974839 146.58952,7.9327822 146.250977,7.48193359 C145.912433,7.03108499 145.438805,6.80566406 144.830078,6.80566406 C144.237627,6.80566406 143.771323,7.03108499 143.431152,7.48193359 C143.090981,7.9327822 142.916016,8.55858975 142.90625,9.359375 L142.90625,9.88183594 C142.90625,10.6988973 143.077961,11.3409807 143.421387,11.8081055 C143.764813,12.2752302 144.237627,12.5087891 144.839844,12.5087891 C145.445316,12.5087891 145.914061,12.2882509 146.246094,11.847168 C146.578127,11.406085 146.749023,10.7737671 146.758789,9.95019531 L146.758789,9.42285156 Z M151.573242,13.2070312 L151.573242,6.09765625 L153.580078,6.09765625 C154.198571,6.09765625 154.74544,6.23437363 155.220703,6.5078125 C155.695966,6.78125137 156.062987,7.17024487 156.321777,7.67480469 C156.580568,8.1793645 156.711589,8.75878579 156.714844,9.41308594 L156.714844,9.8671875 C156.714844,10.5377638 156.585451,11.125323 156.32666,11.6298828 C156.06787,12.1344426 155.698407,12.5218085 155.218262,12.7919922 C154.738116,13.0621758 154.17904,13.2005208 153.541016,13.2070312 L151.573242,13.2070312 Z M152.510742,6.86914062 L152.510742,12.4404297 L153.49707,12.4404297 C154.21973,12.4404297 154.782062,12.2158226 155.184082,11.7666016 C155.586102,11.3173806 155.787109,10.6777385 155.787109,9.84765625 L155.787109,9.43261719 C155.787109,8.62532148 155.597495,7.99788635 155.218262,7.55029297 C154.839028,7.10269958 154.30111,6.87565107 153.604492,6.86914062 L152.510742,6.86914062 Z M161.954102,11.3515625 L158.975586,11.3515625 L158.306641,13.2070312 L157.339844,13.2070312 L160.054688,6.09765625 L160.875,6.09765625 L163.594727,13.2070312 L162.632812,13.2070312 L161.954102,11.3515625 Z M159.258789,10.5800781 L161.675781,10.5800781 L160.464844,7.25488281 L159.258789,10.5800781 Z M172.256836,10.9511719 C172.168945,11.7031288 171.891441,12.2833638 171.424316,12.6918945 C170.957192,13.1004252 170.336267,13.3046875 169.561523,13.3046875 C168.721675,13.3046875 168.048668,13.0035837 167.54248,12.4013672 C167.036293,11.7991506 166.783203,10.9934946 166.783203,9.984375 L166.783203,9.30078125 C166.783203,8.63997065 166.901203,8.05892178 167.137207,7.55761719 C167.373211,7.0563126 167.70768,6.67138806 168.140625,6.40283203 C168.57357,6.134276 169.074867,6 169.644531,6 C170.399743,6 171.005206,6.21077263 171.460938,6.63232422 C171.916669,7.05387581 172.181966,7.63736606 172.256836,8.3828125 L171.314453,8.3828125 C171.233073,7.81640342 171.056479,7.40625127 170.784668,7.15234375 C170.512857,6.89843623 170.132815,6.77148438 169.644531,6.77148438 C169.04557,6.77148438 168.576011,6.99283633 168.23584,7.43554688 C167.895669,7.87825742 167.725586,8.50813394 167.725586,9.32519531 L167.725586,10.0136719 C167.725586,10.7851601 167.886717,11.3987607 168.208984,11.8544922 C168.531252,12.3102236 168.982093,12.5380859 169.561523,12.5380859 C170.082359,12.5380859 170.481932,12.4200858 170.760254,12.184082 C171.038576,11.9480782 171.223307,11.5371123 171.314453,10.9511719 L172.256836,10.9511719 Z M176.143555,10.3310547 L174.473633,10.3310547 L174.473633,13.2070312 L173.53125,13.2070312 L173.53125,6.09765625 L175.884766,6.09765625 C176.685551,6.09765625 177.301593,6.27994609 177.73291,6.64453125 C178.164227,7.00911641 178.379883,7.53971006 178.379883,8.23632812 C178.379883,8.67903867 178.260255,9.064777 178.020996,9.39355469 C177.781737,9.72233237 177.448895,9.96809814 177.022461,10.1308594 L178.692383,13.1484375 L178.692383,13.2070312 L177.686523,13.2070312 L176.143555,10.3310547 Z M174.473633,9.56445312 L175.914062,9.56445312 C176.37956,9.56445312 176.749836,9.44401162 177.024902,9.203125 C177.299969,8.96223838 177.4375,8.63997598 177.4375,8.23632812 C177.4375,7.7968728 177.306479,7.45996211 177.044434,7.22558594 C176.782388,6.99120977 176.403974,6.87239585 175.90918,6.86914062 L174.473633,6.86914062 L174.473633,9.56445312 Z M184.698242,6.09765625 L184.698242,10.9316406 C184.694987,11.6022169 184.484214,12.150714 184.065918,12.5771484 C183.647622,13.0035829 183.080407,13.2428383 182.364258,13.2949219 L182.115234,13.3046875 C181.337236,13.3046875 180.717125,13.0947287 180.254883,12.6748047 C179.792641,12.2548807 179.558268,11.677087 179.551758,10.9414062 L179.551758,6.09765625 L180.479492,6.09765625 L180.479492,10.9121094 C180.479492,11.4264349 180.621092,11.8260077 180.904297,12.1108398 C181.187501,12.395672 181.591143,12.5380859 182.115234,12.5380859 C182.645836,12.5380859 183.051919,12.3964858 183.333496,12.1132812 C183.615073,11.8300767 183.755859,11.4313177 183.755859,10.9169922 L183.755859,6.09765625 L184.698242,6.09765625 Z M186.880859,12.4404297 L190.948242,12.4404297 L190.948242,13.2070312 L185.772461,13.2070312 L185.772461,12.5039062 L189.668945,6.86914062 L185.835938,6.86914062 L185.835938,6.09765625 L190.791992,6.09765625 L190.791992,6.78613281 L186.880859,12.4404297 Z" id="SETOR-DE-ESCALADA-MO" fill="#FFFFFF"></path>
            </g>
        </g>
    </g>
</svg>