<?xml version="1.0" encoding="UTF-8"?>
<svg width="83px" height="74px" viewBox="0 0 83 74" version="1.1" xmlns="http://www.w3.org/2000/svg" xmlns:xlink="http://www.w3.org/1999/xlink">
    <!-- Generator: Sketch 42 (36781) - http://www.bohemiancoding.com/sketch -->
    <title>Group 61</title>
    <desc>Created with Sketch.</desc>
    <defs>
        <path d="M16.6191406,48.2226562 C16.5332027,49.1328171 16.1972686,49.8427709 15.6113281,50.3525391 C15.0253877,50.8623072 14.2460986,51.1171875 13.2734375,51.1171875 C12.5937466,51.1171875 11.9951198,50.9560563 11.4775391,50.6337891 C10.9599583,50.3115218 10.5605483,49.8535186 10.2792969,49.2597656 C9.99804547,48.6660127 9.85156256,47.9765664 9.83984375,47.1914062 L9.83984375,46.3945312 C9.83984375,45.5898397 9.98242045,44.8808624 10.2675781,44.2675781 C10.5527358,43.6542938 10.9619114,43.1816423 11.4951172,42.8496094 C12.028323,42.5175765 12.6445278,42.3515625 13.34375,42.3515625 C14.285161,42.3515625 15.0429659,42.6074193 15.6171875,43.1191406 C16.1914091,43.6308619 16.5253902,44.353511 16.6191406,45.2871094 L15.1425781,45.2871094 C15.0722653,44.6738251 14.8935561,44.2314467 14.6064453,43.9599609 C14.3193345,43.6884752 13.8984403,43.5527344 13.34375,43.5527344 C12.6992155,43.5527344 12.2041033,43.7880836 11.8583984,44.2587891 C11.5126936,44.7294945 11.3359375,45.4199173 11.328125,46.3300781 L11.328125,47.0859375 C11.328125,48.0078171 11.4931624,48.7109351 11.8232422,49.1953125 C12.153322,49.6796899 12.6367156,49.921875 13.2734375,49.921875 C13.8554717,49.921875 14.2929673,49.7910169 14.5859375,49.5292969 C14.8789077,49.2675768 15.0644527,48.8320343 15.1425781,48.2226562 L16.6191406,48.2226562 Z M21.59375,51 C21.5312497,50.8789056 21.4765627,50.681642 21.4296875,50.4082031 C20.9765602,50.8808617 20.4218783,51.1171875 19.765625,51.1171875 C19.1289031,51.1171875 18.609377,50.9355487 18.2070312,50.5722656 C17.8046855,50.2089826 17.6035156,49.7597683 17.6035156,49.2246094 C17.6035156,48.5488247 17.8544897,48.0302752 18.3564453,47.6689453 C18.8584009,47.3076154 19.5761672,47.1269531 20.5097656,47.1269531 L21.3828125,47.1269531 L21.3828125,46.7109375 C21.3828125,46.3828109 21.2910165,46.1201182 21.1074219,45.9228516 C20.9238272,45.725585 20.6445331,45.6269531 20.2695312,45.6269531 C19.9453109,45.6269531 19.6796885,45.708007 19.4726562,45.8701172 C19.265624,46.0322274 19.1621094,46.23828 19.1621094,46.4882812 L17.7382812,46.4882812 C17.7382812,46.1406233 17.8535145,45.8154312 18.0839844,45.5126953 C18.3144543,45.2099594 18.6279277,44.9726571 19.0244141,44.8007812 C19.4209004,44.6289054 19.8632788,44.5429688 20.3515625,44.5429688 C21.0937537,44.5429688 21.6855447,44.7294903 22.1269531,45.1025391 C22.5683616,45.4755878 22.7949218,45.9999966 22.8066406,46.6757812 L22.8066406,49.5351562 C22.8066406,50.1054716 22.8867179,50.5605452 23.046875,50.9003906 L23.046875,51 L21.59375,51 Z M20.0292969,49.9746094 C20.3105483,49.9746094 20.5751941,49.9062507 20.8232422,49.7695312 C21.0712903,49.6328118 21.2578119,49.4492199 21.3828125,49.21875 L21.3828125,48.0234375 L20.6152344,48.0234375 C20.087888,48.0234375 19.6914076,48.1152335 19.4257812,48.2988281 C19.1601549,48.4824228 19.0273438,48.7421858 19.0273438,49.078125 C19.0273438,49.3515639 19.1181632,49.5693351 19.2998047,49.7314453 C19.4814462,49.8935555 19.7246079,49.9746094 20.0292969,49.9746094 Z M26.4453125,49.1953125 L27.7871094,44.6601562 L29.2578125,44.6601562 L27.0605469,51 L25.8242188,51 L23.609375,44.6601562 L25.0859375,44.6601562 L26.4453125,49.1953125 Z M32.8613281,51.1171875 C31.9589799,51.1171875 31.2275419,50.8330107 30.6669922,50.2646484 C30.1064425,49.6962862 29.8261719,48.9394579 29.8261719,47.9941406 L29.8261719,47.8183594 C29.8261719,47.1855437 29.948241,46.6201197 30.1923828,46.1220703 C30.4365247,45.6240209 30.7792947,45.2363295 31.2207031,44.9589844 C31.6621116,44.6816392 32.1542942,44.5429688 32.6972656,44.5429688 C33.5605512,44.5429688 34.2275367,44.8183566 34.6982422,45.3691406 C35.1689477,45.9199246 35.4042969,46.6992137 35.4042969,47.7070312 L35.4042969,48.28125 L31.2617188,48.28125 C31.3046877,48.8046901 31.4794907,49.2187485 31.7861328,49.5234375 C32.092775,49.8281265 32.4785133,49.9804688 32.9433594,49.9804688 C33.5957064,49.9804688 34.1269511,49.7167995 34.5371094,49.1894531 L35.3046875,49.921875 C35.05078,50.3007831 34.7119162,50.5947255 34.2880859,50.8037109 C33.8642557,51.0126964 33.3886745,51.1171875 32.8613281,51.1171875 Z M32.6914062,45.6855469 C32.3007793,45.6855469 31.9853528,45.8222643 31.7451172,46.0957031 C31.5048816,46.369142 31.3515628,46.7499976 31.2851562,47.2382812 L33.9980469,47.2382812 L33.9980469,47.1328125 C33.9667967,46.6562476 33.8398449,46.2958997 33.6171875,46.0517578 C33.3945301,45.807616 33.0859395,45.6855469 32.6914062,45.6855469 Z M39.828125,45.9609375 C39.6406241,45.9296873 39.4472666,45.9140625 39.2480469,45.9140625 C38.5956999,45.9140625 38.1562511,46.16406 37.9296875,46.6640625 L37.9296875,51 L36.5058594,51 L36.5058594,44.6601562 L37.8652344,44.6601562 L37.9003906,45.3691406 C38.2441423,44.8183566 38.7207001,44.5429688 39.3300781,44.5429688 C39.5332041,44.5429688 39.7011712,44.5703122 39.8339844,44.625 L39.828125,45.9609375 Z M42.0488281,44.6601562 L42.0898438,45.3925781 C42.5585961,44.826169 43.1738243,44.5429688 43.9355469,44.5429688 C45.255866,44.5429688 45.9277343,45.2988206 45.9511719,46.8105469 L45.9511719,51 L44.5273438,51 L44.5273438,46.8925781 C44.5273438,46.4902324 44.4404306,46.1923838 44.2666016,45.9990234 C44.0927726,45.8056631 43.8085957,45.7089844 43.4140625,45.7089844 C42.8398409,45.7089844 42.4121108,45.9687474 42.1308594,46.4882812 L42.1308594,51 L40.7070312,51 L40.7070312,44.6601562 L42.0488281,44.6601562 Z M51.1894531,51 C51.1269528,50.8789056 51.0722659,50.681642 51.0253906,50.4082031 C50.5722634,50.8808617 50.0175814,51.1171875 49.3613281,51.1171875 C48.7246062,51.1171875 48.2050801,50.9355487 47.8027344,50.5722656 C47.4003886,50.2089826 47.1992188,49.7597683 47.1992188,49.2246094 C47.1992188,48.5488247 47.4501928,48.0302752 47.9521484,47.6689453 C48.4541041,47.3076154 49.1718703,47.1269531 50.1054688,47.1269531 L50.9785156,47.1269531 L50.9785156,46.7109375 C50.9785156,46.3828109 50.8867197,46.1201182 50.703125,45.9228516 C50.5195303,45.725585 50.2402362,45.6269531 49.8652344,45.6269531 C49.541014,45.6269531 49.2753917,45.708007 49.0683594,45.8701172 C48.8613271,46.0322274 48.7578125,46.23828 48.7578125,46.4882812 L47.3339844,46.4882812 C47.3339844,46.1406233 47.4492176,45.8154312 47.6796875,45.5126953 C47.9101574,45.2099594 48.2236308,44.9726571 48.6201172,44.8007812 C49.0166035,44.6289054 49.4589819,44.5429688 49.9472656,44.5429688 C50.6894568,44.5429688 51.2812478,44.7294903 51.7226562,45.1025391 C52.1640647,45.4755878 52.3906249,45.9999966 52.4023438,46.6757812 L52.4023438,49.5351562 C52.4023438,50.1054716 52.4824211,50.5605452 52.6425781,50.9003906 L52.6425781,51 L51.1894531,51 Z M49.625,49.9746094 C49.9062514,49.9746094 50.1708972,49.9062507 50.4189453,49.7695312 C50.6669934,49.6328118 50.853515,49.4492199 50.9785156,49.21875 L50.9785156,48.0234375 L50.2109375,48.0234375 C49.6835911,48.0234375 49.2871107,48.1152335 49.0214844,48.2988281 C48.755858,48.4824228 48.6230469,48.7421858 48.6230469,49.078125 C48.6230469,49.3515639 48.7138663,49.5693351 48.8955078,49.7314453 C49.0771493,49.8935555 49.320311,49.9746094 49.625,49.9746094 Z M56.6152344,47.7832031 C56.6152344,46.8066357 56.8417946,46.0224639 57.2949219,45.4306641 C57.7480491,44.8388642 58.3554649,44.5429688 59.1171875,44.5429688 C59.7890659,44.5429688 60.3320292,44.7773414 60.7460938,45.2460938 L60.7460938,42 L62.1699219,42 L62.1699219,51 L60.8808594,51 L60.8105469,50.34375 C60.3847635,50.8593776 59.8164098,51.1171875 59.1054688,51.1171875 C58.3632775,51.1171875 57.7626976,50.8183624 57.3037109,50.2207031 C56.8447243,49.6230439 56.6152344,48.810552 56.6152344,47.7832031 Z M58.0390625,47.90625 C58.0390625,48.5507845 58.1630847,49.0537091 58.4111328,49.4150391 C58.6591809,49.776369 59.0117165,49.9570312 59.46875,49.9570312 C60.0507842,49.9570312 60.4765612,49.6972682 60.7460938,49.1777344 L60.7460938,46.4707031 C60.4843737,45.9628881 60.0625029,45.7089844 59.4804688,45.7089844 C59.0195289,45.7089844 58.6640638,45.8915997 58.4140625,46.2568359 C58.1640612,46.6220721 58.0390625,47.1718713 58.0390625,47.90625 Z M63.3886719,47.7714844 C63.3886719,47.1503875 63.5117175,46.5908228 63.7578125,46.0927734 C64.0039075,45.5947241 64.3496071,45.2119154 64.7949219,44.9443359 C65.2402366,44.6767565 65.7519502,44.5429688 66.3300781,44.5429688 C67.1855512,44.5429688 67.8798801,44.8183566 68.4130859,45.3691406 C68.9462917,45.9199246 69.2343748,46.6503861 69.2773438,47.5605469 L69.2832031,47.8945312 C69.2832031,48.5195344 69.1630871,49.0781225 68.9228516,49.5703125 C68.682616,50.0625025 68.3388694,50.443358 67.8916016,50.7128906 C67.4443337,50.9824232 66.9277373,51.1171875 66.3417969,51.1171875 C65.4472612,51.1171875 64.731448,50.8193389 64.1943359,50.2236328 C63.6572239,49.6279267 63.3886719,48.8339893 63.3886719,47.8417969 L63.3886719,47.7714844 Z M64.8125,47.8945312 C64.8125,48.5468783 64.9472643,49.0576153 65.2167969,49.4267578 C65.4863295,49.7959003 65.8613257,49.9804688 66.3417969,49.9804688 C66.822268,49.9804688 67.1962877,49.7929706 67.4638672,49.4179688 C67.7314467,49.0429669 67.8652344,48.4941442 67.8652344,47.7714844 C67.8652344,47.1308562 67.7275404,46.6230488 67.4521484,46.2480469 C67.1767564,45.873045 66.8027367,45.6855469 66.3300781,45.6855469 C65.8652321,45.6855469 65.4960951,45.8701153 65.2226562,46.2392578 C64.9492174,46.6084003 64.8125,47.1601526 64.8125,47.8945312 Z M0.127929688,65 L0.127929688,56.46875 L2.64746094,56.46875 C3.40137096,56.46875 4.07030958,56.6367171 4.65429688,56.9726562 C5.23828417,57.3085954 5.69042809,57.7851532 6.01074219,58.4023438 C6.33105629,59.0195343 6.49121094,59.7265585 6.49121094,60.5234375 L6.49121094,60.9511719 C6.49121094,61.7597697 6.33007974,62.4707001 6.0078125,63.0839844 C5.68554526,63.6972687 5.22656548,64.1699202 4.63085938,64.5019531 C4.03515327,64.833986 3.35254291,65 2.58300781,65 L0.127929688,65 Z M1.61035156,57.6640625 L1.61035156,63.8164062 L2.57714844,63.8164062 C3.35449607,63.8164062 3.95116979,63.5732446 4.3671875,63.0869141 C4.78320521,62.6005835 4.99511715,61.9023483 5.00292969,60.9921875 L5.00292969,60.5175781 C5.00292969,59.5917922 4.80175982,58.8847681 4.39941406,58.3964844 C3.9970683,57.9082007 3.41308977,57.6640625 2.64746094,57.6640625 L1.61035156,57.6640625 Z M11.1494141,59.9609375 C10.9619131,59.9296873 10.7685557,59.9140625 10.5693359,59.9140625 C9.91698893,59.9140625 9.4775402,60.16406 9.25097656,60.6640625 L9.25097656,65 L7.82714844,65 L7.82714844,58.6601562 L9.18652344,58.6601562 L9.22167969,59.3691406 C9.56543141,58.8183566 10.0419891,58.5429688 10.6513672,58.5429688 C10.8544932,58.5429688 11.0224603,58.5703122 11.1552734,58.625 L11.1494141,59.9609375 Z M15.6611328,65 C15.5986325,64.8789056 15.5439455,64.681642 15.4970703,64.4082031 C15.043943,64.8808617 14.4892611,65.1171875 13.8330078,65.1171875 C13.1962859,65.1171875 12.6767598,64.9355487 12.2744141,64.5722656 C11.8720683,64.2089826 11.6708984,63.7597683 11.6708984,63.2246094 C11.6708984,62.5488247 11.9218725,62.0302752 12.4238281,61.6689453 C12.9257838,61.3076154 13.64355,61.1269531 14.5771484,61.1269531 L15.4501953,61.1269531 L15.4501953,60.7109375 C15.4501953,60.3828109 15.3583994,60.1201182 15.1748047,59.9228516 C14.99121,59.725585 14.7119159,59.6269531 14.3369141,59.6269531 C14.0126937,59.6269531 13.7470713,59.708007 13.5400391,59.8701172 C13.3330068,60.0322274 13.2294922,60.23828 13.2294922,60.4882812 L11.8056641,60.4882812 C11.8056641,60.1406233 11.9208973,59.8154312 12.1513672,59.5126953 C12.3818371,59.2099594 12.6953105,58.9726571 13.0917969,58.8007812 C13.4882832,58.6289054 13.9306616,58.5429688 14.4189453,58.5429688 C15.1611365,58.5429688 15.7529275,58.7294903 16.1943359,59.1025391 C16.6357444,59.4755878 16.8623046,59.9999966 16.8740234,60.6757812 L16.8740234,63.5351562 C16.8740234,64.1054716 16.9541008,64.5605452 17.1142578,64.9003906 L17.1142578,65 L15.6611328,65 Z M14.0966797,63.9746094 C14.3779311,63.9746094 14.6425769,63.9062507 14.890625,63.7695312 C15.1386731,63.6328118 15.3251947,63.4492199 15.4501953,63.21875 L15.4501953,62.0234375 L14.6826172,62.0234375 C14.1552708,62.0234375 13.7587904,62.1152335 13.4931641,62.2988281 C13.2275377,62.4824228 13.0947266,62.7421858 13.0947266,63.078125 C13.0947266,63.3515639 13.185546,63.5693351 13.3671875,63.7314453 C13.548829,63.8935555 13.7919907,63.9746094 14.0966797,63.9746094 Z M18.1162109,61.7832031 C18.1162109,60.7988232 18.3476539,60.0126983 18.8105469,59.4248047 C19.2734398,58.8369111 19.8876915,58.5429688 20.6533203,58.5429688 C21.3759802,58.5429688 21.9443339,58.7949194 22.3583984,59.2988281 L22.4228516,58.6601562 L23.7060547,58.6601562 L23.7060547,64.8066406 C23.7060547,65.638676 23.4472682,66.2949195 22.9296875,66.7753906 C22.4121068,67.2558618 21.7138716,67.4960938 20.8349609,67.4960938 C20.3701149,67.4960938 19.9160178,67.399415 19.4726562,67.2060547 C19.0292947,67.0126943 18.692384,66.7597672 18.4619141,66.4472656 L19.1357422,65.5917969 C19.5732444,66.1113307 20.1123015,66.3710938 20.7529297,66.3710938 C21.2255883,66.3710938 21.5986314,66.2431653 21.8720703,65.9873047 C22.1455092,65.731444 22.2822266,65.3554712 22.2822266,64.859375 L22.2822266,64.4316406 C21.8720683,64.8886742 21.3251987,65.1171875 20.6416016,65.1171875 C19.8994104,65.1171875 19.2929711,64.8222686 18.8222656,64.2324219 C18.3515601,63.6425752 18.1162109,62.8261771 18.1162109,61.7832031 Z M19.5341797,61.90625 C19.5341797,62.5429719 19.6640612,63.0439435 19.9238281,63.4091797 C20.183595,63.7744159 20.543943,63.9570312 21.0048828,63.9570312 C21.5791044,63.9570312 22.0048814,63.71094 22.2822266,63.21875 L22.2822266,60.4296875 C22.012694,59.9492163 21.5908232,59.7089844 21.0166016,59.7089844 C20.5478492,59.7089844 20.183595,59.8945294 19.9238281,60.265625 C19.6640612,60.6367206 19.5341797,61.1835901 19.5341797,61.90625 Z M28.9560547,65 C28.8935544,64.8789056 28.8388674,64.681642 28.7919922,64.4082031 C28.3388649,64.8808617 27.784183,65.1171875 27.1279297,65.1171875 C26.4912078,65.1171875 25.9716817,64.9355487 25.5693359,64.5722656 C25.1669902,64.2089826 24.9658203,63.7597683 24.9658203,63.2246094 C24.9658203,62.5488247 25.2167944,62.0302752 25.71875,61.6689453 C26.2207056,61.3076154 26.9384719,61.1269531 27.8720703,61.1269531 L28.7451172,61.1269531 L28.7451172,60.7109375 C28.7451172,60.3828109 28.6533212,60.1201182 28.4697266,59.9228516 C28.2861319,59.725585 28.0068378,59.6269531 27.6318359,59.6269531 C27.3076156,59.6269531 27.0419932,59.708007 26.8349609,59.8701172 C26.6279287,60.0322274 26.5244141,60.23828 26.5244141,60.4882812 L25.1005859,60.4882812 C25.1005859,60.1406233 25.2158192,59.8154312 25.4462891,59.5126953 C25.676759,59.2099594 25.9902324,58.9726571 26.3867188,58.8007812 C26.7832051,58.6289054 27.2255835,58.5429688 27.7138672,58.5429688 C28.4560584,58.5429688 29.0478494,58.7294903 29.4892578,59.1025391 C29.9306663,59.4755878 30.1572265,59.9999966 30.1689453,60.6757812 L30.1689453,63.5351562 C30.1689453,64.1054716 30.2490226,64.5605452 30.4091797,64.9003906 L30.4091797,65 L28.9560547,65 Z M27.3916016,63.9746094 C27.672853,63.9746094 27.9374988,63.9062507 28.1855469,63.7695312 C28.433595,63.6328118 28.6201166,63.4492199 28.7451172,63.21875 L28.7451172,62.0234375 L27.9775391,62.0234375 C27.4501927,62.0234375 27.0537123,62.1152335 26.7880859,62.2988281 C26.5224596,62.4824228 26.3896484,62.7421858 26.3896484,63.078125 C26.3896484,63.3515639 26.4804678,63.5693351 26.6621094,63.7314453 C26.8437509,63.8935555 27.0869125,63.9746094 27.3916016,63.9746094 Z M29.9111328,56.1289062 C29.9111328,56.5585959 29.7871106,56.9160142 29.5390625,57.2011719 C29.2910144,57.4863296 28.9794941,57.6289062 28.6044922,57.6289062 C28.4521477,57.6289062 28.3203131,57.6123049 28.2089844,57.5791016 C28.0976557,57.5458983 27.9394542,57.4707037 27.734375,57.3535156 C27.5292958,57.2363275 27.384766,57.1660157 27.3007812,57.1425781 C27.2167965,57.1191405 27.1240239,57.1074219 27.0224609,57.1074219 C26.8740227,57.1074219 26.7480474,57.1630854 26.6445312,57.2744141 C26.5410151,57.3857427 26.4892578,57.5312491 26.4892578,57.7109375 L25.6162109,57.6640625 C25.6162109,57.2343729 25.7402331,56.8730483 25.9882812,56.5800781 C26.2363294,56.2871079 26.5458966,56.140625 26.9169922,56.140625 C27.1396496,56.140625 27.4082016,56.2285147 27.7226562,56.4042969 C28.0371109,56.580079 28.2958974,56.6679688 28.4990234,56.6679688 C28.6474617,56.6679688 28.7744135,56.6123052 28.8798828,56.5009766 C28.9853521,56.3896479 29.0380859,56.2421884 29.0380859,56.0585938 L29.9111328,56.1289062 Z M31.3935547,61.7714844 C31.3935547,61.1503875 31.5166003,60.5908228 31.7626953,60.0927734 C32.0087903,59.5947241 32.35449,59.2119154 32.7998047,58.9443359 C33.2451194,58.6767565 33.756833,58.5429688 34.3349609,58.5429688 C35.190434,58.5429688 35.884763,58.8183566 36.4179688,59.3691406 C36.9511745,59.9199246 37.2392576,60.6503861 37.2822266,61.5605469 L37.2880859,61.8945312 C37.2880859,62.5195344 37.16797,63.0781225 36.9277344,63.5703125 C36.6874988,64.0625025 36.3437522,64.443358 35.8964844,64.7128906 C35.4492165,64.9824232 34.9326201,65.1171875 34.3466797,65.1171875 C33.452144,65.1171875 32.7363308,64.8193389 32.1992188,64.2236328 C31.6621067,63.6279267 31.3935547,62.8339893 31.3935547,61.8417969 L31.3935547,61.7714844 Z M32.8173828,61.8945312 C32.8173828,62.5468783 32.9521471,63.0576153 33.2216797,63.4267578 C33.4912123,63.7959003 33.8662085,63.9804688 34.3466797,63.9804688 C34.8271508,63.9804688 35.2011705,63.7929706 35.46875,63.4179688 C35.7363295,63.0429669 35.8701172,62.4941442 35.8701172,61.7714844 C35.8701172,61.1308562 35.7324233,60.6230488 35.4570312,60.2480469 C35.1816392,59.873045 34.8076196,59.6855469 34.3349609,59.6855469 C33.8701149,59.6855469 33.5009779,59.8701153 33.2275391,60.2392578 C32.9541002,60.6084003 32.8173828,61.1601526 32.8173828,61.8945312 Z M43.9150391,56.28125 L42.9482422,56.28125 L42.9482422,65.7910156 L43.9150391,65.7910156 L43.9150391,66.8984375 L41.5244141,66.8984375 L41.5244141,55.1679688 L43.9150391,55.1679688 L43.9150391,56.28125 Z M48.0458984,60.7695312 L48.5087891,56.46875 L53.0908203,56.46875 L53.0908203,57.6992188 L49.6923828,57.6992188 L49.4580078,59.7382812 C49.852541,59.5117176 50.2978491,59.3984375 50.7939453,59.3984375 C51.6064494,59.3984375 52.238279,59.6582005 52.6894531,60.1777344 C53.1406273,60.6972682 53.3662109,61.39648 53.3662109,62.2753906 C53.3662109,63.1425825 53.1162134,63.8330052 52.6162109,64.3466797 C52.1162084,64.8603541 51.4306684,65.1171875 50.5595703,65.1171875 C49.7783164,65.1171875 49.1308619,64.89551 48.6171875,64.4521484 C48.1035131,64.0087868 47.8251955,63.4238318 47.7822266,62.6972656 L49.1591797,62.6972656 C49.2138675,63.1113302 49.3623035,63.4287098 49.6044922,63.6494141 C49.8466809,63.8701183 50.163084,63.9804688 50.5537109,63.9804688 C50.9912131,63.9804688 51.33203,63.8242203 51.5761719,63.5117188 C51.8203137,63.1992172 51.9423828,62.7734402 51.9423828,62.234375 C51.9423828,61.7148412 51.8076185,61.3037125 51.5380859,61.0009766 C51.2685533,60.6982407 50.8974633,60.546875 50.4248047,60.546875 C50.1669909,60.546875 49.9482431,60.5810543 49.7685547,60.6494141 C49.5888663,60.7177738 49.3935557,60.8515615 49.1826172,61.0507812 L48.0458984,60.7695312 Z M58.1298828,63.2773438 C58.1298828,63.0234362 58.0253917,62.8300788 57.8164062,62.6972656 C57.6074208,62.5644525 57.2607446,62.4472661 56.7763672,62.3457031 C56.2919898,62.2441401 55.8876969,62.1152352 55.5634766,61.9589844 C54.8525355,61.6152327 54.4970703,61.1171908 54.4970703,60.4648438 C54.4970703,59.917966 54.7275368,59.4609393 55.1884766,59.09375 C55.6494164,58.7265607 56.235348,58.5429688 56.9462891,58.5429688 C57.7041054,58.5429688 58.3164039,58.7304669 58.7832031,59.1054688 C59.2500023,59.4804706 59.4833984,59.9667939 59.4833984,60.5644531 L58.0595703,60.5644531 C58.0595703,60.2910143 57.9580088,60.0634775 57.7548828,59.8818359 C57.5517568,59.7001944 57.2822282,59.609375 56.9462891,59.609375 C56.6337875,59.609375 56.3789072,59.6816399 56.1816406,59.8261719 C55.984374,59.9707038 55.8857422,60.1640613 55.8857422,60.40625 C55.8857422,60.6250011 55.9775381,60.7949213 56.1611328,60.9160156 C56.3447275,61.03711 56.7158175,61.1591791 57.2744141,61.2822266 C57.8330106,61.4052741 58.2714828,61.551757 58.5898438,61.7216797 C58.9082047,61.8916024 59.1445305,62.0957019 59.2988281,62.3339844 C59.4531258,62.5722668 59.5302734,62.8613264 59.5302734,63.2011719 C59.5302734,63.7714872 59.2939477,64.2333967 58.8212891,64.5869141 C58.3486304,64.9404315 57.729496,65.1171875 56.9638672,65.1171875 C56.4443333,65.1171875 55.9814473,65.0234384 55.5751953,64.8359375 C55.1689433,64.6484366 54.8525402,64.3906266 54.6259766,64.0625 C54.3994129,63.7343734 54.2861328,63.3808613 54.2861328,63.0019531 L55.6689453,63.0019531 C55.6884767,63.3378923 55.8154285,63.5966788 56.0498047,63.7783203 C56.2841809,63.9599618 56.5947246,64.0507812 56.9814453,64.0507812 C57.3564472,64.0507812 57.6416006,63.9794929 57.8369141,63.8369141 C58.0322275,63.6943352 58.1298828,63.5078137 58.1298828,63.2773438 Z M64.6103516,64.3789062 C64.1923807,64.8710962 63.5986367,65.1171875 62.8291016,65.1171875 C62.1415981,65.1171875 61.6210955,64.9160176 61.2675781,64.5136719 C60.9140607,64.1113261 60.7373047,63.5293007 60.7373047,62.7675781 L60.7373047,58.6601562 L62.1611328,58.6601562 L62.1611328,62.75 C62.1611328,63.5546915 62.4951138,63.9570312 63.1630859,63.9570312 C63.8544956,63.9570312 64.3212879,63.7089869 64.5634766,63.2128906 L64.5634766,58.6601562 L65.9873047,58.6601562 L65.9873047,65 L64.6455078,65 L64.6103516,64.3789062 Z M72.9892578,61.8945312 C72.9892578,62.8750049 72.7666038,63.6572236 72.3212891,64.2412109 C71.8759743,64.8251982 71.2783241,65.1171875 70.5283203,65.1171875 C69.8330043,65.1171875 69.2763693,64.8886742 68.8583984,64.4316406 L68.8583984,67.4375 L67.4345703,67.4375 L67.4345703,58.6601562 L68.7470703,58.6601562 L68.8056641,59.3046875 C69.2236349,58.7968725 69.7919886,58.5429688 70.5107422,58.5429688 C71.2841836,58.5429688 71.8906228,58.8310518 72.3300781,59.4072266 C72.7695334,59.9834013 72.9892578,60.783198 72.9892578,61.8066406 L72.9892578,61.8945312 Z M71.5712891,61.7714844 C71.5712891,61.1386687 71.4453138,60.6367206 71.1933594,60.265625 C70.941405,59.8945294 70.581057,59.7089844 70.1123047,59.7089844 C69.5302705,59.7089844 69.112306,59.9492163 68.8583984,60.4296875 L68.8583984,63.2421875 C69.1162122,63.7343775 69.538083,63.9804688 70.1240234,63.9804688 C70.5771507,63.9804688 70.9316393,63.7978534 71.1875,63.4326172 C71.4433607,63.067381 71.5712891,62.5136756 71.5712891,61.7714844 Z M76.5224609,55.1679688 L78.9248047,55.1679688 L78.9248047,66.8984375 L76.5224609,66.8984375 L76.5224609,65.7910156 L77.5009766,65.7910156 L77.5009766,56.28125 L76.5224609,56.28125 L76.5224609,55.1679688 Z" id="path-1"></path>
        <filter x="-50%" y="-50%" width="200%" height="200%" filterUnits="objectBoundingBox" id="filter-2">
            <feOffset dx="0" dy="2" in="SourceAlpha" result="shadowOffsetOuter1"></feOffset>
            <feGaussianBlur stdDeviation="1" in="shadowOffsetOuter1" result="shadowBlurOuter1"></feGaussianBlur>
            <feColorMatrix values="0 0 0 0 0   0 0 0 0 0   0 0 0 0 0  0 0 0 0.5 0" type="matrix" in="shadowBlurOuter1"></feColorMatrix>
        </filter>
        <ellipse id="path-3" cx="20" cy="20" rx="20" ry="20"></ellipse>
        <filter x="-50%" y="-50%" width="200%" height="200%" filterUnits="objectBoundingBox" id="filter-4">
            <feOffset dx="0" dy="2" in="SourceAlpha" result="shadowOffsetOuter1"></feOffset>
            <feGaussianBlur stdDeviation="2" in="shadowOffsetOuter1" result="shadowBlurOuter1"></feGaussianBlur>
            <feColorMatrix values="0 0 0 0 0   0 0 0 0 0   0 0 0 0 0  0 0 0 0.5 0" type="matrix" in="shadowBlurOuter1"></feColorMatrix>
        </filter>
    </defs>
    <g id="Page-1" stroke="none" stroke-width="1" fill="none" fill-rule="evenodd">
        <g id="Group-61" transform="translate(2.000000, 2.000000)">
            <g id="Caverna-do-Dragão-[">
                <use fill="black" fill-opacity="1" filter="url(#filter-2)" xlink:href="#path-1"></use>
                <use fill="#FFFFFF" fill-rule="evenodd" xlink:href="#path-1"></use>
            </g>
            <g id="Group-5" transform="translate(21.000000, 0.000000)">
                <g id="Group-2">
                    <g id="Group" opacity="0.3">
                        <g id="Oval-6">
                            <use fill="black" fill-opacity="1" filter="url(#filter-4)" xlink:href="#path-3"></use>
                            <use fill="#FFFFFF" fill-rule="evenodd" xlink:href="#path-3"></use>
                        </g>
                    </g>
                    <ellipse id="Oval-5" stroke="#FFFFFF" stroke-width="5" fill="#DC1E65" cx="20" cy="20" rx="8" ry="8"></ellipse>
                </g>
            </g>
            <ellipse id="Oval-3" fill="#DC1E65" cx="41" cy="20" rx="13" ry="13"></ellipse>
            <ellipse id="Oval-3" fill="#DC1E65" cx="41" cy="20" rx="13" ry="13"></ellipse>
            <path d="M40.5546875,24 L34.8183594,24 L34.8183594,23.0214844 L37.6601562,19.921875 C38.0703146,19.4648415 38.3623038,19.0830093 38.5361328,18.7763672 C38.7099618,18.469725 38.796875,18.1621109 38.796875,17.8535156 C38.796875,17.4472636 38.6826183,17.1191419 38.4541016,16.8691406 C38.2255848,16.6191394 37.9179707,16.4941406 37.53125,16.4941406 C37.0703102,16.4941406 36.7128919,16.6347642 36.4589844,16.9160156 C36.2050769,17.197267 36.078125,17.5820288 36.078125,18.0703125 L34.6542969,18.0703125 C34.6542969,17.5507787 34.7724598,17.0830099 35.0087891,16.6669922 C35.2451184,16.2509745 35.5830056,15.9277355 36.0224609,15.6972656 C36.4619163,15.4667957 36.9687471,15.3515625 37.5429688,15.3515625 C38.3710979,15.3515625 39.0244117,15.5595682 39.5029297,15.9755859 C39.9814477,16.3916036 40.2207031,16.9667932 40.2207031,17.7011719 C40.2207031,18.1269553 40.1005871,18.5732399 39.8603516,19.0400391 C39.620116,19.5068383 39.2265652,20.0371064 38.6796875,20.6308594 L36.59375,22.8632812 L40.5546875,22.8632812 L40.5546875,24 Z M46.4550781,20.9589844 L47.515625,20.9589844 L47.515625,22.1015625 L46.4550781,22.1015625 L46.4550781,24 L45.03125,24 L45.03125,22.1015625 L41.3457031,22.1015625 L41.3046875,21.234375 L44.984375,15.46875 L46.4550781,15.46875 L46.4550781,20.9589844 Z M42.7988281,20.9589844 L45.03125,20.9589844 L45.03125,17.3964844 L44.9257812,17.5839844 L42.7988281,20.9589844 Z" id="24" fill="#FFFFFF"></path>
        </g>
    </g>
</svg>