<?xml version="1.0" encoding="UTF-8"?>
<svg width="70px" height="73px" viewBox="0 0 70 73" version="1.1" xmlns="http://www.w3.org/2000/svg" xmlns:xlink="http://www.w3.org/1999/xlink">
    <!-- Generator: Sketch 42 (36781) - http://www.bohemiancoding.com/sketch -->
    <title>Group 53</title>
    <desc>Created with Sketch.</desc>
    <defs>
        <path d="M10.6953125,48.2226562 C10.6093746,49.1328171 10.2734404,49.8427709 9.6875,50.3525391 C9.10155957,50.8623072 8.32227049,51.1171875 7.34960938,51.1171875 C6.66991848,51.1171875 6.07129165,50.9560563 5.55371094,50.6337891 C5.03613022,50.3115218 4.63672016,49.8535186 4.35546875,49.2597656 C4.07421734,48.6660127 3.92773443,47.9765664 3.91601562,47.1914062 L3.91601562,46.3945312 C3.91601562,45.5898397 4.05859232,44.8808624 4.34375,44.2675781 C4.62890768,43.6542938 5.03808327,43.1816423 5.57128906,42.8496094 C6.10449485,42.5175765 6.72069963,42.3515625 7.41992188,42.3515625 C8.36133283,42.3515625 9.11913775,42.6074193 9.69335938,43.1191406 C10.267581,43.6308619 10.601562,44.353511 10.6953125,45.2871094 L9.21875,45.2871094 C9.14843715,44.6738251 8.969728,44.2314467 8.68261719,43.9599609 C8.39550638,43.6884752 7.97461215,43.5527344 7.41992188,43.5527344 C6.7753874,43.5527344 6.28027517,43.7880836 5.93457031,44.2587891 C5.58886546,44.7294945 5.41210941,45.4199173 5.40429688,46.3300781 L5.40429688,47.0859375 C5.40429688,48.0078171 5.56933429,48.7109351 5.89941406,49.1953125 C6.22949384,49.6796899 6.71288744,49.921875 7.34960938,49.921875 C7.93164354,49.921875 8.36913916,49.7910169 8.66210938,49.5292969 C8.95507959,49.2675768 9.14062461,48.8320343 9.21875,48.2226562 L10.6953125,48.2226562 Z M13.2851562,45.3515625 C13.7500023,44.8124973 14.3378871,44.5429688 15.0488281,44.5429688 C16.4003974,44.5429688 17.0859374,45.3144454 17.1054688,46.8574219 L17.1054688,51 L15.6816406,51 L15.6816406,46.9101562 C15.6816406,46.4726541 15.586915,46.1630868 15.3974609,45.9814453 C15.2080069,45.7998038 14.9296893,45.7089844 14.5625,45.7089844 C13.9921846,45.7089844 13.5664077,45.9628881 13.2851562,46.4707031 L13.2851562,51 L11.8613281,51 L11.8613281,42 L13.2851562,42 L13.2851562,45.3515625 Z M22.3320312,51 C22.2695309,50.8789056 22.214844,50.681642 22.1679688,50.4082031 C21.7148415,50.8808617 21.1601595,51.1171875 20.5039062,51.1171875 C19.8671843,51.1171875 19.3476583,50.9355487 18.9453125,50.5722656 C18.5429667,50.2089826 18.3417969,49.7597683 18.3417969,49.2246094 C18.3417969,48.5488247 18.5927709,48.0302752 19.0947266,47.6689453 C19.5966822,47.3076154 20.3144485,47.1269531 21.2480469,47.1269531 L22.1210938,47.1269531 L22.1210938,46.7109375 C22.1210938,46.3828109 22.0292978,46.1201182 21.8457031,45.9228516 C21.6621085,45.725585 21.3828144,45.6269531 21.0078125,45.6269531 C20.6835921,45.6269531 20.4179698,45.708007 20.2109375,45.8701172 C20.0039052,46.0322274 19.9003906,46.23828 19.9003906,46.4882812 L18.4765625,46.4882812 C18.4765625,46.1406233 18.5917957,45.8154312 18.8222656,45.5126953 C19.0527355,45.2099594 19.366209,44.9726571 19.7626953,44.8007812 C20.1591817,44.6289054 20.6015601,44.5429688 21.0898438,44.5429688 C21.832035,44.5429688 22.4238259,44.7294903 22.8652344,45.1025391 C23.3066428,45.4755878 23.5332031,45.9999966 23.5449219,46.6757812 L23.5449219,49.5351562 C23.5449219,50.1054716 23.6249992,50.5605452 23.7851562,50.9003906 L23.7851562,51 L22.3320312,51 Z M20.7675781,49.9746094 C21.0488295,49.9746094 21.3134753,49.9062507 21.5615234,49.7695312 C21.8095716,49.6328118 21.9960931,49.4492199 22.1210938,49.21875 L22.1210938,48.0234375 L21.3535156,48.0234375 C20.8261692,48.0234375 20.4296888,48.1152335 20.1640625,48.2988281 C19.8984362,48.4824228 19.765625,48.7421858 19.765625,49.078125 C19.765625,49.3515639 19.8564444,49.5693351 20.0380859,49.7314453 C20.2197275,49.8935555 20.4628891,49.9746094 20.7675781,49.9746094 Z M30.5878906,47.8945312 C30.5878906,48.8750049 30.3652366,49.6572236 29.9199219,50.2412109 C29.4746071,50.8251982 28.8769569,51.1171875 28.1269531,51.1171875 C27.4316371,51.1171875 26.8750021,50.8886742 26.4570312,50.4316406 L26.4570312,53.4375 L25.0332031,53.4375 L25.0332031,44.6601562 L26.3457031,44.6601562 L26.4042969,45.3046875 C26.8222677,44.7968725 27.3906214,44.5429688 28.109375,44.5429688 C28.8828164,44.5429688 29.4892556,44.8310518 29.9287109,45.4072266 C30.3681663,45.9834013 30.5878906,46.783198 30.5878906,47.8066406 L30.5878906,47.8945312 Z M29.1699219,47.7714844 C29.1699219,47.1386687 29.0439466,46.6367206 28.7919922,46.265625 C28.5400378,45.8945294 28.1796898,45.7089844 27.7109375,45.7089844 C27.1289033,45.7089844 26.7109388,45.9492163 26.4570312,46.4296875 L26.4570312,49.2421875 C26.714845,49.7343775 27.1367158,49.9804688 27.7226562,49.9804688 C28.1757835,49.9804688 28.5302722,49.7978534 28.7861328,49.4326172 C29.0419935,49.067381 29.1699219,48.5136756 29.1699219,47.7714844 Z M34.5839844,51.1171875 C33.6816361,51.1171875 32.9501981,50.8330107 32.3896484,50.2646484 C31.8290988,49.6962862 31.5488281,48.9394579 31.5488281,47.9941406 L31.5488281,47.8183594 C31.5488281,47.1855437 31.6708972,46.6201197 31.9150391,46.1220703 C32.1591809,45.6240209 32.5019509,45.2363295 32.9433594,44.9589844 C33.3847678,44.6816392 33.8769504,44.5429688 34.4199219,44.5429688 C35.2832074,44.5429688 35.950193,44.8183566 36.4208984,45.3691406 C36.8916039,45.9199246 37.1269531,46.6992137 37.1269531,47.7070312 L37.1269531,48.28125 L32.984375,48.28125 C33.027344,48.8046901 33.2021469,49.2187485 33.5087891,49.5234375 C33.8154312,49.8281265 34.2011696,49.9804688 34.6660156,49.9804688 C35.3183626,49.9804688 35.8496073,49.7167995 36.2597656,49.1894531 L37.0273438,49.921875 C36.7734362,50.3007831 36.4345724,50.5947255 36.0107422,50.8037109 C35.5869119,51.0126964 35.1113308,51.1171875 34.5839844,51.1171875 Z M34.4140625,45.6855469 C34.0234355,45.6855469 33.708009,45.8222643 33.4677734,46.0957031 C33.2275379,46.369142 33.0742191,46.7499976 33.0078125,47.2382812 L35.7207031,47.2382812 L35.7207031,47.1328125 C35.689453,46.6562476 35.5625011,46.2958997 35.3398438,46.0517578 C35.1171864,45.807616 34.8085957,45.6855469 34.4140625,45.6855469 Z M39.7460938,51 L38.3222656,51 L38.3222656,42 L39.7460938,42 L39.7460938,51 Z M44.0878906,51.1171875 C43.1855424,51.1171875 42.4541044,50.8330107 41.8935547,50.2646484 C41.333005,49.6962862 41.0527344,48.9394579 41.0527344,47.9941406 L41.0527344,47.8183594 C41.0527344,47.1855437 41.1748035,46.6201197 41.4189453,46.1220703 C41.6630872,45.6240209 42.0058572,45.2363295 42.4472656,44.9589844 C42.8886741,44.6816392 43.3808567,44.5429688 43.9238281,44.5429688 C44.7871137,44.5429688 45.4540992,44.8183566 45.9248047,45.3691406 C46.3955102,45.9199246 46.6308594,46.6992137 46.6308594,47.7070312 L46.6308594,48.28125 L42.4882812,48.28125 C42.5312502,48.8046901 42.7060532,49.2187485 43.0126953,49.5234375 C43.3193375,49.8281265 43.7050758,49.9804688 44.1699219,49.9804688 C44.8222689,49.9804688 45.3535136,49.7167995 45.7636719,49.1894531 L46.53125,49.921875 C46.2773425,50.3007831 45.9384787,50.5947255 45.5146484,50.8037109 C45.0908182,51.0126964 44.615237,51.1171875 44.0878906,51.1171875 Z M43.9179688,45.6855469 C43.5273418,45.6855469 43.2119153,45.8222643 42.9716797,46.0957031 C42.7314441,46.369142 42.5781253,46.7499976 42.5117188,47.2382812 L45.2246094,47.2382812 L45.2246094,47.1328125 C45.1933592,46.6562476 45.0664074,46.2958997 44.84375,46.0517578 C44.6210926,45.807616 44.312502,45.6855469 43.9179688,45.6855469 Z M49.5195312,43.1191406 L49.5195312,44.6601562 L50.6386719,44.6601562 L50.6386719,45.7148438 L49.5195312,45.7148438 L49.5195312,49.2539062 C49.5195312,49.496095 49.5673823,49.6708979 49.6630859,49.7783203 C49.7587895,49.8857427 49.9296863,49.9394531 50.1757812,49.9394531 C50.3398446,49.9394531 50.5058585,49.9199221 50.6738281,49.8808594 L50.6738281,50.9824219 C50.3496078,51.0722661 50.0371109,51.1171875 49.7363281,51.1171875 C48.6425727,51.1171875 48.0957031,50.5136779 48.0957031,49.3066406 L48.0957031,45.7148438 L47.0527344,45.7148438 L47.0527344,44.6601562 L48.0957031,44.6601562 L48.0957031,43.1191406 L49.5195312,43.1191406 Z M55.5136719,51 C55.4511716,50.8789056 55.3964846,50.681642 55.3496094,50.4082031 C54.8964821,50.8808617 54.3418002,51.1171875 53.6855469,51.1171875 C53.0488249,51.1171875 52.5292989,50.9355487 52.1269531,50.5722656 C51.7246074,50.2089826 51.5234375,49.7597683 51.5234375,49.2246094 C51.5234375,48.5488247 51.7744116,48.0302752 52.2763672,47.6689453 C52.7783228,47.3076154 53.4960891,47.1269531 54.4296875,47.1269531 L55.3027344,47.1269531 L55.3027344,46.7109375 C55.3027344,46.3828109 55.2109384,46.1201182 55.0273438,45.9228516 C54.8437491,45.725585 54.564455,45.6269531 54.1894531,45.6269531 C53.8652328,45.6269531 53.5996104,45.708007 53.3925781,45.8701172 C53.1855458,46.0322274 53.0820312,46.23828 53.0820312,46.4882812 L51.6582031,46.4882812 C51.6582031,46.1406233 51.7734363,45.8154312 52.0039062,45.5126953 C52.2343762,45.2099594 52.5478496,44.9726571 52.9443359,44.8007812 C53.3408223,44.6289054 53.7832007,44.5429688 54.2714844,44.5429688 C55.0136756,44.5429688 55.6054665,44.7294903 56.046875,45.1025391 C56.4882835,45.4755878 56.7148437,45.9999966 56.7265625,46.6757812 L56.7265625,49.5351562 C56.7265625,50.1054716 56.8066398,50.5605452 56.9667969,50.9003906 L56.9667969,51 L55.5136719,51 Z M53.9492188,49.9746094 C54.2304702,49.9746094 54.4951159,49.9062507 54.7431641,49.7695312 C54.9912122,49.6328118 55.1777338,49.4492199 55.3027344,49.21875 L55.3027344,48.0234375 L54.5351562,48.0234375 C54.0078099,48.0234375 53.6113295,48.1152335 53.3457031,48.2988281 C53.0800768,48.4824228 52.9472656,48.7421858 52.9472656,49.078125 C52.9472656,49.3515639 53.038085,49.5693351 53.2197266,49.7314453 C53.4013681,49.8935555 53.6445297,49.9746094 53.9492188,49.9746094 Z M61.7714844,49.2773438 C61.7714844,49.0234362 61.6669932,48.8300788 61.4580078,48.6972656 C61.2490224,48.5644525 60.9023462,48.4472661 60.4179688,48.3457031 C59.9335913,48.2441401 59.5292985,48.1152352 59.2050781,47.9589844 C58.4941371,47.6152327 58.1386719,47.1171908 58.1386719,46.4648438 C58.1386719,45.917966 58.3691383,45.4609393 58.8300781,45.09375 C59.2910179,44.7265607 59.8769496,44.5429688 60.5878906,44.5429688 C61.3457069,44.5429688 61.9580055,44.7304669 62.4248047,45.1054688 C62.8916039,45.4804706 63.125,45.9667939 63.125,46.5644531 L61.7011719,46.5644531 C61.7011719,46.2910143 61.5996104,46.0634775 61.3964844,45.8818359 C61.1933584,45.7001944 60.9238298,45.609375 60.5878906,45.609375 C60.2753891,45.609375 60.0205088,45.6816399 59.8232422,45.8261719 C59.6259756,45.9707038 59.5273438,46.1640613 59.5273438,46.40625 C59.5273438,46.6250011 59.6191397,46.7949213 59.8027344,46.9160156 C59.986329,47.03711 60.3574191,47.1591791 60.9160156,47.2822266 C61.4746122,47.4052741 61.9130843,47.551757 62.2314453,47.7216797 C62.5498063,47.8916024 62.786132,48.0957019 62.9404297,48.3339844 C63.0947273,48.5722668 63.171875,48.8613264 63.171875,49.2011719 C63.171875,49.7714872 62.9355492,50.2333967 62.4628906,50.5869141 C61.990232,50.9404315 61.3710976,51.1171875 60.6054688,51.1171875 C60.0859349,51.1171875 59.6230489,51.0234384 59.2167969,50.8359375 C58.8105448,50.6484366 58.4941418,50.3906266 58.2675781,50.0625 C58.0410145,49.7343734 57.9277344,49.3808613 57.9277344,49.0019531 L59.3105469,49.0019531 C59.3300782,49.3378923 59.4570301,49.5966788 59.6914062,49.7783203 C59.9257824,49.9599618 60.2363262,50.0507812 60.6230469,50.0507812 C60.9980487,50.0507812 61.2832021,49.9794929 61.4785156,49.8369141 C61.6738291,49.6943352 61.7714844,49.5078137 61.7714844,49.2773438 Z M0.705078125,61.7832031 C0.705078125,60.8066357 0.931638359,60.0224639 1.38476562,59.4306641 C1.83789289,58.8388642 2.44530869,58.5429688 3.20703125,58.5429688 C3.87890961,58.5429688 4.42187293,58.7773414 4.8359375,59.2460938 L4.8359375,56 L6.25976562,56 L6.25976562,65 L4.97070312,65 L4.90039062,64.34375 C4.47460725,64.8593776 3.90625355,65.1171875 3.1953125,65.1171875 C2.45312129,65.1171875 1.85254136,64.8183624 1.39355469,64.2207031 C0.934568018,63.6230439 0.705078125,62.810552 0.705078125,61.7832031 Z M2.12890625,61.90625 C2.12890625,62.5507845 2.25292845,63.0537091 2.50097656,63.4150391 C2.74902468,63.776369 3.10156021,63.9570312 3.55859375,63.9570312 C4.14062791,63.9570312 4.5664049,63.6972682 4.8359375,63.1777344 L4.8359375,60.4707031 C4.57421744,59.9628881 4.15234666,59.7089844 3.5703125,59.7089844 C3.1093727,59.7089844 2.7539075,59.8915997 2.50390625,60.2568359 C2.253905,60.6220721 2.12890625,61.1718713 2.12890625,61.90625 Z M7.47851562,61.7714844 C7.47851562,61.1503875 7.60156127,60.5908228 7.84765625,60.0927734 C8.09375123,59.5947241 8.4394509,59.2119154 8.88476562,58.9443359 C9.33008035,58.6767565 9.84179398,58.5429688 10.4199219,58.5429688 C11.2753949,58.5429688 11.9697239,58.8183566 12.5029297,59.3691406 C13.0361355,59.9199246 13.3242185,60.6503861 13.3671875,61.5605469 L13.3730469,61.8945312 C13.3730469,62.5195344 13.2529309,63.0781225 13.0126953,63.5703125 C12.7724597,64.0625025 12.4287132,64.443358 11.9814453,64.7128906 C11.5341775,64.9824232 11.0175811,65.1171875 10.4316406,65.1171875 C9.5371049,65.1171875 8.82129175,64.8193389 8.28417969,64.2236328 C7.74706763,63.6279267 7.47851562,62.8339893 7.47851562,61.8417969 L7.47851562,61.7714844 Z M8.90234375,61.8945312 C8.90234375,62.5468783 9.03710803,63.0576153 9.30664062,63.4267578 C9.57617322,63.7959003 9.95116947,63.9804688 10.4316406,63.9804688 C10.9121118,63.9804688 11.2861315,63.7929706 11.5537109,63.4179688 C11.8212904,63.0429669 11.9550781,62.4941442 11.9550781,61.7714844 C11.9550781,61.1308562 11.8173842,60.6230487 11.5419922,60.2480469 C11.2666002,59.873045 10.8925805,59.6855469 10.4199219,59.6855469 C9.9550758,59.6855469 9.58593887,59.8701153 9.3125,60.2392578 C9.03906113,60.6084003 8.90234375,61.1601526 8.90234375,61.8945312 Z M17.703125,65 L17.703125,56.46875 L20.6269531,56.46875 C21.5918017,56.46875 22.3261694,56.6621074 22.8300781,57.0488281 C23.3339869,57.4355488 23.5859375,58.0117149 23.5859375,58.7773438 C23.5859375,59.1679707 23.4804698,59.5195297 23.2695312,59.8320312 C23.0585927,60.1445328 22.750002,60.3867179 22.34375,60.5585938 C22.8046898,60.6835944 23.1611316,60.9189436 23.4130859,61.2646484 C23.6650403,61.6103533 23.7910156,62.0253882 23.7910156,62.5097656 C23.7910156,63.3105509 23.5341823,63.9257791 23.0205078,64.3554688 C22.5068334,64.7851584 21.7714892,65 20.8144531,65 L17.703125,65 Z M19.1855469,61.1503906 L19.1855469,63.8164062 L20.8320312,63.8164062 C21.2968773,63.8164062 21.6601549,63.701173 21.921875,63.4707031 C22.1835951,63.2402332 22.3144531,62.9199239 22.3144531,62.5097656 C22.3144531,61.6230424 21.8613327,61.169922 20.9550781,61.1503906 L19.1855469,61.1503906 Z M19.1855469,60.0605469 L20.6386719,60.0605469 C21.0996117,60.0605469 21.4599596,59.9560557 21.7197266,59.7470703 C21.9794935,59.5380849 22.109375,59.2421894 22.109375,58.859375 C22.109375,58.4374979 21.989259,58.1328134 21.7490234,57.9453125 C21.5087879,57.7578116 21.1347682,57.6640625 20.6269531,57.6640625 L19.1855469,57.6640625 L19.1855469,60.0605469 Z M26.6503906,65 L25.2265625,65 L25.2265625,58.6601562 L26.6503906,58.6601562 L26.6503906,65 Z M25.1386719,57.0136719 C25.1386719,56.7949208 25.2080071,56.613282 25.3466797,56.46875 C25.4853523,56.324218 25.6835925,56.2519531 25.9414062,56.2519531 C26.19922,56.2519531 26.3984368,56.324218 26.5390625,56.46875 C26.6796882,56.613282 26.75,56.7949208 26.75,57.0136719 C26.75,57.2285167 26.6796882,57.4072258 26.5390625,57.5498047 C26.3984368,57.6923835 26.19922,57.7636719 25.9414062,57.7636719 C25.6835925,57.7636719 25.4853523,57.6923835 25.3466797,57.5498047 C25.2080071,57.4072258 25.1386719,57.2285167 25.1386719,57.0136719 Z M29.984375,57.1191406 L29.984375,58.6601562 L31.1035156,58.6601562 L31.1035156,59.7148438 L29.984375,59.7148438 L29.984375,63.2539062 C29.984375,63.496095 30.0322261,63.6708979 30.1279297,63.7783203 C30.2236333,63.8857427 30.39453,63.9394531 30.640625,63.9394531 C30.8046883,63.9394531 30.9707023,63.9199221 31.1386719,63.8808594 L31.1386719,64.9824219 C30.8144515,65.0722661 30.5019546,65.1171875 30.2011719,65.1171875 C29.1074164,65.1171875 28.5605469,64.5136779 28.5605469,63.3066406 L28.5605469,59.7148438 L27.5175781,59.7148438 L27.5175781,58.6601562 L28.5605469,58.6601562 L28.5605469,57.1191406 L29.984375,57.1191406 Z M31.7480469,61.7714844 C31.7480469,61.1503875 31.8710925,60.5908228 32.1171875,60.0927734 C32.3632825,59.5947241 32.7089821,59.2119154 33.1542969,58.9443359 C33.5996116,58.6767565 34.1113252,58.5429688 34.6894531,58.5429688 C35.5449262,58.5429688 36.2392551,58.8183566 36.7724609,59.3691406 C37.3056667,59.9199246 37.5937498,60.6503861 37.6367188,61.5605469 L37.6425781,61.8945312 C37.6425781,62.5195344 37.5224621,63.0781225 37.2822266,63.5703125 C37.041991,64.0625025 36.6982444,64.443358 36.2509766,64.7128906 C35.8037087,64.9824232 35.2871123,65.1171875 34.7011719,65.1171875 C33.8066362,65.1171875 33.090823,64.8193389 32.5537109,64.2236328 C32.0165989,63.6279267 31.7480469,62.8339893 31.7480469,61.8417969 L31.7480469,61.7714844 Z M33.171875,61.8945312 C33.171875,62.5468783 33.3066393,63.0576153 33.5761719,63.4267578 C33.8457045,63.7959003 34.2207007,63.9804688 34.7011719,63.9804688 C35.181643,63.9804688 35.5556627,63.7929706 35.8232422,63.4179688 C36.0908217,63.0429669 36.2246094,62.4941442 36.2246094,61.7714844 C36.2246094,61.1308562 36.0869154,60.6230487 35.8115234,60.2480469 C35.5361314,59.873045 35.1621117,59.6855469 34.6894531,59.6855469 C34.2246071,59.6855469 33.8554701,59.8701153 33.5820312,60.2392578 C33.3085924,60.6084003 33.171875,61.1601526 33.171875,61.8945312 Z M44.2695312,56.28125 L43.3027344,56.28125 L43.3027344,65.7910156 L44.2695312,65.7910156 L44.2695312,66.8984375 L41.8789062,66.8984375 L41.8789062,55.1679688 L44.2695312,55.1679688 L44.2695312,56.28125 Z M53.6972656,57.2597656 L50.2871094,65 L48.7929688,65 L52.1972656,57.6113281 L47.7851562,57.6113281 L47.7851562,56.46875 L53.6972656,56.46875 L53.6972656,57.2597656 Z M57.5351562,63.9804688 C57.8906268,63.9804688 58.1855457,63.8769542 58.4199219,63.6699219 C58.654298,63.4628896 58.7792968,63.2070328 58.7949219,62.9023438 L60.1367188,62.9023438 C60.1210937,63.296877 59.998048,63.6650374 59.7675781,64.0068359 C59.5371082,64.3486345 59.2246113,64.6191396 58.8300781,64.8183594 C58.4355449,65.0175791 58.0097679,65.1171875 57.5527344,65.1171875 C56.6660112,65.1171875 55.9628932,64.830081 55.4433594,64.2558594 C54.9238255,63.6816378 54.6640625,62.8886769 54.6640625,61.8769531 L54.6640625,61.7304688 C54.6640625,60.7656202 54.9218724,59.993167 55.4375,59.4130859 C55.9531276,58.8330049 56.6562455,58.5429688 57.546875,58.5429688 C58.300785,58.5429688 58.9150367,58.7626931 59.3896484,59.2021484 C59.8642602,59.6416038 60.1132811,60.2187464 60.1367188,60.9335938 L58.7949219,60.9335938 C58.7792968,60.5703107 58.6552746,60.2714855 58.4228516,60.0371094 C58.1904285,59.8027332 57.894533,59.6855469 57.5351562,59.6855469 C57.0742164,59.6855469 56.7187513,59.8525374 56.46875,60.1865234 C56.2187487,60.5205095 56.0917969,61.0273404 56.0878906,61.7070312 L56.0878906,61.9355469 C56.0878906,62.6230503 56.2119128,63.1357405 56.4599609,63.4736328 C56.7080091,63.8115251 57.0664039,63.9804688 57.5351562,63.9804688 Z M63.5410156,55.1679688 L65.9433594,55.1679688 L65.9433594,66.8984375 L63.5410156,66.8984375 L63.5410156,65.7910156 L64.5195312,65.7910156 L64.5195312,56.28125 L63.5410156,56.28125 L63.5410156,55.1679688 Z" id="path-1"></path>
        <filter x="-50%" y="-50%" width="200%" height="200%" filterUnits="objectBoundingBox" id="filter-2">
            <feOffset dx="0" dy="2" in="SourceAlpha" result="shadowOffsetOuter1"></feOffset>
            <feGaussianBlur stdDeviation="1" in="shadowOffsetOuter1" result="shadowBlurOuter1"></feGaussianBlur>
            <feColorMatrix values="0 0 0 0 0   0 0 0 0 0   0 0 0 0 0  0 0 0 0.5 0" type="matrix" in="shadowBlurOuter1"></feColorMatrix>
        </filter>
        <circle id="path-3" cx="20" cy="20" r="20"></circle>
        <filter x="-50%" y="-50%" width="200%" height="200%" filterUnits="objectBoundingBox" id="filter-4">
            <feOffset dx="0" dy="2" in="SourceAlpha" result="shadowOffsetOuter1"></feOffset>
            <feGaussianBlur stdDeviation="2" in="shadowOffsetOuter1" result="shadowBlurOuter1"></feGaussianBlur>
            <feColorMatrix values="0 0 0 0 0   0 0 0 0 0   0 0 0 0 0  0 0 0 0.5 0" type="matrix" in="shadowBlurOuter1"></feColorMatrix>
        </filter>
    </defs>
    <g id="Page-1" stroke="none" stroke-width="1" fill="none" fill-rule="evenodd">
        <g id="Group-53" transform="translate(2.000000, 2.000000)">
            <g id="Chapeletas-do-Bito-[">
                <use fill="black" fill-opacity="1" filter="url(#filter-2)" xlink:href="#path-1"></use>
                <use fill="#FFFFFF" fill-rule="evenodd" xlink:href="#path-1"></use>
            </g>
            <g id="Group-5" transform="translate(12.000000, 0.000000)">
                <g id="Group-2">
                    <g id="Group" opacity="0.3">
                        <g id="Oval-6">
                            <use fill="black" fill-opacity="1" filter="url(#filter-4)" xlink:href="#path-3"></use>
                            <use fill="#FFFFFF" fill-rule="evenodd" xlink:href="#path-3"></use>
                        </g>
                    </g>
                    <circle id="Oval-5" stroke="#FFFFFF" stroke-width="5" fill="#DC1E65" cx="20" cy="20" r="8"></circle>
                </g>
            </g>
            <ellipse id="Oval-3" fill="#DC1E65" cx="32" cy="20" rx="13" ry="13"></ellipse>
            <ellipse id="Oval-3" fill="#DC1E65" cx="32" cy="20" rx="13" ry="13"></ellipse>
            <path d="M30.6738281,24 L29.2558594,24 L29.2558594,17.1503906 L27.1640625,17.8652344 L27.1640625,16.6640625 L30.4921875,15.4394531 L30.6738281,15.4394531 L30.6738281,24 Z M39.375,24 L33.6386719,24 L33.6386719,23.0214844 L36.4804688,19.921875 C36.8906271,19.4648415 37.1826163,19.0830093 37.3564453,18.7763672 C37.5302743,18.469725 37.6171875,18.1621109 37.6171875,17.8535156 C37.6171875,17.4472636 37.5029308,17.1191419 37.2744141,16.8691406 C37.0458973,16.6191394 36.7382832,16.4941406 36.3515625,16.4941406 C35.8906227,16.4941406 35.5332044,16.6347642 35.2792969,16.9160156 C35.0253894,17.197267 34.8984375,17.5820288 34.8984375,18.0703125 L33.4746094,18.0703125 C33.4746094,17.5507787 33.5927723,17.0830099 33.8291016,16.6669922 C34.0654309,16.2509745 34.4033181,15.9277355 34.8427734,15.6972656 C35.2822288,15.4667957 35.7890596,15.3515625 36.3632812,15.3515625 C37.1914104,15.3515625 37.8447242,15.5595682 38.3232422,15.9755859 C38.8017602,16.3916036 39.0410156,16.9667932 39.0410156,17.7011719 C39.0410156,18.1269553 38.9208996,18.5732399 38.6806641,19.0400391 C38.4404285,19.5068383 38.0468777,20.0371064 37.5,20.6308594 L35.4140625,22.8632812 L39.375,22.8632812 L39.375,24 Z" id="12" fill="#FFFFFF"></path>
        </g>
    </g>
</svg>