<?xml version="1.0" encoding="UTF-8"?>
<svg width="141px" height="61px" viewBox="0 0 141 61" version="1.1" xmlns="http://www.w3.org/2000/svg" xmlns:xlink="http://www.w3.org/1999/xlink">
    <!-- Generator: Sketch 42 (36781) - http://www.bohemiancoding.com/sketch -->
    <title>Group 5</title>
    <desc>Created with Sketch.</desc>
    <defs>
        <rect id="path-1" x="0" y="0" width="141" height="20" rx="2"></rect>
        <filter x="-50%" y="-50%" width="200%" height="200%" filterUnits="objectBoundingBox" id="filter-2">
            <feOffset dx="0" dy="1" in="SourceAlpha" result="shadowOffsetOuter1"></feOffset>
            <feGaussianBlur stdDeviation="1" in="shadowOffsetOuter1" result="shadowBlurOuter1"></feGaussianBlur>
            <feColorMatrix values="0 0 0 0 0   0 0 0 0 0   0 0 0 0 0  0 0 0 0.5 0" type="matrix" in="shadowBlurOuter1"></feColorMatrix>
        </filter>
        <path d="M70.5,19.5 L70.5,57.5" id="path-3"></path>
        <filter x="-50%" y="-50%" width="200%" height="200%" filterUnits="objectBoundingBox" id="filter-4">
            <feMorphology radius="0.5" operator="dilate" in="SourceAlpha" result="shadowSpreadOuter1"></feMorphology>
            <feOffset dx="0" dy="1" in="shadowSpreadOuter1" result="shadowOffsetOuter1"></feOffset>
            <feMorphology radius="1" operator="erode" in="SourceAlpha" result="shadowInner"></feMorphology>
            <feOffset dx="0" dy="1" in="shadowInner" result="shadowInner"></feOffset>
            <feComposite in="shadowOffsetOuter1" in2="shadowInner" operator="out" result="shadowOffsetOuter1"></feComposite>
            <feGaussianBlur stdDeviation="0.5" in="shadowOffsetOuter1" result="shadowBlurOuter1"></feGaussianBlur>
            <feColorMatrix values="0 0 0 0 0   0 0 0 0 0   0 0 0 0 0  0 0 0 0.5 0" type="matrix" in="shadowBlurOuter1"></feColorMatrix>
        </filter>
    </defs>
    <g id="Page-1" stroke="none" stroke-width="1" fill="none" fill-rule="evenodd">
        <g id="Index" transform="translate(-179.000000, -351.000000)">
            <g id="Group-5" transform="translate(181.000000, 352.000000)">
                <g id="Rectangle-3">
                    <use fill="black" fill-opacity="1" filter="url(#filter-2)" xlink:href="#path-1"></use>
                    <use fill="#DC1E65" fill-rule="evenodd" xlink:href="#path-1"></use>
                </g>
                <path d="M31.9199219,9.83105469 C31.1158814,9.59993374 30.5307635,9.31591965 30.1645508,8.97900391 C29.798338,8.64208816 29.6152344,8.22623945 29.6152344,7.73144531 C29.6152344,7.17154668 29.8390277,6.70849792 30.2866211,6.34228516 C30.7342145,5.97607239 31.3160771,5.79296875 32.0322266,5.79296875 C32.5205103,5.79296875 32.95589,5.88736885 33.3383789,6.07617188 C33.7208678,6.2649749 34.0170888,6.52538896 34.2270508,6.85742188 C34.4370128,7.18945479 34.5419922,7.55240688 34.5419922,7.94628906 L33.5996094,7.94628906 C33.5996094,7.51659941 33.462892,7.17887493 33.1894531,6.93310547 C32.9160143,6.68733601 32.5302759,6.56445312 32.0322266,6.56445312 C31.5699847,6.56445312 31.209474,6.66617737 30.9506836,6.86962891 C30.6918932,7.07308044 30.5625,7.35546694 30.5625,7.71679688 C30.5625,8.00651187 30.6853829,8.25146384 30.9311523,8.45166016 C31.1769218,8.65185647 31.5952119,8.83496011 32.1860352,9.00097656 C32.7768584,9.16699302 33.2390934,9.35009666 33.5727539,9.55029297 C33.9064144,9.75048928 34.1538078,9.98404814 34.3149414,10.2509766 C34.476075,10.517905 34.5566406,10.8320294 34.5566406,11.1933594 C34.5566406,11.7695341 34.3320335,12.2309553 33.8828125,12.5776367 C33.4335915,12.9243181 32.8330116,13.0976562 32.0810547,13.0976562 C31.592771,13.0976562 31.1370464,13.0040699 30.7138672,12.8168945 C30.290688,12.6297191 29.9643566,12.373374 29.7348633,12.0478516 C29.5053699,11.7223291 29.390625,11.3528667 29.390625,10.9394531 L30.3330078,10.9394531 C30.3330078,11.3691428 30.4916976,11.7084948 30.809082,11.9575195 C31.1264664,12.2065442 31.5504531,12.3310547 32.0810547,12.3310547 C32.5758488,12.3310547 32.9550768,12.2301442 33.21875,12.0283203 C33.4824232,11.8264964 33.6142578,11.551434 33.6142578,11.203125 C33.6142578,10.854816 33.4921887,10.5854502 33.2480469,10.3950195 C33.003905,10.2045889 32.5612011,10.0166025 31.9199219,9.83105469 Z M39.7763672,9.71386719 L36.6953125,9.71386719 L36.6953125,12.2333984 L40.2744141,12.2333984 L40.2744141,13 L35.7578125,13 L35.7578125,5.890625 L40.2255859,5.890625 L40.2255859,6.66210938 L36.6953125,6.66210938 L36.6953125,8.94726562 L39.7763672,8.94726562 L39.7763672,9.71386719 Z M46.4511719,6.66210938 L44.1660156,6.66210938 L44.1660156,13 L43.2333984,13 L43.2333984,6.66210938 L40.953125,6.66210938 L40.953125,5.890625 L46.4511719,5.890625 L46.4511719,6.66210938 Z M52.8378906,9.67480469 C52.8378906,10.3714228 52.7207043,10.9793268 52.4863281,11.4985352 C52.251952,12.0177435 51.919924,12.4140611 51.4902344,12.6875 C51.0605447,12.9609389 50.5592477,13.0976562 49.9863281,13.0976562 C49.4264295,13.0976562 48.9300152,12.9601251 48.4970703,12.6850586 C48.0641254,12.4099921 47.7280285,12.0177434 47.4887695,11.5083008 C47.2495105,10.9988581 47.1266276,10.4088575 47.1201172,9.73828125 L47.1201172,9.22558594 C47.1201172,8.54198877 47.2389311,7.93815366 47.4765625,7.4140625 C47.7141939,6.88997134 48.0502908,6.48877092 48.4848633,6.21044922 C48.9194358,5.93212751 49.4166639,5.79296875 49.9765625,5.79296875 C50.5462268,5.79296875 51.0483377,5.93049993 51.4829102,6.20556641 C51.9174826,6.48063289 52.251952,6.87939192 52.4863281,7.40185547 C52.7207043,7.92431902 52.8378906,8.5322231 52.8378906,9.22558594 L52.8378906,9.67480469 Z M51.9052734,9.21582031 C51.9052734,8.37271714 51.7360043,7.72575095 51.3974609,7.27490234 C51.0589176,6.82405374 50.5852895,6.59863281 49.9765625,6.59863281 C49.3841116,6.59863281 48.9178077,6.82405374 48.5776367,7.27490234 C48.2374657,7.72575095 48.0625,8.3515585 48.0527344,9.15234375 L48.0527344,9.67480469 C48.0527344,10.4918661 48.2244449,11.1339495 48.5678711,11.6010742 C48.9112973,12.068199 49.3841116,12.3017578 49.9863281,12.3017578 C50.5917999,12.3017578 51.0605452,12.0812197 51.3925781,11.6401367 C51.724611,11.1990538 51.8955078,10.5667359 51.9052734,9.74316406 L51.9052734,9.21582031 Z M56.8515625,10.1240234 L55.1816406,10.1240234 L55.1816406,13 L54.2392578,13 L54.2392578,5.890625 L56.5927734,5.890625 C57.3935587,5.890625 58.0096007,6.07291484 58.440918,6.4375 C58.8722352,6.80208516 59.0878906,7.33267881 59.0878906,8.02929688 C59.0878906,8.47200742 58.9682629,8.85774575 58.7290039,9.18652344 C58.4897449,9.51530112 58.1569032,9.76106689 57.7304688,9.92382812 L59.4003906,12.9414062 L59.4003906,13 L58.3945312,13 L56.8515625,10.1240234 Z M55.1816406,9.35742188 L56.6220703,9.35742188 C57.0875674,9.35742188 57.4578437,9.23698037 57.7329102,8.99609375 C58.0079766,8.75520713 58.1455078,8.43294473 58.1455078,8.02929688 C58.1455078,7.58984155 58.014487,7.25293086 57.7524414,7.01855469 C57.4903958,6.78417852 57.1119816,6.6653646 56.6171875,6.66210938 L55.1816406,6.66210938 L55.1816406,9.35742188 Z M63.8144531,10.2167969 L63.8144531,13 L62.8769531,13 L62.8769531,5.890625 L65.4990234,5.890625 C66.2770221,5.890625 66.8865538,6.08919072 67.3276367,6.48632812 C67.7687197,6.88346553 67.9892578,7.40917642 67.9892578,8.06347656 C67.9892578,8.75358418 67.7736024,9.28499163 67.3422852,9.65771484 C66.9109679,10.0304381 66.2932983,10.2167969 65.4892578,10.2167969 L63.8144531,10.2167969 Z M63.8144531,9.45019531 L65.4990234,9.45019531 C66.000328,9.45019531 66.3844388,9.33219519 66.6513672,9.09619141 C66.9182956,8.86018762 67.0517578,8.51920796 67.0517578,8.07324219 C67.0517578,7.65006299 66.9182956,7.31152471 66.6513672,7.05761719 C66.3844388,6.80370967 66.0182315,6.67187505 65.5527344,6.66210938 L63.8144531,6.66210938 L63.8144531,9.45019531 Z M71.7929688,10.1240234 L70.1230469,10.1240234 L70.1230469,13 L69.1806641,13 L69.1806641,5.890625 L71.5341797,5.890625 C72.3349649,5.890625 72.951007,6.07291484 73.3823242,6.4375 C73.8136415,6.80208516 74.0292969,7.33267881 74.0292969,8.02929688 C74.0292969,8.47200742 73.9096692,8.85774575 73.6704102,9.18652344 C73.4311511,9.51530112 73.0983094,9.76106689 72.671875,9.92382812 L74.3417969,12.9414062 L74.3417969,13 L73.3359375,13 L71.7929688,10.1240234 Z M70.1230469,9.35742188 L71.5634766,9.35742188 C72.0289737,9.35742188 72.3992499,9.23698037 72.6743164,8.99609375 C72.9493829,8.75520713 73.0869141,8.43294473 73.0869141,8.02929688 C73.0869141,7.58984155 72.9558932,7.25293086 72.6938477,7.01855469 C72.4318021,6.78417852 72.0533879,6.6653646 71.5585938,6.66210938 L70.1230469,6.66210938 L70.1230469,9.35742188 Z M76.3486328,13 L75.4111328,13 L75.4111328,5.890625 L76.3486328,5.890625 L76.3486328,13 Z M83.5263672,13 L82.5839844,13 L79.0048828,7.52148438 L79.0048828,13 L78.0625,13 L78.0625,5.890625 L79.0048828,5.890625 L82.59375,11.3935547 L82.59375,5.890625 L83.5263672,5.890625 L83.5263672,13 Z M90.4208984,10.7441406 C90.3330074,11.4960975 90.0555036,12.0763326 89.5883789,12.4848633 C89.1212542,12.893394 88.5003294,13.0976562 87.7255859,13.0976562 C86.885738,13.0976562 86.2127304,12.7965525 85.706543,12.1943359 C85.2003555,11.5921194 84.9472656,10.7864634 84.9472656,9.77734375 L84.9472656,9.09375 C84.9472656,8.4329394 85.0652657,7.85189053 85.3012695,7.35058594 C85.5372733,6.84928135 85.8717426,6.46435681 86.3046875,6.19580078 C86.7376324,5.92724475 87.2389294,5.79296875 87.8085938,5.79296875 C88.5638059,5.79296875 89.1692686,6.00374138 89.625,6.42529297 C90.0807314,6.84684456 90.3460283,7.43033481 90.4208984,8.17578125 L89.4785156,8.17578125 C89.397135,7.60937217 89.2205417,7.19922002 88.9487305,6.9453125 C88.6769192,6.69140498 88.2968774,6.56445312 87.8085938,6.56445312 C87.2096324,6.56445312 86.7400733,6.78580508 86.3999023,7.22851562 C86.0597314,7.67122617 85.8896484,8.30110269 85.8896484,9.11816406 L85.8896484,9.80664062 C85.8896484,10.5781289 86.0507796,11.1917295 86.3730469,11.6474609 C86.6953141,12.1031924 87.146156,12.3310547 87.7255859,12.3310547 C88.2464219,12.3310547 88.6459947,12.2130546 88.9243164,11.9770508 C89.2026381,11.741047 89.3873693,11.3300811 89.4785156,10.7441406 L90.4208984,10.7441406 Z M92.7060547,13 L91.7685547,13 L91.7685547,5.890625 L92.7060547,5.890625 L92.7060547,13 Z M95.3574219,10.2167969 L95.3574219,13 L94.4199219,13 L94.4199219,5.890625 L97.0419922,5.890625 C97.8199909,5.890625 98.4295225,6.08919072 98.8706055,6.48632812 C99.3116884,6.88346553 99.5322266,7.40917642 99.5322266,8.06347656 C99.5322266,8.75358418 99.3165712,9.28499163 98.8852539,9.65771484 C98.4539366,10.0304381 97.836267,10.2167969 97.0322266,10.2167969 L95.3574219,10.2167969 Z M95.3574219,9.45019531 L97.0419922,9.45019531 C97.5432968,9.45019531 97.9274075,9.33219519 98.1943359,9.09619141 C98.4612644,8.86018762 98.5947266,8.51920796 98.5947266,8.07324219 C98.5947266,7.65006299 98.4612644,7.31152471 98.1943359,7.05761719 C97.9274075,6.80370967 97.5612002,6.67187505 97.0957031,6.66210938 L95.3574219,6.66210938 L95.3574219,9.45019531 Z M103.980469,11.1445312 L101.001953,11.1445312 L100.333008,13 L99.3662109,13 L102.081055,5.890625 L102.901367,5.890625 L105.621094,13 L104.65918,13 L103.980469,11.1445312 Z M101.285156,10.3730469 L103.702148,10.3730469 L102.491211,7.04785156 L101.285156,10.3730469 Z M107.520508,12.2333984 L110.889648,12.2333984 L110.889648,13 L106.578125,13 L106.578125,5.890625 L107.520508,5.890625 L107.520508,12.2333984 Z" id="SETOR-PRINCIPAL" fill="#FFFFFF"></path>
                <g id="Line">
                    <use fill="black" fill-opacity="1" filter="url(#filter-4)" xlink:href="#path-3"></use>
                    <use stroke="#DC1E65" stroke-width="1" stroke-linecap="square" stroke-dasharray="2" xlink:href="#path-3"></use>
                </g>
            </g>
        </g>
    </g>
</svg>