<?xml version="1.0" encoding="UTF-8"?>
<svg width="85px" height="60px" viewBox="0 0 85 60" version="1.1" xmlns="http://www.w3.org/2000/svg" xmlns:xlink="http://www.w3.org/1999/xlink">
    <!-- Generator: Sketch 42 (36781) - http://www.bohemiancoding.com/sketch -->
    <title>Group 55</title>
    <desc>Created with Sketch.</desc>
    <defs>
        <path d="M2.44628906,49.8164062 L6.31933594,49.8164062 L6.31933594,51 L0.963867188,51 L0.963867188,42.46875 L2.44628906,42.46875 L2.44628906,49.8164062 Z M10.1103516,51.1171875 C9.2080033,51.1171875 8.4765653,50.8330107 7.91601562,50.2646484 C7.35546595,49.6962862 7.07519531,48.9394579 7.07519531,47.9941406 L7.07519531,47.8183594 C7.07519531,47.1855437 7.1972644,46.6201197 7.44140625,46.1220703 C7.6855481,45.6240209 8.02831811,45.2363295 8.46972656,44.9589844 C8.91113502,44.6816392 9.4033176,44.5429688 9.94628906,44.5429688 C10.8095746,44.5429688 11.4765601,44.8183566 11.9472656,45.3691406 C12.4179711,45.9199246 12.6533203,46.6992137 12.6533203,47.7070312 L12.6533203,48.28125 L8.51074219,48.28125 C8.55371115,48.8046901 8.72851409,49.2187485 9.03515625,49.5234375 C9.34179841,49.8281265 9.72753674,49.9804688 10.1923828,49.9804688 C10.8447298,49.9804688 11.3759745,49.7167995 11.7861328,49.1894531 L12.5537109,49.921875 C12.2998034,50.3007831 11.9609396,50.5947255 11.5371094,50.8037109 C11.1132791,51.0126964 10.6376979,51.1171875 10.1103516,51.1171875 Z M9.94042969,45.6855469 C9.54980273,45.6855469 9.2343762,45.8222643 8.99414062,46.0957031 C8.75390505,46.369142 8.60058627,46.7499976 8.53417969,47.2382812 L11.2470703,47.2382812 L11.2470703,47.1328125 C11.2158202,46.6562476 11.0888683,46.2958997 10.8662109,46.0517578 C10.6435536,45.807616 10.3349629,45.6855469 9.94042969,45.6855469 Z M15.9169922,49.1953125 L17.2587891,44.6601562 L18.7294922,44.6601562 L16.5322266,51 L15.2958984,51 L13.0810547,44.6601562 L14.5576172,44.6601562 L15.9169922,49.1953125 Z M21.1318359,51 L19.7080078,51 L19.7080078,44.6601562 L21.1318359,44.6601562 L21.1318359,51 Z M19.6201172,43.0136719 C19.6201172,42.7949208 19.6894524,42.613282 19.828125,42.46875 C19.9667976,42.324218 20.1650378,42.2519531 20.4228516,42.2519531 C20.6806654,42.2519531 20.8798821,42.324218 21.0205078,42.46875 C21.1611335,42.613282 21.2314453,42.7949208 21.2314453,43.0136719 C21.2314453,43.2285167 21.1611335,43.4072258 21.0205078,43.5498047 C20.8798821,43.6923835 20.6806654,43.7636719 20.4228516,43.7636719 C20.1650378,43.7636719 19.9667976,43.6923835 19.828125,43.5498047 C19.6894524,43.4072258 19.6201172,43.2285167 19.6201172,43.0136719 Z M26.4697266,51 C26.4072262,50.8789056 26.3525393,50.681642 26.3056641,50.4082031 C25.8525368,50.8808617 25.2978548,51.1171875 24.6416016,51.1171875 C24.0048796,51.1171875 23.4853536,50.9355487 23.0830078,50.5722656 C22.6806621,50.2089826 22.4794922,49.7597683 22.4794922,49.2246094 C22.4794922,48.5488247 22.7304662,48.0302752 23.2324219,47.6689453 C23.7343775,47.3076154 24.4521438,47.1269531 25.3857422,47.1269531 L26.2587891,47.1269531 L26.2587891,46.7109375 C26.2587891,46.3828109 26.1669931,46.1201182 25.9833984,45.9228516 C25.7998038,45.725585 25.5205097,45.6269531 25.1455078,45.6269531 C24.8212874,45.6269531 24.5556651,45.708007 24.3486328,45.8701172 C24.1416005,46.0322274 24.0380859,46.23828 24.0380859,46.4882812 L22.6142578,46.4882812 C22.6142578,46.1406233 22.729491,45.8154312 22.9599609,45.5126953 C23.1904308,45.2099594 23.5039043,44.9726571 23.9003906,44.8007812 C24.296877,44.6289054 24.7392554,44.5429688 25.2275391,44.5429688 C25.9697303,44.5429688 26.5615212,44.7294903 27.0029297,45.1025391 C27.4443381,45.4755878 27.6708984,45.9999966 27.6826172,46.6757812 L27.6826172,49.5351562 C27.6826172,50.1054716 27.7626945,50.5605452 27.9228516,50.9003906 L27.9228516,51 L26.4697266,51 Z M24.9052734,49.9746094 C25.1865248,49.9746094 25.4511706,49.9062507 25.6992188,49.7695312 C25.9472669,49.6328118 26.1337884,49.4492199 26.2587891,49.21875 L26.2587891,48.0234375 L25.4912109,48.0234375 C24.9638646,48.0234375 24.5673841,48.1152335 24.3017578,48.2988281 C24.0361315,48.4824228 23.9033203,48.7421858 23.9033203,49.078125 C23.9033203,49.3515639 23.9941397,49.5693351 24.1757812,49.7314453 C24.3574228,49.8935555 24.6005844,49.9746094 24.9052734,49.9746094 Z M30.9580078,43.1191406 L30.9580078,44.6601562 L32.0771484,44.6601562 L32.0771484,45.7148438 L30.9580078,45.7148438 L30.9580078,49.2539062 C30.9580078,49.496095 31.0058589,49.6708979 31.1015625,49.7783203 C31.1972661,49.8857427 31.3681628,49.9394531 31.6142578,49.9394531 C31.7783211,49.9394531 31.9443351,49.9199221 32.1123047,49.8808594 L32.1123047,50.9824219 C31.7880843,51.0722661 31.4755874,51.1171875 31.1748047,51.1171875 C30.0810492,51.1171875 29.5341797,50.5136779 29.5341797,49.3066406 L29.5341797,45.7148438 L28.4912109,45.7148438 L28.4912109,44.6601562 L29.5341797,44.6601562 L29.5341797,43.1191406 L30.9580078,43.1191406 Z M36.9521484,51 C36.8896481,50.8789056 36.8349612,50.681642 36.7880859,50.4082031 C36.3349587,50.8808617 35.7802767,51.1171875 35.1240234,51.1171875 C34.4873015,51.1171875 33.9677754,50.9355487 33.5654297,50.5722656 C33.1630839,50.2089826 32.9619141,49.7597683 32.9619141,49.2246094 C32.9619141,48.5488247 33.2128881,48.0302752 33.7148438,47.6689453 C34.2167994,47.3076154 34.9345656,47.1269531 35.8681641,47.1269531 L36.7412109,47.1269531 L36.7412109,46.7109375 C36.7412109,46.3828109 36.649415,46.1201182 36.4658203,45.9228516 C36.2822256,45.725585 36.0029316,45.6269531 35.6279297,45.6269531 C35.3037093,45.6269531 35.038087,45.708007 34.8310547,45.8701172 C34.6240224,46.0322274 34.5205078,46.23828 34.5205078,46.4882812 L33.0966797,46.4882812 C33.0966797,46.1406233 33.2119129,45.8154312 33.4423828,45.5126953 C33.6728527,45.2099594 33.9863261,44.9726571 34.3828125,44.8007812 C34.7792989,44.6289054 35.2216772,44.5429688 35.7099609,44.5429688 C36.4521521,44.5429688 37.0439431,44.7294903 37.4853516,45.1025391 C37.92676,45.4755878 38.1533203,45.9999966 38.1650391,46.6757812 L38.1650391,49.5351562 C38.1650391,50.1054716 38.2451164,50.5605452 38.4052734,50.9003906 L38.4052734,51 L36.9521484,51 Z M35.3876953,49.9746094 C35.6689467,49.9746094 35.9335925,49.9062507 36.1816406,49.7695312 C36.4296887,49.6328118 36.6162103,49.4492199 36.7412109,49.21875 L36.7412109,48.0234375 L35.9736328,48.0234375 C35.4462864,48.0234375 35.049806,48.1152335 34.7841797,48.2988281 C34.5185534,48.4824228 34.3857422,48.7421858 34.3857422,49.078125 C34.3857422,49.3515639 34.4765616,49.5693351 34.6582031,49.7314453 C34.8398447,49.8935555 35.0830063,49.9746094 35.3876953,49.9746094 Z M37.9072266,42.1289062 C37.9072266,42.5585959 37.7832044,42.9160142 37.5351562,43.2011719 C37.2871081,43.4863296 36.9755878,43.6289062 36.6005859,43.6289062 C36.4482414,43.6289062 36.3164068,43.6123049 36.2050781,43.5791016 C36.0937494,43.5458983 35.9355479,43.4707037 35.7304688,43.3535156 C35.5253896,43.2363275 35.3808598,43.1660157 35.296875,43.1425781 C35.2128902,43.1191405 35.1201177,43.1074219 35.0185547,43.1074219 C34.8701164,43.1074219 34.7441411,43.1630854 34.640625,43.2744141 C34.5371089,43.3857427 34.4853516,43.5312491 34.4853516,43.7109375 L33.6123047,43.6640625 C33.6123047,43.2343729 33.7363269,42.8730483 33.984375,42.5800781 C34.2324231,42.2871079 34.5419903,42.140625 34.9130859,42.140625 C35.1357433,42.140625 35.4042953,42.2285147 35.71875,42.4042969 C36.0332047,42.580079 36.2919912,42.6679688 36.4951172,42.6679688 C36.6435554,42.6679688 36.7705073,42.6123052 36.8759766,42.5009766 C36.9814458,42.3896479 37.0341797,42.2421884 37.0341797,42.0585938 L37.9072266,42.1289062 Z M45.0791016,42.28125 L44.1123047,42.28125 L44.1123047,51.7910156 L45.0791016,51.7910156 L45.0791016,52.8984375 L42.6884766,52.8984375 L42.6884766,41.1679688 L45.0791016,41.1679688 L45.0791016,42.28125 Z M53.2587891,42.4277344 L53.2587891,43.6054688 L53.0830078,43.6054688 C52.2861288,43.6171876 51.6494164,43.8359354 51.1728516,44.2617188 C50.6962867,44.6875021 50.4130864,45.2910117 50.3232422,46.0722656 C50.7802757,45.5917945 51.3642543,45.3515625 52.0751953,45.3515625 C52.8291053,45.3515625 53.4238259,45.6171848 53.859375,46.1484375 C54.2949241,46.6796902 54.5126953,47.3652302 54.5126953,48.2050781 C54.5126953,49.07227 54.257815,49.7744114 53.7480469,50.3115234 C53.2382787,50.8486355 52.5693401,51.1171875 51.7412109,51.1171875 C50.8896442,51.1171875 50.1992214,50.8027375 49.6699219,50.1738281 C49.1406224,49.5449187 48.8759766,48.7207082 48.8759766,47.7011719 L48.8759766,47.2148438 C48.8759766,45.7187425 49.2402307,44.5468792 49.96875,43.6992188 C50.6972693,42.8515583 51.7451104,42.4277344 53.1123047,42.4277344 L53.2587891,42.4277344 Z M51.7294922,46.5 C51.4169906,46.5 51.1308607,46.5878897 50.8710938,46.7636719 C50.6113268,46.939454 50.420899,47.1738267 50.2998047,47.4667969 L50.2998047,47.9003906 C50.2998047,48.5332063 50.4326159,49.0361309 50.6982422,49.4091797 C50.9638685,49.7822284 51.3076151,49.96875 51.7294922,49.96875 C52.1513693,49.96875 52.4853503,49.8105485 52.7314453,49.4941406 C52.9775403,49.1777328 53.1005859,48.7617213 53.1005859,48.2460938 C53.1005859,47.7304662 52.9755872,47.3105485 52.7255859,46.9863281 C52.4755847,46.6621078 52.1435568,46.5 51.7294922,46.5 Z M59.2939453,49.2773438 C59.2939453,49.0234362 59.1894542,48.8300788 58.9804688,48.6972656 C58.7714833,48.5644525 58.4248071,48.4472661 57.9404297,48.3457031 C57.4560523,48.2441401 57.0517594,48.1152352 56.7275391,47.9589844 C56.016598,47.6152327 55.6611328,47.1171908 55.6611328,46.4648438 C55.6611328,45.917966 55.8915993,45.4609393 56.3525391,45.09375 C56.8134789,44.7265607 57.3994105,44.5429688 58.1103516,44.5429688 C58.8681679,44.5429688 59.4804664,44.7304669 59.9472656,45.1054688 C60.4140648,45.4804706 60.6474609,45.9667939 60.6474609,46.5644531 L59.2236328,46.5644531 C59.2236328,46.2910143 59.1220713,46.0634775 58.9189453,45.8818359 C58.7158193,45.7001944 58.4462907,45.609375 58.1103516,45.609375 C57.79785,45.609375 57.5429697,45.6816399 57.3457031,45.8261719 C57.1484365,45.9707038 57.0498047,46.1640613 57.0498047,46.40625 C57.0498047,46.6250011 57.1416006,46.7949213 57.3251953,46.9160156 C57.50879,47.03711 57.87988,47.1591791 58.4384766,47.2822266 C58.9970731,47.4052741 59.4355453,47.551757 59.7539062,47.7216797 C60.0722672,47.8916024 60.308593,48.0957019 60.4628906,48.3339844 C60.6171883,48.5722668 60.6943359,48.8613264 60.6943359,49.2011719 C60.6943359,49.7714872 60.4580102,50.2333967 59.9853516,50.5869141 C59.5126929,50.9404315 58.8935585,51.1171875 58.1279297,51.1171875 C57.6083958,51.1171875 57.1455098,51.0234384 56.7392578,50.8359375 C56.3330058,50.6484366 56.0166027,50.3906266 55.7900391,50.0625 C55.5634754,49.7343734 55.4501953,49.3808613 55.4501953,49.0019531 L56.8330078,49.0019531 C56.8525392,49.3378923 56.979491,49.5966788 57.2138672,49.7783203 C57.4482434,49.9599618 57.7587871,50.0507812 58.1455078,50.0507812 C58.5205097,50.0507812 58.8056631,49.9794929 59.0009766,49.8369141 C59.19629,49.6943352 59.2939453,49.5078137 59.2939453,49.2773438 Z M65.7744141,50.3789062 C65.3564432,50.8710962 64.7626992,51.1171875 63.9931641,51.1171875 C63.3056606,51.1171875 62.785158,50.9160176 62.4316406,50.5136719 C62.0781232,50.1113261 61.9013672,49.5293007 61.9013672,48.7675781 L61.9013672,44.6601562 L63.3251953,44.6601562 L63.3251953,48.75 C63.3251953,49.5546915 63.6591763,49.9570312 64.3271484,49.9570312 C65.0185581,49.9570312 65.4853504,49.7089869 65.7275391,49.2128906 L65.7275391,44.6601562 L67.1513672,44.6601562 L67.1513672,51 L65.8095703,51 L65.7744141,50.3789062 Z M74.1533203,47.8945312 C74.1533203,48.8750049 73.9306663,49.6572236 73.4853516,50.2412109 C73.0400368,50.8251982 72.4423866,51.1171875 71.6923828,51.1171875 C70.9970668,51.1171875 70.4404318,50.8886742 70.0224609,50.4316406 L70.0224609,53.4375 L68.5986328,53.4375 L68.5986328,44.6601562 L69.9111328,44.6601562 L69.9697266,45.3046875 C70.3876974,44.7968725 70.9560511,44.5429688 71.6748047,44.5429688 C72.4482461,44.5429688 73.0546853,44.8310518 73.4941406,45.4072266 C73.9335959,45.9834013 74.1533203,46.783198 74.1533203,47.8066406 L74.1533203,47.8945312 Z M72.7353516,47.7714844 C72.7353516,47.1386687 72.6093763,46.6367206 72.3574219,46.265625 C72.1054675,45.8945294 71.7451195,45.7089844 71.2763672,45.7089844 C70.694333,45.7089844 70.2763685,45.9492163 70.0224609,46.4296875 L70.0224609,49.2421875 C70.2802747,49.7343775 70.7021455,49.9804688 71.2880859,49.9804688 C71.7412132,49.9804688 72.0957018,49.7978534 72.3515625,49.4326172 C72.6074232,49.067381 72.7353516,48.5136756 72.7353516,47.7714844 Z M77.6865234,41.1679688 L80.0888672,41.1679688 L80.0888672,52.8984375 L77.6865234,52.8984375 L77.6865234,51.7910156 L78.6650391,51.7910156 L78.6650391,42.28125 L77.6865234,42.28125 L77.6865234,41.1679688 Z" id="path-1"></path>
        <filter x="-50%" y="-50%" width="200%" height="200%" filterUnits="objectBoundingBox" id="filter-2">
            <feOffset dx="0" dy="2" in="SourceAlpha" result="shadowOffsetOuter1"></feOffset>
            <feGaussianBlur stdDeviation="1" in="shadowOffsetOuter1" result="shadowBlurOuter1"></feGaussianBlur>
            <feColorMatrix values="0 0 0 0 0   0 0 0 0 0   0 0 0 0 0  0 0 0 0.5 0" type="matrix" in="shadowBlurOuter1"></feColorMatrix>
        </filter>
        <circle id="path-3" cx="20" cy="20" r="20"></circle>
        <filter x="-50%" y="-50%" width="200%" height="200%" filterUnits="objectBoundingBox" id="filter-4">
            <feOffset dx="0" dy="2" in="SourceAlpha" result="shadowOffsetOuter1"></feOffset>
            <feGaussianBlur stdDeviation="2" in="shadowOffsetOuter1" result="shadowBlurOuter1"></feGaussianBlur>
            <feColorMatrix values="0 0 0 0 0   0 0 0 0 0   0 0 0 0 0  0 0 0 0.5 0" type="matrix" in="shadowBlurOuter1"></feColorMatrix>
        </filter>
    </defs>
    <g id="Page-1" stroke="none" stroke-width="1" fill="none" fill-rule="evenodd">
        <g id="Group-55" transform="translate(2.000000, 2.000000)">
            <g id="Leviatã-[-6sup-]">
                <use fill="black" fill-opacity="1" filter="url(#filter-2)" xlink:href="#path-1"></use>
                <use fill="#FFFFFF" fill-rule="evenodd" xlink:href="#path-1"></use>
            </g>
            <g id="Group-5" transform="translate(20.000000, 0.000000)">
                <g id="Group-2">
                    <g id="Group" opacity="0.3">
                        <g id="Oval-6">
                            <use fill="black" fill-opacity="1" filter="url(#filter-4)" xlink:href="#path-3"></use>
                            <use fill="#FFFFFF" fill-rule="evenodd" xlink:href="#path-3"></use>
                        </g>
                    </g>
                    <circle id="Oval-5" stroke="#FFFFFF" stroke-width="5" fill="#DC1E65" cx="20" cy="20" r="8"></circle>
                </g>
            </g>
            <ellipse id="Oval-3" fill="#DC1E65" cx="40" cy="20" rx="13" ry="13"></ellipse>
            <ellipse id="Oval-3" fill="#DC1E65" cx="40" cy="20" rx="13" ry="13"></ellipse>
            <path d="M37.6738281,24 L36.2558594,24 L36.2558594,17.1503906 L34.1640625,17.8652344 L34.1640625,16.6640625 L37.4921875,15.4394531 L37.6738281,15.4394531 L37.6738281,24 Z M46.1992188,20.4082031 C46.1992188,21.6347718 45.9697289,22.5595672 45.5107422,23.1826172 C45.0517555,23.8056672 44.3535203,24.1171875 43.4160156,24.1171875 C42.494136,24.1171875 41.799807,23.8134796 41.3330078,23.2060547 C40.8662086,22.5986298 40.6269532,21.6992247 40.6152344,20.5078125 L40.6152344,19.03125 C40.6152344,17.8046814 40.8447243,16.8847687 41.3037109,16.2714844 C41.7626976,15.6582001 42.4628859,15.3515625 43.4042969,15.3515625 C44.3378953,15.3515625 45.0341774,15.6503876 45.4931641,16.2480469 C45.9521507,16.8457061 46.1874999,17.7402284 46.1992188,18.9316406 L46.1992188,20.4082031 Z M44.7753906,18.8144531 C44.7753906,18.0136679 44.6660167,17.4267597 44.4472656,17.0537109 C44.2285145,16.6806622 43.8808618,16.4941406 43.4042969,16.4941406 C42.9394508,16.4941406 42.5976573,16.6708967 42.3789062,17.0244141 C42.1601552,17.3779315 42.0449219,17.9296837 42.0332031,18.6796875 L42.0332031,20.6132812 C42.0332031,21.4101602 42.1445301,22.0039043 42.3671875,22.3945312 C42.5898449,22.7851582 42.9394507,22.9804688 43.4160156,22.9804688 C43.8730492,22.9804688 44.2109364,22.7998065 44.4296875,22.4384766 C44.6484386,22.0771466 44.7636718,21.5117226 44.7753906,20.7421875 L44.7753906,18.8144531 Z" id="10" fill="#FFFFFF"></path>
        </g>
    </g>
</svg>