<?xml version="1.0" encoding="UTF-8"?>
<svg width="98px" height="72px" viewBox="0 0 98 72" version="1.1" xmlns="http://www.w3.org/2000/svg" xmlns:xlink="http://www.w3.org/1999/xlink">
    <!-- Generator: Sketch 42 (36781) - http://www.bohemiancoding.com/sketch -->
    <title>Group 38</title>
    <desc>Created with Sketch.</desc>
    <defs>
        <path d="M16.0097656,40.46875 L18.4707031,47.0078125 L20.9257812,40.46875 L22.8417969,40.46875 L22.8417969,49 L21.3652344,49 L21.3652344,46.1875 L21.5117188,42.4257812 L18.9921875,49 L17.9316406,49 L15.4179688,42.4316406 L15.5644531,46.1875 L15.5644531,49 L14.0878906,49 L14.0878906,40.46875 L16.0097656,40.46875 Z M28.2441406,49 C28.1816403,48.8789056 28.1269534,48.681642 28.0800781,48.4082031 C27.6269509,48.8808617 27.0722689,49.1171875 26.4160156,49.1171875 C25.7792937,49.1171875 25.2597676,48.9355487 24.8574219,48.5722656 C24.4550761,48.2089826 24.2539062,47.7597683 24.2539062,47.2246094 C24.2539062,46.5488247 24.5048803,46.0302752 25.0068359,45.6689453 C25.5087916,45.3076154 26.2265578,45.1269531 27.1601562,45.1269531 L28.0332031,45.1269531 L28.0332031,44.7109375 C28.0332031,44.3828109 27.9414072,44.1201182 27.7578125,43.9228516 C27.5742178,43.725585 27.2949237,43.6269531 26.9199219,43.6269531 C26.5957015,43.6269531 26.3300792,43.708007 26.1230469,43.8701172 C25.9160146,44.0322274 25.8125,44.23828 25.8125,44.4882812 L24.3886719,44.4882812 C24.3886719,44.1406233 24.5039051,43.8154312 24.734375,43.5126953 C24.9648449,43.2099594 25.2783183,42.9726571 25.6748047,42.8007812 C26.071291,42.6289054 26.5136694,42.5429688 27.0019531,42.5429688 C27.7441443,42.5429688 28.3359353,42.7294903 28.7773438,43.1025391 C29.2187522,43.4755878 29.4453124,43.9999966 29.4570312,44.6757812 L29.4570312,47.5351562 C29.4570312,48.1054716 29.5371086,48.5605452 29.6972656,48.9003906 L29.6972656,49 L28.2441406,49 Z M26.6796875,47.9746094 C26.9609389,47.9746094 27.2255847,47.9062507 27.4736328,47.7695312 C27.7216809,47.6328118 27.9082025,47.4492199 28.0332031,47.21875 L28.0332031,46.0234375 L27.265625,46.0234375 C26.7382786,46.0234375 26.3417982,46.1152335 26.0761719,46.2988281 C25.8105455,46.4824228 25.6777344,46.7421858 25.6777344,47.078125 C25.6777344,47.3515639 25.7685538,47.5693351 25.9501953,47.7314453 C26.1318368,47.8935555 26.3749985,47.9746094 26.6796875,47.9746094 Z M34.2675781,43.9609375 C34.0800772,43.9296873 33.8867197,43.9140625 33.6875,43.9140625 C33.035153,43.9140625 32.5957043,44.16406 32.3691406,44.6640625 L32.3691406,49 L30.9453125,49 L30.9453125,42.6601562 L32.3046875,42.6601562 L32.3398438,43.3691406 C32.6835955,42.8183566 33.1601532,42.5429688 33.7695312,42.5429688 C33.9726573,42.5429688 34.1406243,42.5703122 34.2734375,42.625 L34.2675781,43.9609375 Z M38.7792969,49 C38.7167966,48.8789056 38.6621096,48.681642 38.6152344,48.4082031 C38.1621071,48.8808617 37.6074252,49.1171875 36.9511719,49.1171875 C36.3144499,49.1171875 35.7949239,48.9355487 35.3925781,48.5722656 C34.9902324,48.2089826 34.7890625,47.7597683 34.7890625,47.2246094 C34.7890625,46.5488247 35.0400366,46.0302752 35.5419922,45.6689453 C36.0439478,45.3076154 36.7617141,45.1269531 37.6953125,45.1269531 L38.5683594,45.1269531 L38.5683594,44.7109375 C38.5683594,44.3828109 38.4765634,44.1201182 38.2929688,43.9228516 C38.1093741,43.725585 37.83008,43.6269531 37.4550781,43.6269531 C37.1308578,43.6269531 36.8652354,43.708007 36.6582031,43.8701172 C36.4511708,44.0322274 36.3476562,44.23828 36.3476562,44.4882812 L34.9238281,44.4882812 C34.9238281,44.1406233 35.0390613,43.8154312 35.2695312,43.5126953 C35.5000012,43.2099594 35.8134746,42.9726571 36.2099609,42.8007812 C36.6064473,42.6289054 37.0488257,42.5429688 37.5371094,42.5429688 C38.2793006,42.5429688 38.8710915,42.7294903 39.3125,43.1025391 C39.7539085,43.4755878 39.9804687,43.9999966 39.9921875,44.6757812 L39.9921875,47.5351562 C39.9921875,48.1054716 40.0722648,48.5605452 40.2324219,48.9003906 L40.2324219,49 L38.7792969,49 Z M37.2148438,47.9746094 C37.4960952,47.9746094 37.7607409,47.9062507 38.0087891,47.7695312 C38.2568372,47.6328118 38.4433587,47.4492199 38.5683594,47.21875 L38.5683594,46.0234375 L37.8007812,46.0234375 C37.2734349,46.0234375 36.8769545,46.1152335 36.6113281,46.2988281 C36.3457018,46.4824228 36.2128906,46.7421858 36.2128906,47.078125 C36.2128906,47.3515639 36.30371,47.5693351 36.4853516,47.7314453 C36.6669931,47.8935555 36.9101547,47.9746094 37.2148438,47.9746094 Z M44.0878906,47.9804688 C44.4433612,47.9804688 44.7382801,47.8769542 44.9726562,47.6699219 C45.2070324,47.4628896 45.3320312,47.2070328 45.3476562,46.9023438 L46.6894531,46.9023438 C46.673828,47.296877 46.5507824,47.6650374 46.3203125,48.0068359 C46.0898426,48.3486345 45.7773457,48.6191396 45.3828125,48.8183594 C44.9882793,49.0175791 44.5625023,49.1171875 44.1054688,49.1171875 C43.2187456,49.1171875 42.5156276,48.830081 41.9960938,48.2558594 C41.4765599,47.6816378 41.2167969,46.8886769 41.2167969,45.8769531 L41.2167969,45.7304688 C41.2167969,44.7656202 41.4746068,43.993167 41.9902344,43.4130859 C42.505862,42.8330049 43.2089799,42.5429688 44.0996094,42.5429688 C44.8535194,42.5429688 45.4677711,42.7626931 45.9423828,43.2021484 C46.4169946,43.6416038 46.6660155,44.2187464 46.6894531,44.9335938 L45.3476562,44.9335938 C45.3320312,44.5703107 45.208009,44.2714855 44.9755859,44.0371094 C44.7431629,43.8027332 44.4472674,43.6855469 44.0878906,43.6855469 C43.6269508,43.6855469 43.2714856,43.8525374 43.0214844,44.1865234 C42.7714831,44.5205095 42.6445313,45.0273404 42.640625,45.7070312 L42.640625,45.9355469 C42.640625,46.6230503 42.7646472,47.1357405 43.0126953,47.4736328 C43.2607434,47.8115251 43.6191383,47.9804688 44.0878906,47.9804688 Z M51.5527344,49 C51.4902341,48.8789056 51.4355471,48.681642 51.3886719,48.4082031 C50.9355446,48.8808617 50.3808627,49.1171875 49.7246094,49.1171875 C49.0878874,49.1171875 48.5683614,48.9355487 48.1660156,48.5722656 C47.7636699,48.2089826 47.5625,47.7597683 47.5625,47.2246094 C47.5625,46.5488247 47.8134741,46.0302752 48.3154297,45.6689453 C48.8173853,45.3076154 49.5351516,45.1269531 50.46875,45.1269531 L51.3417969,45.1269531 L51.3417969,44.7109375 C51.3417969,44.3828109 51.2500009,44.1201182 51.0664062,43.9228516 C50.8828116,43.725585 50.6035175,43.6269531 50.2285156,43.6269531 C49.9042953,43.6269531 49.6386729,43.708007 49.4316406,43.8701172 C49.2246083,44.0322274 49.1210938,44.23828 49.1210938,44.4882812 L47.6972656,44.4882812 C47.6972656,44.1406233 47.8124988,43.8154312 48.0429688,43.5126953 C48.2734387,43.2099594 48.5869121,42.9726571 48.9833984,42.8007812 C49.3798848,42.6289054 49.8222632,42.5429688 50.3105469,42.5429688 C51.0527381,42.5429688 51.644529,42.7294903 52.0859375,43.1025391 C52.527346,43.4755878 52.7539062,43.9999966 52.765625,44.6757812 L52.765625,47.5351562 C52.765625,48.1054716 52.8457023,48.5605452 53.0058594,48.9003906 L53.0058594,49 L51.5527344,49 Z M49.9882812,47.9746094 C50.2695327,47.9746094 50.5341784,47.9062507 50.7822266,47.7695312 C51.0302747,47.6328118 51.2167962,47.4492199 51.3417969,47.21875 L51.3417969,46.0234375 L50.5742188,46.0234375 C50.0468724,46.0234375 49.650392,46.1152335 49.3847656,46.2988281 C49.1191393,46.4824228 48.9863281,46.7421858 48.9863281,47.078125 C48.9863281,47.3515639 49.0771475,47.5693351 49.2587891,47.7314453 C49.4404306,47.8935555 49.6835922,47.9746094 49.9882812,47.9746094 Z M56.0410156,41.1191406 L56.0410156,42.6601562 L57.1601562,42.6601562 L57.1601562,43.7148438 L56.0410156,43.7148438 L56.0410156,47.2539062 C56.0410156,47.496095 56.0888667,47.6708979 56.1845703,47.7783203 C56.2802739,47.8857427 56.4511706,47.9394531 56.6972656,47.9394531 C56.8613289,47.9394531 57.0273429,47.9199221 57.1953125,47.8808594 L57.1953125,48.9824219 C56.8710921,49.0722661 56.5585953,49.1171875 56.2578125,49.1171875 C55.164057,49.1171875 54.6171875,48.5136779 54.6171875,47.3066406 L54.6171875,43.7148438 L53.5742187,43.7148438 L53.5742187,42.6601562 L54.6171875,42.6601562 L54.6171875,41.1191406 L56.0410156,41.1191406 Z M62.0878906,48.3789062 C61.6699198,48.8710962 61.0761757,49.1171875 60.3066406,49.1171875 C59.6191372,49.1171875 59.0986346,48.9160176 58.7451172,48.5136719 C58.3915998,48.1113261 58.2148437,47.5293007 58.2148437,46.7675781 L58.2148437,42.6601562 L59.6386719,42.6601562 L59.6386719,46.75 C59.6386719,47.5546915 59.9726529,47.9570312 60.640625,47.9570312 C61.3320347,47.9570312 61.7988269,47.7089869 62.0410156,47.2128906 L62.0410156,42.6601562 L63.4648437,42.6601562 L63.4648437,49 L62.1230469,49 L62.0878906,48.3789062 Z M67.6367188,45.7832031 C67.6367188,44.8066357 67.863279,44.0224639 68.3164062,43.4306641 C68.7695335,42.8388642 69.3769493,42.5429688 70.1386719,42.5429688 C70.8105502,42.5429688 71.3535136,42.7773414 71.7675781,43.2460938 L71.7675781,40 L73.1914062,40 L73.1914062,49 L71.9023438,49 L71.8320312,48.34375 C71.4062479,48.8593776 70.8378942,49.1171875 70.1269531,49.1171875 C69.3847619,49.1171875 68.784182,48.8183624 68.3251953,48.2207031 C67.8662086,47.6230439 67.6367188,46.810552 67.6367188,45.7832031 Z M69.0605469,45.90625 C69.0605469,46.5507845 69.1845691,47.0537091 69.4326172,47.4150391 C69.6806653,47.776369 70.0332008,47.9570312 70.4902344,47.9570312 C71.0722685,47.9570312 71.4980455,47.6972682 71.7675781,47.1777344 L71.7675781,44.4707031 C71.5058581,43.9628881 71.0839873,43.7089844 70.5019531,43.7089844 C70.0410133,43.7089844 69.6855481,43.8915997 69.4355469,44.2568359 C69.1855456,44.6220721 69.0605469,45.1718713 69.0605469,45.90625 Z M74.4101562,45.7714844 C74.4101562,45.1503875 74.5332019,44.5908228 74.7792969,44.0927734 C75.0253919,43.5947241 75.3710915,43.2119154 75.8164062,42.9443359 C76.261721,42.6767565 76.7734346,42.5429688 77.3515625,42.5429688 C78.2070355,42.5429688 78.9013645,42.8183566 79.4345703,43.3691406 C79.9677761,43.9199246 80.2558592,44.6503861 80.2988281,45.5605469 L80.3046875,45.8945312 C80.3046875,46.5195344 80.1845715,47.0781225 79.9443359,47.5703125 C79.7041004,48.0625025 79.3603538,48.443358 78.9130859,48.7128906 C78.4658181,48.9824232 77.9492217,49.1171875 77.3632812,49.1171875 C76.4687455,49.1171875 75.7529324,48.8193389 75.2158203,48.2236328 C74.6787083,47.6279267 74.4101562,46.8339893 74.4101562,45.8417969 L74.4101562,45.7714844 Z M75.8339844,45.8945312 C75.8339844,46.5468783 75.9687487,47.0576153 76.2382812,47.4267578 C76.5078138,47.7959003 76.8828101,47.9804688 77.3632812,47.9804688 C77.8437524,47.9804688 78.2177721,47.7929706 78.4853516,47.4179688 C78.752931,47.0429669 78.8867188,46.4941442 78.8867188,45.7714844 C78.8867188,45.1308562 78.7490248,44.6230487 78.4736328,44.2480469 C78.1982408,43.873045 77.8242211,43.6855469 77.3515625,43.6855469 C76.8867164,43.6855469 76.5175795,43.8701153 76.2441406,44.2392578 C75.9707018,44.6084003 75.8339844,45.1601526 75.8339844,45.8945312 Z M5.61816406,59.8945312 C5.61816406,60.8789112 5.3984397,61.6621065 4.95898438,62.2441406 C4.51952905,62.8261748 3.91504291,63.1171875 3.14550781,63.1171875 C2.4033166,63.1171875 1.82519738,62.8496121 1.41113281,62.3144531 L1.34082031,63 L0.0517578125,63 L0.0517578125,54 L1.47558594,54 L1.47558594,57.2695312 C1.88574424,56.7851538 2.43847309,56.5429688 3.13378906,56.5429688 C3.90723043,56.5429688 4.51464623,56.8300753 4.95605469,57.4042969 C5.39746314,57.9785185 5.61816406,58.7812448 5.61816406,59.8125 L5.61816406,59.8945312 Z M4.19433594,59.7714844 C4.19433594,59.0839809 4.0732434,58.5683611 3.83105469,58.2246094 C3.58886598,57.8808577 3.23730699,57.7089844 2.77636719,57.7089844 C2.1591766,57.7089844 1.72558719,57.9785129 1.47558594,58.5175781 L1.47558594,61.1308594 C1.72949346,61.6816434 2.16698908,61.9570312 2.78808594,61.9570312 C3.23340066,61.9570312 3.57714723,61.7910173 3.81933594,61.4589844 C4.06152465,61.1269515 4.1865234,60.6250034 4.19433594,59.953125 L4.19433594,59.7714844 Z M10.5986328,63 C10.5361325,62.8789056 10.4814455,62.681642 10.4345703,62.4082031 C9.98144305,62.8808617 9.42676109,63.1171875 8.77050781,63.1171875 C8.13378588,63.1171875 7.61425982,62.9355487 7.21191406,62.5722656 C6.8095683,62.2089826 6.60839844,61.7597683 6.60839844,61.2246094 C6.60839844,60.5488247 6.85937249,60.0302752 7.36132812,59.6689453 C7.86328376,59.3076154 8.58105002,59.1269531 9.51464844,59.1269531 L10.3876953,59.1269531 L10.3876953,58.7109375 C10.3876953,58.3828109 10.2958994,58.1201182 10.1123047,57.9228516 C9.92871002,57.725585 9.64941594,57.6269531 9.27441406,57.6269531 C8.95019369,57.6269531 8.68457135,57.708007 8.47753906,57.8701172 C8.27050678,58.0322274 8.16699219,58.23828 8.16699219,58.4882812 L6.74316406,58.4882812 C6.74316406,58.1406233 6.85839729,57.8154312 7.08886719,57.5126953 C7.31933709,57.2099594 7.63281052,56.9726571 8.02929687,56.8007812 C8.42578323,56.6289054 8.86816162,56.5429688 9.35644531,56.5429688 C10.0986365,56.5429688 10.6904275,56.7294903 11.1318359,57.1025391 C11.5732444,57.4755878 11.7998046,57.9999966 11.8115234,58.6757812 L11.8115234,61.5351562 C11.8115234,62.1054716 11.8916008,62.5605452 12.0517578,62.9003906 L12.0517578,63 L10.5986328,63 Z M9.03417969,61.9746094 C9.31543109,61.9746094 9.58007688,61.9062507 9.828125,61.7695312 C10.0761731,61.6328118 10.2626947,61.4492199 10.3876953,61.21875 L10.3876953,60.0234375 L9.62011719,60.0234375 C9.0927708,60.0234375 8.69629039,60.1152335 8.43066406,60.2988281 C8.16503773,60.4824228 8.03222656,60.7421858 8.03222656,61.078125 C8.03222656,61.3515639 8.12304597,61.5693351 8.3046875,61.7314453 C8.48632903,61.8935555 8.72949066,61.9746094 9.03417969,61.9746094 Z M13.0361328,59.7773438 C13.0361328,58.7851513 13.262693,57.9980498 13.7158203,57.4160156 C14.1689476,56.8339815 14.7822227,56.5429688 15.5556641,56.5429688 C16.2626988,56.5429688 16.8232401,56.7910131 17.2373047,57.2871094 L17.3193359,56.6601562 L18.5849609,56.6601562 L18.5849609,65.4375 L17.1611328,65.4375 L17.1611328,62.4609375 C16.7470682,62.8984397 16.2080111,63.1171875 15.5439453,63.1171875 C14.786129,63.1171875 14.1787132,62.821292 13.7216797,62.2294922 C13.2646462,61.6376924 13.0361328,60.8203177 13.0361328,59.7773438 Z M14.4599609,59.9003906 C14.4599609,60.5488314 14.5878893,61.0576153 14.84375,61.4267578 C15.0996107,61.7959003 15.4540993,61.9804688 15.9072266,61.9804688 C16.4697294,61.9804688 16.8876939,61.7402368 17.1611328,61.2597656 L17.1611328,58.3769531 C16.8876939,57.9160133 16.4736356,57.6855469 15.9189453,57.6855469 C15.465818,57.6855469 15.1093763,57.8671857 14.8496094,58.2304688 C14.5898425,58.5937518 14.4599609,59.1503869 14.4599609,59.9003906 Z M23.9580078,62.3789062 C23.540037,62.8710962 22.9462929,63.1171875 22.1767578,63.1171875 C21.4892544,63.1171875 20.9687518,62.9160176 20.6152344,62.5136719 C20.261717,62.1113261 20.0849609,61.5293007 20.0849609,60.7675781 L20.0849609,56.6601562 L21.5087891,56.6601562 L21.5087891,60.75 C21.5087891,61.5546915 21.8427701,61.9570312 22.5107422,61.9570312 C23.2021519,61.9570312 23.6689441,61.7089869 23.9111328,61.2128906 L23.9111328,56.6601562 L25.3349609,56.6601562 L25.3349609,63 L23.9931641,63 L23.9580078,62.3789062 Z M29.5771484,63.1171875 C28.6748002,63.1171875 27.9433622,62.8330107 27.3828125,62.2646484 C26.8222628,61.6962862 26.5419922,60.9394579 26.5419922,59.9941406 L26.5419922,59.8183594 C26.5419922,59.1855437 26.6640613,58.6201197 26.9082031,58.1220703 C27.152345,57.6240209 27.495115,57.2363295 27.9365234,56.9589844 C28.3779319,56.6816392 28.8701145,56.5429688 29.4130859,56.5429688 C30.2763715,56.5429688 30.943357,56.8183566 31.4140625,57.3691406 C31.884768,57.9199246 32.1201172,58.6992137 32.1201172,59.7070312 L32.1201172,60.28125 L27.9775391,60.28125 C28.020508,60.8046901 28.195311,61.2187485 28.5019531,61.5234375 C28.8085953,61.8281265 29.1943336,61.9804688 29.6591797,61.9804688 C30.3115267,61.9804688 30.8427714,61.7167995 31.2529297,61.1894531 L32.0205078,61.921875 C31.7666003,62.3007831 31.4277365,62.5947255 31.0039062,62.8037109 C30.580076,63.0126964 30.1044948,63.1171875 29.5771484,63.1171875 Z M29.4072266,57.6855469 C29.0165996,57.6855469 28.7011731,57.8222643 28.4609375,58.0957031 C28.2207019,58.369142 28.0673831,58.7499976 28.0009766,59.2382812 L30.7138672,59.2382812 L30.7138672,59.1328125 C30.682617,58.6562476 30.5556652,58.2958997 30.3330078,58.0517578 C30.1103504,57.807616 29.8017598,57.6855469 29.4072266,57.6855469 Z M35.3837891,61.1953125 L36.7255859,56.6601562 L38.1962891,56.6601562 L35.9990234,63 L34.7626953,63 L32.5478516,56.6601562 L34.0244141,56.6601562 L35.3837891,61.1953125 Z M40.5986328,63 L39.1748047,63 L39.1748047,56.6601562 L40.5986328,56.6601562 L40.5986328,63 Z M39.0869141,55.0136719 C39.0869141,54.7949208 39.1562493,54.613282 39.2949219,54.46875 C39.4335944,54.324218 39.6318346,54.2519531 39.8896484,54.2519531 C40.1474622,54.2519531 40.346679,54.324218 40.4873047,54.46875 C40.6279304,54.613282 40.6982422,54.7949208 40.6982422,55.0136719 C40.6982422,55.2285167 40.6279304,55.4072258 40.4873047,55.5498047 C40.346679,55.6923835 40.1474622,55.7636719 39.8896484,55.7636719 C39.6318346,55.7636719 39.4335944,55.6923835 39.2949219,55.5498047 C39.1562493,55.4072258 39.0869141,55.2285167 39.0869141,55.0136719 Z M45.4677734,57.9609375 C45.2802725,57.9296873 45.0869151,57.9140625 44.8876953,57.9140625 C44.2353483,57.9140625 43.7958996,58.16406 43.5693359,58.6640625 L43.5693359,63 L42.1455078,63 L42.1455078,56.6601562 L43.5048828,56.6601562 L43.5400391,57.3691406 C43.8837908,56.8183566 44.3603485,56.5429688 44.9697266,56.5429688 C45.1728526,56.5429688 45.3408196,56.5703122 45.4736328,56.625 L45.4677734,57.9609375 Z M49.9794922,63 C49.9169919,62.8789056 49.8623049,62.681642 49.8154297,62.4082031 C49.3623024,62.8808617 48.8076205,63.1171875 48.1513672,63.1171875 C47.5146453,63.1171875 46.9951192,62.9355487 46.5927734,62.5722656 C46.1904277,62.2089826 45.9892578,61.7597683 45.9892578,61.2246094 C45.9892578,60.5488247 46.2402319,60.0302752 46.7421875,59.6689453 C47.2441431,59.3076154 47.9619094,59.1269531 48.8955078,59.1269531 L49.7685547,59.1269531 L49.7685547,58.7109375 C49.7685547,58.3828109 49.6767587,58.1201182 49.4931641,57.9228516 C49.3095694,57.725585 49.0302753,57.6269531 48.6552734,57.6269531 C48.3310531,57.6269531 48.0654307,57.708007 47.8583984,57.8701172 C47.6513662,58.0322274 47.5478516,58.23828 47.5478516,58.4882812 L46.1240234,58.4882812 C46.1240234,58.1406233 46.2392567,57.8154312 46.4697266,57.5126953 C46.7001965,57.2099594 47.0136699,56.9726571 47.4101562,56.8007812 C47.8066426,56.6289054 48.249021,56.5429688 48.7373047,56.5429688 C49.4794959,56.5429688 50.0712869,56.7294903 50.5126953,57.1025391 C50.9541038,57.4755878 51.180664,57.9999966 51.1923828,58.6757812 L51.1923828,61.5351562 C51.1923828,62.1054716 51.2724601,62.5605452 51.4326172,62.9003906 L51.4326172,63 L49.9794922,63 Z M48.4150391,61.9746094 C48.6962905,61.9746094 48.9609363,61.9062507 49.2089844,61.7695312 C49.4570325,61.6328118 49.6435541,61.4492199 49.7685547,61.21875 L49.7685547,60.0234375 L49.0009766,60.0234375 C48.4736302,60.0234375 48.0771498,60.1152335 47.8115234,60.2988281 C47.5458971,60.4824228 47.4130859,60.7421858 47.4130859,61.078125 C47.4130859,61.3515639 47.5039053,61.5693351 47.6855469,61.7314453 C47.8671884,61.8935555 48.11035,61.9746094 48.4150391,61.9746094 Z M52.4169922,59.7832031 C52.4169922,58.8066357 52.6435524,58.0224639 53.0966797,57.4306641 C53.549807,56.8388642 54.1572228,56.5429688 54.9189453,56.5429688 C55.5908237,56.5429688 56.133787,56.7773414 56.5478516,57.2460938 L56.5478516,54 L57.9716797,54 L57.9716797,63 L56.6826172,63 L56.6123047,62.34375 C56.1865213,62.8593776 55.6181676,63.1171875 54.9072266,63.1171875 C54.1650354,63.1171875 53.5644554,62.8183624 53.1054687,62.2207031 C52.6464821,61.6230439 52.4169922,60.810552 52.4169922,59.7832031 Z M53.8408203,59.90625 C53.8408203,60.5507845 53.9648425,61.0537091 54.2128906,61.4150391 C54.4609387,61.776369 54.8134743,61.9570312 55.2705078,61.9570312 C55.852542,61.9570312 56.278319,61.6972682 56.5478516,61.1777344 L56.5478516,58.4707031 C56.2861315,57.9628881 55.8642607,57.7089844 55.2822266,57.7089844 C54.8212868,57.7089844 54.4658216,57.8915997 54.2158203,58.2568359 C53.9658191,58.6220721 53.8408203,59.1718713 53.8408203,59.90625 Z M59.1904297,59.7714844 C59.1904297,59.1503875 59.3134753,58.5908228 59.5595703,58.0927734 C59.8056653,57.5947241 60.151365,57.2119154 60.5966797,56.9443359 C61.0419944,56.6767565 61.553708,56.5429688 62.1318359,56.5429688 C62.987309,56.5429688 63.681638,56.8183566 64.2148438,57.3691406 C64.7480495,57.9199246 65.0361326,58.6503861 65.0791016,59.5605469 L65.0849609,59.8945312 C65.0849609,60.5195344 64.964845,61.0781225 64.7246094,61.5703125 C64.4843738,62.0625025 64.1406272,62.443358 63.6933594,62.7128906 C63.2460915,62.9824232 62.7294951,63.1171875 62.1435547,63.1171875 C61.249019,63.1171875 60.5332058,62.8193389 59.9960937,62.2236328 C59.4589817,61.6279267 59.1904297,60.8339893 59.1904297,59.8417969 L59.1904297,59.7714844 Z M60.6142578,59.8945312 C60.6142578,60.5468783 60.7490221,61.0576153 61.0185547,61.4267578 C61.2880873,61.7959003 61.6630835,61.9804688 62.1435547,61.9804688 C62.6240258,61.9804688 62.9980455,61.7929706 63.265625,61.4179688 C63.5332045,61.0429669 63.6669922,60.4941442 63.6669922,59.7714844 C63.6669922,59.1308562 63.5292983,58.6230487 63.2539062,58.2480469 C62.9785142,57.873045 62.6044946,57.6855469 62.1318359,57.6855469 C61.6669899,57.6855469 61.2978529,57.8701153 61.0244141,58.2392578 C60.7509752,58.6084003 60.6142578,59.1601526 60.6142578,59.8945312 Z M71.7119141,54.28125 L70.7451172,54.28125 L70.7451172,63.7910156 L71.7119141,63.7910156 L71.7119141,64.8984375 L69.3212891,64.8984375 L69.3212891,53.1679688 L71.7119141,53.1679688 L71.7119141,54.28125 Z M81.1396484,55.2597656 L77.7294922,63 L76.2353516,63 L79.6396484,55.6113281 L75.2275391,55.6113281 L75.2275391,54.46875 L81.1396484,54.46875 L81.1396484,55.2597656 Z M87.9365234,59.8945312 C87.9365234,60.8789112 87.7167991,61.6621065 87.2773438,62.2441406 C86.8378884,62.8261748 86.2334023,63.1171875 85.4638672,63.1171875 C84.721676,63.1171875 84.1435568,62.8496121 83.7294922,62.3144531 L83.6591797,63 L82.3701172,63 L82.3701172,54 L83.7939453,54 L83.7939453,57.2695312 C84.2041036,56.7851538 84.7568325,56.5429688 85.4521484,56.5429688 C86.2255898,56.5429688 86.8330056,56.8300753 87.2744141,57.4042969 C87.7158225,57.9785185 87.9365234,58.7812448 87.9365234,59.8125 L87.9365234,59.8945312 Z M86.5126953,59.7714844 C86.5126953,59.0839809 86.3916028,58.5683611 86.1494141,58.2246094 C85.9072254,57.8808577 85.5556664,57.7089844 85.0947266,57.7089844 C84.477536,57.7089844 84.0439466,57.9785129 83.7939453,58.5175781 L83.7939453,61.1308594 C84.0478528,61.6816434 84.4853485,61.9570312 85.1064453,61.9570312 C85.55176,61.9570312 85.8955066,61.7910173 86.1376953,61.4589844 C86.379884,61.1269515 86.5048828,60.6250034 86.5126953,59.953125 L86.5126953,59.7714844 Z M91.4580078,53.1679688 L93.8603516,53.1679688 L93.8603516,64.8984375 L91.4580078,64.8984375 L91.4580078,63.7910156 L92.4365234,63.7910156 L92.4365234,54.28125 L91.4580078,54.28125 L91.4580078,53.1679688 Z" id="path-1"></path>
        <filter x="-50%" y="-50%" width="200%" height="200%" filterUnits="objectBoundingBox" id="filter-2">
            <feOffset dx="0" dy="2" in="SourceAlpha" result="shadowOffsetOuter1"></feOffset>
            <feGaussianBlur stdDeviation="1" in="shadowOffsetOuter1" result="shadowBlurOuter1"></feGaussianBlur>
            <feColorMatrix values="0 0 0 0 0   0 0 0 0 0   0 0 0 0 0  0 0 0 0.5 0" type="matrix" in="shadowBlurOuter1"></feColorMatrix>
        </filter>
        <ellipse id="path-3" cx="20" cy="20" rx="20" ry="20"></ellipse>
        <filter x="-50%" y="-50%" width="200%" height="200%" filterUnits="objectBoundingBox" id="filter-4">
            <feOffset dx="0" dy="2" in="SourceAlpha" result="shadowOffsetOuter1"></feOffset>
            <feGaussianBlur stdDeviation="2" in="shadowOffsetOuter1" result="shadowBlurOuter1"></feGaussianBlur>
            <feColorMatrix values="0 0 0 0 0   0 0 0 0 0   0 0 0 0 0  0 0 0 0.5 0" type="matrix" in="shadowBlurOuter1"></feColorMatrix>
        </filter>
    </defs>
    <g id="Page-1" stroke="none" stroke-width="1" fill="none" fill-rule="evenodd">
        <g id="Group-38" transform="translate(2.000000, 2.000000)">
            <g id="Maracatu-do-baquevir">
                <use fill="black" fill-opacity="1" filter="url(#filter-2)" xlink:href="#path-1"></use>
                <use fill="#FFFFFF" fill-rule="evenodd" xlink:href="#path-1"></use>
            </g>
            <g id="Group-5" transform="translate(26.000000, 0.000000)">
                <g id="Group-2">
                    <g id="Group" opacity="0.3">
                        <g id="Oval-6">
                            <use fill="black" fill-opacity="1" filter="url(#filter-4)" xlink:href="#path-3"></use>
                            <use fill="#FFFFFF" fill-rule="evenodd" xlink:href="#path-3"></use>
                        </g>
                    </g>
                    <ellipse id="Oval-5" stroke="#FFFFFF" stroke-width="5" fill="#DC1E65" cx="20" cy="20" rx="8" ry="8"></ellipse>
                </g>
            </g>
            <ellipse id="Oval-3" fill="#DC1E65" cx="46" cy="20" rx="13" ry="13"></ellipse>
            <path d="M44.6875,19.2646484 L45.6992188,19.2646484 C46.209638,19.2600911 46.6140936,19.127931 46.9125977,18.8681641 C47.2111018,18.6083971 47.3603516,18.2324243 47.3603516,17.7402344 C47.3603516,17.2662737 47.2361666,16.898276 46.987793,16.6362305 C46.7394193,16.3741849 46.3600286,16.2431641 45.8496094,16.2431641 C45.4029926,16.2431641 45.0361342,16.3719063 44.7490234,16.6293945 C44.4619126,16.8868828 44.3183594,17.2229797 44.3183594,17.6376953 L42.6572266,17.6376953 C42.6572266,17.1272761 42.7928046,16.662437 43.0639648,16.2431641 C43.3351251,15.8238911 43.7133765,15.4969087 44.1987305,15.262207 C44.6840845,15.0275053 45.2275361,14.9101562 45.8291016,14.9101562 C46.8225961,14.9101562 47.6030245,15.1596655 48.1704102,15.6586914 C48.7377958,16.1577173 49.0214844,16.8515581 49.0214844,17.7402344 C49.0214844,18.1868512 48.8790704,18.6072571 48.5942383,19.0014648 C48.3094061,19.3956725 47.9414085,19.6930329 47.4902344,19.8935547 C48.0371121,20.0804046 48.4529608,20.374347 48.737793,20.7753906 C49.0226251,21.1764343 49.1650391,21.6549451 49.1650391,22.2109375 C49.1650391,23.1041711 48.8585643,23.8151015 48.2456055,24.34375 C47.6326467,24.8723985 46.8271534,25.1367188 45.8291016,25.1367188 C44.8720655,25.1367188 44.0882192,24.881513 43.4775391,24.3710938 C42.8668589,23.8606745 42.5615234,23.1816449 42.5615234,22.3339844 L44.2226562,22.3339844 C44.2226562,22.7714866 44.3696274,23.1269518 44.6635742,23.4003906 C44.957521,23.6738295 45.3528621,23.8105469 45.8496094,23.8105469 C46.3645859,23.8105469 46.7701808,23.6738295 47.0664062,23.4003906 C47.3626317,23.1269518 47.5107422,22.7304713 47.5107422,22.2109375 C47.5107422,21.6868463 47.3557958,21.2835301 47.0458984,21.0009766 C46.7360011,20.7184231 46.2757192,20.5771484 45.6650391,20.5771484 L44.6875,20.5771484 L44.6875,19.2646484 Z" id="3" fill="#FFFFFF"></path>
        </g>
    </g>
</svg>