<?xml version="1.0" encoding="UTF-8"?>
<svg width="48px" height="73px" viewBox="0 0 48 73" version="1.1" xmlns="http://www.w3.org/2000/svg" xmlns:xlink="http://www.w3.org/1999/xlink">
    <!-- Generator: Sketch 42 (36781) - http://www.bohemiancoding.com/sketch -->
    <title>Group 45</title>
    <desc>Created with Sketch.</desc>
    <defs>
        <path d="M0.712890625,51 L0.712890625,42.46875 L3.63671875,42.46875 C4.60156732,42.46875 5.33593498,42.6621074 5.83984375,43.0488281 C6.34375252,43.4355488 6.59570312,44.0117149 6.59570312,44.7773438 C6.59570312,45.1679707 6.49023543,45.5195297 6.27929688,45.8320312 C6.06835832,46.1445328 5.75976766,46.3867179 5.35351562,46.5585938 C5.81445543,46.6835944 6.17089718,46.9189436 6.42285156,47.2646484 C6.67480595,47.6103533 6.80078125,48.0253882 6.80078125,48.5097656 C6.80078125,49.3105509 6.54394788,49.9257791 6.03027344,50.3554688 C5.51659899,50.7851584 4.78125479,51 3.82421875,51 L0.712890625,51 Z M2.1953125,47.1503906 L2.1953125,49.8164062 L3.84179688,49.8164062 C4.30664295,49.8164062 4.66992057,49.701173 4.93164062,49.4707031 C5.19336068,49.2402332 5.32421875,48.9199239 5.32421875,48.5097656 C5.32421875,47.6230424 4.87109828,47.169922 3.96484375,47.1503906 L2.1953125,47.1503906 Z M2.1953125,46.0605469 L3.6484375,46.0605469 C4.1093773,46.0605469 4.46972526,45.9560557 4.72949219,45.7470703 C4.98925911,45.5380849 5.11914062,45.2421894 5.11914062,44.859375 C5.11914062,44.4374979 4.99902464,44.1328134 4.75878906,43.9453125 C4.51855349,43.7578116 4.14453379,43.6640625 3.63671875,43.6640625 L2.1953125,43.6640625 L2.1953125,46.0605469 Z M7.87890625,47.7714844 C7.87890625,47.1503875 8.00195189,46.5908228 8.24804688,46.0927734 C8.49414186,45.5947241 8.83984152,45.2119154 9.28515625,44.9443359 C9.73047098,44.6767565 10.2421846,44.5429688 10.8203125,44.5429688 C11.6757855,44.5429688 12.3701145,44.8183566 12.9033203,45.3691406 C13.4365261,45.9199246 13.7246092,46.6503861 13.7675781,47.5605469 L13.7734375,47.8945312 C13.7734375,48.5195344 13.6533215,49.0781225 13.4130859,49.5703125 C13.1728504,50.0625025 12.8291038,50.443358 12.3818359,50.7128906 C11.9345681,50.9824232 11.4179717,51.1171875 10.8320312,51.1171875 C9.93749553,51.1171875 9.22168237,50.8193389 8.68457031,50.2236328 C8.14745825,49.6279267 7.87890625,48.8339893 7.87890625,47.8417969 L7.87890625,47.7714844 Z M9.30273438,47.8945312 C9.30273438,48.5468783 9.43749865,49.0576153 9.70703125,49.4267578 C9.97656385,49.7959003 10.3515601,49.9804688 10.8320312,49.9804688 C11.3125024,49.9804688 11.6865221,49.7929706 11.9541016,49.4179688 C12.221681,49.0429669 12.3554688,48.4941442 12.3554688,47.7714844 C12.3554688,47.1308562 12.2177748,46.6230487 11.9423828,46.2480469 C11.6669908,45.873045 11.2929711,45.6855469 10.8203125,45.6855469 C10.3554664,45.6855469 9.98632949,45.8701153 9.71289062,46.2392578 C9.43945176,46.6084003 9.30273438,47.1601526 9.30273438,47.8945312 Z M20.5410156,47.8945312 C20.5410156,48.8789112 20.3212913,49.6621065 19.8818359,50.2441406 C19.4423806,50.8261748 18.8378945,51.1171875 18.0683594,51.1171875 C17.3261682,51.1171875 16.7480489,50.8496121 16.3339844,50.3144531 L16.2636719,51 L14.9746094,51 L14.9746094,42 L16.3984375,42 L16.3984375,45.2695312 C16.8085958,44.7851538 17.3613246,44.5429688 18.0566406,44.5429688 C18.830082,44.5429688 19.4374978,44.8300753 19.8789062,45.4042969 C20.3203147,45.9785185 20.5410156,46.7812448 20.5410156,47.8125 L20.5410156,47.8945312 Z M19.1171875,47.7714844 C19.1171875,47.0839809 18.996095,46.5683611 18.7539062,46.2246094 C18.5117175,45.8808577 18.1601586,45.7089844 17.6992188,45.7089844 C17.0820282,45.7089844 16.6484388,45.9785129 16.3984375,46.5175781 L16.3984375,49.1308594 C16.652345,49.6816434 17.0898406,49.9570312 17.7109375,49.9570312 C18.1562522,49.9570312 18.4999988,49.7910173 18.7421875,49.4589844 C18.9843762,49.1269515 19.109375,48.6250034 19.1171875,47.953125 L19.1171875,47.7714844 Z M26.3417969,47.8300781 L26.3417969,51 L24.859375,51 L24.859375,42.46875 L28.1230469,42.46875 C29.0761766,42.46875 29.833005,42.7167944 30.3935547,43.2128906 C30.9541044,43.7089869 31.234375,44.3652303 31.234375,45.1816406 C31.234375,46.0175823 30.9599637,46.6679664 30.4111328,47.1328125 C29.8623019,47.5976586 29.0937549,47.8300781 28.1054688,47.8300781 L26.3417969,47.8300781 Z M26.3417969,46.640625 L28.1230469,46.640625 C28.6503933,46.640625 29.052733,46.5166028 29.3300781,46.2685547 C29.6074233,46.0205066 29.7460938,45.6621117 29.7460938,45.1933594 C29.7460938,44.7324196 29.6054702,44.3642592 29.3242188,44.0888672 C29.0429673,43.8134752 28.6562525,43.671875 28.1640625,43.6640625 L26.3417969,43.6640625 L26.3417969,46.640625 Z M36.1152344,51 C36.0527341,50.8789056 35.9980471,50.681642 35.9511719,50.4082031 C35.4980446,50.8808617 34.9433627,51.1171875 34.2871094,51.1171875 C33.6503874,51.1171875 33.1308614,50.9355487 32.7285156,50.5722656 C32.3261699,50.2089826 32.125,49.7597683 32.125,49.2246094 C32.125,48.5488247 32.3759741,48.0302752 32.8779297,47.6689453 C33.3798853,47.3076154 34.0976516,47.1269531 35.03125,47.1269531 L35.9042969,47.1269531 L35.9042969,46.7109375 C35.9042969,46.3828109 35.8125009,46.1201182 35.6289062,45.9228516 C35.4453116,45.725585 35.1660175,45.6269531 34.7910156,45.6269531 C34.4667953,45.6269531 34.2011729,45.708007 33.9941406,45.8701172 C33.7871083,46.0322274 33.6835938,46.23828 33.6835938,46.4882812 L32.2597656,46.4882812 C32.2597656,46.1406233 32.3749988,45.8154312 32.6054688,45.5126953 C32.8359387,45.2099594 33.1494121,44.9726571 33.5458984,44.8007812 C33.9423848,44.6289054 34.3847632,44.5429688 34.8730469,44.5429688 C35.6152381,44.5429688 36.207029,44.7294903 36.6484375,45.1025391 C37.089846,45.4755878 37.3164062,45.9999966 37.328125,46.6757812 L37.328125,49.5351562 C37.328125,50.1054716 37.4082023,50.5605452 37.5683594,50.9003906 L37.5683594,51 L36.1152344,51 Z M34.5507812,49.9746094 C34.8320327,49.9746094 35.0966784,49.9062507 35.3447266,49.7695312 C35.5927747,49.6328118 35.7792963,49.4492199 35.9042969,49.21875 L35.9042969,48.0234375 L35.1367188,48.0234375 C34.6093724,48.0234375 34.212892,48.1152335 33.9472656,48.2988281 C33.6816393,48.4824228 33.5488281,48.7421858 33.5488281,49.078125 C33.5488281,49.3515639 33.6396475,49.5693351 33.8212891,49.7314453 C34.0029306,49.8935555 34.2460922,49.9746094 34.5507812,49.9746094 Z M40.3339844,51 L38.9101562,51 L38.9101562,44.6601562 L40.3339844,44.6601562 L40.3339844,51 Z M38.8222656,43.0136719 C38.8222656,42.7949208 38.8916009,42.613282 39.0302734,42.46875 C39.168946,42.324218 39.3671862,42.2519531 39.625,42.2519531 C39.8828138,42.2519531 40.0820305,42.324218 40.2226562,42.46875 C40.363282,42.613282 40.4335938,42.7949208 40.4335938,43.0136719 C40.4335938,43.2285167 40.363282,43.4072258 40.2226562,43.5498047 C40.0820305,43.6923835 39.8828138,43.7636719 39.625,43.7636719 C39.3671862,43.7636719 39.168946,43.6923835 39.0302734,43.5498047 C38.8916009,43.4072258 38.8222656,43.2285167 38.8222656,43.0136719 Z M10.6005859,56.28125 L9.63378906,56.28125 L9.63378906,65.7910156 L10.6005859,65.7910156 L10.6005859,66.8984375 L8.20996094,66.8984375 L8.20996094,55.1679688 L10.6005859,55.1679688 L10.6005859,56.28125 Z M20.0283203,57.2597656 L16.6181641,65 L15.1240234,65 L18.5283203,57.6113281 L14.1162109,57.6113281 L14.1162109,56.46875 L20.0283203,56.46875 L20.0283203,57.2597656 Z M26.8251953,61.8945312 C26.8251953,62.8789112 26.6054709,63.6621065 26.1660156,64.2441406 C25.7265603,64.8261748 25.1220742,65.1171875 24.3525391,65.1171875 C23.6103479,65.1171875 23.0322286,64.8496121 22.6181641,64.3144531 L22.5478516,65 L21.2587891,65 L21.2587891,56 L22.6826172,56 L22.6826172,59.2695312 C23.0927755,58.7851538 23.6455043,58.5429688 24.3408203,58.5429688 C25.1142617,58.5429688 25.7216775,58.8300753 26.1630859,59.4042969 C26.6044944,59.9785185 26.8251953,60.7812448 26.8251953,61.8125 L26.8251953,61.8945312 Z M25.4013672,61.7714844 C25.4013672,61.0839809 25.2802746,60.5683611 25.0380859,60.2246094 C24.7958972,59.8808577 24.4443382,59.7089844 23.9833984,59.7089844 C23.3662079,59.7089844 22.9326184,59.9785129 22.6826172,60.5175781 L22.6826172,63.1308594 C22.9365247,63.6816434 23.3740203,63.9570312 23.9951172,63.9570312 C24.4404319,63.9570312 24.7841785,63.7910173 25.0263672,63.4589844 C25.2685559,63.1269515 25.3935546,62.6250034 25.4013672,61.953125 L25.4013672,61.7714844 Z M30.3466797,55.1679688 L32.7490234,55.1679688 L32.7490234,66.8984375 L30.3466797,66.8984375 L30.3466797,65.7910156 L31.3251953,65.7910156 L31.3251953,56.28125 L30.3466797,56.28125 L30.3466797,55.1679688 Z" id="path-1"></path>
        <filter x="-50%" y="-50%" width="200%" height="200%" filterUnits="objectBoundingBox" id="filter-2">
            <feOffset dx="0" dy="2" in="SourceAlpha" result="shadowOffsetOuter1"></feOffset>
            <feGaussianBlur stdDeviation="1" in="shadowOffsetOuter1" result="shadowBlurOuter1"></feGaussianBlur>
            <feColorMatrix values="0 0 0 0 0   0 0 0 0 0   0 0 0 0 0  0 0 0 0.5 0" type="matrix" in="shadowBlurOuter1"></feColorMatrix>
        </filter>
        <circle id="path-3" cx="20" cy="20" r="20"></circle>
        <filter x="-50%" y="-50%" width="200%" height="200%" filterUnits="objectBoundingBox" id="filter-4">
            <feOffset dx="0" dy="2" in="SourceAlpha" result="shadowOffsetOuter1"></feOffset>
            <feGaussianBlur stdDeviation="2" in="shadowOffsetOuter1" result="shadowBlurOuter1"></feGaussianBlur>
            <feColorMatrix values="0 0 0 0 0   0 0 0 0 0   0 0 0 0 0  0 0 0 0.5 0" type="matrix" in="shadowBlurOuter1"></feColorMatrix>
        </filter>
    </defs>
    <g id="Page-1" stroke="none" stroke-width="1" fill="none" fill-rule="evenodd">
        <g id="Group-45" transform="translate(4.000000, 2.000000)">
            <g id="Bob-Pai-[-7b-]">
                <use fill="black" fill-opacity="1" filter="url(#filter-2)" xlink:href="#path-1"></use>
                <use fill="#FFFFFF" fill-rule="evenodd" xlink:href="#path-1"></use>
            </g>
            <g id="Group-5">
                <g id="Group-2">
                    <g id="Group" opacity="0.3">
                        <g id="Oval-6">
                            <use fill="black" fill-opacity="1" filter="url(#filter-4)" xlink:href="#path-3"></use>
                            <use fill="#FFFFFF" fill-rule="evenodd" xlink:href="#path-3"></use>
                        </g>
                    </g>
                    <circle id="Oval-5" stroke="#FFFFFF" stroke-width="5" fill="#DC1E65" cx="20" cy="20" r="8"></circle>
                </g>
            </g>
            <ellipse id="Oval-3" fill="#DC1E65" cx="20" cy="20" rx="13" ry="13"></ellipse>
            <ellipse id="Oval-3" fill="#DC1E65" cx="20" cy="20" rx="13" ry="13"></ellipse>
            <path d="M19.5546875,24 L13.8183594,24 L13.8183594,23.0214844 L16.6601562,19.921875 C17.0703146,19.4648415 17.3623038,19.0830093 17.5361328,18.7763672 C17.7099618,18.469725 17.796875,18.1621109 17.796875,17.8535156 C17.796875,17.4472636 17.6826183,17.1191419 17.4541016,16.8691406 C17.2255848,16.6191394 16.9179707,16.4941406 16.53125,16.4941406 C16.0703102,16.4941406 15.7128919,16.6347642 15.4589844,16.9160156 C15.2050769,17.197267 15.078125,17.5820288 15.078125,18.0703125 L13.6542969,18.0703125 C13.6542969,17.5507787 13.7724598,17.0830099 14.0087891,16.6669922 C14.2451184,16.2509745 14.5830056,15.9277355 15.0224609,15.6972656 C15.4619163,15.4667957 15.9687471,15.3515625 16.5429688,15.3515625 C17.3710979,15.3515625 18.0244117,15.5595682 18.5029297,15.9755859 C18.9814477,16.3916036 19.2207031,16.9667932 19.2207031,17.7011719 C19.2207031,18.1269553 19.1005871,18.5732399 18.8603516,19.0400391 C18.620116,19.5068383 18.2265652,20.0371064 17.6796875,20.6308594 L15.59375,22.8632812 L19.5546875,22.8632812 L19.5546875,24 Z M26.1992188,20.4082031 C26.1992188,21.6347718 25.9697289,22.5595672 25.5107422,23.1826172 C25.0517555,23.8056672 24.3535203,24.1171875 23.4160156,24.1171875 C22.494136,24.1171875 21.799807,23.8134796 21.3330078,23.2060547 C20.8662086,22.5986298 20.6269532,21.6992247 20.6152344,20.5078125 L20.6152344,19.03125 C20.6152344,17.8046814 20.8447243,16.8847687 21.3037109,16.2714844 C21.7626976,15.6582001 22.4628859,15.3515625 23.4042969,15.3515625 C24.3378953,15.3515625 25.0341774,15.6503876 25.4931641,16.2480469 C25.9521507,16.8457061 26.1874999,17.7402284 26.1992188,18.9316406 L26.1992188,20.4082031 Z M24.7753906,18.8144531 C24.7753906,18.0136679 24.6660167,17.4267597 24.4472656,17.0537109 C24.2285145,16.6806622 23.8808618,16.4941406 23.4042969,16.4941406 C22.9394508,16.4941406 22.5976573,16.6708967 22.3789062,17.0244141 C22.1601552,17.3779315 22.0449219,17.9296837 22.0332031,18.6796875 L22.0332031,20.6132812 C22.0332031,21.4101602 22.1445301,22.0039043 22.3671875,22.3945312 C22.5898449,22.7851582 22.9394507,22.9804688 23.4160156,22.9804688 C23.8730492,22.9804688 24.2109364,22.7998065 24.4296875,22.4384766 C24.6484386,22.0771466 24.7636718,21.5117226 24.7753906,20.7421875 L24.7753906,18.8144531 Z" id="20" fill="#FFFFFF"></path>
        </g>
    </g>
</svg>