<?xml version="1.0" encoding="UTF-8"?>
<svg width="111px" height="61px" viewBox="0 0 111 61" version="1.1" xmlns="http://www.w3.org/2000/svg" xmlns:xlink="http://www.w3.org/1999/xlink">
    <!-- Generator: Sketch 42 (36781) - http://www.bohemiancoding.com/sketch -->
    <title>Group 37</title>
    <desc>Created with Sketch.</desc>
    <defs>
        <path d="M5.89550781,48.1914062 L2.39160156,48.1914062 L2.39160156,50.8164062 L6.48730469,50.8164062 L6.48730469,52 L0.909179688,52 L0.909179688,43.46875 L6.44628906,43.46875 L6.44628906,44.6640625 L2.39160156,44.6640625 L2.39160156,47.0195312 L5.89550781,47.0195312 L5.89550781,48.1914062 Z M11.1103516,50.2773438 C11.1103516,50.0234362 11.0058604,49.8300788 10.796875,49.6972656 C10.5878896,49.5644525 10.2412134,49.4472661 9.75683594,49.3457031 C9.27245852,49.2441401 8.86816568,49.1152352 8.54394531,48.9589844 C7.83300426,48.6152327 7.47753906,48.1171908 7.47753906,47.4648438 C7.47753906,46.917966 7.70800551,46.4609393 8.16894531,46.09375 C8.62988512,45.7265607 9.21581676,45.5429688 9.92675781,45.5429688 C10.6845741,45.5429688 11.2968727,45.7304669 11.7636719,46.1054688 C12.2304711,46.4804706 12.4638672,46.9667939 12.4638672,47.5644531 L11.0400391,47.5644531 C11.0400391,47.2910143 10.9384776,47.0634775 10.7353516,46.8818359 C10.5322255,46.7001944 10.262697,46.609375 9.92675781,46.609375 C9.61425625,46.609375 9.35937599,46.6816399 9.16210938,46.8261719 C8.96484276,46.9707038 8.86621094,47.1640613 8.86621094,47.40625 C8.86621094,47.6250011 8.95800689,47.7949213 9.14160156,47.9160156 C9.32519623,48.03711 9.69628627,48.1591791 10.2548828,48.2822266 C10.8134794,48.4052741 11.2519515,48.551757 11.5703125,48.7216797 C11.8886735,48.8916024 12.1249992,49.0957019 12.2792969,49.3339844 C12.4335945,49.5722668 12.5107422,49.8613264 12.5107422,50.2011719 C12.5107422,50.7714872 12.2744164,51.2333967 11.8017578,51.5869141 C11.3290992,51.9404315 10.7099648,52.1171875 9.94433594,52.1171875 C9.42480209,52.1171875 8.96191609,52.0234384 8.55566406,51.8359375 C8.14941203,51.6484366 7.83300895,51.3906266 7.60644531,51.0625 C7.37988168,50.7343734 7.26660156,50.3808613 7.26660156,50.0019531 L8.64941406,50.0019531 C8.66894541,50.3378923 8.79589727,50.5966788 9.03027344,50.7783203 C9.26464961,50.9599618 9.57519338,51.0507812 9.96191406,51.0507812 C10.3369159,51.0507812 10.6220693,50.9794929 10.8173828,50.8369141 C11.0126963,50.6943352 11.1103516,50.5078137 11.1103516,50.2773438 Z M19.3017578,48.8945312 C19.3017578,49.8750049 19.0791038,50.6572236 18.6337891,51.2412109 C18.1884743,51.8251982 17.5908241,52.1171875 16.8408203,52.1171875 C16.1455043,52.1171875 15.5888693,51.8886742 15.1708984,51.4316406 L15.1708984,54.4375 L13.7470703,54.4375 L13.7470703,45.6601562 L15.0595703,45.6601562 L15.1181641,46.3046875 C15.5361349,45.7968725 16.1044886,45.5429688 16.8232422,45.5429688 C17.5966836,45.5429688 18.2031228,45.8310518 18.6425781,46.4072266 C19.0820334,46.9834013 19.3017578,47.783198 19.3017578,48.8066406 L19.3017578,48.8945312 Z M17.8837891,48.7714844 C17.8837891,48.1386687 17.7578138,47.6367206 17.5058594,47.265625 C17.253905,46.8945294 16.893557,46.7089844 16.4248047,46.7089844 C15.8427705,46.7089844 15.424806,46.9492163 15.1708984,47.4296875 L15.1708984,50.2421875 C15.4287122,50.7343775 15.850583,50.9804688 16.4365234,50.9804688 C16.8896507,50.9804688 17.2441393,50.7978534 17.5,50.4326172 C17.7558607,50.067381 17.8837891,49.5136756 17.8837891,48.7714844 Z M23.2978516,52.1171875 C22.3955033,52.1171875 21.6640653,51.8330107 21.1035156,51.2646484 C20.5429659,50.6962862 20.2626953,49.9394579 20.2626953,48.9941406 L20.2626953,48.8183594 C20.2626953,48.1855437 20.3847644,47.6201197 20.6289062,47.1220703 C20.8730481,46.6240209 21.2158181,46.2363295 21.6572266,45.9589844 C22.098635,45.6816392 22.5908176,45.5429688 23.1337891,45.5429688 C23.9970746,45.5429688 24.6640601,45.8183566 25.1347656,46.3691406 C25.6054711,46.9199246 25.8408203,47.6992137 25.8408203,48.7070312 L25.8408203,49.28125 L21.6982422,49.28125 C21.7412112,49.8046901 21.9160141,50.2187485 22.2226562,50.5234375 C22.5292984,50.8281265 22.9150367,50.9804688 23.3798828,50.9804688 C24.0322298,50.9804688 24.5634745,50.7167995 24.9736328,50.1894531 L25.7412109,50.921875 C25.4873034,51.3007831 25.1484396,51.5947255 24.7246094,51.8037109 C24.3007791,52.0126964 23.8251979,52.1171875 23.2978516,52.1171875 Z M23.1279297,46.6855469 C22.7373027,46.6855469 22.4218762,46.8222643 22.1816406,47.0957031 C21.941405,47.369142 21.7880863,47.7499976 21.7216797,48.2382812 L24.4345703,48.2382812 L24.4345703,48.1328125 C24.4033202,47.6562476 24.2763683,47.2958997 24.0537109,47.0517578 C23.8310536,46.807616 23.5224629,46.6855469 23.1279297,46.6855469 Z M30.2646484,46.9609375 C30.0771475,46.9296873 29.8837901,46.9140625 29.6845703,46.9140625 C29.0322233,46.9140625 28.5927746,47.16406 28.3662109,47.6640625 L28.3662109,52 L26.9423828,52 L26.9423828,45.6601562 L28.3017578,45.6601562 L28.3369141,46.3691406 C28.6806658,45.8183566 29.1572235,45.5429688 29.7666016,45.5429688 C29.9697276,45.5429688 30.1376946,45.5703122 30.2705078,45.625 L30.2646484,46.9609375 Z M33.2412109,44.1191406 L33.2412109,45.6601562 L34.3603516,45.6601562 L34.3603516,46.7148438 L33.2412109,46.7148438 L33.2412109,50.2539062 C33.2412109,50.496095 33.289062,50.6708979 33.3847656,50.7783203 C33.4804692,50.8857427 33.651366,50.9394531 33.8974609,50.9394531 C34.0615243,50.9394531 34.2275382,50.9199221 34.3955078,50.8808594 L34.3955078,51.9824219 C34.0712874,52.0722661 33.7587906,52.1171875 33.4580078,52.1171875 C32.3642523,52.1171875 31.8173828,51.5136779 31.8173828,50.3066406 L31.8173828,46.7148438 L30.7744141,46.7148438 L30.7744141,45.6601562 L31.8173828,45.6601562 L31.8173828,44.1191406 L33.2412109,44.1191406 Z M35.0048828,48.7714844 C35.0048828,48.1503875 35.1279285,47.5908228 35.3740234,47.0927734 C35.6201184,46.5947241 35.9658181,46.2119154 36.4111328,45.9443359 C36.8564475,45.6767565 37.3681612,45.5429688 37.9462891,45.5429688 C38.8017621,45.5429688 39.4960911,45.8183566 40.0292969,46.3691406 C40.5625027,46.9199246 40.8505857,47.6503861 40.8935547,48.5605469 L40.8994141,48.8945312 C40.8994141,49.5195344 40.7792981,50.0781225 40.5390625,50.5703125 C40.2988269,51.0625025 39.9550804,51.443358 39.5078125,51.7128906 C39.0605446,51.9824232 38.5439482,52.1171875 37.9580078,52.1171875 C37.0634721,52.1171875 36.3476589,51.8193389 35.8105469,51.2236328 C35.2734348,50.6279267 35.0048828,49.8339893 35.0048828,48.8417969 L35.0048828,48.7714844 Z M36.4287109,48.8945312 C36.4287109,49.5468783 36.5634752,50.0576153 36.8330078,50.4267578 C37.1025404,50.7959003 37.4775367,50.9804688 37.9580078,50.9804688 C38.438479,50.9804688 38.8124987,50.7929706 39.0800781,50.4179688 C39.3476576,50.0429669 39.4814453,49.4941442 39.4814453,48.7714844 C39.4814453,48.1308562 39.3437514,47.6230487 39.0683594,47.2480469 C38.7929674,46.873045 38.4189477,46.6855469 37.9462891,46.6855469 C37.481443,46.6855469 37.1123061,46.8701153 36.8388672,47.2392578 C36.5654283,47.6084003 36.4287109,48.1601526 36.4287109,48.8945312 Z M43.4423828,45.6601562 L43.4833984,46.3222656 C43.9287132,45.8027318 44.5380821,45.5429688 45.3115234,45.5429688 C46.1591839,45.5429688 46.7392562,45.8671843 47.0517578,46.515625 C47.5126976,45.8671843 48.1611286,45.5429688 48.9970703,45.5429688 C49.6962926,45.5429688 50.2167952,45.7363262 50.5585938,46.1230469 C50.9003923,46.5097676 51.0751953,47.0800744 51.0830078,47.8339844 L51.0830078,52 L49.6591797,52 L49.6591797,47.875 C49.6591797,47.4726542 49.5712899,47.1777353 49.3955078,46.9902344 C49.2197257,46.8027334 48.928713,46.7089844 48.5224609,46.7089844 C48.1982406,46.7089844 47.9335948,46.7958976 47.7285156,46.9697266 C47.5234365,47.1435556 47.3798832,47.3710923 47.2978516,47.6523438 L47.3037109,52 L45.8798828,52 L45.8798828,47.828125 C45.8603515,47.0820275 45.4794959,46.7089844 44.7373047,46.7089844 C44.1669893,46.7089844 43.7626965,46.9414039 43.5244141,47.40625 L43.5244141,52 L42.1005859,52 L42.1005859,45.6601562 L43.4423828,45.6601562 Z M56.3330078,52 C56.2705075,51.8789056 56.2158205,51.681642 56.1689453,51.4082031 C55.715818,51.8808617 55.1611361,52.1171875 54.5048828,52.1171875 C53.8681609,52.1171875 53.3486348,51.9355487 52.9462891,51.5722656 C52.5439433,51.2089826 52.3427734,50.7597683 52.3427734,50.2246094 C52.3427734,49.5488247 52.5937475,49.0302752 53.0957031,48.6689453 C53.5976588,48.3076154 54.315425,48.1269531 55.2490234,48.1269531 L56.1220703,48.1269531 L56.1220703,47.7109375 C56.1220703,47.3828109 56.0302744,47.1201182 55.8466797,46.9228516 C55.663085,46.725585 55.3837909,46.6269531 55.0087891,46.6269531 C54.6845687,46.6269531 54.4189463,46.708007 54.2119141,46.8701172 C54.0048818,47.0322274 53.9013672,47.23828 53.9013672,47.4882812 L52.4775391,47.4882812 C52.4775391,47.1406233 52.5927723,46.8154312 52.8232422,46.5126953 C53.0537121,46.2099594 53.3671855,45.9726571 53.7636719,45.8007812 C54.1601582,45.6289054 54.6025366,45.5429688 55.0908203,45.5429688 C55.8330115,45.5429688 56.4248025,45.7294903 56.8662109,46.1025391 C57.3076194,46.4755878 57.5341796,46.9999966 57.5458984,47.6757812 L57.5458984,50.5351562 C57.5458984,51.1054716 57.6259758,51.5605452 57.7861328,51.9003906 L57.7861328,52 L56.3330078,52 Z M54.7685547,50.9746094 C55.0498061,50.9746094 55.3144519,50.9062507 55.5625,50.7695312 C55.8105481,50.6328118 55.9970697,50.4492199 56.1220703,50.21875 L56.1220703,49.0234375 L55.3544922,49.0234375 C54.8271458,49.0234375 54.4306654,49.1152335 54.1650391,49.2988281 C53.8994127,49.4824228 53.7666016,49.7421858 53.7666016,50.078125 C53.7666016,50.3515639 53.857421,50.5693351 54.0390625,50.7314453 C54.220704,50.8935555 54.4638657,50.9746094 54.7685547,50.9746094 Z M60.3583984,45.6601562 L60.3994141,46.3925781 C60.8681664,45.826169 61.4833946,45.5429688 62.2451172,45.5429688 C63.5654363,45.5429688 64.2373046,46.2988206 64.2607422,47.8105469 L64.2607422,52 L62.8369141,52 L62.8369141,47.8925781 C62.8369141,47.4902324 62.7500009,47.1923838 62.5761719,46.9990234 C62.4023429,46.8056631 62.118166,46.7089844 61.7236328,46.7089844 C61.1494112,46.7089844 60.7216811,46.9687474 60.4404297,47.4882812 L60.4404297,52 L59.0166016,52 L59.0166016,45.6601562 L60.3583984,45.6601562 Z M71.1337891,43.28125 L70.1669922,43.28125 L70.1669922,52.7910156 L71.1337891,52.7910156 L71.1337891,53.8984375 L68.7431641,53.8984375 L68.7431641,42.1679688 L71.1337891,42.1679688 L71.1337891,43.28125 Z M79.7001953,48.9589844 L80.7607422,48.9589844 L80.7607422,50.1015625 L79.7001953,50.1015625 L79.7001953,52 L78.2763672,52 L78.2763672,50.1015625 L74.5908203,50.1015625 L74.5498047,49.234375 L78.2294922,43.46875 L79.7001953,43.46875 L79.7001953,48.9589844 Z M76.0439453,48.9589844 L78.2763672,48.9589844 L78.2763672,45.3964844 L78.1708984,45.5839844 L76.0439453,48.9589844 Z M85.3486328,50.2773438 C85.3486328,50.0234362 85.2441417,49.8300788 85.0351562,49.6972656 C84.8261708,49.5644525 84.4794946,49.4472661 83.9951172,49.3457031 C83.5107398,49.2441401 83.1064469,49.1152352 82.7822266,48.9589844 C82.0712855,48.6152327 81.7158203,48.1171908 81.7158203,47.4648438 C81.7158203,46.917966 81.9462868,46.4609393 82.4072266,46.09375 C82.8681664,45.7265607 83.454098,45.5429688 84.1650391,45.5429688 C84.9228554,45.5429688 85.5351539,45.7304669 86.0019531,46.1054688 C86.4687523,46.4804706 86.7021484,46.9667939 86.7021484,47.5644531 L85.2783203,47.5644531 C85.2783203,47.2910143 85.1767588,47.0634775 84.9736328,46.8818359 C84.7705068,46.7001944 84.5009782,46.609375 84.1650391,46.609375 C83.8525375,46.609375 83.5976572,46.6816399 83.4003906,46.8261719 C83.203124,46.9707038 83.1044922,47.1640613 83.1044922,47.40625 C83.1044922,47.6250011 83.1962881,47.7949213 83.3798828,47.9160156 C83.5634775,48.03711 83.9345675,48.1591791 84.4931641,48.2822266 C85.0517606,48.4052741 85.4902328,48.551757 85.8085938,48.7216797 C86.1269547,48.8916024 86.3632805,49.0957019 86.5175781,49.3339844 C86.6718758,49.5722668 86.7490234,49.8613264 86.7490234,50.2011719 C86.7490234,50.7714872 86.5126977,51.2333967 86.0400391,51.5869141 C85.5673804,51.9404315 84.948246,52.1171875 84.1826172,52.1171875 C83.6630833,52.1171875 83.2001973,52.0234384 82.7939453,51.8359375 C82.3876933,51.6484366 82.0712902,51.3906266 81.8447266,51.0625 C81.6181629,50.7343734 81.5048828,50.3808613 81.5048828,50.0019531 L82.8876953,50.0019531 C82.9072267,50.3378923 83.0341785,50.5966788 83.2685547,50.7783203 C83.5029309,50.9599618 83.8134746,51.0507812 84.2001953,51.0507812 C84.5751972,51.0507812 84.8603506,50.9794929 85.0556641,50.8369141 C85.2509775,50.6943352 85.3486328,50.5078137 85.3486328,50.2773438 Z M91.8291016,51.3789062 C91.4111307,51.8710962 90.8173867,52.1171875 90.0478516,52.1171875 C89.3603481,52.1171875 88.8398455,51.9160176 88.4863281,51.5136719 C88.1328107,51.1113261 87.9560547,50.5293007 87.9560547,49.7675781 L87.9560547,45.6601562 L89.3798828,45.6601562 L89.3798828,49.75 C89.3798828,50.5546915 89.7138638,50.9570312 90.3818359,50.9570312 C91.0732456,50.9570312 91.5400379,50.7089869 91.7822266,50.2128906 L91.7822266,45.6601562 L93.2060547,45.6601562 L93.2060547,52 L91.8642578,52 L91.8291016,51.3789062 Z M100.208008,48.8945312 C100.208008,49.8750049 99.9853538,50.6572236 99.5400391,51.2412109 C99.0947243,51.8251982 98.4970741,52.1171875 97.7470703,52.1171875 C97.0517543,52.1171875 96.4951193,51.8886742 96.0771484,51.4316406 L96.0771484,54.4375 L94.6533203,54.4375 L94.6533203,45.6601562 L95.9658203,45.6601562 L96.0244141,46.3046875 C96.4423849,45.7968725 97.0107386,45.5429688 97.7294922,45.5429688 C98.5029336,45.5429688 99.1093728,45.8310518 99.5488281,46.4072266 C99.9882834,46.9834013 100.208008,47.783198 100.208008,48.8066406 L100.208008,48.8945312 Z M98.7900391,48.7714844 C98.7900391,48.1386687 98.6640638,47.6367206 98.4121094,47.265625 C98.160155,46.8945294 97.799807,46.7089844 97.3310547,46.7089844 C96.7490205,46.7089844 96.331056,46.9492163 96.0771484,47.4296875 L96.0771484,50.2421875 C96.3349622,50.7343775 96.756833,50.9804688 97.3427734,50.9804688 C97.7959007,50.9804688 98.1503893,50.7978534 98.40625,50.4326172 C98.6621107,50.067381 98.7900391,49.5136756 98.7900391,48.7714844 Z M103.741211,42.1679688 L106.143555,42.1679688 L106.143555,53.8984375 L103.741211,53.8984375 L103.741211,52.7910156 L104.719727,52.7910156 L104.719727,43.28125 L103.741211,43.28125 L103.741211,42.1679688 Z" id="path-1"></path>
        <filter x="-50%" y="-50%" width="200%" height="200%" filterUnits="objectBoundingBox" id="filter-2">
            <feOffset dx="0" dy="2" in="SourceAlpha" result="shadowOffsetOuter1"></feOffset>
            <feGaussianBlur stdDeviation="1" in="shadowOffsetOuter1" result="shadowBlurOuter1"></feGaussianBlur>
            <feColorMatrix values="0 0 0 0 0   0 0 0 0 0   0 0 0 0 0  0 0 0 0.5 0" type="matrix" in="shadowBlurOuter1"></feColorMatrix>
        </filter>
        <ellipse id="path-3" cx="20" cy="20" rx="20" ry="20"></ellipse>
        <filter x="-50%" y="-50%" width="200%" height="200%" filterUnits="objectBoundingBox" id="filter-4">
            <feOffset dx="0" dy="2" in="SourceAlpha" result="shadowOffsetOuter1"></feOffset>
            <feGaussianBlur stdDeviation="2" in="shadowOffsetOuter1" result="shadowBlurOuter1"></feGaussianBlur>
            <feColorMatrix values="0 0 0 0 0   0 0 0 0 0   0 0 0 0 0  0 0 0 0.5 0" type="matrix" in="shadowBlurOuter1"></feColorMatrix>
        </filter>
    </defs>
    <g id="Page-1" stroke="none" stroke-width="1" fill="none" fill-rule="evenodd">
        <g id="Group-37" transform="translate(2.000000, 2.000000)">
            <g id="Espertoman-[-4sup-]">
                <use fill="black" fill-opacity="1" filter="url(#filter-2)" xlink:href="#path-1"></use>
                <use fill="#FFFFFF" fill-rule="evenodd" xlink:href="#path-1"></use>
            </g>
            <g id="Group-5" transform="translate(29.000000, 0.000000)">
                <g id="Group-2">
                    <g id="Group" opacity="0.3">
                        <g id="Oval-6">
                            <use fill="black" fill-opacity="1" filter="url(#filter-4)" xlink:href="#path-3"></use>
                            <use fill="#FFFFFF" fill-rule="evenodd" xlink:href="#path-3"></use>
                        </g>
                    </g>
                    <ellipse id="Oval-5" stroke="#FFFFFF" stroke-width="5" fill="#DC1E65" cx="20" cy="20" rx="8" ry="8"></ellipse>
                </g>
            </g>
            <ellipse id="Oval-3" fill="#DC1E65" cx="49" cy="20" rx="13" ry="13"></ellipse>
            <path d="M52.4589844,25 L45.7666016,25 L45.7666016,23.8583984 L49.0820312,20.2421875 C49.5605493,19.7089817 49.9012034,19.2635109 50.1040039,18.9057617 C50.3068044,18.5480125 50.4082031,18.1891294 50.4082031,17.8291016 C50.4082031,17.3551409 50.2749037,16.9723322 50.0083008,16.6806641 C49.7416979,16.3889959 49.3828148,16.2431641 48.9316406,16.2431641 C48.3938775,16.2431641 47.9768895,16.4072249 47.6806641,16.7353516 C47.3844386,17.0634782 47.2363281,17.5123669 47.2363281,18.0820312 L45.5751953,18.0820312 C45.5751953,17.4759084 45.713052,16.9301782 45.9887695,16.4448242 C46.2644871,15.9594702 46.6586888,15.5823581 47.1713867,15.3134766 C47.6840846,15.044595 48.2753873,14.9101562 48.9453125,14.9101562 C49.9114632,14.9101562 50.6736626,15.1528296 51.2319336,15.6381836 C51.7902046,16.1235376 52.0693359,16.7945921 52.0693359,17.6513672 C52.0693359,18.1481145 51.9292006,18.6687798 51.6489258,19.2133789 C51.3686509,19.757978 50.9095084,20.3766241 50.2714844,21.0693359 L47.8378906,23.6738281 L52.4589844,23.6738281 L52.4589844,25 Z" id="2" fill="#FFFFFF"></path>
        </g>
    </g>
</svg>