<?xml version="1.0" encoding="UTF-8"?>
<svg width="72px" height="73px" viewBox="0 0 72 73" version="1.1" xmlns="http://www.w3.org/2000/svg" xmlns:xlink="http://www.w3.org/1999/xlink">
    <!-- Generator: Sketch 42 (36781) - http://www.bohemiancoding.com/sketch -->
    <title>Group 49</title>
    <desc>Created with Sketch.</desc>
    <defs>
        <path d="M4.046875,49.1425781 L6.21484375,42.46875 L7.84375,42.46875 L4.7734375,51 L3.33789062,51 L0.279296875,42.46875 L1.90234375,42.46875 L4.046875,49.1425781 Z M12.1855469,51 C12.1230466,50.8789056 12.0683596,50.681642 12.0214844,50.4082031 C11.5683571,50.8808617 11.0136752,51.1171875 10.3574219,51.1171875 C9.72069994,51.1171875 9.20117389,50.9355487 8.79882812,50.5722656 C8.39648236,50.2089826 8.1953125,49.7597683 8.1953125,49.2246094 C8.1953125,48.5488247 8.44628655,48.0302752 8.94824219,47.6689453 C9.45019782,47.3076154 10.1679641,47.1269531 11.1015625,47.1269531 L11.9746094,47.1269531 L11.9746094,46.7109375 C11.9746094,46.3828109 11.8828134,46.1201182 11.6992188,45.9228516 C11.5156241,45.725585 11.23633,45.6269531 10.8613281,45.6269531 C10.5371078,45.6269531 10.2714854,45.708007 10.0644531,45.8701172 C9.85742084,46.0322274 9.75390625,46.23828 9.75390625,46.4882812 L8.33007812,46.4882812 C8.33007812,46.1406233 8.44531135,45.8154312 8.67578125,45.5126953 C8.90625115,45.2099594 9.21972458,44.9726571 9.61621094,44.8007812 C10.0126973,44.6289054 10.4550757,44.5429688 10.9433594,44.5429688 C11.6855506,44.5429688 12.2773415,44.7294903 12.71875,45.1025391 C13.1601585,45.4755878 13.3867187,45.9999966 13.3984375,46.6757812 L13.3984375,49.5351562 C13.3984375,50.1054716 13.4785148,50.5605452 13.6386719,50.9003906 L13.6386719,51 L12.1855469,51 Z M10.6210938,49.9746094 C10.9023452,49.9746094 11.1669909,49.9062507 11.4150391,49.7695312 C11.6630872,49.6328118 11.8496088,49.4492199 11.9746094,49.21875 L11.9746094,48.0234375 L11.2070312,48.0234375 C10.6796849,48.0234375 10.2832045,48.1152335 10.0175781,48.2988281 C9.7519518,48.4824228 9.61914062,48.7421858 9.61914062,49.078125 C9.61914062,49.3515639 9.70996003,49.5693351 9.89160156,49.7314453 C10.0732431,49.8935555 10.3164047,49.9746094 10.6210938,49.9746094 Z M18.2089844,45.9609375 C18.0214834,45.9296873 17.828126,45.9140625 17.6289062,45.9140625 C16.9765592,45.9140625 16.5371105,46.16406 16.3105469,46.6640625 L16.3105469,51 L14.8867188,51 L14.8867188,44.6601562 L16.2460938,44.6601562 L16.28125,45.3691406 C16.6250017,44.8183566 17.1015595,44.5429688 17.7109375,44.5429688 C17.9140635,44.5429688 18.0820306,44.5703122 18.2148438,44.625 L18.2089844,45.9609375 Z M20.6230469,51 L19.1992188,51 L19.1992188,44.6601562 L20.6230469,44.6601562 L20.6230469,51 Z M19.1113281,43.0136719 C19.1113281,42.7949208 19.1806634,42.613282 19.3193359,42.46875 C19.4580085,42.324218 19.6562487,42.2519531 19.9140625,42.2519531 C20.1718763,42.2519531 20.371093,42.324218 20.5117188,42.46875 C20.6523445,42.613282 20.7226562,42.7949208 20.7226562,43.0136719 C20.7226562,43.2285167 20.6523445,43.4072258 20.5117188,43.5498047 C20.371093,43.6923835 20.1718763,43.7636719 19.9140625,43.7636719 C19.6562487,43.7636719 19.4580085,43.6923835 19.3193359,43.5498047 C19.1806634,43.4072258 19.1113281,43.2285167 19.1113281,43.0136719 Z M25.9609375,51 C25.8984372,50.8789056 25.8437502,50.681642 25.796875,50.4082031 C25.3437477,50.8808617 24.7890658,51.1171875 24.1328125,51.1171875 C23.4960906,51.1171875 22.9765645,50.9355487 22.5742188,50.5722656 C22.171873,50.2089826 21.9707031,49.7597683 21.9707031,49.2246094 C21.9707031,48.5488247 22.2216772,48.0302752 22.7236328,47.6689453 C23.2255884,47.3076154 23.9433547,47.1269531 24.8769531,47.1269531 L25.75,47.1269531 L25.75,46.7109375 C25.75,46.3828109 25.658204,46.1201182 25.4746094,45.9228516 C25.2910147,45.725585 25.0117206,45.6269531 24.6367188,45.6269531 C24.3124984,45.6269531 24.046876,45.708007 23.8398438,45.8701172 C23.6328115,46.0322274 23.5292969,46.23828 23.5292969,46.4882812 L22.1054688,46.4882812 C22.1054688,46.1406233 22.220702,45.8154312 22.4511719,45.5126953 C22.6816418,45.2099594 22.9951152,44.9726571 23.3916016,44.8007812 C23.7880879,44.6289054 24.2304663,44.5429688 24.71875,44.5429688 C25.4609412,44.5429688 26.0527322,44.7294903 26.4941406,45.1025391 C26.9355491,45.4755878 27.1621093,45.9999966 27.1738281,46.6757812 L27.1738281,49.5351562 C27.1738281,50.1054716 27.2539054,50.5605452 27.4140625,50.9003906 L27.4140625,51 L25.9609375,51 Z M24.3964844,49.9746094 C24.6777358,49.9746094 24.9423816,49.9062507 25.1904297,49.7695312 C25.4384778,49.6328118 25.6249994,49.4492199 25.75,49.21875 L25.75,48.0234375 L24.9824219,48.0234375 C24.4550755,48.0234375 24.0585951,48.1152335 23.7929688,48.2988281 C23.5273424,48.4824228 23.3945312,48.7421858 23.3945312,49.078125 C23.3945312,49.3515639 23.4853507,49.5693351 23.6669922,49.7314453 C23.8486337,49.8935555 24.0917954,49.9746094 24.3964844,49.9746094 Z M29.9863281,44.6601562 L30.0273438,45.3925781 C30.4960961,44.826169 31.1113243,44.5429688 31.8730469,44.5429688 C33.193366,44.5429688 33.8652343,45.2988206 33.8886719,46.8105469 L33.8886719,51 L32.4648438,51 L32.4648438,46.8925781 C32.4648438,46.4902324 32.3779306,46.1923838 32.2041016,45.9990234 C32.0302726,45.8056631 31.7460957,45.7089844 31.3515625,45.7089844 C30.7773409,45.7089844 30.3496108,45.9687474 30.0683594,46.4882812 L30.0683594,51 L28.6445312,51 L28.6445312,44.6601562 L29.9863281,44.6601562 Z M37.1230469,43.1191406 L37.1230469,44.6601562 L38.2421875,44.6601562 L38.2421875,45.7148438 L37.1230469,45.7148438 L37.1230469,49.2539062 C37.1230469,49.496095 37.170898,49.6708979 37.2666016,49.7783203 C37.3623052,49.8857427 37.5332019,49.9394531 37.7792969,49.9394531 C37.9433602,49.9394531 38.1093742,49.9199221 38.2773438,49.8808594 L38.2773438,50.9824219 C37.9531234,51.0722661 37.6406265,51.1171875 37.3398438,51.1171875 C36.2460883,51.1171875 35.6992188,50.5136779 35.6992188,49.3066406 L35.6992188,45.7148438 L34.65625,45.7148438 L34.65625,44.6601562 L35.6992188,44.6601562 L35.6992188,43.1191406 L37.1230469,43.1191406 Z M42.1210938,51.1171875 C41.2187455,51.1171875 40.4873075,50.8330107 39.9267578,50.2646484 C39.3662081,49.6962862 39.0859375,48.9394579 39.0859375,47.9941406 L39.0859375,47.8183594 C39.0859375,47.1855437 39.2080066,46.6201197 39.4521484,46.1220703 C39.6962903,45.6240209 40.0390603,45.2363295 40.4804688,44.9589844 C40.9218772,44.6816392 41.4140598,44.5429688 41.9570312,44.5429688 C42.8203168,44.5429688 43.4873023,44.8183566 43.9580078,45.3691406 C44.4287133,45.9199246 44.6640625,46.6992137 44.6640625,47.7070312 L44.6640625,48.28125 L40.5214844,48.28125 C40.5644533,48.8046901 40.7392563,49.2187485 41.0458984,49.5234375 C41.3525406,49.8281265 41.7382789,49.9804688 42.203125,49.9804688 C42.855472,49.9804688 43.3867167,49.7167995 43.796875,49.1894531 L44.5644531,49.921875 C44.3105456,50.3007831 43.9716818,50.5947255 43.5478516,50.8037109 C43.1240213,51.0126964 42.6484401,51.1171875 42.1210938,51.1171875 Z M41.9511719,45.6855469 C41.5605449,45.6855469 41.2451184,45.8222643 41.0048828,46.0957031 C40.7646472,46.369142 40.6113285,46.7499976 40.5449219,47.2382812 L43.2578125,47.2382812 L43.2578125,47.1328125 C43.2265623,46.6562476 43.0996105,46.2958997 42.8769531,46.0517578 C42.6542958,45.807616 42.3457051,45.6855469 41.9511719,45.6855469 Z M48.4902344,47.7832031 C48.4902344,46.8066357 48.7167946,46.0224639 49.1699219,45.4306641 C49.6230491,44.8388642 50.2304649,44.5429688 50.9921875,44.5429688 C51.6640659,44.5429688 52.2070292,44.7773414 52.6210938,45.2460938 L52.6210938,42 L54.0449219,42 L54.0449219,51 L52.7558594,51 L52.6855469,50.34375 C52.2597635,50.8593776 51.6914098,51.1171875 50.9804688,51.1171875 C50.2382775,51.1171875 49.6376976,50.8183624 49.1787109,50.2207031 C48.7197243,49.6230439 48.4902344,48.810552 48.4902344,47.7832031 Z M49.9140625,47.90625 C49.9140625,48.5507845 50.0380847,49.0537091 50.2861328,49.4150391 C50.5341809,49.776369 50.8867165,49.9570312 51.34375,49.9570312 C51.9257842,49.9570312 52.3515612,49.6972682 52.6210938,49.1777344 L52.6210938,46.4707031 C52.3593737,45.9628881 51.9375029,45.7089844 51.3554688,45.7089844 C50.8945289,45.7089844 50.5390638,45.8915997 50.2890625,46.2568359 C50.0390612,46.6220721 49.9140625,47.1718713 49.9140625,47.90625 Z M55.2636719,47.7714844 C55.2636719,47.1503875 55.3867175,46.5908228 55.6328125,46.0927734 C55.8789075,45.5947241 56.2246071,45.2119154 56.6699219,44.9443359 C57.1152366,44.6767565 57.6269502,44.5429688 58.2050781,44.5429688 C59.0605512,44.5429688 59.7548801,44.8183566 60.2880859,45.3691406 C60.8212917,45.9199246 61.1093748,46.6503861 61.1523438,47.5605469 L61.1582031,47.8945312 C61.1582031,48.5195344 61.0380871,49.0781225 60.7978516,49.5703125 C60.557616,50.0625025 60.2138694,50.443358 59.7666016,50.7128906 C59.3193337,50.9824232 58.8027373,51.1171875 58.2167969,51.1171875 C57.3222612,51.1171875 56.606448,50.8193389 56.0693359,50.2236328 C55.5322239,49.6279267 55.2636719,48.8339893 55.2636719,47.8417969 L55.2636719,47.7714844 Z M56.6875,47.8945312 C56.6875,48.5468783 56.8222643,49.0576153 57.0917969,49.4267578 C57.3613295,49.7959003 57.7363257,49.9804688 58.2167969,49.9804688 C58.697268,49.9804688 59.0712877,49.7929706 59.3388672,49.4179688 C59.6064467,49.0429669 59.7402344,48.4941442 59.7402344,47.7714844 C59.7402344,47.1308562 59.6025404,46.6230487 59.3271484,46.2480469 C59.0517564,45.873045 58.6777367,45.6855469 58.2050781,45.6855469 C57.7402321,45.6855469 57.3710951,45.8701153 57.0976562,46.2392578 C56.8242174,46.6084003 56.6875,47.1601526 56.6875,47.8945312 Z M65.9160156,49.2773438 C65.9160156,49.0234362 65.8115245,48.8300788 65.6025391,48.6972656 C65.3935536,48.5644525 65.0468774,48.4472661 64.5625,48.3457031 C64.0781226,48.2441401 63.6738297,48.1152352 63.3496094,47.9589844 C62.6386683,47.6152327 62.2832031,47.1171908 62.2832031,46.4648438 C62.2832031,45.917966 62.5136696,45.4609393 62.9746094,45.09375 C63.4355492,44.7265607 64.0214808,44.5429688 64.7324219,44.5429688 C65.4902382,44.5429688 66.1025367,44.7304669 66.5693359,45.1054688 C67.0361351,45.4804706 67.2695312,45.9667939 67.2695312,46.5644531 L65.8457031,46.5644531 C65.8457031,46.2910143 65.7441416,46.0634775 65.5410156,45.8818359 C65.3378896,45.7001944 65.0683611,45.609375 64.7324219,45.609375 C64.4199203,45.609375 64.16504,45.6816399 63.9677734,45.8261719 C63.7705068,45.9707038 63.671875,46.1640613 63.671875,46.40625 C63.671875,46.6250011 63.763671,46.7949213 63.9472656,46.9160156 C64.1308603,47.03711 64.5019503,47.1591791 65.0605469,47.2822266 C65.6191434,47.4052741 66.0576156,47.551757 66.3759766,47.7216797 C66.6943375,47.8916024 66.9306633,48.0957019 67.0849609,48.3339844 C67.2392586,48.5722668 67.3164062,48.8613264 67.3164062,49.2011719 C67.3164062,49.7714872 67.0800805,50.2333967 66.6074219,50.5869141 C66.1347633,50.9404315 65.5156288,51.1171875 64.75,51.1171875 C64.2304662,51.1171875 63.7675802,51.0234384 63.3613281,50.8359375 C62.9550761,50.6484366 62.638673,50.3906266 62.4121094,50.0625 C62.1855457,49.7343734 62.0722656,49.3808613 62.0722656,49.0019531 L63.4550781,49.0019531 C63.4746095,49.3378923 63.6015613,49.5966788 63.8359375,49.7783203 C64.0703137,49.9599618 64.3808574,50.0507812 64.7675781,50.0507812 C65.14258,50.0507812 65.4277334,49.9794929 65.6230469,49.8369141 C65.8183604,49.6943352 65.9160156,49.5078137 65.9160156,49.2773438 Z M5.39746094,61.8300781 L5.39746094,65 L3.91503906,65 L3.91503906,56.46875 L7.17871094,56.46875 C8.1318407,56.46875 8.88866907,56.7167944 9.44921875,57.2128906 C10.0097684,57.7089869 10.2900391,58.3652303 10.2900391,59.1816406 C10.2900391,60.0175823 10.0156277,60.6679664 9.46679688,61.1328125 C8.91796601,61.5976586 8.149419,61.8300781 7.16113281,61.8300781 L5.39746094,61.8300781 Z M5.39746094,60.640625 L7.17871094,60.640625 C7.70605732,60.640625 8.10839705,60.5166028 8.38574219,60.2685547 C8.66308732,60.0205066 8.80175781,59.6621117 8.80175781,59.1933594 C8.80175781,58.7324196 8.66113422,58.3642592 8.37988281,58.0888672 C8.09863141,57.8134752 7.71191652,57.671875 7.21972656,57.6640625 L5.39746094,57.6640625 L5.39746094,60.640625 Z M12.9619141,65 L11.5380859,65 L11.5380859,58.6601562 L12.9619141,58.6601562 L12.9619141,65 Z M11.4501953,57.0136719 C11.4501953,56.7949208 11.5195306,56.613282 11.6582031,56.46875 C11.7968757,56.324218 11.9951159,56.2519531 12.2529297,56.2519531 C12.5107435,56.2519531 12.7099602,56.324218 12.8505859,56.46875 C12.9912116,56.613282 13.0615234,56.7949208 13.0615234,57.0136719 C13.0615234,57.2285167 12.9912116,57.4072258 12.8505859,57.5498047 C12.7099602,57.6923835 12.5107435,57.7636719 12.2529297,57.7636719 C11.9951159,57.7636719 11.7968757,57.6923835 11.6582031,57.5498047 C11.5195306,57.4072258 11.4501953,57.2285167 11.4501953,57.0136719 Z M16.0263672,65 L14.6025391,65 L14.6025391,56 L16.0263672,56 L16.0263672,65 Z M17.3095703,61.7714844 C17.3095703,61.1503875 17.432616,60.5908228 17.6787109,60.0927734 C17.9248059,59.5947241 18.2705056,59.2119154 18.7158203,58.9443359 C19.161135,58.6767565 19.6728487,58.5429688 20.2509766,58.5429688 C21.1064496,58.5429688 21.8007786,58.8183566 22.3339844,59.3691406 C22.8671902,59.9199246 23.1552732,60.6503861 23.1982422,61.5605469 L23.2041016,61.8945312 C23.2041016,62.5195344 23.0839856,63.0781225 22.84375,63.5703125 C22.6035144,64.0625025 22.2597679,64.443358 21.8125,64.7128906 C21.3652321,64.9824232 20.8486357,65.1171875 20.2626953,65.1171875 C19.3681596,65.1171875 18.6523464,64.8193389 18.1152344,64.2236328 C17.5781223,63.6279267 17.3095703,62.8339893 17.3095703,61.8417969 L17.3095703,61.7714844 Z M18.7333984,61.8945312 C18.7333984,62.5468783 18.8681627,63.0576153 19.1376953,63.4267578 C19.4072279,63.7959003 19.7822242,63.9804688 20.2626953,63.9804688 C20.7431665,63.9804688 21.1171862,63.7929706 21.3847656,63.4179688 C21.6523451,63.0429669 21.7861328,62.4941442 21.7861328,61.7714844 C21.7861328,61.1308562 21.6484389,60.6230487 21.3730469,60.2480469 C21.0976549,59.873045 20.7236352,59.6855469 20.2509766,59.6855469 C19.7861305,59.6855469 19.4169936,59.8701153 19.1435547,60.2392578 C18.8701158,60.6084003 18.7333984,61.1601526 18.7333984,61.8945312 Z M22.3720703,56.1289062 C22.3720703,56.5585959 22.2480481,56.9160142 22,57.2011719 C21.7519519,57.4863296 21.4404316,57.6289062 21.0654297,57.6289062 C20.9130852,57.6289062 20.7812506,57.6123049 20.6699219,57.5791016 C20.5585932,57.5458983 20.4003917,57.4707037 20.1953125,57.3535156 C19.9902333,57.2363275 19.8457035,57.1660157 19.7617188,57.1425781 C19.677734,57.1191405 19.5849614,57.1074219 19.4833984,57.1074219 C19.3349602,57.1074219 19.2089849,57.1630854 19.1054688,57.2744141 C19.0019526,57.3857427 18.9501953,57.5312491 18.9501953,57.7109375 L18.0771484,57.6640625 C18.0771484,57.2343729 18.2011706,56.8730483 18.4492188,56.5800781 C18.6972669,56.2871079 19.0068341,56.140625 19.3779297,56.140625 C19.6005871,56.140625 19.8691391,56.2285147 20.1835938,56.4042969 C20.4980484,56.580079 20.7568349,56.6679688 20.9599609,56.6679688 C21.1083992,56.6679688 21.235351,56.6123052 21.3408203,56.5009766 C21.4462896,56.3896479 21.4990234,56.2421884 21.4990234,56.0585938 L22.3720703,56.1289062 Z M27.2001953,65.1171875 C26.2978471,65.1171875 25.5664091,64.8330107 25.0058594,64.2646484 C24.4453097,63.6962862 24.1650391,62.9394579 24.1650391,61.9941406 L24.1650391,61.8183594 C24.1650391,61.1855437 24.2871082,60.6201197 24.53125,60.1220703 C24.7753918,59.6240209 25.1181619,59.2363295 25.5595703,58.9589844 C26.0009788,58.6816392 26.4931613,58.5429688 27.0361328,58.5429688 C27.8994184,58.5429688 28.5664039,58.8183566 29.0371094,59.3691406 C29.5078149,59.9199246 29.7431641,60.6992137 29.7431641,61.7070312 L29.7431641,62.28125 L25.6005859,62.28125 C25.6435549,62.8046901 25.8183578,63.2187485 26.125,63.5234375 C26.4316422,63.8281265 26.8173805,63.9804688 27.2822266,63.9804688 C27.9345736,63.9804688 28.4658183,63.7167995 28.8759766,63.1894531 L29.6435547,63.921875 C29.3896472,64.3007831 29.0507834,64.5947255 28.6269531,64.8037109 C28.2031229,65.0126964 27.7275417,65.1171875 27.2001953,65.1171875 Z M27.0302734,59.6855469 C26.6396465,59.6855469 26.32422,59.8222643 26.0839844,60.0957031 C25.8437488,60.369142 25.69043,60.7499976 25.6240234,61.2382812 L28.3369141,61.2382812 L28.3369141,61.1328125 C28.3056639,60.6562476 28.1787121,60.2958997 27.9560547,60.0517578 C27.7333973,59.807616 27.4248067,59.6855469 27.0302734,59.6855469 Z M34.4013672,63.2773438 C34.4013672,63.0234362 34.296876,62.8300788 34.0878906,62.6972656 C33.8789052,62.5644525 33.532229,62.4472661 33.0478516,62.3457031 C32.5634741,62.2441401 32.1591813,62.1152352 31.8349609,61.9589844 C31.1240199,61.6152327 30.7685547,61.1171908 30.7685547,60.4648438 C30.7685547,59.917966 30.9990211,59.4609393 31.4599609,59.09375 C31.9209007,58.7265607 32.5068324,58.5429688 33.2177734,58.5429688 C33.9755897,58.5429688 34.5878883,58.7304669 35.0546875,59.1054688 C35.5214867,59.4804706 35.7548828,59.9667939 35.7548828,60.5644531 L34.3310547,60.5644531 C34.3310547,60.2910143 34.2294932,60.0634775 34.0263672,59.8818359 C33.8232412,59.7001944 33.5537126,59.609375 33.2177734,59.609375 C32.9052719,59.609375 32.6503916,59.6816399 32.453125,59.8261719 C32.2558584,59.9707038 32.1572266,60.1640613 32.1572266,60.40625 C32.1572266,60.6250011 32.2490225,60.7949213 32.4326172,60.9160156 C32.6162119,61.03711 32.9873019,61.1591791 33.5458984,61.2822266 C34.104495,61.4052741 34.5429672,61.551757 34.8613281,61.7216797 C35.1796891,61.8916024 35.4160149,62.0957019 35.5703125,62.3339844 C35.7246101,62.5722668 35.8017578,62.8613264 35.8017578,63.2011719 C35.8017578,63.7714872 35.5654321,64.2333967 35.0927734,64.5869141 C34.6201148,64.9404315 34.0009804,65.1171875 33.2353516,65.1171875 C32.7158177,65.1171875 32.2529317,65.0234384 31.8466797,64.8359375 C31.4404277,64.6484366 31.1240246,64.3906266 30.8974609,64.0625 C30.6708973,63.7343734 30.5576172,63.3808613 30.5576172,63.0019531 L31.9404297,63.0019531 C31.959961,63.3378923 32.0869129,63.5966788 32.3212891,63.7783203 C32.5556652,63.9599618 32.866209,64.0507812 33.2529297,64.0507812 C33.6279316,64.0507812 33.913085,63.9794929 34.1083984,63.8369141 C34.3037119,63.6943352 34.4013672,63.5078137 34.4013672,63.2773438 Z M42.4638672,56.28125 L41.4970703,56.28125 L41.4970703,65.7910156 L42.4638672,65.7910156 L42.4638672,66.8984375 L40.0732422,66.8984375 L40.0732422,55.1679688 L42.4638672,55.1679688 L42.4638672,56.28125 Z M51.5869141,58.71875 C51.5869141,59.1367208 51.4794933,59.5087874 51.2646484,59.8349609 C51.0498036,60.1611344 50.7568378,60.4179678 50.3857422,60.6054688 C50.8310569,60.812501 51.1738269,61.0957013 51.4140625,61.4550781 C51.6542981,61.8144549 51.7744141,62.2207009 51.7744141,62.6738281 C51.7744141,63.4238319 51.5205104,64.0185525 51.0126953,64.4580078 C50.5048803,64.8974631 49.8291058,65.1171875 48.9853516,65.1171875 C48.1376911,65.1171875 47.4589869,64.8964866 46.9492188,64.4550781 C46.4394506,64.0136697 46.1845703,63.4199256 46.1845703,62.6738281 C46.1845703,62.2167946 46.3056629,61.8066424 46.5478516,61.4433594 C46.7900403,61.0800763 47.1298806,60.8007822 47.5673828,60.6054688 C47.2001935,60.4179678 46.9101573,60.1611344 46.6972656,59.8349609 C46.4843739,59.5087874 46.3779297,59.1367208 46.3779297,58.71875 C46.3779297,57.9921839 46.6123023,57.4160178 47.0810547,56.9902344 C47.549807,56.564451 48.1826132,56.3515625 48.9794922,56.3515625 C49.7802774,56.3515625 50.4150367,56.564451 50.8837891,56.9902344 C51.3525414,57.4160178 51.5869141,57.9921839 51.5869141,58.71875 Z M50.3505859,62.6035156 C50.3505859,62.1816385 50.2246106,61.8408216 49.9726562,61.5810547 C49.7207019,61.3212878 49.3876974,61.1914062 48.9736328,61.1914062 C48.5595682,61.1914062 48.2285169,61.3203112 47.9804688,61.578125 C47.7324206,61.8359388 47.6083984,62.1777322 47.6083984,62.6035156 C47.6083984,63.0214865 47.7304675,63.3554675 47.9746094,63.6054688 C48.2187512,63.85547 48.5556619,63.9804688 48.9853516,63.9804688 C49.4150412,63.9804688 49.7499988,63.8593762 49.9902344,63.6171875 C50.23047,63.3749988 50.3505859,63.0371115 50.3505859,62.6035156 Z M50.1689453,58.7714844 C50.1689453,58.4003888 50.0615245,58.0947278 49.8466797,57.8544922 C49.6318349,57.6142566 49.3427753,57.4941406 48.9794922,57.4941406 C48.6162091,57.4941406 48.3291026,57.6083973 48.1181641,57.8369141 C47.9072255,58.0654308 47.8017578,58.3769512 47.8017578,58.7714844 C47.8017578,59.1621113 47.9082021,59.4726551 48.1210938,59.703125 C48.3339854,59.9335949 48.6220685,60.0488281 48.9853516,60.0488281 C49.3486346,60.0488281 49.6367177,59.9335949 49.8496094,59.703125 C50.0625011,59.4726551 50.1689453,59.1621113 50.1689453,58.7714844 Z M55.7294922,63.9804688 C56.0849627,63.9804688 56.3798816,63.8769542 56.6142578,63.6699219 C56.848634,63.4628896 56.9736327,63.2070328 56.9892578,62.9023438 L58.3310547,62.9023438 C58.3154296,63.296877 58.192384,63.6650374 57.9619141,64.0068359 C57.7314442,64.3486345 57.4189473,64.6191396 57.0244141,64.8183594 C56.6298808,65.0175791 56.2041038,65.1171875 55.7470703,65.1171875 C54.8603471,65.1171875 54.1572292,64.830081 53.6376953,64.2558594 C53.1181615,63.6816378 52.8583984,62.8886769 52.8583984,61.8769531 L52.8583984,61.7304688 C52.8583984,60.7656202 53.1162084,59.993167 53.6318359,59.4130859 C54.1474635,58.8330049 54.8505815,58.5429688 55.7412109,58.5429688 C56.495121,58.5429688 57.1093726,58.7626931 57.5839844,59.2021484 C58.0585961,59.6416038 58.3076171,60.2187464 58.3310547,60.9335938 L56.9892578,60.9335938 C56.9736327,60.5703107 56.8496105,60.2714855 56.6171875,60.0371094 C56.3847645,59.8027332 56.088869,59.6855469 55.7294922,59.6855469 C55.2685524,59.6855469 54.9130872,59.8525374 54.6630859,60.1865234 C54.4130847,60.5205095 54.2861328,61.0273404 54.2822266,61.7070312 L54.2822266,61.9355469 C54.2822266,62.6230503 54.4062488,63.1357405 54.6542969,63.4736328 C54.902345,63.8115251 55.2607398,63.9804688 55.7294922,63.9804688 Z M61.7353516,55.1679688 L64.1376953,55.1679688 L64.1376953,66.8984375 L61.7353516,66.8984375 L61.7353516,65.7910156 L62.7138672,65.7910156 L62.7138672,56.28125 L61.7353516,56.28125 L61.7353516,55.1679688 Z" id="path-1"></path>
        <filter x="-50%" y="-50%" width="200%" height="200%" filterUnits="objectBoundingBox" id="filter-2">
            <feOffset dx="0" dy="2" in="SourceAlpha" result="shadowOffsetOuter1"></feOffset>
            <feGaussianBlur stdDeviation="1" in="shadowOffsetOuter1" result="shadowBlurOuter1"></feGaussianBlur>
            <feColorMatrix values="0 0 0 0 0   0 0 0 0 0   0 0 0 0 0  0 0 0 0.5 0" type="matrix" in="shadowBlurOuter1"></feColorMatrix>
        </filter>
        <circle id="path-3" cx="20" cy="20" r="20"></circle>
        <filter x="-50%" y="-50%" width="200%" height="200%" filterUnits="objectBoundingBox" id="filter-4">
            <feOffset dx="0" dy="2" in="SourceAlpha" result="shadowOffsetOuter1"></feOffset>
            <feGaussianBlur stdDeviation="2" in="shadowOffsetOuter1" result="shadowBlurOuter1"></feGaussianBlur>
            <feColorMatrix values="0 0 0 0 0   0 0 0 0 0   0 0 0 0 0  0 0 0 0.5 0" type="matrix" in="shadowBlurOuter1"></feColorMatrix>
        </filter>
    </defs>
    <g id="Page-1" stroke="none" stroke-width="1" fill="none" fill-rule="evenodd">
        <g id="Group-49" transform="translate(2.000000, 2.000000)">
            <g id="Variante-dos-Pilões">
                <use fill="black" fill-opacity="1" filter="url(#filter-2)" xlink:href="#path-1"></use>
                <use fill="#FFFFFF" fill-rule="evenodd" xlink:href="#path-1"></use>
            </g>
            <g id="Group-5" transform="translate(13.000000, 0.000000)">
                <g id="Group-2">
                    <g id="Group" opacity="0.3">
                        <g id="Oval-6">
                            <use fill="black" fill-opacity="1" filter="url(#filter-4)" xlink:href="#path-3"></use>
                            <use fill="#FFFFFF" fill-rule="evenodd" xlink:href="#path-3"></use>
                        </g>
                    </g>
                    <circle id="Oval-5" stroke="#FFFFFF" stroke-width="5" fill="#DC1E65" cx="20" cy="20" r="8"></circle>
                </g>
            </g>
            <ellipse id="Oval-3" fill="#DC1E65" cx="33" cy="20" rx="13" ry="13"></ellipse>
            <ellipse id="Oval-3" fill="#DC1E65" cx="33" cy="20" rx="13" ry="13"></ellipse>
            <path d="M30.6738281,24 L29.2558594,24 L29.2558594,17.1503906 L27.1640625,17.8652344 L27.1640625,16.6640625 L30.4921875,15.4394531 L30.6738281,15.4394531 L30.6738281,24 Z M38.0683594,15.4277344 L38.0683594,16.6054688 L37.8925781,16.6054688 C37.0956991,16.6171876 36.4589868,16.8359354 35.9824219,17.2617188 C35.505857,17.6875021 35.2226567,18.2910117 35.1328125,19.0722656 C35.589846,18.5917945 36.1738246,18.3515625 36.8847656,18.3515625 C37.6386756,18.3515625 38.2333963,18.6171848 38.6689453,19.1484375 C39.1044944,19.6796902 39.3222656,20.3652302 39.3222656,21.2050781 C39.3222656,22.07227 39.0673854,22.7744114 38.5576172,23.3115234 C38.047849,23.8486355 37.3789104,24.1171875 36.5507812,24.1171875 C35.6992145,24.1171875 35.0087917,23.8027375 34.4794922,23.1738281 C33.9501927,22.5449187 33.6855469,21.7207082 33.6855469,20.7011719 L33.6855469,20.2148438 C33.6855469,18.7187425 34.049801,17.5468792 34.7783203,16.6992188 C35.5068396,15.8515583 36.5546807,15.4277344 37.921875,15.4277344 L38.0683594,15.4277344 Z M36.5390625,19.5 C36.2265609,19.5 35.940431,19.5878897 35.6806641,19.7636719 C35.4208971,19.939454 35.2304694,20.1738267 35.109375,20.4667969 L35.109375,20.9003906 C35.109375,21.5332063 35.2421862,22.0361309 35.5078125,22.4091797 C35.7734388,22.7822284 36.1171854,22.96875 36.5390625,22.96875 C36.9609396,22.96875 37.2949206,22.8105485 37.5410156,22.4941406 C37.7871106,22.1777328 37.9101562,21.7617213 37.9101562,21.2460938 C37.9101562,20.7304662 37.7851575,20.3105485 37.5351562,19.9863281 C37.285155,19.6621078 36.9531271,19.5 36.5390625,19.5 Z" id="16" fill="#FFFFFF"></path>
        </g>
    </g>
</svg>