<?xml version="1.0" encoding="UTF-8"?>
<svg width="145px" height="61px" viewBox="0 0 145 61" version="1.1" xmlns="http://www.w3.org/2000/svg" xmlns:xlink="http://www.w3.org/1999/xlink">
    <!-- Generator: Sketch 42 (36781) - http://www.bohemiancoding.com/sketch -->
    <title>Group 8</title>
    <desc>Created with Sketch.</desc>
    <defs>
        <rect id="path-1" x="0" y="0" width="141" height="20" rx="2"></rect>
        <filter x="-50%" y="-50%" width="200%" height="200%" filterUnits="objectBoundingBox" id="filter-2">
            <feOffset dx="0" dy="1" in="SourceAlpha" result="shadowOffsetOuter1"></feOffset>
            <feGaussianBlur stdDeviation="1" in="shadowOffsetOuter1" result="shadowBlurOuter1"></feGaussianBlur>
            <feColorMatrix values="0 0 0 0 0   0 0 0 0 0   0 0 0 0 0  0 0 0 0.5 0" type="matrix" in="shadowBlurOuter1"></feColorMatrix>
        </filter>
        <path d="M70.5,19.5 L70.5,57.5" id="path-3"></path>
        <filter x="-50%" y="-50%" width="200%" height="200%" filterUnits="objectBoundingBox" id="filter-4">
            <feMorphology radius="0.5" operator="dilate" in="SourceAlpha" result="shadowSpreadOuter1"></feMorphology>
            <feOffset dx="0" dy="1" in="shadowSpreadOuter1" result="shadowOffsetOuter1"></feOffset>
            <feMorphology radius="1" operator="erode" in="SourceAlpha" result="shadowInner"></feMorphology>
            <feOffset dx="0" dy="1" in="shadowInner" result="shadowInner"></feOffset>
            <feComposite in="shadowOffsetOuter1" in2="shadowInner" operator="out" result="shadowOffsetOuter1"></feComposite>
            <feGaussianBlur stdDeviation="0.5" in="shadowOffsetOuter1" result="shadowBlurOuter1"></feGaussianBlur>
            <feColorMatrix values="0 0 0 0 0   0 0 0 0 0   0 0 0 0 0  0 0 0 0.5 0" type="matrix" in="shadowBlurOuter1"></feColorMatrix>
        </filter>
    </defs>
    <g id="Page-1" stroke="none" stroke-width="1" fill="none" fill-rule="evenodd">
        <g id="Index" transform="translate(-71.000000, -462.000000)">
            <g id="Group-8" transform="translate(73.000000, 463.000000)">
                <g id="Rectangle-3">
                    <use fill="black" fill-opacity="1" filter="url(#filter-2)" xlink:href="#path-1"></use>
                    <use fill="#DC1E65" fill-rule="evenodd" xlink:href="#path-1"></use>
                </g>
                <path d="M32.9199219,9.83105469 C32.1158814,9.59993374 31.5307635,9.31591965 31.1645508,8.97900391 C30.798338,8.64208816 30.6152344,8.22623945 30.6152344,7.73144531 C30.6152344,7.17154668 30.8390277,6.70849792 31.2866211,6.34228516 C31.7342145,5.97607239 32.3160771,5.79296875 33.0322266,5.79296875 C33.5205103,5.79296875 33.95589,5.88736885 34.3383789,6.07617188 C34.7208678,6.2649749 35.0170888,6.52538896 35.2270508,6.85742188 C35.4370128,7.18945479 35.5419922,7.55240688 35.5419922,7.94628906 L34.5996094,7.94628906 C34.5996094,7.51659941 34.462892,7.17887493 34.1894531,6.93310547 C33.9160143,6.68733601 33.5302759,6.56445312 33.0322266,6.56445312 C32.5699847,6.56445312 32.209474,6.66617737 31.9506836,6.86962891 C31.6918932,7.07308044 31.5625,7.35546694 31.5625,7.71679688 C31.5625,8.00651187 31.6853829,8.25146384 31.9311523,8.45166016 C32.1769218,8.65185647 32.5952119,8.83496011 33.1860352,9.00097656 C33.7768584,9.16699302 34.2390934,9.35009666 34.5727539,9.55029297 C34.9064144,9.75048928 35.1538078,9.98404814 35.3149414,10.2509766 C35.476075,10.517905 35.5566406,10.8320294 35.5566406,11.1933594 C35.5566406,11.7695341 35.3320335,12.2309553 34.8828125,12.5776367 C34.4335915,12.9243181 33.8330116,13.0976562 33.0810547,13.0976562 C32.592771,13.0976562 32.1370464,13.0040699 31.7138672,12.8168945 C31.290688,12.6297191 30.9643566,12.373374 30.7348633,12.0478516 C30.5053699,11.7223291 30.390625,11.3528667 30.390625,10.9394531 L31.3330078,10.9394531 C31.3330078,11.3691428 31.4916976,11.7084948 31.809082,11.9575195 C32.1264664,12.2065442 32.5504531,12.3310547 33.0810547,12.3310547 C33.5758488,12.3310547 33.9550768,12.2301442 34.21875,12.0283203 C34.4824232,11.8264964 34.6142578,11.551434 34.6142578,11.203125 C34.6142578,10.854816 34.4921887,10.5854502 34.2480469,10.3950195 C34.003905,10.2045889 33.5612011,10.0166025 32.9199219,9.83105469 Z M40.7763672,9.71386719 L37.6953125,9.71386719 L37.6953125,12.2333984 L41.2744141,12.2333984 L41.2744141,13 L36.7578125,13 L36.7578125,5.890625 L41.2255859,5.890625 L41.2255859,6.66210938 L37.6953125,6.66210938 L37.6953125,8.94726562 L40.7763672,8.94726562 L40.7763672,9.71386719 Z M47.4511719,6.66210938 L45.1660156,6.66210938 L45.1660156,13 L44.2333984,13 L44.2333984,6.66210938 L41.953125,6.66210938 L41.953125,5.890625 L47.4511719,5.890625 L47.4511719,6.66210938 Z M53.8378906,9.67480469 C53.8378906,10.3714228 53.7207043,10.9793268 53.4863281,11.4985352 C53.251952,12.0177435 52.919924,12.4140611 52.4902344,12.6875 C52.0605447,12.9609389 51.5592477,13.0976562 50.9863281,13.0976562 C50.4264295,13.0976562 49.9300152,12.9601251 49.4970703,12.6850586 C49.0641254,12.4099921 48.7280285,12.0177434 48.4887695,11.5083008 C48.2495105,10.9988581 48.1266276,10.4088575 48.1201172,9.73828125 L48.1201172,9.22558594 C48.1201172,8.54198877 48.2389311,7.93815366 48.4765625,7.4140625 C48.7141939,6.88997134 49.0502908,6.48877092 49.4848633,6.21044922 C49.9194358,5.93212751 50.4166639,5.79296875 50.9765625,5.79296875 C51.5462268,5.79296875 52.0483377,5.93049993 52.4829102,6.20556641 C52.9174826,6.48063289 53.251952,6.87939192 53.4863281,7.40185547 C53.7207043,7.92431902 53.8378906,8.5322231 53.8378906,9.22558594 L53.8378906,9.67480469 Z M52.9052734,9.21582031 C52.9052734,8.37271714 52.7360043,7.72575095 52.3974609,7.27490234 C52.0589176,6.82405374 51.5852895,6.59863281 50.9765625,6.59863281 C50.3841116,6.59863281 49.9178077,6.82405374 49.5776367,7.27490234 C49.2374657,7.72575095 49.0625,8.3515585 49.0527344,9.15234375 L49.0527344,9.67480469 C49.0527344,10.4918661 49.2244449,11.1339495 49.5678711,11.6010742 C49.9112973,12.068199 50.3841116,12.3017578 50.9863281,12.3017578 C51.5917999,12.3017578 52.0605452,12.0812197 52.3925781,11.6401367 C52.724611,11.1990538 52.8955078,10.5667359 52.9052734,9.74316406 L52.9052734,9.21582031 Z M57.8515625,10.1240234 L56.1816406,10.1240234 L56.1816406,13 L55.2392578,13 L55.2392578,5.890625 L57.5927734,5.890625 C58.3935587,5.890625 59.0096007,6.07291484 59.440918,6.4375 C59.8722352,6.80208516 60.0878906,7.33267881 60.0878906,8.02929688 C60.0878906,8.47200742 59.9682629,8.85774575 59.7290039,9.18652344 C59.4897449,9.51530112 59.1569032,9.76106689 58.7304688,9.92382812 L60.4003906,12.9414062 L60.4003906,13 L59.3945312,13 L57.8515625,10.1240234 Z M56.1816406,9.35742188 L57.6220703,9.35742188 C58.0875674,9.35742188 58.4578437,9.23698037 58.7329102,8.99609375 C59.0079766,8.75520713 59.1455078,8.43294473 59.1455078,8.02929688 C59.1455078,7.58984155 59.014487,7.25293086 58.7524414,7.01855469 C58.4903958,6.78417852 58.1119816,6.6653646 57.6171875,6.66210938 L56.1816406,6.66210938 L56.1816406,9.35742188 Z M69.3457031,9.67480469 C69.3457031,10.3714228 69.2285168,10.9793268 68.9941406,11.4985352 C68.7597645,12.0177435 68.4277365,12.4140611 67.9980469,12.6875 C67.5683572,12.9609389 67.0670602,13.0976562 66.4941406,13.0976562 C65.934242,13.0976562 65.4378277,12.9601251 65.0048828,12.6850586 C64.5719379,12.4099921 64.235841,12.0177434 63.996582,11.5083008 C63.757323,10.9988581 63.6344401,10.4088575 63.6279297,9.73828125 L63.6279297,9.22558594 C63.6279297,8.54198877 63.7467436,7.93815366 63.984375,7.4140625 C64.2220064,6.88997134 64.5581033,6.48877092 64.9926758,6.21044922 C65.4272483,5.93212751 65.9244764,5.79296875 66.484375,5.79296875 C67.0540393,5.79296875 67.5561502,5.93049993 67.9907227,6.20556641 C68.4252951,6.48063289 68.7597645,6.87939192 68.9941406,7.40185547 C69.2285168,7.92431902 69.3457031,8.5322231 69.3457031,9.22558594 L69.3457031,9.67480469 Z M68.4130859,9.21582031 C68.4130859,8.37271714 68.2438168,7.72575095 67.9052734,7.27490234 C67.5667301,6.82405374 67.093102,6.59863281 66.484375,6.59863281 C65.8919241,6.59863281 65.4256202,6.82405374 65.0854492,7.27490234 C64.7452782,7.72575095 64.5703125,8.3515585 64.5605469,9.15234375 L64.5605469,9.67480469 C64.5605469,10.4918661 64.7322574,11.1339495 65.0756836,11.6010742 C65.4191098,12.068199 65.8919241,12.3017578 66.4941406,12.3017578 C67.0996124,12.3017578 67.5683577,12.0812197 67.9003906,11.6401367 C68.2324235,11.1990538 68.4033203,10.5667359 68.4130859,9.74316406 L68.4130859,9.21582031 Z M73.359375,10.1240234 L71.6894531,10.1240234 L71.6894531,13 L70.7470703,13 L70.7470703,5.890625 L73.1005859,5.890625 C73.9013712,5.890625 74.5174132,6.07291484 74.9487305,6.4375 C75.3800477,6.80208516 75.5957031,7.33267881 75.5957031,8.02929688 C75.5957031,8.47200742 75.4760754,8.85774575 75.2368164,9.18652344 C74.9975574,9.51530112 74.6647157,9.76106689 74.2382812,9.92382812 L75.9082031,12.9414062 L75.9082031,13 L74.9023438,13 L73.359375,10.1240234 Z M71.6894531,9.35742188 L73.1298828,9.35742188 C73.5953799,9.35742188 73.9656562,9.23698037 74.2407227,8.99609375 C74.5157891,8.75520713 74.6533203,8.43294473 74.6533203,8.02929688 C74.6533203,7.58984155 74.5222995,7.25293086 74.2602539,7.01855469 C73.9982083,6.78417852 73.6197941,6.6653646 73.125,6.66210938 L71.6894531,6.66210938 L71.6894531,9.35742188 Z M82.3388672,9.67480469 C82.3388672,10.3616571 82.2298188,10.9532853 82.0117188,11.449707 C81.7936187,11.9461288 81.4876322,12.3343085 81.09375,12.6142578 L82.3632812,13.6103516 L81.7236328,14.2011719 L80.2246094,13.0097656 C79.9902332,13.0683597 79.7428398,13.0976562 79.4824219,13.0976562 C78.9225232,13.0976562 78.4261089,12.9601251 77.9931641,12.6850586 C77.5602192,12.4099921 77.2241223,12.0177434 76.9848633,11.5083008 C76.7456043,10.9988581 76.6227214,10.4088575 76.6162109,9.73828125 L76.6162109,9.22558594 C76.6162109,8.54198877 76.7350249,7.93815366 76.9726562,7.4140625 C77.2102876,6.88997134 77.5463845,6.48877092 77.980957,6.21044922 C78.4155295,5.93212751 78.9127576,5.79296875 79.4726562,5.79296875 C80.0455758,5.79296875 80.5493142,5.93131372 80.9838867,6.20800781 C81.4184592,6.4847019 81.7529285,6.88264714 81.9873047,7.40185547 C82.2216809,7.92106379 82.3388672,8.52734028 82.3388672,9.22070312 L82.3388672,9.67480469 Z M81.4013672,9.21582031 C81.4013672,8.37922759 81.2345394,7.73388899 80.9008789,7.27978516 C80.5672184,6.82568132 80.0911489,6.59863281 79.4726562,6.59863281 C78.8834606,6.59863281 78.4187843,6.82405374 78.0786133,7.27490234 C77.7384423,7.72575095 77.5634766,8.3515585 77.5537109,9.15234375 L77.5537109,9.67480469 C77.5537109,10.4886108 77.7237939,11.1298805 78.0639648,11.5986328 C78.4041358,12.0673852 78.8769501,12.3017578 79.4824219,12.3017578 C80.0878937,12.3017578 80.556639,12.0812197 80.8886719,11.6401367 C81.2207048,11.1990538 81.3916015,10.5667359 81.4013672,9.74316406 L81.4013672,9.21582031 Z M88.7890625,5.890625 L88.7890625,10.7246094 C88.7858073,11.3951856 88.5750346,11.9436828 88.1567383,12.3701172 C87.7384419,12.7965516 87.1712275,13.035807 86.4550781,13.0878906 L86.2060547,13.0976562 C85.428056,13.0976562 84.807945,12.8876974 84.3457031,12.4677734 C83.8834612,12.0478495 83.6490886,11.4700558 83.6425781,10.734375 L83.6425781,5.890625 L84.5703125,5.890625 L84.5703125,10.7050781 C84.5703125,11.2194036 84.7119126,11.6189764 84.9951172,11.9038086 C85.2783217,12.1886407 85.6819635,12.3310547 86.2060547,12.3310547 C86.7366563,12.3310547 87.1427395,12.1894545 87.4243164,11.90625 C87.7058933,11.6230455 87.8466797,11.2242864 87.8466797,10.7099609 L87.8466797,5.890625 L88.7890625,5.890625 Z M91.2744141,13 L90.3369141,13 L90.3369141,5.890625 L91.2744141,5.890625 L91.2744141,13 Z M91.2451172,3.9375 L92.3388672,3.9375 L91.0302734,5.37304688 L90.3027344,5.37304688 L91.2451172,3.9375 Z M92.9882812,13 L92.9882812,5.890625 L94.9951172,5.890625 C95.6136099,5.890625 96.1604794,6.02734238 96.6357422,6.30078125 C97.111005,6.57422012 97.478026,6.96321362 97.7368164,7.46777344 C97.9956068,7.97233325 98.1266276,8.55175454 98.1298828,9.20605469 L98.1298828,9.66015625 C98.1298828,10.3307325 98.0004896,10.9182917 97.7416992,11.4228516 C97.4829089,11.9274114 97.1134464,12.3147773 96.6333008,12.5849609 C96.1531552,12.8551446 95.5940787,12.9934896 94.9560547,13 L92.9882812,13 Z M93.9257812,6.66210938 L93.9257812,12.2333984 L94.9121094,12.2333984 C95.6347692,12.2333984 96.1971009,12.0087913 96.5991211,11.5595703 C97.0011413,11.1103493 97.2021484,10.4707073 97.2021484,9.640625 L97.2021484,9.22558594 C97.2021484,8.41829023 97.0125344,7.7908551 96.6333008,7.34326172 C96.2540671,6.89566833 95.7161493,6.66861982 95.0195312,6.66210938 L93.9257812,6.66210938 Z M103.564453,9.71386719 L100.483398,9.71386719 L100.483398,12.2333984 L104.0625,12.2333984 L104.0625,13 L99.5458984,13 L99.5458984,5.890625 L104.013672,5.890625 L104.013672,6.66210938 L100.483398,6.66210938 L100.483398,8.94726562 L103.564453,8.94726562 L103.564453,9.71386719 Z M109.155273,11.1445312 L106.176758,11.1445312 L105.507812,13 L104.541016,13 L107.255859,5.890625 L108.076172,5.890625 L110.795898,13 L109.833984,13 L109.155273,11.1445312 Z M106.459961,10.3730469 L108.876953,10.3730469 L107.666016,7.04785156 L106.459961,10.3730469 Z" id="SETOR-ORQUÃDEA" fill="#FFFFFF"></path>
                <g id="Line">
                    <use fill="black" fill-opacity="1" filter="url(#filter-4)" xlink:href="#path-3"></use>
                    <use stroke="#DC1E65" stroke-width="1" stroke-linecap="square" stroke-dasharray="2" xlink:href="#path-3"></use>
                </g>
            </g>
        </g>
    </g>
</svg>