<?xml version="1.0" encoding="UTF-8"?>
<svg width="54px" height="73px" viewBox="0 0 54 73" version="1.1" xmlns="http://www.w3.org/2000/svg" xmlns:xlink="http://www.w3.org/1999/xlink">
    <!-- Generator: Sketch 42 (36781) - http://www.bohemiancoding.com/sketch -->
    <title>Group 46</title>
    <desc>Created with Sketch.</desc>
    <defs>
        <path d="M0.686523438,51 L0.686523438,42.46875 L3.61035156,42.46875 C4.57520014,42.46875 5.30956779,42.6621074 5.81347656,43.0488281 C6.31738533,43.4355488 6.56933594,44.0117149 6.56933594,44.7773438 C6.56933594,45.1679707 6.46386824,45.5195297 6.25292969,45.8320312 C6.04199113,46.1445328 5.73340047,46.3867179 5.32714844,46.5585938 C5.78808824,46.6835944 6.14452999,46.9189436 6.39648438,47.2646484 C6.64843876,47.6103533 6.77441406,48.0253882 6.77441406,48.5097656 C6.77441406,49.3105509 6.51758069,49.9257791 6.00390625,50.3554688 C5.49023181,50.7851584 4.7548876,51 3.79785156,51 L0.686523438,51 Z M2.16894531,47.1503906 L2.16894531,49.8164062 L3.81542969,49.8164062 C4.28027576,49.8164062 4.64355338,49.701173 4.90527344,49.4707031 C5.1669935,49.2402332 5.29785156,48.9199239 5.29785156,48.5097656 C5.29785156,47.6230424 4.84473109,47.169922 3.93847656,47.1503906 L2.16894531,47.1503906 Z M2.16894531,46.0605469 L3.62207031,46.0605469 C4.08301012,46.0605469 4.44335808,45.9560557 4.703125,45.7470703 C4.96289192,45.5380849 5.09277344,45.2421894 5.09277344,44.859375 C5.09277344,44.4374979 4.97265745,44.1328134 4.73242188,43.9453125 C4.4921863,43.7578116 4.1181666,43.6640625 3.61035156,43.6640625 L2.16894531,43.6640625 L2.16894531,46.0605469 Z M7.85253906,47.7714844 C7.85253906,47.1503875 7.97558471,46.5908228 8.22167969,46.0927734 C8.46777467,45.5947241 8.81347434,45.2119154 9.25878906,44.9443359 C9.70410379,44.6767565 10.2158174,44.5429688 10.7939453,44.5429688 C11.6494183,44.5429688 12.3437473,44.8183566 12.8769531,45.3691406 C13.4101589,45.9199246 13.698242,46.6503861 13.7412109,47.5605469 L13.7470703,47.8945312 C13.7470703,48.5195344 13.6269543,49.0781225 13.3867188,49.5703125 C13.1464832,50.0625025 12.8027366,50.443358 12.3554688,50.7128906 C11.9082009,50.9824232 11.3916045,51.1171875 10.8056641,51.1171875 C9.91112834,51.1171875 9.19531519,50.8193389 8.65820312,50.2236328 C8.12109106,49.6279267 7.85253906,48.8339893 7.85253906,47.8417969 L7.85253906,47.7714844 Z M9.27636719,47.8945312 C9.27636719,48.5468783 9.41113146,49.0576153 9.68066406,49.4267578 C9.95019666,49.7959003 10.3251929,49.9804688 10.8056641,49.9804688 C11.2861352,49.9804688 11.6601549,49.7929706 11.9277344,49.4179688 C12.1953138,49.0429669 12.3291016,48.4941442 12.3291016,47.7714844 C12.3291016,47.1308562 12.1914076,46.6230487 11.9160156,46.2480469 C11.6406236,45.873045 11.2666039,45.6855469 10.7939453,45.6855469 C10.3290992,45.6855469 9.9599623,45.8701153 9.68652344,46.2392578 C9.41308457,46.6084003 9.27636719,47.1601526 9.27636719,47.8945312 Z M20.5146484,47.8945312 C20.5146484,48.8789112 20.2949241,49.6621065 19.8554688,50.2441406 C19.4160134,50.8261748 18.8115273,51.1171875 18.0419922,51.1171875 C17.299801,51.1171875 16.7216818,50.8496121 16.3076172,50.3144531 L16.2373047,51 L14.9482422,51 L14.9482422,42 L16.3720703,42 L16.3720703,45.2695312 C16.7822286,44.7851538 17.3349575,44.5429688 18.0302734,44.5429688 C18.8037148,44.5429688 19.4111306,44.8300753 19.8525391,45.4042969 C20.2939475,45.9785185 20.5146484,46.7812448 20.5146484,47.8125 L20.5146484,47.8945312 Z M19.0908203,47.7714844 C19.0908203,47.0839809 18.9697278,46.5683611 18.7275391,46.2246094 C18.4853504,45.8808577 18.1337914,45.7089844 17.6728516,45.7089844 C17.055661,45.7089844 16.6220716,45.9785129 16.3720703,46.5175781 L16.3720703,49.1308594 C16.6259778,49.6816434 17.0634735,49.9570312 17.6845703,49.9570312 C18.129885,49.9570312 18.4736316,49.7910173 18.7158203,49.4589844 C18.958009,49.1269515 19.0830078,48.6250034 19.0908203,47.953125 L19.0908203,47.7714844 Z M29.7490234,47.3847656 L26.3154297,47.3847656 L26.3154297,51 L24.8330078,51 L24.8330078,42.46875 L30.2529297,42.46875 L30.2529297,43.6640625 L26.3154297,43.6640625 L26.3154297,46.2011719 L29.7490234,46.2011719 L29.7490234,47.3847656 Z M32.8017578,51 L31.3779297,51 L31.3779297,44.6601562 L32.8017578,44.6601562 L32.8017578,51 Z M31.2900391,43.0136719 C31.2900391,42.7949208 31.3593743,42.613282 31.4980469,42.46875 C31.6367194,42.324218 31.8349596,42.2519531 32.0927734,42.2519531 C32.3505872,42.2519531 32.549804,42.324218 32.6904297,42.46875 C32.8310554,42.613282 32.9013672,42.7949208 32.9013672,43.0136719 C32.9013672,43.2285167 32.8310554,43.4072258 32.6904297,43.5498047 C32.549804,43.6923835 32.3505872,43.7636719 32.0927734,43.7636719 C31.8349596,43.7636719 31.6367194,43.6923835 31.4980469,43.5498047 C31.3593743,43.4072258 31.2900391,43.2285167 31.2900391,43.0136719 Z M35.8662109,51 L34.4423828,51 L34.4423828,42 L35.8662109,42 L35.8662109,51 Z M38.8193359,45.3515625 C39.284182,44.8124973 39.8720668,44.5429688 40.5830078,44.5429688 C41.9345771,44.5429688 42.6201171,45.3144454 42.6396484,46.8574219 L42.6396484,51 L41.2158203,51 L41.2158203,46.9101562 C41.2158203,46.4726541 41.1210947,46.1630868 40.9316406,45.9814453 C40.7421866,45.7998038 40.463869,45.7089844 40.0966797,45.7089844 C39.5263643,45.7089844 39.1005873,45.9628881 38.8193359,46.4707031 L38.8193359,51 L37.3955078,51 L37.3955078,42 L38.8193359,42 L38.8193359,45.3515625 Z M43.8115234,47.7714844 C43.8115234,47.1503875 43.9345691,46.5908228 44.1806641,46.0927734 C44.426759,45.5947241 44.7724587,45.2119154 45.2177734,44.9443359 C45.6630882,44.6767565 46.1748018,44.5429688 46.7529297,44.5429688 C47.6084027,44.5429688 48.3027317,44.8183566 48.8359375,45.3691406 C49.3691433,45.9199246 49.6572263,46.6503861 49.7001953,47.5605469 L49.7060547,47.8945312 C49.7060547,48.5195344 49.5859387,49.0781225 49.3457031,49.5703125 C49.1054675,50.0625025 48.761721,50.443358 48.3144531,50.7128906 C47.8671853,50.9824232 47.3505889,51.1171875 46.7646484,51.1171875 C45.8701127,51.1171875 45.1542996,50.8193389 44.6171875,50.2236328 C44.0800754,49.6279267 43.8115234,48.8339893 43.8115234,47.8417969 L43.8115234,47.7714844 Z M45.2353516,47.8945312 C45.2353516,48.5468783 45.3701158,49.0576153 45.6396484,49.4267578 C45.909181,49.7959003 46.2841773,49.9804688 46.7646484,49.9804688 C47.2451196,49.9804688 47.6191393,49.7929706 47.8867188,49.4179688 C48.1542982,49.0429669 48.2880859,48.4941442 48.2880859,47.7714844 C48.2880859,47.1308562 48.150392,46.6230487 47.875,46.2480469 C47.599608,45.873045 47.2255883,45.6855469 46.7529297,45.6855469 C46.2880836,45.6855469 45.9189467,45.8701153 45.6455078,46.2392578 C45.3720689,46.6084003 45.2353516,47.1601526 45.2353516,47.8945312 Z M15.2324219,56.28125 L14.265625,56.28125 L14.265625,65.7910156 L15.2324219,65.7910156 L15.2324219,66.8984375 L12.8417969,66.8984375 L12.8417969,55.1679688 L15.2324219,55.1679688 L15.2324219,56.28125 Z M24.6601562,57.2597656 L21.25,65 L19.7558594,65 L23.1601562,57.6113281 L18.7480469,57.6113281 L18.7480469,56.46875 L24.6601562,56.46875 L24.6601562,57.2597656 Z M29.6816406,65 C29.6191403,64.8789056 29.5644534,64.681642 29.5175781,64.4082031 C29.0644509,64.8808617 28.5097689,65.1171875 27.8535156,65.1171875 C27.2167937,65.1171875 26.6972676,64.9355487 26.2949219,64.5722656 C25.8925761,64.2089826 25.6914062,63.7597683 25.6914062,63.2246094 C25.6914062,62.5488247 25.9423803,62.0302752 26.4443359,61.6689453 C26.9462916,61.3076154 27.6640578,61.1269531 28.5976562,61.1269531 L29.4707031,61.1269531 L29.4707031,60.7109375 C29.4707031,60.3828109 29.3789072,60.1201182 29.1953125,59.9228516 C29.0117178,59.725585 28.7324237,59.6269531 28.3574219,59.6269531 C28.0332015,59.6269531 27.7675792,59.708007 27.5605469,59.8701172 C27.3535146,60.0322274 27.25,60.23828 27.25,60.4882812 L25.8261719,60.4882812 C25.8261719,60.1406233 25.9414051,59.8154312 26.171875,59.5126953 C26.4023449,59.2099594 26.7158183,58.9726571 27.1123047,58.8007812 C27.508791,58.6289054 27.9511694,58.5429688 28.4394531,58.5429688 C29.1816443,58.5429688 29.7734353,58.7294903 30.2148438,59.1025391 C30.6562522,59.4755878 30.8828124,59.9999966 30.8945312,60.6757812 L30.8945312,63.5351562 C30.8945312,64.1054716 30.9746086,64.5605452 31.1347656,64.9003906 L31.1347656,65 L29.6816406,65 Z M28.1171875,63.9746094 C28.3984389,63.9746094 28.6630847,63.9062507 28.9111328,63.7695312 C29.1591809,63.6328118 29.3457025,63.4492199 29.4707031,63.21875 L29.4707031,62.0234375 L28.703125,62.0234375 C28.1757786,62.0234375 27.7792982,62.1152335 27.5136719,62.2988281 C27.2480455,62.4824228 27.1152344,62.7421858 27.1152344,63.078125 C27.1152344,63.3515639 27.2060538,63.5693351 27.3876953,63.7314453 C27.5693368,63.8935555 27.8124985,63.9746094 28.1171875,63.9746094 Z M34.7148438,55.1679688 L37.1171875,55.1679688 L37.1171875,66.8984375 L34.7148438,66.8984375 L34.7148438,65.7910156 L35.6933594,65.7910156 L35.6933594,56.28125 L34.7148438,56.28125 L34.7148438,55.1679688 Z" id="path-1"></path>
        <filter x="-50%" y="-50%" width="200%" height="200%" filterUnits="objectBoundingBox" id="filter-2">
            <feOffset dx="0" dy="2" in="SourceAlpha" result="shadowOffsetOuter1"></feOffset>
            <feGaussianBlur stdDeviation="1" in="shadowOffsetOuter1" result="shadowBlurOuter1"></feGaussianBlur>
            <feColorMatrix values="0 0 0 0 0   0 0 0 0 0   0 0 0 0 0  0 0 0 0.5 0" type="matrix" in="shadowBlurOuter1"></feColorMatrix>
        </filter>
        <circle id="path-3" cx="20" cy="20" r="20"></circle>
        <filter x="-50%" y="-50%" width="200%" height="200%" filterUnits="objectBoundingBox" id="filter-4">
            <feOffset dx="0" dy="2" in="SourceAlpha" result="shadowOffsetOuter1"></feOffset>
            <feGaussianBlur stdDeviation="2" in="shadowOffsetOuter1" result="shadowBlurOuter1"></feGaussianBlur>
            <feColorMatrix values="0 0 0 0 0   0 0 0 0 0   0 0 0 0 0  0 0 0 0.5 0" type="matrix" in="shadowBlurOuter1"></feColorMatrix>
        </filter>
    </defs>
    <g id="Page-1" stroke="none" stroke-width="1" fill="none" fill-rule="evenodd">
        <g id="Group-46" transform="translate(2.000000, 2.000000)">
            <g id="Bob-Filho-[-7a-]">
                <use fill="black" fill-opacity="1" filter="url(#filter-2)" xlink:href="#path-1"></use>
                <use fill="#FFFFFF" fill-rule="evenodd" xlink:href="#path-1"></use>
            </g>
            <g id="Group-5" transform="translate(5.000000, 0.000000)">
                <g id="Group-2">
                    <g id="Group" opacity="0.3">
                        <g id="Oval-6">
                            <use fill="black" fill-opacity="1" filter="url(#filter-4)" xlink:href="#path-3"></use>
                            <use fill="#FFFFFF" fill-rule="evenodd" xlink:href="#path-3"></use>
                        </g>
                    </g>
                    <circle id="Oval-5" stroke="#FFFFFF" stroke-width="5" fill="#DC1E65" cx="20" cy="20" r="8"></circle>
                </g>
            </g>
            <ellipse id="Oval-3" fill="#DC1E65" cx="25" cy="20" rx="13" ry="13"></ellipse>
            <ellipse id="Oval-3" fill="#DC1E65" cx="25" cy="20" rx="13" ry="13"></ellipse>
            <path d="M22.6738281,24 L21.2558594,24 L21.2558594,17.1503906 L19.1640625,17.8652344 L19.1640625,16.6640625 L22.4921875,15.4394531 L22.6738281,15.4394531 L22.6738281,24 Z M29.6757812,20.4316406 C29.1992164,20.9355494 28.6425813,21.1875 28.0058594,21.1875 C27.2558556,21.1875 26.6582054,20.9248073 26.2128906,20.3994141 C25.7675759,19.8740208 25.5449219,19.183598 25.5449219,18.328125 C25.5449219,17.7656222 25.658202,17.2558617 25.8847656,16.7988281 C26.1113293,16.3417946 26.4335917,15.9863294 26.8515625,15.7324219 C27.2695333,15.4785144 27.7539035,15.3515625 28.3046875,15.3515625 C29.1640668,15.3515625 29.8457006,15.6718718 30.3496094,16.3125 C30.8535181,16.9531282 31.1054688,17.8105415 31.1054688,18.8847656 L31.1054688,19.2832031 C31.1054688,20.8222733 30.757816,21.9960897 30.0625,22.8046875 C29.367184,23.6132853 28.330085,24.0234374 26.9511719,24.0351562 L26.78125,24.0351562 L26.78125,22.8574219 L26.9863281,22.8574219 C27.8261761,22.8457031 28.4707009,22.6435567 28.9199219,22.2509766 C29.3691429,21.8583965 29.6210935,21.2519572 29.6757812,20.4316406 Z M28.3046875,20.0742188 C28.5898452,20.0742188 28.8574206,19.9921883 29.1074219,19.828125 C29.3574231,19.6640617 29.5507806,19.4375014 29.6875,19.1484375 L29.6875,18.5917969 C29.6875,17.9628875 29.558595,17.4570332 29.3007812,17.0742188 C29.0429675,16.6914043 28.7089864,16.5 28.2988281,16.5 C27.8886698,16.5 27.5615247,16.6689436 27.3173828,17.0068359 C27.073241,17.3447283 26.9511719,17.7714818 26.9511719,18.2871094 C26.9511719,18.8222683 27.0742175,19.2539046 27.3203125,19.5820312 C27.5664075,19.9101579 27.8945292,20.0742188 28.3046875,20.0742188 Z" id="19" fill="#FFFFFF"></path>
        </g>
    </g>
</svg>