<?xml version="1.0" encoding="UTF-8"?>
<svg width="78px" height="74px" viewBox="0 0 78 74" version="1.1" xmlns="http://www.w3.org/2000/svg" xmlns:xlink="http://www.w3.org/1999/xlink">
    <!-- Generator: Sketch 42 (36781) - http://www.bohemiancoding.com/sketch -->
    <title>Group 52</title>
    <desc>Created with Sketch.</desc>
    <defs>
        <path d="M2.89746094,42.46875 L5.35839844,49.0078125 L7.81347656,42.46875 L9.72949219,42.46875 L9.72949219,51 L8.25292969,51 L8.25292969,48.1875 L8.39941406,44.4257812 L5.87988281,51 L4.81933594,51 L2.30566406,44.4316406 L2.45214844,48.1875 L2.45214844,51 L0.975585938,51 L0.975585938,42.46875 L2.89746094,42.46875 Z M15.1318359,51 C15.0693356,50.8789056 15.0146487,50.681642 14.9677734,50.4082031 C14.5146462,50.8808617 13.9599642,51.1171875 13.3037109,51.1171875 C12.666989,51.1171875 12.1474629,50.9355487 11.7451172,50.5722656 C11.3427714,50.2089826 11.1416016,49.7597683 11.1416016,49.2246094 C11.1416016,48.5488247 11.3925756,48.0302752 11.8945312,47.6689453 C12.3964869,47.3076154 13.1142531,47.1269531 14.0478516,47.1269531 L14.9208984,47.1269531 L14.9208984,46.7109375 C14.9208984,46.3828109 14.8291025,46.1201182 14.6455078,45.9228516 C14.4619131,45.725585 14.1826191,45.6269531 13.8076172,45.6269531 C13.4833968,45.6269531 13.2177745,45.708007 13.0107422,45.8701172 C12.8037099,46.0322274 12.7001953,46.23828 12.7001953,46.4882812 L11.2763672,46.4882812 C11.2763672,46.1406233 11.3916004,45.8154312 11.6220703,45.5126953 C11.8525402,45.2099594 12.1660136,44.9726571 12.5625,44.8007812 C12.9589864,44.6289054 13.4013647,44.5429688 13.8896484,44.5429688 C14.6318396,44.5429688 15.2236306,44.7294903 15.6650391,45.1025391 C16.1064475,45.4755878 16.3330078,45.9999966 16.3447266,46.6757812 L16.3447266,49.5351562 C16.3447266,50.1054716 16.4248039,50.5605452 16.5849609,50.9003906 L16.5849609,51 L15.1318359,51 Z M13.5673828,49.9746094 C13.8486342,49.9746094 14.11328,49.9062507 14.3613281,49.7695312 C14.6093762,49.6328118 14.7958978,49.4492199 14.9208984,49.21875 L14.9208984,48.0234375 L14.1533203,48.0234375 C13.6259739,48.0234375 13.2294935,48.1152335 12.9638672,48.2988281 C12.6982409,48.4824228 12.5654297,48.7421858 12.5654297,49.078125 C12.5654297,49.3515639 12.6562491,49.5693351 12.8378906,49.7314453 C13.0195322,49.8935555 13.2626938,49.9746094 13.5673828,49.9746094 Z M21.1552734,45.9609375 C20.9677725,45.9296873 20.7744151,45.9140625 20.5751953,45.9140625 C19.9228483,45.9140625 19.4833996,46.16406 19.2568359,46.6640625 L19.2568359,51 L17.8330078,51 L17.8330078,44.6601562 L19.1923828,44.6601562 L19.2275391,45.3691406 C19.5712908,44.8183566 20.0478485,44.5429688 20.6572266,44.5429688 C20.8603526,44.5429688 21.0283196,44.5703122 21.1611328,44.625 L21.1552734,45.9609375 Z M23.5693359,51 L22.1455078,51 L22.1455078,44.6601562 L23.5693359,44.6601562 L23.5693359,51 Z M22.0576172,43.0136719 C22.0576172,42.7949208 22.1269524,42.613282 22.265625,42.46875 C22.4042976,42.324218 22.6025378,42.2519531 22.8603516,42.2519531 C23.1181654,42.2519531 23.3173821,42.324218 23.4580078,42.46875 C23.5986335,42.613282 23.6689453,42.7949208 23.6689453,43.0136719 C23.6689453,43.2285167 23.5986335,43.4072258 23.4580078,43.5498047 C23.3173821,43.6923835 23.1181654,43.7636719 22.8603516,43.7636719 C22.6025378,43.7636719 22.4042976,43.6923835 22.265625,43.5498047 C22.1269524,43.4072258 22.0576172,43.2285167 22.0576172,43.0136719 Z M26.4580078,44.6601562 L26.4990234,45.3222656 C26.9443382,44.8027318 27.5537071,44.5429688 28.3271484,44.5429688 C29.1748089,44.5429688 29.7548813,44.8671843 30.0673828,45.515625 C30.5283226,44.8671843 31.1767536,44.5429688 32.0126953,44.5429688 C32.7119176,44.5429688 33.2324202,44.7363262 33.5742188,45.1230469 C33.9160173,45.5097676 34.0908203,46.0800744 34.0986328,46.8339844 L34.0986328,51 L32.6748047,51 L32.6748047,46.875 C32.6748047,46.4726542 32.5869149,46.1777353 32.4111328,45.9902344 C32.2353507,45.8027334 31.944338,45.7089844 31.5380859,45.7089844 C31.2138656,45.7089844 30.9492198,45.7958976 30.7441406,45.9697266 C30.5390615,46.1435556 30.3955082,46.3710923 30.3134766,46.6523438 L30.3193359,51 L28.8955078,51 L28.8955078,46.828125 C28.8759765,46.0820275 28.4951209,45.7089844 27.7529297,45.7089844 C27.1826143,45.7089844 26.7783215,45.9414039 26.5400391,46.40625 L26.5400391,51 L25.1162109,51 L25.1162109,44.6601562 L26.4580078,44.6601562 Z M41.1240234,47.8945312 C41.1240234,48.8789112 40.9042991,49.6621065 40.4648438,50.2441406 C40.0253884,50.8261748 39.4209023,51.1171875 38.6513672,51.1171875 C37.909176,51.1171875 37.3310568,50.8496121 36.9169922,50.3144531 L36.8466797,51 L35.5576172,51 L35.5576172,42 L36.9814453,42 L36.9814453,45.2695312 C37.3916036,44.7851538 37.9443325,44.5429688 38.6396484,44.5429688 C39.4130898,44.5429688 40.0205056,44.8300753 40.4619141,45.4042969 C40.9033225,45.9785185 41.1240234,46.7812448 41.1240234,47.8125 L41.1240234,47.8945312 Z M39.7001953,47.7714844 C39.7001953,47.0839809 39.5791028,46.5683611 39.3369141,46.2246094 C39.0947254,45.8808577 38.7431664,45.7089844 38.2822266,45.7089844 C37.665036,45.7089844 37.2314466,45.9785129 36.9814453,46.5175781 L36.9814453,49.1308594 C37.2353528,49.6816434 37.6728485,49.9570312 38.2939453,49.9570312 C38.73926,49.9570312 39.0830066,49.7910173 39.3251953,49.4589844 C39.567384,49.1269515 39.6923828,48.6250034 39.7001953,47.953125 L39.7001953,47.7714844 Z M42.0498047,47.7714844 C42.0498047,47.1503875 42.1728503,46.5908228 42.4189453,46.0927734 C42.6650403,45.5947241 43.01074,45.2119154 43.4560547,44.9443359 C43.9013694,44.6767565 44.413083,44.5429688 44.9912109,44.5429688 C45.846684,44.5429688 46.541013,44.8183566 47.0742188,45.3691406 C47.6074245,45.9199246 47.8955076,46.6503861 47.9384766,47.5605469 L47.9443359,47.8945312 C47.9443359,48.5195344 47.82422,49.0781225 47.5839844,49.5703125 C47.3437488,50.0625025 47.0000022,50.443358 46.5527344,50.7128906 C46.1054665,50.9824232 45.5888701,51.1171875 45.0029297,51.1171875 C44.108394,51.1171875 43.3925808,50.8193389 42.8554688,50.2236328 C42.3183567,49.6279267 42.0498047,48.8339893 42.0498047,47.8417969 L42.0498047,47.7714844 Z M43.4736328,47.8945312 C43.4736328,48.5468783 43.6083971,49.0576153 43.8779297,49.4267578 C44.1474623,49.7959003 44.5224585,49.9804688 45.0029297,49.9804688 C45.4834008,49.9804688 45.8574205,49.7929706 46.125,49.4179688 C46.3925795,49.0429669 46.5263672,48.4941442 46.5263672,47.7714844 C46.5263672,47.1308562 46.3886733,46.6230487 46.1132812,46.2480469 C45.8378892,45.873045 45.4638696,45.6855469 44.9912109,45.6855469 C44.5263649,45.6855469 44.1572279,45.8701153 43.8837891,46.2392578 C43.6103502,46.6084003 43.4736328,47.1601526 43.4736328,47.8945312 Z M50.4697266,44.6601562 L50.5107422,45.3925781 C50.9794945,44.826169 51.5947228,44.5429688 52.3564453,44.5429688 C53.6767644,44.5429688 54.3486327,45.2988206 54.3720703,46.8105469 L54.3720703,51 L52.9482422,51 L52.9482422,46.8925781 C52.9482422,46.4902324 52.861329,46.1923838 52.6875,45.9990234 C52.513671,45.8056631 52.2294942,45.7089844 51.8349609,45.7089844 C51.2607393,45.7089844 50.8330092,45.9687474 50.5517578,46.4882812 L50.5517578,51 L49.1279297,51 L49.1279297,44.6601562 L50.4697266,44.6601562 Z M55.5556641,47.7832031 C55.5556641,46.8066357 55.7822243,46.0224639 56.2353516,45.4306641 C56.6884788,44.8388642 57.2958946,44.5429688 58.0576172,44.5429688 C58.7294955,44.5429688 59.2724589,44.7773414 59.6865234,45.2460938 L59.6865234,42 L61.1103516,42 L61.1103516,51 L59.8212891,51 L59.7509766,50.34375 C59.3251932,50.8593776 58.7568395,51.1171875 58.0458984,51.1171875 C57.3037072,51.1171875 56.7031273,50.8183624 56.2441406,50.2207031 C55.785154,49.6230439 55.5556641,48.810552 55.5556641,47.7832031 Z M56.9794922,47.90625 C56.9794922,48.5507845 57.1035144,49.0537091 57.3515625,49.4150391 C57.5996106,49.776369 57.9521462,49.9570312 58.4091797,49.9570312 C58.9912138,49.9570312 59.4169908,49.6972682 59.6865234,49.1777344 L59.6865234,46.4707031 C59.4248034,45.9628881 59.0029326,45.7089844 58.4208984,45.7089844 C57.9599586,45.7089844 57.6044934,45.8915997 57.3544922,46.2568359 C57.1044909,46.6220721 56.9794922,47.1718713 56.9794922,47.90625 Z M62.3291016,47.7714844 C62.3291016,47.1503875 62.4521472,46.5908228 62.6982422,46.0927734 C62.9443372,45.5947241 63.2900368,45.2119154 63.7353516,44.9443359 C64.1806663,44.6767565 64.6923799,44.5429688 65.2705078,44.5429688 C66.1259808,44.5429688 66.8203098,44.8183566 67.3535156,45.3691406 C67.8867214,45.9199246 68.1748045,46.6503861 68.2177734,47.5605469 L68.2236328,47.8945312 C68.2236328,48.5195344 68.1035168,49.0781225 67.8632812,49.5703125 C67.6230457,50.0625025 67.2792991,50.443358 66.8320312,50.7128906 C66.3847634,50.9824232 65.868167,51.1171875 65.2822266,51.1171875 C64.3876908,51.1171875 63.6718777,50.8193389 63.1347656,50.2236328 C62.5976536,49.6279267 62.3291016,48.8339893 62.3291016,47.8417969 L62.3291016,47.7714844 Z M63.7529297,47.8945312 C63.7529297,48.5468783 63.887694,49.0576153 64.1572266,49.4267578 C64.4267592,49.7959003 64.8017554,49.9804688 65.2822266,49.9804688 C65.7626977,49.9804688 66.1367174,49.7929706 66.4042969,49.4179688 C66.6718763,49.0429669 66.8056641,48.4941442 66.8056641,47.7714844 C66.8056641,47.1308562 66.6679701,46.6230487 66.3925781,46.2480469 C66.1171861,45.873045 65.7431664,45.6855469 65.2705078,45.6855469 C64.8056617,45.6855469 64.4365248,45.8701153 64.1630859,46.2392578 C63.8896471,46.6084003 63.7529297,47.1601526 63.7529297,47.8945312 Z M72.9814453,49.2773438 C72.9814453,49.0234362 72.8769542,48.8300788 72.6679688,48.6972656 C72.4589833,48.5644525 72.1123071,48.4472661 71.6279297,48.3457031 C71.1435523,48.2441401 70.7392594,48.1152352 70.4150391,47.9589844 C69.704098,47.6152327 69.3486328,47.1171908 69.3486328,46.4648438 C69.3486328,45.917966 69.5790993,45.4609393 70.0400391,45.09375 C70.5009789,44.7265607 71.0869105,44.5429688 71.7978516,44.5429688 C72.5556679,44.5429688 73.1679664,44.7304669 73.6347656,45.1054688 C74.1015648,45.4804706 74.3349609,45.9667939 74.3349609,46.5644531 L72.9111328,46.5644531 C72.9111328,46.2910143 72.8095713,46.0634775 72.6064453,45.8818359 C72.4033193,45.7001944 72.1337907,45.609375 71.7978516,45.609375 C71.48535,45.609375 71.2304697,45.6816399 71.0332031,45.8261719 C70.8359365,45.9707038 70.7373047,46.1640613 70.7373047,46.40625 C70.7373047,46.6250011 70.8291006,46.7949213 71.0126953,46.9160156 C71.19629,47.03711 71.56738,47.1591791 72.1259766,47.2822266 C72.6845731,47.4052741 73.1230453,47.551757 73.4414062,47.7216797 C73.7597672,47.8916024 73.996093,48.0957019 74.1503906,48.3339844 C74.3046883,48.5722668 74.3818359,48.8613264 74.3818359,49.2011719 C74.3818359,49.7714872 74.1455102,50.2333967 73.6728516,50.5869141 C73.2001929,50.9404315 72.5810585,51.1171875 71.8154297,51.1171875 C71.2958958,51.1171875 70.8330098,51.0234384 70.4267578,50.8359375 C70.0205058,50.6484366 69.7041027,50.3906266 69.4775391,50.0625 C69.2509754,49.7343734 69.1376953,49.3808613 69.1376953,49.0019531 L70.5205078,49.0019531 C70.5400392,49.3378923 70.666991,49.5966788 70.9013672,49.7783203 C71.1357434,49.9599618 71.4462871,50.0507812 71.8330078,50.0507812 C72.2080097,50.0507812 72.4931631,49.9794929 72.6884766,49.8369141 C72.88379,49.6943352 72.9814453,49.5078137 72.9814453,49.2773438 Z M21.1699219,56.28125 L20.203125,56.28125 L20.203125,65.7910156 L21.1699219,65.7910156 L21.1699219,66.8984375 L18.7792969,66.8984375 L18.7792969,55.1679688 L21.1699219,55.1679688 L21.1699219,56.28125 Z M25.3007812,60.7695312 L25.7636719,56.46875 L30.3457031,56.46875 L30.3457031,57.6992188 L26.9472656,57.6992188 L26.7128906,59.7382812 C27.1074238,59.5117176 27.5527319,59.3984375 28.0488281,59.3984375 C28.8613322,59.3984375 29.4931618,59.6582005 29.9443359,60.1777344 C30.3955101,60.6972682 30.6210938,61.39648 30.6210938,62.2753906 C30.6210938,63.1425825 30.3710963,63.8330052 29.8710938,64.3466797 C29.3710912,64.8603541 28.6855512,65.1171875 27.8144531,65.1171875 C27.0331992,65.1171875 26.3857448,64.89551 25.8720703,64.4521484 C25.3583959,64.0087868 25.0800783,63.4238318 25.0371094,62.6972656 L26.4140625,62.6972656 C26.4687503,63.1113302 26.6171863,63.4287098 26.859375,63.6494141 C27.1015637,63.8701183 27.4179668,63.9804688 27.8085938,63.9804688 C28.2460959,63.9804688 28.5869128,63.8242203 28.8310547,63.5117188 C29.0751965,63.1992172 29.1972656,62.7734402 29.1972656,62.234375 C29.1972656,61.7148412 29.0625013,61.3037125 28.7929688,61.0009766 C28.5234362,60.6982407 28.1523461,60.546875 27.6796875,60.546875 C27.4218737,60.546875 27.2031259,60.5810543 27.0234375,60.6494141 C26.8437491,60.7177738 26.6484386,60.8515615 26.4375,61.0507812 L25.3007812,60.7695312 Z M35.3847656,63.2773438 C35.3847656,63.0234362 35.2802745,62.8300788 35.0712891,62.6972656 C34.8623036,62.5644525 34.5156274,62.4472661 34.03125,62.3457031 C33.5468726,62.2441401 33.1425797,62.1152352 32.8183594,61.9589844 C32.1074183,61.6152327 31.7519531,61.1171908 31.7519531,60.4648438 C31.7519531,59.917966 31.9824196,59.4609393 32.4433594,59.09375 C32.9042992,58.7265607 33.4902308,58.5429688 34.2011719,58.5429688 C34.9589882,58.5429688 35.5712867,58.7304669 36.0380859,59.1054688 C36.5048851,59.4804706 36.7382812,59.9667939 36.7382812,60.5644531 L35.3144531,60.5644531 C35.3144531,60.2910143 35.2128916,60.0634775 35.0097656,59.8818359 C34.8066396,59.7001944 34.5371111,59.609375 34.2011719,59.609375 C33.8886703,59.609375 33.63379,59.6816399 33.4365234,59.8261719 C33.2392568,59.9707038 33.140625,60.1640613 33.140625,60.40625 C33.140625,60.6250011 33.232421,60.7949213 33.4160156,60.9160156 C33.5996103,61.03711 33.9707003,61.1591791 34.5292969,61.2822266 C35.0878934,61.4052741 35.5263656,61.551757 35.8447266,61.7216797 C36.1630875,61.8916024 36.3994133,62.0957019 36.5537109,62.3339844 C36.7080086,62.5722668 36.7851562,62.8613264 36.7851562,63.2011719 C36.7851562,63.7714872 36.5488305,64.2333967 36.0761719,64.5869141 C35.6035133,64.9404315 34.9843788,65.1171875 34.21875,65.1171875 C33.6992162,65.1171875 33.2363302,65.0234384 32.8300781,64.8359375 C32.4238261,64.6484366 32.107423,64.3906266 31.8808594,64.0625 C31.6542957,63.7343734 31.5410156,63.3808613 31.5410156,63.0019531 L32.9238281,63.0019531 C32.9433595,63.3378923 33.0703113,63.5966788 33.3046875,63.7783203 C33.5390637,63.9599618 33.8496074,64.0507812 34.2363281,64.0507812 C34.61133,64.0507812 34.8964834,63.9794929 35.0917969,63.8369141 C35.2871104,63.6943352 35.3847656,63.5078137 35.3847656,63.2773438 Z M41.8652344,64.3789062 C41.4472635,64.8710962 40.8535195,65.1171875 40.0839844,65.1171875 C39.3964809,65.1171875 38.8759783,64.9160176 38.5224609,64.5136719 C38.1689435,64.1113261 37.9921875,63.5293007 37.9921875,62.7675781 L37.9921875,58.6601562 L39.4160156,58.6601562 L39.4160156,62.75 C39.4160156,63.5546915 39.7499967,63.9570312 40.4179688,63.9570312 C41.1093785,63.9570312 41.5761707,63.7089869 41.8183594,63.2128906 L41.8183594,58.6601562 L43.2421875,58.6601562 L43.2421875,65 L41.9003906,65 L41.8652344,64.3789062 Z M50.2441406,61.8945312 C50.2441406,62.8750049 50.0214866,63.6572236 49.5761719,64.2412109 C49.1308571,64.8251982 48.5332069,65.1171875 47.7832031,65.1171875 C47.0878871,65.1171875 46.5312521,64.8886742 46.1132812,64.4316406 L46.1132812,67.4375 L44.6894531,67.4375 L44.6894531,58.6601562 L46.0019531,58.6601562 L46.0605469,59.3046875 C46.4785177,58.7968725 47.0468714,58.5429688 47.765625,58.5429688 C48.5390664,58.5429688 49.1455056,58.8310518 49.5849609,59.4072266 C50.0244163,59.9834013 50.2441406,60.783198 50.2441406,61.8066406 L50.2441406,61.8945312 Z M48.8261719,61.7714844 C48.8261719,61.1386687 48.7001966,60.6367206 48.4482422,60.265625 C48.1962878,59.8945294 47.8359398,59.7089844 47.3671875,59.7089844 C46.7851533,59.7089844 46.3671888,59.9492163 46.1132812,60.4296875 L46.1132812,63.2421875 C46.371095,63.7343775 46.7929658,63.9804688 47.3789062,63.9804688 C47.8320335,63.9804688 48.1865222,63.7978534 48.4423828,63.4326172 C48.6982435,63.067381 48.8261719,62.5136756 48.8261719,61.7714844 Z M53.7773438,55.1679688 L56.1796875,55.1679688 L56.1796875,66.8984375 L53.7773438,66.8984375 L53.7773438,65.7910156 L54.7558594,65.7910156 L54.7558594,56.28125 L53.7773438,56.28125 L53.7773438,55.1679688 Z" id="path-1"></path>
        <filter x="-50%" y="-50%" width="200%" height="200%" filterUnits="objectBoundingBox" id="filter-2">
            <feOffset dx="0" dy="2" in="SourceAlpha" result="shadowOffsetOuter1"></feOffset>
            <feGaussianBlur stdDeviation="1" in="shadowOffsetOuter1" result="shadowBlurOuter1"></feGaussianBlur>
            <feColorMatrix values="0 0 0 0 0   0 0 0 0 0   0 0 0 0 0  0 0 0 0.5 0" type="matrix" in="shadowBlurOuter1"></feColorMatrix>
        </filter>
        <circle id="path-3" cx="20" cy="20" r="20"></circle>
        <filter x="-50%" y="-50%" width="200%" height="200%" filterUnits="objectBoundingBox" id="filter-4">
            <feOffset dx="0" dy="2" in="SourceAlpha" result="shadowOffsetOuter1"></feOffset>
            <feGaussianBlur stdDeviation="2" in="shadowOffsetOuter1" result="shadowBlurOuter1"></feGaussianBlur>
            <feColorMatrix values="0 0 0 0 0   0 0 0 0 0   0 0 0 0 0  0 0 0 0.5 0" type="matrix" in="shadowBlurOuter1"></feColorMatrix>
        </filter>
    </defs>
    <g id="Page-1" stroke="none" stroke-width="1" fill="none" fill-rule="evenodd">
        <g id="Group-52" transform="translate(1.000000, 2.000000)">
            <g id="Marimbondos-[-5sup-]">
                <use fill="black" fill-opacity="1" filter="url(#filter-2)" xlink:href="#path-1"></use>
                <use fill="#FFFFFF" fill-rule="evenodd" xlink:href="#path-1"></use>
            </g>
            <g id="Group-5" transform="translate(16.000000, 0.000000)">
                <g id="Group-2">
                    <g id="Group" opacity="0.3">
                        <g id="Oval-6">
                            <use fill="black" fill-opacity="1" filter="url(#filter-4)" xlink:href="#path-3"></use>
                            <use fill="#FFFFFF" fill-rule="evenodd" xlink:href="#path-3"></use>
                        </g>
                    </g>
                    <circle id="Oval-5" stroke="#FFFFFF" stroke-width="5" fill="#DC1E65" cx="20" cy="20" r="8"></circle>
                </g>
            </g>
            <ellipse id="Oval-3" fill="#DC1E65" cx="36" cy="20" rx="13" ry="13"></ellipse>
            <ellipse id="Oval-3" fill="#DC1E65" cx="36" cy="20" rx="13" ry="13"></ellipse>
            <path d="M33.6738281,24 L32.2558594,24 L32.2558594,17.1503906 L30.1640625,17.8652344 L30.1640625,16.6640625 L33.4921875,15.4394531 L33.6738281,15.4394531 L33.6738281,24 Z M38.2851562,19.0839844 L39.1523438,19.0839844 C39.5898459,19.0800781 39.9365222,18.966798 40.1923828,18.7441406 C40.4482435,18.5214833 40.5761719,18.1992209 40.5761719,17.7773438 C40.5761719,17.3710917 40.4697276,17.0556652 40.2568359,16.8310547 C40.0439442,16.6064442 39.7187522,16.4941406 39.28125,16.4941406 C38.8984356,16.4941406 38.5839856,16.6044911 38.3378906,16.8251953 C38.0917956,17.0458995 37.96875,17.3339826 37.96875,17.6894531 L36.5449219,17.6894531 C36.5449219,17.2519509 36.6611317,16.8535174 36.8935547,16.4941406 C37.1259777,16.1347638 37.4501932,15.8544932 37.8662109,15.6533203 C38.2822286,15.4521474 38.7480443,15.3515625 39.2636719,15.3515625 C40.1152386,15.3515625 40.7841773,15.5654275 41.2705078,15.9931641 C41.7568384,16.4209006 42,17.0156212 42,17.7773438 C42,18.1601582 41.8779309,18.5205061 41.6337891,18.8583984 C41.3896472,19.1962908 41.0742207,19.451171 40.6875,19.6230469 C41.1562523,19.7832039 41.5126941,20.0351545 41.7568359,20.3789062 C42.0009778,20.722658 42.1230469,21.1328101 42.1230469,21.609375 C42.1230469,22.3750038 41.8603542,22.9843727 41.3349609,23.4375 C40.8095677,23.8906273 40.1191449,24.1171875 39.2636719,24.1171875 C38.4433553,24.1171875 37.771487,23.8984397 37.2480469,23.4609375 C36.7246068,23.0234353 36.4628906,22.4414099 36.4628906,21.7148438 L37.8867188,21.7148438 C37.8867188,22.0898456 38.0126941,22.3945301 38.2646484,22.6289062 C38.5166028,22.8632824 38.8554666,22.9804688 39.28125,22.9804688 C39.7226585,22.9804688 40.0703112,22.8632824 40.3242188,22.6289062 C40.5781263,22.3945301 40.7050781,22.0546897 40.7050781,21.609375 C40.7050781,21.160154 40.572267,20.8144543 40.3066406,20.5722656 C40.0410143,20.3300769 39.646487,20.2089844 39.1230469,20.2089844 L38.2851562,20.2089844 L38.2851562,19.0839844 Z" id="13" fill="#FFFFFF"></path>
        </g>
    </g>
</svg>