<?xml version="1.0" encoding="UTF-8"?>
<svg width="65px" height="74px" viewBox="0 0 65 74" version="1.1" xmlns="http://www.w3.org/2000/svg" xmlns:xlink="http://www.w3.org/1999/xlink">
    <!-- Generator: Sketch 42 (36781) - http://www.bohemiancoding.com/sketch -->
    <title>Group 60</title>
    <desc>Created with Sketch.</desc>
    <defs>
        <path d="M2.41308594,49.8164062 L6.97167969,49.8164062 L6.97167969,51 L0.620117188,51 L0.620117188,50.0390625 L5.03222656,43.6640625 L0.649414062,43.6640625 L0.649414062,42.46875 L6.83105469,42.46875 L6.83105469,43.40625 L2.41308594,49.8164062 Z M10.7744141,51.1171875 C9.8720658,51.1171875 9.1406278,50.8330107 8.58007812,50.2646484 C8.01952845,49.6962862 7.73925781,48.9394579 7.73925781,47.9941406 L7.73925781,47.8183594 C7.73925781,47.1855437 7.8613269,46.6201197 8.10546875,46.1220703 C8.3496106,45.6240209 8.69238061,45.2363295 9.13378906,44.9589844 C9.57519752,44.6816392 10.0673801,44.5429688 10.6103516,44.5429688 C11.4736371,44.5429688 12.1406226,44.8183566 12.6113281,45.3691406 C13.0820336,45.9199246 13.3173828,46.6992137 13.3173828,47.7070312 L13.3173828,48.28125 L9.17480469,48.28125 C9.21777365,48.8046901 9.39257659,49.2187485 9.69921875,49.5234375 C10.0058609,49.8281265 10.3915992,49.9804688 10.8564453,49.9804688 C11.5087923,49.9804688 12.040037,49.7167995 12.4501953,49.1894531 L13.2177734,49.921875 C12.9638659,50.3007831 12.6250021,50.5947255 12.2011719,50.8037109 C11.7773416,51.0126964 11.3017604,51.1171875 10.7744141,51.1171875 Z M10.6044922,45.6855469 C10.2138652,45.6855469 9.8984387,45.8222643 9.65820312,46.0957031 C9.41796755,46.369142 9.26464877,46.7499976 9.19824219,47.2382812 L11.9111328,47.2382812 L11.9111328,47.1328125 C11.8798827,46.6562476 11.7529308,46.2958997 11.5302734,46.0517578 C11.3076161,45.807616 10.9990254,45.6855469 10.6044922,45.6855469 Z M10.9267578,42 L12.5498047,42 L10.9267578,43.7753906 L9.78417969,43.7753906 L10.9267578,42 Z M24.0576172,48.2226562 C23.9716793,49.1328171 23.6357451,49.8427709 23.0498047,50.3525391 C22.4638643,50.8623072 21.6845752,51.1171875 20.7119141,51.1171875 C20.0322232,51.1171875 19.4335963,50.9560563 18.9160156,50.6337891 C18.3984349,50.3115218 17.9990248,49.8535186 17.7177734,49.2597656 C17.436522,48.6660127 17.2900391,47.9765664 17.2783203,47.1914062 L17.2783203,46.3945312 C17.2783203,45.5898397 17.420897,44.8808624 17.7060547,44.2675781 C17.9912124,43.6542938 18.400388,43.1816423 18.9335938,42.8496094 C19.4667995,42.5175765 20.0830043,42.3515625 20.7822266,42.3515625 C21.7236375,42.3515625 22.4814424,42.6074193 23.0556641,43.1191406 C23.6298857,43.6308619 23.9638667,44.353511 24.0576172,45.2871094 L22.5810547,45.2871094 C22.5107418,44.6738251 22.3320327,44.2314467 22.0449219,43.9599609 C21.7578111,43.6884752 21.3369168,43.5527344 20.7822266,43.5527344 C20.1376921,43.5527344 19.6425799,43.7880836 19.296875,44.2587891 C18.9511701,44.7294945 18.7744141,45.4199173 18.7666016,46.3300781 L18.7666016,47.0859375 C18.7666016,48.0078171 18.931639,48.7109351 19.2617188,49.1953125 C19.5917985,49.6796899 20.0751921,49.921875 20.7119141,49.921875 C21.2939482,49.921875 21.7314438,49.7910169 22.0244141,49.5292969 C22.3173843,49.2675768 22.5029293,48.8320343 22.5810547,48.2226562 L24.0576172,48.2226562 Z M24.9775391,47.7714844 C24.9775391,47.1503875 25.1005847,46.5908228 25.3466797,46.0927734 C25.5927747,45.5947241 25.9384743,45.2119154 26.3837891,44.9443359 C26.8291038,44.6767565 27.3408174,44.5429688 27.9189453,44.5429688 C28.7744183,44.5429688 29.4687473,44.8183566 30.0019531,45.3691406 C30.5351589,45.9199246 30.823242,46.6503861 30.8662109,47.5605469 L30.8720703,47.8945312 C30.8720703,48.5195344 30.7519543,49.0781225 30.5117188,49.5703125 C30.2714832,50.0625025 29.9277366,50.443358 29.4804688,50.7128906 C29.0332009,50.9824232 28.5166045,51.1171875 27.9306641,51.1171875 C27.0361283,51.1171875 26.3203152,50.8193389 25.7832031,50.2236328 C25.2460911,49.6279267 24.9775391,48.8339893 24.9775391,47.8417969 L24.9775391,47.7714844 Z M26.4013672,47.8945312 C26.4013672,48.5468783 26.5361315,49.0576153 26.8056641,49.4267578 C27.0751967,49.7959003 27.4501929,49.9804688 27.9306641,49.9804688 C28.4111352,49.9804688 28.7851549,49.7929706 29.0527344,49.4179688 C29.3203138,49.0429669 29.4541016,48.4941442 29.4541016,47.7714844 C29.4541016,47.1308562 29.3164076,46.6230488 29.0410156,46.2480469 C28.7656236,45.873045 28.3916039,45.6855469 27.9189453,45.6855469 C27.4540992,45.6855469 27.0849623,45.8701153 26.8115234,46.2392578 C26.5380846,46.6084003 26.4013672,47.1601526 26.4013672,47.8945312 Z M33.5908203,51 L32.1669922,51 L32.1669922,42 L33.5908203,42 L33.5908203,51 Z M36.4794922,44.6601562 L36.5205078,45.3222656 C36.9658225,44.8027318 37.5751914,44.5429688 38.3486328,44.5429688 C39.1962933,44.5429688 39.7763656,44.8671843 40.0888672,45.515625 C40.549807,44.8671843 41.198238,44.5429688 42.0341797,44.5429688 C42.7334019,44.5429688 43.2539045,44.7363262 43.5957031,45.1230469 C43.9375017,45.5097676 44.1123046,46.0800744 44.1201172,46.8339844 L44.1201172,51 L42.6962891,51 L42.6962891,46.875 C42.6962891,46.4726542 42.6083993,46.1777353 42.4326172,45.9902344 C42.2568351,45.8027334 41.9658223,45.7089844 41.5595703,45.7089844 C41.2353499,45.7089844 40.9707042,45.7958976 40.765625,45.9697266 C40.5605458,46.1435556 40.4169926,46.3710923 40.3349609,46.6523438 L40.3408203,51 L38.9169922,51 L38.9169922,46.828125 C38.8974608,46.0820275 38.5166053,45.7089844 37.7744141,45.7089844 C37.2040987,45.7089844 36.7998059,45.9414039 36.5615234,46.40625 L36.5615234,51 L35.1376953,51 L35.1376953,44.6601562 L36.4794922,44.6601562 Z M48.3740234,51.1171875 C47.4716752,51.1171875 46.7402372,50.8330107 46.1796875,50.2646484 C45.6191378,49.6962862 45.3388672,48.9394579 45.3388672,47.9941406 L45.3388672,47.8183594 C45.3388672,47.1855437 45.4609363,46.6201197 45.7050781,46.1220703 C45.94922,45.6240209 46.29199,45.2363295 46.7333984,44.9589844 C47.1748069,44.6816392 47.6669895,44.5429688 48.2099609,44.5429688 C49.0732465,44.5429688 49.740232,44.8183566 50.2109375,45.3691406 C50.681643,45.9199246 50.9169922,46.6992137 50.9169922,47.7070312 L50.9169922,48.28125 L46.7744141,48.28125 C46.817383,48.8046901 46.992186,49.2187485 47.2988281,49.5234375 C47.6054703,49.8281265 47.9912086,49.9804688 48.4560547,49.9804688 C49.1084017,49.9804688 49.6396464,49.7167995 50.0498047,49.1894531 L50.8173828,49.921875 C50.5634753,50.3007831 50.2246115,50.5947255 49.8007812,50.8037109 C49.376951,51.0126964 48.9013698,51.1171875 48.3740234,51.1171875 Z M48.2041016,45.6855469 C47.8134746,45.6855469 47.4980481,45.8222643 47.2578125,46.0957031 C47.0175769,46.369142 46.8642581,46.7499976 46.7978516,47.2382812 L49.5107422,47.2382812 L49.5107422,47.1328125 C49.479492,46.6562476 49.3525402,46.2958997 49.1298828,46.0517578 C48.9072254,45.807616 48.5986348,45.6855469 48.2041016,45.6855469 Z M53.5361328,51 L52.1123047,51 L52.1123047,44.6601562 L53.5361328,44.6601562 L53.5361328,51 Z M52.0244141,43.0136719 C52.0244141,42.7949208 52.0937493,42.613282 52.2324219,42.46875 C52.3710944,42.324218 52.5693346,42.2519531 52.8271484,42.2519531 C53.0849622,42.2519531 53.284179,42.324218 53.4248047,42.46875 C53.5654304,42.613282 53.6357422,42.7949208 53.6357422,43.0136719 C53.6357422,43.2285167 53.5654304,43.4072258 53.4248047,43.5498047 C53.284179,43.6923835 53.0849622,43.7636719 52.8271484,43.7636719 C52.5693346,43.7636719 52.3710944,43.6923835 52.2324219,43.5498047 C52.0937493,43.4072258 52.0244141,43.2285167 52.0244141,43.0136719 Z M58.8740234,51 C58.8115231,50.8789056 58.7568362,50.681642 58.7099609,50.4082031 C58.2568337,50.8808617 57.7021517,51.1171875 57.0458984,51.1171875 C56.4091765,51.1171875 55.8896504,50.9355487 55.4873047,50.5722656 C55.0849589,50.2089826 54.8837891,49.7597683 54.8837891,49.2246094 C54.8837891,48.5488247 55.1347631,48.0302752 55.6367188,47.6689453 C56.1386744,47.3076154 56.8564406,47.1269531 57.7900391,47.1269531 L58.6630859,47.1269531 L58.6630859,46.7109375 C58.6630859,46.3828109 58.57129,46.1201182 58.3876953,45.9228516 C58.2041006,45.725585 57.9248066,45.6269531 57.5498047,45.6269531 C57.2255843,45.6269531 56.959962,45.708007 56.7529297,45.8701172 C56.5458974,46.0322274 56.4423828,46.23828 56.4423828,46.4882812 L55.0185547,46.4882812 C55.0185547,46.1406233 55.1337879,45.8154312 55.3642578,45.5126953 C55.5947277,45.2099594 55.9082011,44.9726571 56.3046875,44.8007812 C56.7011739,44.6289054 57.1435522,44.5429688 57.6318359,44.5429688 C58.3740271,44.5429688 58.9658181,44.7294903 59.4072266,45.1025391 C59.848635,45.4755878 60.0751953,45.9999966 60.0869141,46.6757812 L60.0869141,49.5351562 C60.0869141,50.1054716 60.1669914,50.5605452 60.3271484,50.9003906 L60.3271484,51 L58.8740234,51 Z M57.3095703,49.9746094 C57.5908217,49.9746094 57.8554675,49.9062507 58.1035156,49.7695312 C58.3515637,49.6328118 58.5380853,49.4492199 58.6630859,49.21875 L58.6630859,48.0234375 L57.8955078,48.0234375 C57.3681614,48.0234375 56.971681,48.1152335 56.7060547,48.2988281 C56.4404284,48.4824228 56.3076172,48.7421858 56.3076172,49.078125 C56.3076172,49.3515639 56.3984366,49.5693351 56.5800781,49.7314453 C56.7617197,49.8935555 57.0048813,49.9746094 57.3095703,49.9746094 Z M14.1699219,56.28125 L13.203125,56.28125 L13.203125,65.7910156 L14.1699219,65.7910156 L14.1699219,66.8984375 L11.7792969,66.8984375 L11.7792969,55.1679688 L14.1699219,55.1679688 L14.1699219,56.28125 Z M18.3007812,60.7695312 L18.7636719,56.46875 L23.3457031,56.46875 L23.3457031,57.6992188 L19.9472656,57.6992188 L19.7128906,59.7382812 C20.1074238,59.5117176 20.5527319,59.3984375 21.0488281,59.3984375 C21.8613322,59.3984375 22.4931618,59.6582005 22.9443359,60.1777344 C23.3955101,60.6972682 23.6210938,61.39648 23.6210938,62.2753906 C23.6210938,63.1425825 23.3710963,63.8330052 22.8710938,64.3466797 C22.3710912,64.8603541 21.6855512,65.1171875 20.8144531,65.1171875 C20.0331992,65.1171875 19.3857448,64.89551 18.8720703,64.4521484 C18.3583959,64.0087868 18.0800783,63.4238318 18.0371094,62.6972656 L19.4140625,62.6972656 C19.4687503,63.1113302 19.6171863,63.4287098 19.859375,63.6494141 C20.1015637,63.8701183 20.4179668,63.9804688 20.8085938,63.9804688 C21.2460959,63.9804688 21.5869128,63.8242203 21.8310547,63.5117188 C22.0751965,63.1992172 22.1972656,62.7734402 22.1972656,62.234375 C22.1972656,61.7148412 22.0625013,61.3037125 21.7929688,61.0009766 C21.5234362,60.6982407 21.1523461,60.546875 20.6796875,60.546875 C20.4218737,60.546875 20.2031259,60.5810543 20.0234375,60.6494141 C19.8437491,60.7177738 19.6484386,60.8515615 19.4375,61.0507812 L18.3007812,60.7695312 Z M28.3847656,63.2773438 C28.3847656,63.0234362 28.2802745,62.8300788 28.0712891,62.6972656 C27.8623036,62.5644525 27.5156274,62.4472661 27.03125,62.3457031 C26.5468726,62.2441401 26.1425797,62.1152352 25.8183594,61.9589844 C25.1074183,61.6152327 24.7519531,61.1171908 24.7519531,60.4648438 C24.7519531,59.917966 24.9824196,59.4609393 25.4433594,59.09375 C25.9042992,58.7265607 26.4902308,58.5429688 27.2011719,58.5429688 C27.9589882,58.5429688 28.5712867,58.7304669 29.0380859,59.1054688 C29.5048851,59.4804706 29.7382812,59.9667939 29.7382812,60.5644531 L28.3144531,60.5644531 C28.3144531,60.2910143 28.2128916,60.0634775 28.0097656,59.8818359 C27.8066396,59.7001944 27.5371111,59.609375 27.2011719,59.609375 C26.8886703,59.609375 26.63379,59.6816399 26.4365234,59.8261719 C26.2392568,59.9707038 26.140625,60.1640613 26.140625,60.40625 C26.140625,60.6250011 26.232421,60.7949213 26.4160156,60.9160156 C26.5996103,61.03711 26.9707003,61.1591791 27.5292969,61.2822266 C28.0878934,61.4052741 28.5263656,61.551757 28.8447266,61.7216797 C29.1630875,61.8916024 29.3994133,62.0957019 29.5537109,62.3339844 C29.7080086,62.5722668 29.7851562,62.8613264 29.7851562,63.2011719 C29.7851562,63.7714872 29.5488305,64.2333967 29.0761719,64.5869141 C28.6035133,64.9404315 27.9843788,65.1171875 27.21875,65.1171875 C26.6992162,65.1171875 26.2363302,65.0234384 25.8300781,64.8359375 C25.4238261,64.6484366 25.107423,64.3906266 24.8808594,64.0625 C24.6542957,63.7343734 24.5410156,63.3808613 24.5410156,63.0019531 L25.9238281,63.0019531 C25.9433595,63.3378923 26.0703113,63.5966788 26.3046875,63.7783203 C26.5390637,63.9599618 26.8496074,64.0507812 27.2363281,64.0507812 C27.61133,64.0507812 27.8964834,63.9794929 28.0917969,63.8369141 C28.2871104,63.6943352 28.3847656,63.5078137 28.3847656,63.2773438 Z M34.8652344,64.3789062 C34.4472635,64.8710962 33.8535195,65.1171875 33.0839844,65.1171875 C32.3964809,65.1171875 31.8759783,64.9160176 31.5224609,64.5136719 C31.1689435,64.1113261 30.9921875,63.5293007 30.9921875,62.7675781 L30.9921875,58.6601562 L32.4160156,58.6601562 L32.4160156,62.75 C32.4160156,63.5546915 32.7499967,63.9570312 33.4179688,63.9570312 C34.1093785,63.9570312 34.5761707,63.7089869 34.8183594,63.2128906 L34.8183594,58.6601562 L36.2421875,58.6601562 L36.2421875,65 L34.9003906,65 L34.8652344,64.3789062 Z M43.2441406,61.8945312 C43.2441406,62.8750049 43.0214866,63.6572236 42.5761719,64.2412109 C42.1308571,64.8251982 41.5332069,65.1171875 40.7832031,65.1171875 C40.0878871,65.1171875 39.5312521,64.8886742 39.1132812,64.4316406 L39.1132812,67.4375 L37.6894531,67.4375 L37.6894531,58.6601562 L39.0019531,58.6601562 L39.0605469,59.3046875 C39.4785177,58.7968725 40.0468714,58.5429688 40.765625,58.5429688 C41.5390664,58.5429688 42.1455056,58.8310518 42.5849609,59.4072266 C43.0244163,59.9834013 43.2441406,60.783198 43.2441406,61.8066406 L43.2441406,61.8945312 Z M41.8261719,61.7714844 C41.8261719,61.1386687 41.7001966,60.6367206 41.4482422,60.265625 C41.1962878,59.8945294 40.8359398,59.7089844 40.3671875,59.7089844 C39.7851533,59.7089844 39.3671888,59.9492163 39.1132812,60.4296875 L39.1132812,63.2421875 C39.371095,63.7343775 39.7929658,63.9804688 40.3789062,63.9804688 C40.8320335,63.9804688 41.1865222,63.7978534 41.4423828,63.4326172 C41.6982435,63.067381 41.8261719,62.5136756 41.8261719,61.7714844 Z M46.7773438,55.1679688 L49.1796875,55.1679688 L49.1796875,66.8984375 L46.7773438,66.8984375 L46.7773438,65.7910156 L47.7558594,65.7910156 L47.7558594,56.28125 L46.7773438,56.28125 L46.7773438,55.1679688 Z" id="path-1"></path>
        <filter x="-50%" y="-50%" width="200%" height="200%" filterUnits="objectBoundingBox" id="filter-2">
            <feOffset dx="0" dy="2" in="SourceAlpha" result="shadowOffsetOuter1"></feOffset>
            <feGaussianBlur stdDeviation="1" in="shadowOffsetOuter1" result="shadowBlurOuter1"></feGaussianBlur>
            <feColorMatrix values="0 0 0 0 0   0 0 0 0 0   0 0 0 0 0  0 0 0 0.5 0" type="matrix" in="shadowBlurOuter1"></feColorMatrix>
        </filter>
        <circle id="path-3" cx="20" cy="20" r="20"></circle>
        <filter x="-50%" y="-50%" width="200%" height="200%" filterUnits="objectBoundingBox" id="filter-4">
            <feOffset dx="0" dy="2" in="SourceAlpha" result="shadowOffsetOuter1"></feOffset>
            <feGaussianBlur stdDeviation="2" in="shadowOffsetOuter1" result="shadowBlurOuter1"></feGaussianBlur>
            <feColorMatrix values="0 0 0 0 0   0 0 0 0 0   0 0 0 0 0  0 0 0 0.5 0" type="matrix" in="shadowBlurOuter1"></feColorMatrix>
        </filter>
    </defs>
    <g id="Page-1" stroke="none" stroke-width="1" fill="none" fill-rule="evenodd">
        <g id="Group-60" transform="translate(2.000000, 2.000000)">
            <g id="Zé-Colmeia-[-5sup-]">
                <use fill="black" fill-opacity="1" filter="url(#filter-2)" xlink:href="#path-1"></use>
                <use fill="#FFFFFF" fill-rule="evenodd" xlink:href="#path-1"></use>
            </g>
            <g id="Group-5" transform="translate(11.000000, 0.000000)">
                <g id="Group-2">
                    <g id="Group" opacity="0.3">
                        <g id="Oval-6">
                            <use fill="black" fill-opacity="1" filter="url(#filter-4)" xlink:href="#path-3"></use>
                            <use fill="#FFFFFF" fill-rule="evenodd" xlink:href="#path-3"></use>
                        </g>
                    </g>
                    <circle id="Oval-5" stroke="#FFFFFF" stroke-width="5" fill="#DC1E65" cx="20" cy="20" r="8"></circle>
                </g>
            </g>
            <ellipse id="Oval-3" fill="#DC1E65" cx="31" cy="20" rx="13" ry="13"></ellipse>
            <ellipse id="Oval-3" fill="#DC1E65" cx="31" cy="20" rx="13" ry="13"></ellipse>
            <path d="M30.5546875,24 L24.8183594,24 L24.8183594,23.0214844 L27.6601562,19.921875 C28.0703146,19.4648415 28.3623038,19.0830093 28.5361328,18.7763672 C28.7099618,18.469725 28.796875,18.1621109 28.796875,17.8535156 C28.796875,17.4472636 28.6826183,17.1191419 28.4541016,16.8691406 C28.2255848,16.6191394 27.9179707,16.4941406 27.53125,16.4941406 C27.0703102,16.4941406 26.7128919,16.6347642 26.4589844,16.9160156 C26.2050769,17.197267 26.078125,17.5820288 26.078125,18.0703125 L24.6542969,18.0703125 C24.6542969,17.5507787 24.7724598,17.0830099 25.0087891,16.6669922 C25.2451184,16.2509745 25.5830056,15.9277355 26.0224609,15.6972656 C26.4619163,15.4667957 26.9687471,15.3515625 27.5429688,15.3515625 C28.3710979,15.3515625 29.0244117,15.5595682 29.5029297,15.9755859 C29.9814477,16.3916036 30.2207031,16.9667932 30.2207031,17.7011719 C30.2207031,18.1269553 30.1005871,18.5732399 29.8603516,19.0400391 C29.620116,19.5068383 29.2265652,20.0371064 28.6796875,20.6308594 L26.59375,22.8632812 L30.5546875,22.8632812 L30.5546875,24 Z M33.2851562,19.0839844 L34.1523438,19.0839844 C34.5898459,19.0800781 34.9365222,18.966798 35.1923828,18.7441406 C35.4482435,18.5214833 35.5761719,18.1992209 35.5761719,17.7773438 C35.5761719,17.3710917 35.4697276,17.0556652 35.2568359,16.8310547 C35.0439442,16.6064442 34.7187522,16.4941406 34.28125,16.4941406 C33.8984356,16.4941406 33.5839856,16.6044911 33.3378906,16.8251953 C33.0917956,17.0458995 32.96875,17.3339826 32.96875,17.6894531 L31.5449219,17.6894531 C31.5449219,17.2519509 31.6611317,16.8535174 31.8935547,16.4941406 C32.1259777,16.1347638 32.4501932,15.8544932 32.8662109,15.6533203 C33.2822286,15.4521474 33.7480443,15.3515625 34.2636719,15.3515625 C35.1152386,15.3515625 35.7841773,15.5654275 36.2705078,15.9931641 C36.7568384,16.4209006 37,17.0156212 37,17.7773438 C37,18.1601582 36.8779309,18.5205061 36.6337891,18.8583984 C36.3896472,19.1962908 36.0742207,19.451171 35.6875,19.6230469 C36.1562523,19.7832039 36.5126941,20.0351545 36.7568359,20.3789062 C37.0009778,20.722658 37.1230469,21.1328101 37.1230469,21.609375 C37.1230469,22.3750038 36.8603542,22.9843727 36.3349609,23.4375 C35.8095677,23.8906273 35.1191449,24.1171875 34.2636719,24.1171875 C33.4433553,24.1171875 32.771487,23.8984397 32.2480469,23.4609375 C31.7246068,23.0234353 31.4628906,22.4414099 31.4628906,21.7148438 L32.8867188,21.7148438 C32.8867188,22.0898456 33.0126941,22.3945301 33.2646484,22.6289062 C33.5166028,22.8632824 33.8554666,22.9804688 34.28125,22.9804688 C34.7226585,22.9804688 35.0703112,22.8632824 35.3242188,22.6289062 C35.5781263,22.3945301 35.7050781,22.0546897 35.7050781,21.609375 C35.7050781,21.160154 35.572267,20.8144543 35.3066406,20.5722656 C35.0410143,20.3300769 34.646487,20.2089844 34.1230469,20.2089844 L33.2851562,20.2089844 L33.2851562,19.0839844 Z" id="23" fill="#FFFFFF"></path>
        </g>
    </g>
</svg>