<?xml version="1.0" encoding="UTF-8"?>
<svg width="48px" height="73px" viewBox="0 0 48 73" version="1.1" xmlns="http://www.w3.org/2000/svg" xmlns:xlink="http://www.w3.org/1999/xlink">
    <!-- Generator: Sketch 42 (36781) - http://www.bohemiancoding.com/sketch -->
    <title>Group 50</title>
    <desc>Created with Sketch.</desc>
    <defs>
        <path d="M9.25878906,47.3847656 L5.82519531,47.3847656 L5.82519531,51 L4.34277344,51 L4.34277344,42.46875 L9.76269531,42.46875 L9.76269531,43.6640625 L5.82519531,43.6640625 L5.82519531,46.2011719 L9.25878906,46.2011719 L9.25878906,47.3847656 Z M13.4658203,51.1171875 C12.5634721,51.1171875 11.8320341,50.8330107 11.2714844,50.2646484 C10.7109347,49.6962862 10.4306641,48.9394579 10.4306641,47.9941406 L10.4306641,47.8183594 C10.4306641,47.1855437 10.5527332,46.6201197 10.796875,46.1220703 C11.0410168,45.6240209 11.3837869,45.2363295 11.8251953,44.9589844 C12.2666038,44.6816392 12.7587863,44.5429688 13.3017578,44.5429688 C14.1650434,44.5429688 14.8320289,44.8183566 15.3027344,45.3691406 C15.7734399,45.9199246 16.0087891,46.6992137 16.0087891,47.7070312 L16.0087891,48.28125 L11.8662109,48.28125 C11.9091799,48.8046901 12.0839828,49.2187485 12.390625,49.5234375 C12.6972672,49.8281265 13.0830055,49.9804688 13.5478516,49.9804688 C14.2001986,49.9804688 14.7314433,49.7167995 15.1416016,49.1894531 L15.9091797,49.921875 C15.6552722,50.3007831 15.3164084,50.5947255 14.8925781,50.8037109 C14.4687479,51.0126964 13.9931667,51.1171875 13.4658203,51.1171875 Z M13.2958984,45.6855469 C12.9052715,45.6855469 12.589845,45.8222643 12.3496094,46.0957031 C12.1093738,46.369142 11.956055,46.7499976 11.8896484,47.2382812 L14.6025391,47.2382812 L14.6025391,47.1328125 C14.5712889,46.6562476 14.4443371,46.2958997 14.2216797,46.0517578 C13.9990223,45.807616 13.6904317,45.6855469 13.2958984,45.6855469 Z M16.8466797,47.7832031 C16.8466797,46.8066357 17.0732399,46.0224639 17.5263672,45.4306641 C17.9794945,44.8388642 18.5869103,44.5429688 19.3486328,44.5429688 C20.0205112,44.5429688 20.5634745,44.7773414 20.9775391,45.2460938 L20.9775391,42 L22.4013672,42 L22.4013672,51 L21.1123047,51 L21.0419922,50.34375 C20.6162088,50.8593776 20.0478551,51.1171875 19.3369141,51.1171875 C18.5947229,51.1171875 17.9941429,50.8183624 17.5351562,50.2207031 C17.0761696,49.6230439 16.8466797,48.810552 16.8466797,47.7832031 Z M18.2705078,47.90625 C18.2705078,48.5507845 18.39453,49.0537091 18.6425781,49.4150391 C18.8906262,49.776369 19.2431618,49.9570312 19.7001953,49.9570312 C20.2822295,49.9570312 20.7080065,49.6972682 20.9775391,49.1777344 L20.9775391,46.4707031 C20.715819,45.9628881 20.2939482,45.7089844 19.7119141,45.7089844 C19.2509743,45.7089844 18.8955091,45.8915997 18.6455078,46.2568359 C18.3955066,46.6220721 18.2705078,47.1718713 18.2705078,47.90625 Z M23.6201172,47.7714844 C23.6201172,47.1503875 23.7431628,46.5908228 23.9892578,46.0927734 C24.2353528,45.5947241 24.5810525,45.2119154 25.0263672,44.9443359 C25.4716819,44.6767565 25.9833955,44.5429688 26.5615234,44.5429688 C27.4169965,44.5429688 28.1113255,44.8183566 28.6445312,45.3691406 C29.177737,45.9199246 29.4658201,46.6503861 29.5087891,47.5605469 L29.5146484,47.8945312 C29.5146484,48.5195344 29.3945325,49.0781225 29.1542969,49.5703125 C28.9140613,50.0625025 28.5703147,50.443358 28.1230469,50.7128906 C27.675779,50.9824232 27.1591826,51.1171875 26.5732422,51.1171875 C25.6787065,51.1171875 24.9628933,50.8193389 24.4257812,50.2236328 C23.8886692,49.6279267 23.6201172,48.8339893 23.6201172,47.8417969 L23.6201172,47.7714844 Z M25.0439453,47.8945312 C25.0439453,48.5468783 25.1787096,49.0576153 25.4482422,49.4267578 C25.7177748,49.7959003 26.092771,49.9804688 26.5732422,49.9804688 C27.0537133,49.9804688 27.427733,49.7929706 27.6953125,49.4179688 C27.962892,49.0429669 28.0966797,48.4941442 28.0966797,47.7714844 C28.0966797,47.1308562 27.9589858,46.6230487 27.6835938,46.2480469 C27.4082017,45.873045 27.0341821,45.6855469 26.5615234,45.6855469 C26.0966774,45.6855469 25.7275404,45.8701153 25.4541016,46.2392578 C25.1806627,46.6084003 25.0439453,47.1601526 25.0439453,47.8945312 Z M26.9541016,42 L28.5771484,42 L26.9541016,43.7753906 L25.8115234,43.7753906 L26.9541016,42 Z M34.0380859,45.9609375 C33.850585,45.9296873 33.6572276,45.9140625 33.4580078,45.9140625 C32.8056608,45.9140625 32.3662121,46.16406 32.1396484,46.6640625 L32.1396484,51 L30.7158203,51 L30.7158203,44.6601562 L32.0751953,44.6601562 L32.1103516,45.3691406 C32.4541033,44.8183566 32.930661,44.5429688 33.5400391,44.5429688 C33.7431651,44.5429688 33.9111321,44.5703122 34.0439453,44.625 L34.0380859,45.9609375 Z M38.5498047,51 C38.4873044,50.8789056 38.4326174,50.681642 38.3857422,50.4082031 C37.9326149,50.8808617 37.377933,51.1171875 36.7216797,51.1171875 C36.0849578,51.1171875 35.5654317,50.9355487 35.1630859,50.5722656 C34.7607402,50.2089826 34.5595703,49.7597683 34.5595703,49.2246094 C34.5595703,48.5488247 34.8105444,48.0302752 35.3125,47.6689453 C35.8144556,47.3076154 36.5322219,47.1269531 37.4658203,47.1269531 L38.3388672,47.1269531 L38.3388672,46.7109375 C38.3388672,46.3828109 38.2470712,46.1201182 38.0634766,45.9228516 C37.8798819,45.725585 37.6005878,45.6269531 37.2255859,45.6269531 C36.9013656,45.6269531 36.6357432,45.708007 36.4287109,45.8701172 C36.2216787,46.0322274 36.1181641,46.23828 36.1181641,46.4882812 L34.6943359,46.4882812 C34.6943359,46.1406233 34.8095692,45.8154312 35.0400391,45.5126953 C35.270509,45.2099594 35.5839824,44.9726571 35.9804688,44.8007812 C36.3769551,44.6289054 36.8193335,44.5429688 37.3076172,44.5429688 C38.0498084,44.5429688 38.6415994,44.7294903 39.0830078,45.1025391 C39.5244163,45.4755878 39.7509765,45.9999966 39.7626953,46.6757812 L39.7626953,49.5351562 C39.7626953,50.1054716 39.8427726,50.5605452 40.0029297,50.9003906 L40.0029297,51 L38.5498047,51 Z M36.9853516,49.9746094 C37.266603,49.9746094 37.5312488,49.9062507 37.7792969,49.7695312 C38.027345,49.6328118 38.2138666,49.4492199 38.3388672,49.21875 L38.3388672,48.0234375 L37.5712891,48.0234375 C37.0439427,48.0234375 36.6474623,48.1152335 36.3818359,48.2988281 C36.1162096,48.4824228 35.9833984,48.7421858 35.9833984,49.078125 C35.9833984,49.3515639 36.0742178,49.5693351 36.2558594,49.7314453 C36.4375009,49.8935555 36.6806625,49.9746094 36.9853516,49.9746094 Z M12.2324219,56.28125 L11.265625,56.28125 L11.265625,65.7910156 L12.2324219,65.7910156 L12.2324219,66.8984375 L9.84179688,66.8984375 L9.84179688,55.1679688 L12.2324219,55.1679688 L12.2324219,56.28125 Z M21.6601562,57.2597656 L18.25,65 L16.7558594,65 L20.1601562,57.6113281 L15.7480469,57.6113281 L15.7480469,56.46875 L21.6601562,56.46875 L21.6601562,57.2597656 Z M26.6816406,65 C26.6191403,64.8789056 26.5644534,64.681642 26.5175781,64.4082031 C26.0644509,64.8808617 25.5097689,65.1171875 24.8535156,65.1171875 C24.2167937,65.1171875 23.6972676,64.9355487 23.2949219,64.5722656 C22.8925761,64.2089826 22.6914062,63.7597683 22.6914062,63.2246094 C22.6914062,62.5488247 22.9423803,62.0302752 23.4443359,61.6689453 C23.9462916,61.3076154 24.6640578,61.1269531 25.5976562,61.1269531 L26.4707031,61.1269531 L26.4707031,60.7109375 C26.4707031,60.3828109 26.3789072,60.1201182 26.1953125,59.9228516 C26.0117178,59.725585 25.7324237,59.6269531 25.3574219,59.6269531 C25.0332015,59.6269531 24.7675792,59.708007 24.5605469,59.8701172 C24.3535146,60.0322274 24.25,60.23828 24.25,60.4882812 L22.8261719,60.4882812 C22.8261719,60.1406233 22.9414051,59.8154312 23.171875,59.5126953 C23.4023449,59.2099594 23.7158183,58.9726571 24.1123047,58.8007812 C24.508791,58.6289054 24.9511694,58.5429688 25.4394531,58.5429688 C26.1816443,58.5429688 26.7734353,58.7294903 27.2148438,59.1025391 C27.6562522,59.4755878 27.8828124,59.9999966 27.8945312,60.6757812 L27.8945312,63.5351562 C27.8945312,64.1054716 27.9746086,64.5605452 28.1347656,64.9003906 L28.1347656,65 L26.6816406,65 Z M25.1171875,63.9746094 C25.3984389,63.9746094 25.6630847,63.9062507 25.9111328,63.7695312 C26.1591809,63.6328118 26.3457025,63.4492199 26.4707031,63.21875 L26.4707031,62.0234375 L25.703125,62.0234375 C25.1757786,62.0234375 24.7792982,62.1152335 24.5136719,62.2988281 C24.2480455,62.4824228 24.1152344,62.7421858 24.1152344,63.078125 C24.1152344,63.3515639 24.2060538,63.5693351 24.3876953,63.7314453 C24.5693368,63.8935555 24.8124985,63.9746094 25.1171875,63.9746094 Z M31.7148438,55.1679688 L34.1171875,55.1679688 L34.1171875,66.8984375 L31.7148438,66.8984375 L31.7148438,65.7910156 L32.6933594,65.7910156 L32.6933594,56.28125 L31.7148438,56.28125 L31.7148438,55.1679688 Z" id="path-1"></path>
        <filter x="-50%" y="-50%" width="200%" height="200%" filterUnits="objectBoundingBox" id="filter-2">
            <feOffset dx="0" dy="2" in="SourceAlpha" result="shadowOffsetOuter1"></feOffset>
            <feGaussianBlur stdDeviation="1" in="shadowOffsetOuter1" result="shadowBlurOuter1"></feGaussianBlur>
            <feColorMatrix values="0 0 0 0 0   0 0 0 0 0   0 0 0 0 0  0 0 0 0.5 0" type="matrix" in="shadowBlurOuter1"></feColorMatrix>
        </filter>
        <circle id="path-3" cx="20" cy="20" r="20"></circle>
        <filter x="-50%" y="-50%" width="200%" height="200%" filterUnits="objectBoundingBox" id="filter-4">
            <feOffset dx="0" dy="2" in="SourceAlpha" result="shadowOffsetOuter1"></feOffset>
            <feGaussianBlur stdDeviation="2" in="shadowOffsetOuter1" result="shadowBlurOuter1"></feGaussianBlur>
            <feColorMatrix values="0 0 0 0 0   0 0 0 0 0   0 0 0 0 0  0 0 0 0.5 0" type="matrix" in="shadowBlurOuter1"></feColorMatrix>
        </filter>
    </defs>
    <g id="Page-1" stroke="none" stroke-width="1" fill="none" fill-rule="evenodd">
        <g id="Group-50" transform="translate(4.000000, 2.000000)">
            <g id="Fedóra-[-7a-]">
                <use fill="black" fill-opacity="1" filter="url(#filter-2)" xlink:href="#path-1"></use>
                <use fill="#FFFFFF" fill-rule="evenodd" xlink:href="#path-1"></use>
            </g>
            <g id="Group-5">
                <g id="Group-2">
                    <g id="Group" opacity="0.3">
                        <g id="Oval-6">
                            <use fill="black" fill-opacity="1" filter="url(#filter-4)" xlink:href="#path-3"></use>
                            <use fill="#FFFFFF" fill-rule="evenodd" xlink:href="#path-3"></use>
                        </g>
                    </g>
                    <circle id="Oval-5" stroke="#FFFFFF" stroke-width="5" fill="#DC1E65" cx="20" cy="20" r="8"></circle>
                </g>
            </g>
            <ellipse id="Oval-3" fill="#DC1E65" cx="20" cy="20" rx="13" ry="13"></ellipse>
            <ellipse id="Oval-3" fill="#DC1E65" cx="20" cy="20" rx="13" ry="13"></ellipse>
            <path d="M17.6738281,24 L16.2558594,24 L16.2558594,17.1503906 L14.1640625,17.8652344 L14.1640625,16.6640625 L17.4921875,15.4394531 L17.6738281,15.4394531 L17.6738281,24 Z M21.0195312,19.7695312 L21.4824219,15.46875 L26.0644531,15.46875 L26.0644531,16.6992188 L22.6660156,16.6992188 L22.4316406,18.7382812 C22.8261738,18.5117176 23.2714819,18.3984375 23.7675781,18.3984375 C24.5800822,18.3984375 25.2119118,18.6582005 25.6630859,19.1777344 C26.1142601,19.6972682 26.3398438,20.39648 26.3398438,21.2753906 C26.3398438,22.1425825 26.0898463,22.8330052 25.5898438,23.3466797 C25.0898412,23.8603541 24.4043012,24.1171875 23.5332031,24.1171875 C22.7519492,24.1171875 22.1044948,23.89551 21.5908203,23.4521484 C21.0771459,23.0087868 20.7988283,22.4238318 20.7558594,21.6972656 L22.1328125,21.6972656 C22.1875003,22.1113302 22.3359363,22.4287098 22.578125,22.6494141 C22.8203137,22.8701183 23.1367168,22.9804688 23.5273438,22.9804688 C23.9648459,22.9804688 24.3056628,22.8242203 24.5498047,22.5117188 C24.7939465,22.1992172 24.9160156,21.7734402 24.9160156,21.234375 C24.9160156,20.7148412 24.7812513,20.3037125 24.5117188,20.0009766 C24.2421862,19.6982407 23.8710961,19.546875 23.3984375,19.546875 C23.1406237,19.546875 22.9218759,19.5810543 22.7421875,19.6494141 C22.5624991,19.7177738 22.3671886,19.8515615 22.15625,20.0507812 L21.0195312,19.7695312 Z" id="15" fill="#FFFFFF"></path>
        </g>
    </g>
</svg>