<?xml version="1.0" encoding="UTF-8"?>
<svg width="88px" height="74px" viewBox="0 0 88 74" version="1.1" xmlns="http://www.w3.org/2000/svg" xmlns:xlink="http://www.w3.org/1999/xlink">
    <!-- Generator: Sketch 42 (36781) - http://www.bohemiancoding.com/sketch -->
    <title>Group 57</title>
    <desc>Created with Sketch.</desc>
    <defs>
        <path d="M7.45019531,49.8925781 C7.14160002,50.2949239 6.71386992,50.5996083 6.16699219,50.8066406 C5.62011445,51.0136729 4.99902691,51.1171875 4.30371094,51.1171875 C3.58886361,51.1171875 2.95605744,50.9550797 2.40527344,50.6308594 C1.85448943,50.306639 1.42968899,49.8427765 1.13085938,49.2392578 C0.832029756,48.6357392 0.676757871,47.9316446 0.665039062,47.1269531 L0.665039062,46.4589844 C0.665039062,45.1699154 0.973629727,44.1630896 1.59082031,43.4384766 C2.2080109,42.7138636 3.06933041,42.3515625 4.17480469,42.3515625 C5.12402818,42.3515625 5.87792689,42.5859352 6.43652344,43.0546875 C6.99511998,43.5234398 7.33105412,44.1992143 7.44433594,45.0820312 L5.99121094,45.0820312 C5.82714762,44.0546824 5.23145045,43.5410156 4.20410156,43.5410156 C3.54003574,43.5410156 3.03515798,43.780271 2.68945312,44.2587891 C2.34374827,44.7373071 2.16503912,45.4394485 2.15332031,46.3652344 L2.15332031,47.0214844 C2.15332031,47.943364 2.34765431,48.6591771 2.73632812,49.1689453 C3.12500194,49.6787135 3.66503561,49.9335938 4.35644531,49.9335938 C5.1142616,49.9335938 5.65331871,49.7617205 5.97363281,49.4179688 L5.97363281,47.7480469 L4.21582031,47.7480469 L4.21582031,46.6230469 L7.45019531,46.6230469 L7.45019531,49.8925781 Z M12.2607422,45.9609375 C12.0732413,45.9296873 11.8798838,45.9140625 11.6806641,45.9140625 C11.0283171,45.9140625 10.5888683,46.16406 10.3623047,46.6640625 L10.3623047,51 L8.93847656,51 L8.93847656,44.6601562 L10.2978516,44.6601562 L10.3330078,45.3691406 C10.6767595,44.8183566 11.1533173,44.5429688 11.7626953,44.5429688 C11.9658213,44.5429688 12.1337884,44.5703122 12.2666016,44.625 L12.2607422,45.9609375 Z M16.7724609,51 C16.7099606,50.8789056 16.6552737,50.681642 16.6083984,50.4082031 C16.1552712,50.8808617 15.6005892,51.1171875 14.9443359,51.1171875 C14.307614,51.1171875 13.7880879,50.9355487 13.3857422,50.5722656 C12.9833964,50.2089826 12.7822266,49.7597683 12.7822266,49.2246094 C12.7822266,48.5488247 13.0332006,48.0302752 13.5351562,47.6689453 C14.0371119,47.3076154 14.7548781,47.1269531 15.6884766,47.1269531 L16.5615234,47.1269531 L16.5615234,46.7109375 C16.5615234,46.3828109 16.4697275,46.1201182 16.2861328,45.9228516 C16.1025381,45.725585 15.8232441,45.6269531 15.4482422,45.6269531 C15.1240218,45.6269531 14.8583995,45.708007 14.6513672,45.8701172 C14.4443349,46.0322274 14.3408203,46.23828 14.3408203,46.4882812 L12.9169922,46.4882812 C12.9169922,46.1406233 13.0322254,45.8154312 13.2626953,45.5126953 C13.4931652,45.2099594 13.8066386,44.9726571 14.203125,44.8007812 C14.5996114,44.6289054 15.0419897,44.5429688 15.5302734,44.5429688 C16.2724646,44.5429688 16.8642556,44.7294903 17.3056641,45.1025391 C17.7470725,45.4755878 17.9736328,45.9999966 17.9853516,46.6757812 L17.9853516,49.5351562 C17.9853516,50.1054716 18.0654289,50.5605452 18.2255859,50.9003906 L18.2255859,51 L16.7724609,51 Z M15.2080078,49.9746094 C15.4892592,49.9746094 15.753905,49.9062507 16.0019531,49.7695312 C16.2500012,49.6328118 16.4365228,49.4492199 16.5615234,49.21875 L16.5615234,48.0234375 L15.7939453,48.0234375 C15.2665989,48.0234375 14.8701185,48.1152335 14.6044922,48.2988281 C14.3388659,48.4824228 14.2060547,48.7421858 14.2060547,49.078125 C14.2060547,49.3515639 14.2968741,49.5693351 14.4785156,49.7314453 C14.6601572,49.8935555 14.9033188,49.9746094 15.2080078,49.9746094 Z M20.8154297,44.6601562 L20.8564453,45.3222656 C21.30176,44.8027318 21.9111289,44.5429688 22.6845703,44.5429688 C23.5322308,44.5429688 24.1123031,44.8671843 24.4248047,45.515625 C24.8857445,44.8671843 25.5341755,44.5429688 26.3701172,44.5429688 C27.0693394,44.5429688 27.589842,44.7363262 27.9316406,45.1230469 C28.2734392,45.5097676 28.4482421,46.0800744 28.4560547,46.8339844 L28.4560547,51 L27.0322266,51 L27.0322266,46.875 C27.0322266,46.4726542 26.9443368,46.1777353 26.7685547,45.9902344 C26.5927726,45.8027334 26.3017598,45.7089844 25.8955078,45.7089844 C25.5712874,45.7089844 25.3066417,45.7958976 25.1015625,45.9697266 C24.8964833,46.1435556 24.7529301,46.3710923 24.6708984,46.6523438 L24.6767578,51 L23.2529297,51 L23.2529297,46.828125 C23.2333983,46.0820275 22.8525428,45.7089844 22.1103516,45.7089844 C21.5400362,45.7089844 21.1357434,45.9414039 20.8974609,46.40625 L20.8974609,51 L19.4736328,51 L19.4736328,44.6601562 L20.8154297,44.6601562 Z M35.4697266,47.8945312 C35.4697266,48.8750049 35.2470725,49.6572236 34.8017578,50.2412109 C34.3564431,50.8251982 33.7587928,51.1171875 33.0087891,51.1171875 C32.3134731,51.1171875 31.756838,50.8886742 31.3388672,50.4316406 L31.3388672,53.4375 L29.9150391,53.4375 L29.9150391,44.6601562 L31.2275391,44.6601562 L31.2861328,45.3046875 C31.7041037,44.7968725 32.2724573,44.5429688 32.9912109,44.5429688 C33.7646523,44.5429688 34.3710916,44.8310518 34.8105469,45.4072266 C35.2500022,45.9834013 35.4697266,46.783198 35.4697266,47.8066406 L35.4697266,47.8945312 Z M34.0517578,47.7714844 C34.0517578,47.1386687 33.9257825,46.6367206 33.6738281,46.265625 C33.4218737,45.8945294 33.0615258,45.7089844 32.5927734,45.7089844 C32.0107393,45.7089844 31.5927747,45.9492163 31.3388672,46.4296875 L31.3388672,49.2421875 C31.596681,49.7343775 32.0185518,49.9804688 32.6044922,49.9804688 C33.0576195,49.9804688 33.4121081,49.7978534 33.6679688,49.4326172 C33.9238294,49.067381 34.0517578,48.5136756 34.0517578,47.7714844 Z M36.4072266,47.7714844 C36.4072266,47.1503875 36.5302722,46.5908228 36.7763672,46.0927734 C37.0224622,45.5947241 37.3681618,45.2119154 37.8134766,44.9443359 C38.2587913,44.6767565 38.7705049,44.5429688 39.3486328,44.5429688 C40.2041058,44.5429688 40.8984348,44.8183566 41.4316406,45.3691406 C41.9648464,45.9199246 42.2529295,46.6503861 42.2958984,47.5605469 L42.3017578,47.8945312 C42.3017578,48.5195344 42.1816418,49.0781225 41.9414062,49.5703125 C41.7011707,50.0625025 41.3574241,50.443358 40.9101562,50.7128906 C40.4628884,50.9824232 39.946292,51.1171875 39.3603516,51.1171875 C38.4658158,51.1171875 37.7500027,50.8193389 37.2128906,50.2236328 C36.6757786,49.6279267 36.4072266,48.8339893 36.4072266,47.8417969 L36.4072266,47.7714844 Z M37.8310547,47.8945312 C37.8310547,48.5468783 37.965819,49.0576153 38.2353516,49.4267578 C38.5048842,49.7959003 38.8798804,49.9804688 39.3603516,49.9804688 C39.8408227,49.9804688 40.2148424,49.7929706 40.4824219,49.4179688 C40.7500013,49.0429669 40.8837891,48.4941442 40.8837891,47.7714844 C40.8837891,47.1308562 40.7460951,46.6230487 40.4707031,46.2480469 C40.1953111,45.873045 39.8212914,45.6855469 39.3486328,45.6855469 C38.8837867,45.6855469 38.5146498,45.8701153 38.2412109,46.2392578 C37.9677721,46.6084003 37.8310547,47.1601526 37.8310547,47.8945312 Z M47.0595703,49.2773438 C47.0595703,49.0234362 46.9550792,48.8300788 46.7460938,48.6972656 C46.5371083,48.5644525 46.1904321,48.4472661 45.7060547,48.3457031 C45.2216773,48.2441401 44.8173844,48.1152352 44.4931641,47.9589844 C43.782223,47.6152327 43.4267578,47.1171908 43.4267578,46.4648438 C43.4267578,45.917966 43.6572243,45.4609393 44.1181641,45.09375 C44.5791039,44.7265607 45.1650355,44.5429688 45.8759766,44.5429688 C46.6337929,44.5429688 47.2460914,44.7304669 47.7128906,45.1054688 C48.1796898,45.4804706 48.4130859,45.9667939 48.4130859,46.5644531 L46.9892578,46.5644531 C46.9892578,46.2910143 46.8876963,46.0634775 46.6845703,45.8818359 C46.4814443,45.7001944 46.2119157,45.609375 45.8759766,45.609375 C45.563475,45.609375 45.3085947,45.6816399 45.1113281,45.8261719 C44.9140615,45.9707038 44.8154297,46.1640613 44.8154297,46.40625 C44.8154297,46.6250011 44.9072256,46.7949213 45.0908203,46.9160156 C45.274415,47.03711 45.645505,47.1591791 46.2041016,47.2822266 C46.7626981,47.4052741 47.2011703,47.551757 47.5195312,47.7216797 C47.8378922,47.8916024 48.074218,48.0957019 48.2285156,48.3339844 C48.3828133,48.5722668 48.4599609,48.8613264 48.4599609,49.2011719 C48.4599609,49.7714872 48.2236352,50.2333967 47.7509766,50.5869141 C47.2783179,50.9404315 46.6591835,51.1171875 45.8935547,51.1171875 C45.3740208,51.1171875 44.9111348,51.0234384 44.5048828,50.8359375 C44.0986308,50.6484366 43.7822277,50.3906266 43.5556641,50.0625 C43.3291004,49.7343734 43.2158203,49.3808613 43.2158203,49.0019531 L44.5986328,49.0019531 C44.6181642,49.3378923 44.745116,49.5966788 44.9794922,49.7783203 C45.2138684,49.9599618 45.5244121,50.0507812 45.9111328,50.0507812 C46.2861347,50.0507812 46.5712881,49.9794929 46.7666016,49.8369141 C46.961915,49.6943352 47.0595703,49.5078137 47.0595703,49.2773438 Z M54.4716797,43.1191406 L54.4716797,44.6601562 L55.5908203,44.6601562 L55.5908203,45.7148438 L54.4716797,45.7148438 L54.4716797,49.2539062 C54.4716797,49.496095 54.5195308,49.6708979 54.6152344,49.7783203 C54.710938,49.8857427 54.8818347,49.9394531 55.1279297,49.9394531 C55.291993,49.9394531 55.458007,49.9199221 55.6259766,49.8808594 L55.6259766,50.9824219 C55.3017562,51.0722661 54.9892593,51.1171875 54.6884766,51.1171875 C53.5947211,51.1171875 53.0478516,50.5136779 53.0478516,49.3066406 L53.0478516,45.7148438 L52.0048828,45.7148438 L52.0048828,44.6601562 L53.0478516,44.6601562 L53.0478516,43.1191406 L54.4716797,43.1191406 Z M56.2353516,47.7714844 C56.2353516,47.1503875 56.3583972,46.5908228 56.6044922,46.0927734 C56.8505872,45.5947241 57.1962868,45.2119154 57.6416016,44.9443359 C58.0869163,44.6767565 58.5986299,44.5429688 59.1767578,44.5429688 C60.0322308,44.5429688 60.7265598,44.8183566 61.2597656,45.3691406 C61.7929714,45.9199246 62.0810545,46.6503861 62.1240234,47.5605469 L62.1298828,47.8945312 C62.1298828,48.5195344 62.0097668,49.0781225 61.7695312,49.5703125 C61.5292957,50.0625025 61.1855491,50.443358 60.7382812,50.7128906 C60.2910134,50.9824232 59.774417,51.1171875 59.1884766,51.1171875 C58.2939408,51.1171875 57.5781277,50.8193389 57.0410156,50.2236328 C56.5039036,49.6279267 56.2353516,48.8339893 56.2353516,47.8417969 L56.2353516,47.7714844 Z M57.6591797,47.8945312 C57.6591797,48.5468783 57.793944,49.0576153 58.0634766,49.4267578 C58.3330092,49.7959003 58.7080054,49.9804688 59.1884766,49.9804688 C59.6689477,49.9804688 60.0429674,49.7929706 60.3105469,49.4179688 C60.5781263,49.0429669 60.7119141,48.4941442 60.7119141,47.7714844 C60.7119141,47.1308562 60.5742201,46.6230487 60.2988281,46.2480469 C60.0234361,45.873045 59.6494164,45.6855469 59.1767578,45.6855469 C58.7119117,45.6855469 58.3427748,45.8701153 58.0693359,46.2392578 C57.7958971,46.6084003 57.6591797,47.1601526 57.6591797,47.8945312 Z M66.6533203,45.9609375 C66.4658194,45.9296873 66.2724619,45.9140625 66.0732422,45.9140625 C65.4208952,45.9140625 64.9814464,46.16406 64.7548828,46.6640625 L64.7548828,51 L63.3310547,51 L63.3310547,44.6601562 L64.6904297,44.6601562 L64.7255859,45.3691406 C65.0693377,44.8183566 65.5458954,44.5429688 66.1552734,44.5429688 C66.3583995,44.5429688 66.5263665,44.5703122 66.6591797,44.625 L66.6533203,45.9609375 Z M69.6298828,43.1191406 L69.6298828,44.6601562 L70.7490234,44.6601562 L70.7490234,45.7148438 L69.6298828,45.7148438 L69.6298828,49.2539062 C69.6298828,49.496095 69.6777339,49.6708979 69.7734375,49.7783203 C69.8691411,49.8857427 70.0400378,49.9394531 70.2861328,49.9394531 C70.4501961,49.9394531 70.6162101,49.9199221 70.7841797,49.8808594 L70.7841797,50.9824219 C70.4599593,51.0722661 70.1474624,51.1171875 69.8466797,51.1171875 C68.7529242,51.1171875 68.2060547,50.5136779 68.2060547,49.3066406 L68.2060547,45.7148438 L67.1630859,45.7148438 L67.1630859,44.6601562 L68.2060547,44.6601562 L68.2060547,43.1191406 L69.6298828,43.1191406 Z M71.3935547,47.7714844 C71.3935547,47.1503875 71.5166003,46.5908228 71.7626953,46.0927734 C72.0087903,45.5947241 72.35449,45.2119154 72.7998047,44.9443359 C73.2451194,44.6767565 73.756833,44.5429688 74.3349609,44.5429688 C75.190434,44.5429688 75.884763,44.8183566 76.4179688,45.3691406 C76.9511745,45.9199246 77.2392576,46.6503861 77.2822266,47.5605469 L77.2880859,47.8945312 C77.2880859,48.5195344 77.16797,49.0781225 76.9277344,49.5703125 C76.6874988,50.0625025 76.3437522,50.443358 75.8964844,50.7128906 C75.4492165,50.9824232 74.9326201,51.1171875 74.3466797,51.1171875 C73.452144,51.1171875 72.7363308,50.8193389 72.1992188,50.2236328 C71.6621067,49.6279267 71.3935547,48.8339893 71.3935547,47.8417969 L71.3935547,47.7714844 Z M72.8173828,47.8945312 C72.8173828,48.5468783 72.9521471,49.0576153 73.2216797,49.4267578 C73.4912123,49.7959003 73.8662085,49.9804688 74.3466797,49.9804688 C74.8271508,49.9804688 75.2011705,49.7929706 75.46875,49.4179688 C75.7363295,49.0429669 75.8701172,48.4941442 75.8701172,47.7714844 C75.8701172,47.1308562 75.7324233,46.6230487 75.4570312,46.2480469 C75.1816392,45.873045 74.8076196,45.6855469 74.3349609,45.6855469 C73.8701149,45.6855469 73.5009779,45.8701153 73.2275391,46.2392578 C72.9541002,46.6084003 72.8173828,47.1601526 72.8173828,47.8945312 Z M82.0458984,49.2773438 C82.0458984,49.0234362 81.9414073,48.8300788 81.7324219,48.6972656 C81.5234365,48.5644525 81.1767602,48.4472661 80.6923828,48.3457031 C80.2080054,48.2441401 79.8037126,48.1152352 79.4794922,47.9589844 C78.7685511,47.6152327 78.4130859,47.1171908 78.4130859,46.4648438 C78.4130859,45.917966 78.6435524,45.4609393 79.1044922,45.09375 C79.565432,44.7265607 80.1513636,44.5429688 80.8623047,44.5429688 C81.620121,44.5429688 82.2324195,44.7304669 82.6992188,45.1054688 C83.166018,45.4804706 83.3994141,45.9667939 83.3994141,46.5644531 L81.9755859,46.5644531 C81.9755859,46.2910143 81.8740245,46.0634775 81.6708984,45.8818359 C81.4677724,45.7001944 81.1982439,45.609375 80.8623047,45.609375 C80.5498031,45.609375 80.2949229,45.6816399 80.0976562,45.8261719 C79.9003896,45.9707038 79.8017578,46.1640613 79.8017578,46.40625 C79.8017578,46.6250011 79.8935538,46.7949213 80.0771484,46.9160156 C80.2607431,47.03711 80.6318331,47.1591791 81.1904297,47.2822266 C81.7490262,47.4052741 82.1874984,47.551757 82.5058594,47.7216797 C82.8242203,47.8916024 83.0605461,48.0957019 83.2148438,48.3339844 C83.3691414,48.5722668 83.4462891,48.8613264 83.4462891,49.2011719 C83.4462891,49.7714872 83.2099633,50.2333967 82.7373047,50.5869141 C82.2646461,50.9404315 81.6455116,51.1171875 80.8798828,51.1171875 C80.360349,51.1171875 79.897463,51.0234384 79.4912109,50.8359375 C79.0849589,50.6484366 78.7685558,50.3906266 78.5419922,50.0625 C78.3154286,49.7343734 78.2021484,49.3808613 78.2021484,49.0019531 L79.5849609,49.0019531 C79.6044923,49.3378923 79.7314441,49.5966788 79.9658203,49.7783203 C80.2001965,49.9599618 80.5107403,50.0507812 80.8974609,50.0507812 C81.2724628,50.0507812 81.5576162,49.9794929 81.7529297,49.8369141 C81.9482432,49.6943352 82.0458984,49.5078137 82.0458984,49.2773438 Z M25.6699219,56.28125 L24.703125,56.28125 L24.703125,65.7910156 L25.6699219,65.7910156 L25.6699219,66.8984375 L23.2792969,66.8984375 L23.2792969,55.1679688 L25.6699219,55.1679688 L25.6699219,56.28125 Z M33.8496094,56.4277344 L33.8496094,57.6054688 L33.6738281,57.6054688 C32.8769491,57.6171876 32.2402368,57.8359354 31.7636719,58.2617188 C31.287107,58.6875021 31.0039067,59.2910117 30.9140625,60.0722656 C31.371096,59.5917945 31.9550746,59.3515625 32.6660156,59.3515625 C33.4199256,59.3515625 34.0146463,59.6171848 34.4501953,60.1484375 C34.8857444,60.6796902 35.1035156,61.3652302 35.1035156,62.2050781 C35.1035156,63.07227 34.8486354,63.7744114 34.3388672,64.3115234 C33.829099,64.8486355 33.1601604,65.1171875 32.3320312,65.1171875 C31.4804645,65.1171875 30.7900417,64.8027375 30.2607422,64.1738281 C29.7314427,63.5449187 29.4667969,62.7207082 29.4667969,61.7011719 L29.4667969,61.2148438 C29.4667969,59.7187425 29.831051,58.5468792 30.5595703,57.6992188 C31.2880896,56.8515583 32.3359307,56.4277344 33.703125,56.4277344 L33.8496094,56.4277344 Z M32.3203125,60.5 C32.0078109,60.5 31.721681,60.5878897 31.4619141,60.7636719 C31.2021471,60.939454 31.0117194,61.1738267 30.890625,61.4667969 L30.890625,61.9003906 C30.890625,62.5332063 31.0234362,63.0361309 31.2890625,63.4091797 C31.5546888,63.7822284 31.8984354,63.96875 32.3203125,63.96875 C32.7421896,63.96875 33.0761706,63.8105485 33.3222656,63.4941406 C33.5683606,63.1777328 33.6914062,62.7617213 33.6914062,62.2460938 C33.6914062,61.7304662 33.5664075,61.3105485 33.3164062,60.9863281 C33.066405,60.6621078 32.7343771,60.5 32.3203125,60.5 Z M39.8847656,63.2773438 C39.8847656,63.0234362 39.7802745,62.8300788 39.5712891,62.6972656 C39.3623036,62.5644525 39.0156274,62.4472661 38.53125,62.3457031 C38.0468726,62.2441401 37.6425797,62.1152352 37.3183594,61.9589844 C36.6074183,61.6152327 36.2519531,61.1171908 36.2519531,60.4648438 C36.2519531,59.917966 36.4824196,59.4609393 36.9433594,59.09375 C37.4042992,58.7265607 37.9902308,58.5429688 38.7011719,58.5429688 C39.4589882,58.5429688 40.0712867,58.7304669 40.5380859,59.1054688 C41.0048851,59.4804706 41.2382812,59.9667939 41.2382812,60.5644531 L39.8144531,60.5644531 C39.8144531,60.2910143 39.7128916,60.0634775 39.5097656,59.8818359 C39.3066396,59.7001944 39.0371111,59.609375 38.7011719,59.609375 C38.3886703,59.609375 38.13379,59.6816399 37.9365234,59.8261719 C37.7392568,59.9707038 37.640625,60.1640613 37.640625,60.40625 C37.640625,60.6250011 37.732421,60.7949213 37.9160156,60.9160156 C38.0996103,61.03711 38.4707003,61.1591791 39.0292969,61.2822266 C39.5878934,61.4052741 40.0263656,61.551757 40.3447266,61.7216797 C40.6630875,61.8916024 40.8994133,62.0957019 41.0537109,62.3339844 C41.2080086,62.5722668 41.2851562,62.8613264 41.2851562,63.2011719 C41.2851562,63.7714872 41.0488305,64.2333967 40.5761719,64.5869141 C40.1035133,64.9404315 39.4843788,65.1171875 38.71875,65.1171875 C38.1992162,65.1171875 37.7363302,65.0234384 37.3300781,64.8359375 C36.9238261,64.6484366 36.607423,64.3906266 36.3808594,64.0625 C36.1542957,63.7343734 36.0410156,63.3808613 36.0410156,63.0019531 L37.4238281,63.0019531 C37.4433595,63.3378923 37.5703113,63.5966788 37.8046875,63.7783203 C38.0390637,63.9599618 38.3496074,64.0507812 38.7363281,64.0507812 C39.11133,64.0507812 39.3964834,63.9794929 39.5917969,63.8369141 C39.7871104,63.6943352 39.8847656,63.5078137 39.8847656,63.2773438 Z M46.3652344,64.3789062 C45.9472635,64.8710962 45.3535195,65.1171875 44.5839844,65.1171875 C43.8964809,65.1171875 43.3759783,64.9160176 43.0224609,64.5136719 C42.6689435,64.1113261 42.4921875,63.5293007 42.4921875,62.7675781 L42.4921875,58.6601562 L43.9160156,58.6601562 L43.9160156,62.75 C43.9160156,63.5546915 44.2499967,63.9570312 44.9179688,63.9570312 C45.6093785,63.9570312 46.0761707,63.7089869 46.3183594,63.2128906 L46.3183594,58.6601562 L47.7421875,58.6601562 L47.7421875,65 L46.4003906,65 L46.3652344,64.3789062 Z M54.7441406,61.8945312 C54.7441406,62.8750049 54.5214866,63.6572236 54.0761719,64.2412109 C53.6308571,64.8251982 53.0332069,65.1171875 52.2832031,65.1171875 C51.5878871,65.1171875 51.0312521,64.8886742 50.6132812,64.4316406 L50.6132812,67.4375 L49.1894531,67.4375 L49.1894531,58.6601562 L50.5019531,58.6601562 L50.5605469,59.3046875 C50.9785177,58.7968725 51.5468714,58.5429688 52.265625,58.5429688 C53.0390664,58.5429688 53.6455056,58.8310518 54.0849609,59.4072266 C54.5244163,59.9834013 54.7441406,60.783198 54.7441406,61.8066406 L54.7441406,61.8945312 Z M53.3261719,61.7714844 C53.3261719,61.1386687 53.2001966,60.6367206 52.9482422,60.265625 C52.6962878,59.8945294 52.3359398,59.7089844 51.8671875,59.7089844 C51.2851533,59.7089844 50.8671888,59.9492163 50.6132812,60.4296875 L50.6132812,63.2421875 C50.871095,63.7343775 51.2929658,63.9804688 51.8789062,63.9804688 C52.3320335,63.9804688 52.6865222,63.7978534 52.9423828,63.4326172 C53.1982435,63.067381 53.3261719,62.5136756 53.3261719,61.7714844 Z M58.2773438,55.1679688 L60.6796875,55.1679688 L60.6796875,66.8984375 L58.2773438,66.8984375 L58.2773438,65.7910156 L59.2558594,65.7910156 L59.2558594,56.28125 L58.2773438,56.28125 L58.2773438,55.1679688 Z" id="path-1"></path>
        <filter x="-50%" y="-50%" width="200%" height="200%" filterUnits="objectBoundingBox" id="filter-2">
            <feOffset dx="0" dy="2" in="SourceAlpha" result="shadowOffsetOuter1"></feOffset>
            <feGaussianBlur stdDeviation="1" in="shadowOffsetOuter1" result="shadowBlurOuter1"></feGaussianBlur>
            <feColorMatrix values="0 0 0 0 0   0 0 0 0 0   0 0 0 0 0  0 0 0 0.5 0" type="matrix" in="shadowBlurOuter1"></feColorMatrix>
        </filter>
        <circle id="path-3" cx="20" cy="20" r="20"></circle>
        <filter x="-50%" y="-50%" width="200%" height="200%" filterUnits="objectBoundingBox" id="filter-4">
            <feOffset dx="0" dy="2" in="SourceAlpha" result="shadowOffsetOuter1"></feOffset>
            <feGaussianBlur stdDeviation="2" in="shadowOffsetOuter1" result="shadowBlurOuter1"></feGaussianBlur>
            <feColorMatrix values="0 0 0 0 0   0 0 0 0 0   0 0 0 0 0  0 0 0 0.5 0" type="matrix" in="shadowBlurOuter1"></feColorMatrix>
        </filter>
    </defs>
    <g id="Page-1" stroke="none" stroke-width="1" fill="none" fill-rule="evenodd">
        <g id="Group-57" transform="translate(2.000000, 2.000000)">
            <g id="Grampos-tortos-[-6su">
                <use fill="black" fill-opacity="1" filter="url(#filter-2)" xlink:href="#path-1"></use>
                <use fill="#FFFFFF" fill-rule="evenodd" xlink:href="#path-1"></use>
            </g>
            <g id="Group-5" transform="translate(22.000000, 0.000000)">
                <g id="Group-2">
                    <g id="Group" opacity="0.3">
                        <g id="Oval-6">
                            <use fill="black" fill-opacity="1" filter="url(#filter-4)" xlink:href="#path-3"></use>
                            <use fill="#FFFFFF" fill-rule="evenodd" xlink:href="#path-3"></use>
                        </g>
                    </g>
                    <circle id="Oval-5" stroke="#FFFFFF" stroke-width="5" fill="#DC1E65" cx="20" cy="20" r="8"></circle>
                </g>
            </g>
            <ellipse id="Oval-3" fill="#DC1E65" cx="42" cy="20" rx="13" ry="13"></ellipse>
            <ellipse id="Oval-3" fill="#DC1E65" cx="42" cy="20" rx="13" ry="13"></ellipse>
            <path d="M45.1015625,17.71875 C45.1015625,18.1367208 44.9941417,18.5087874 44.7792969,18.8349609 C44.5644521,19.1611344 44.2714862,19.4179678 43.9003906,19.6054688 C44.3457054,19.812501 44.6884754,20.0957013 44.9287109,20.4550781 C45.1689465,20.8144549 45.2890625,21.2207009 45.2890625,21.6738281 C45.2890625,22.4238319 45.0351588,23.0185525 44.5273438,23.4580078 C44.0195287,23.8974631 43.3437542,24.1171875 42.5,24.1171875 C41.6523395,24.1171875 40.9736354,23.8964866 40.4638672,23.4550781 C39.954099,23.0136697 39.6992188,22.4199256 39.6992188,21.6738281 C39.6992188,21.2167946 39.8203113,20.8066424 40.0625,20.4433594 C40.3046887,20.0800763 40.6445291,19.8007822 41.0820312,19.6054688 C40.7148419,19.4179678 40.4248058,19.1611344 40.2119141,18.8349609 C39.9990224,18.5087874 39.8925781,18.1367208 39.8925781,17.71875 C39.8925781,16.9921839 40.1269508,16.4160178 40.5957031,15.9902344 C41.0644555,15.564451 41.6972616,15.3515625 42.4941406,15.3515625 C43.2949259,15.3515625 43.9296852,15.564451 44.3984375,15.9902344 C44.8671898,16.4160178 45.1015625,16.9921839 45.1015625,17.71875 Z M43.8652344,21.6035156 C43.8652344,21.1816385 43.7392591,20.8408216 43.4873047,20.5810547 C43.2353503,20.3212878 42.9023458,20.1914062 42.4882812,20.1914062 C42.0742167,20.1914062 41.7431653,20.3203112 41.4951172,20.578125 C41.2470691,20.8359388 41.1230469,21.1777322 41.1230469,21.6035156 C41.1230469,22.0214865 41.245116,22.3554675 41.4892578,22.6054688 C41.7333997,22.85547 42.0703104,22.9804688 42.5,22.9804688 C42.9296896,22.9804688 43.2646472,22.8593762 43.5048828,22.6171875 C43.7451184,22.3749988 43.8652344,22.0371115 43.8652344,21.6035156 Z M43.6835938,17.7714844 C43.6835938,17.4003888 43.5761729,17.0947278 43.3613281,16.8544922 C43.1464833,16.6142566 42.8574237,16.4941406 42.4941406,16.4941406 C42.1308576,16.4941406 41.8437511,16.6083973 41.6328125,16.8369141 C41.4218739,17.0654308 41.3164062,17.3769512 41.3164062,17.7714844 C41.3164062,18.1621113 41.4228505,18.4726551 41.6357422,18.703125 C41.8486339,18.9335949 42.1367169,19.0488281 42.5,19.0488281 C42.8632831,19.0488281 43.1513661,18.9335949 43.3642578,18.703125 C43.5771495,18.4726551 43.6835938,18.1621113 43.6835938,17.7714844 Z" id="8" fill="#FFFFFF"></path>
        </g>
    </g>
</svg>