<?xml version="1.0" encoding="UTF-8"?>
<svg width="62px" height="74px" viewBox="0 0 62 74" version="1.1" xmlns="http://www.w3.org/2000/svg" xmlns:xlink="http://www.w3.org/1999/xlink">
    <!-- Generator: Sketch 42 (36781) - http://www.bohemiancoding.com/sketch -->
    <title>Group 41</title>
    <desc>Created with Sketch.</desc>
    <defs>
        <path d="M5.57714844,49.8027344 C5.57714844,49.4277325 5.44531382,49.1386729 5.18164062,48.9355469 C4.91796743,48.7324209 4.44238625,48.5273448 3.75488281,48.3203125 C3.06737938,48.1132802 2.52050984,47.8828138 2.11425781,47.6289062 C1.33691018,47.1406226 0.948242188,46.5039102 0.948242188,45.71875 C0.948242188,45.0312466 1.22851282,44.464846 1.7890625,44.0195312 C2.34961218,43.5742165 3.07714396,43.3515625 3.97167969,43.3515625 C4.56543266,43.3515625 5.09472424,43.4609364 5.55957031,43.6796875 C6.02441639,43.8984386 6.38964711,44.2099589 6.65527344,44.6142578 C6.92089977,45.0185567 7.05371094,45.4667944 7.05371094,45.9589844 L5.57714844,45.9589844 C5.57714844,45.5136696 5.4375014,45.1650403 5.15820312,44.9130859 C4.87890485,44.6611316 4.47949479,44.5351562 3.95996094,44.5351562 C3.47558352,44.5351562 3.09961071,44.6386708 2.83203125,44.8457031 C2.56445179,45.0527354 2.43066406,45.341795 2.43066406,45.7128906 C2.43066406,46.0253922 2.57519387,46.2861318 2.86425781,46.4951172 C3.15332176,46.7041026 3.62987949,46.9072256 4.29394531,47.1044922 C4.95801113,47.3017588 5.49120893,47.5263659 5.89355469,47.7783203 C6.29590045,48.0302747 6.59081938,48.3193343 6.77832031,48.6455078 C6.96582125,48.9716813 7.05957031,49.3535134 7.05957031,49.7910156 C7.05957031,50.5019567 6.7871121,51.0673807 6.2421875,51.4873047 C5.6972629,51.9072287 4.95801248,52.1171875 4.02441406,52.1171875 C3.40722348,52.1171875 2.83984634,52.0029308 2.32226562,51.7744141 C1.80468491,51.5458973 1.40234519,51.2304708 1.11523438,50.828125 C0.828123564,50.4257792 0.684570312,49.9570339 0.684570312,49.421875 L2.16699219,49.421875 C2.16699219,49.9062524 2.32714684,50.2812487 2.64746094,50.546875 C2.96777504,50.8125013 3.42675482,50.9453125 4.02441406,50.9453125 C4.54004164,50.9453125 4.92773308,50.8408214 5.1875,50.6318359 C5.44726692,50.4228505 5.57714844,50.1464861 5.57714844,49.8027344 Z M11.0146484,52.1171875 C10.1123002,52.1171875 9.38086218,51.8330107 8.8203125,51.2646484 C8.25976282,50.6962862 7.97949219,49.9394579 7.97949219,48.9941406 L7.97949219,48.8183594 C7.97949219,48.1855437 8.10156128,47.6201197 8.34570312,47.1220703 C8.58984497,46.6240209 8.93261498,46.2363295 9.37402344,45.9589844 C9.81543189,45.6816392 10.3076145,45.5429688 10.8505859,45.5429688 C11.7138715,45.5429688 12.380857,45.8183566 12.8515625,46.3691406 C13.322268,46.9199246 13.5576172,47.6992137 13.5576172,48.7070312 L13.5576172,49.28125 L9.41503906,49.28125 C9.45800803,49.8046901 9.63281097,50.2187485 9.93945312,50.5234375 C10.2460953,50.8281265 10.6318336,50.9804688 11.0966797,50.9804688 C11.7490267,50.9804688 12.2802714,50.7167995 12.6904297,50.1894531 L13.4580078,50.921875 C13.2041003,51.3007831 12.8652365,51.5947255 12.4414062,51.8037109 C12.017576,52.0126964 11.5419948,52.1171875 11.0146484,52.1171875 Z M10.8447266,46.6855469 C10.4540996,46.6855469 10.1386731,46.8222643 9.8984375,47.0957031 C9.65820192,47.369142 9.50488314,47.7499976 9.43847656,48.2382812 L12.1513672,48.2382812 L12.1513672,48.1328125 C12.120117,47.6562476 11.9931652,47.2958997 11.7705078,47.0517578 C11.5478504,46.807616 11.2392598,46.6855469 10.8447266,46.6855469 Z M16.0009766,45.6601562 L16.0419922,46.3222656 C16.4873069,45.8027318 17.0966758,45.5429688 17.8701172,45.5429688 C18.7177777,45.5429688 19.29785,45.8671843 19.6103516,46.515625 C20.0712914,45.8671843 20.7197224,45.5429688 21.5556641,45.5429688 C22.2548863,45.5429688 22.7753889,45.7363262 23.1171875,46.1230469 C23.4589861,46.5097676 23.633789,47.0800744 23.6416016,47.8339844 L23.6416016,52 L22.2177734,52 L22.2177734,47.875 C22.2177734,47.4726542 22.1298837,47.1777353 21.9541016,46.9902344 C21.7783194,46.8027334 21.4873067,46.7089844 21.0810547,46.7089844 C20.7568343,46.7089844 20.4921885,46.7958976 20.2871094,46.9697266 C20.0820302,47.1435556 19.938477,47.3710923 19.8564453,47.6523438 L19.8623047,52 L18.4384766,52 L18.4384766,47.828125 C18.4189452,47.0820275 18.0380896,46.7089844 17.2958984,46.7089844 C16.7255831,46.7089844 16.3212903,46.9414039 16.0830078,47.40625 L16.0830078,52 L14.6591797,52 L14.6591797,45.6601562 L16.0009766,45.6601562 Z M29.4130859,45.6601562 L29.4541016,46.3925781 C29.9228539,45.826169 30.5380821,45.5429688 31.2998047,45.5429688 C32.6201238,45.5429688 33.2919921,46.2988206 33.3154297,47.8105469 L33.3154297,52 L31.8916016,52 L31.8916016,47.8925781 C31.8916016,47.4902324 31.8046884,47.1923838 31.6308594,46.9990234 C31.4570304,46.8056631 31.1728535,46.7089844 30.7783203,46.7089844 C30.2040987,46.7089844 29.7763686,46.9687474 29.4951172,47.4882812 L29.4951172,52 L28.0712891,52 L28.0712891,45.6601562 L29.4130859,45.6601562 Z M34.4990234,48.7714844 C34.4990234,48.1503875 34.6220691,47.5908228 34.8681641,47.0927734 C35.114259,46.5947241 35.4599587,46.2119154 35.9052734,45.9443359 C36.3505882,45.6767565 36.8623018,45.5429688 37.4404297,45.5429688 C38.2959027,45.5429688 38.9902317,45.8183566 39.5234375,46.3691406 C40.0566433,46.9199246 40.3447263,47.6503861 40.3876953,48.5605469 L40.3935547,48.8945312 C40.3935547,49.5195344 40.2734387,50.0781225 40.0332031,50.5703125 C39.7929675,51.0625025 39.449221,51.443358 39.0019531,51.7128906 C38.5546853,51.9824232 38.0380889,52.1171875 37.4521484,52.1171875 C36.5576127,52.1171875 35.8417996,51.8193389 35.3046875,51.2236328 C34.7675754,50.6279267 34.4990234,49.8339893 34.4990234,48.8417969 L34.4990234,48.7714844 Z M35.9228516,48.8945312 C35.9228516,49.5468783 36.0576158,50.0576153 36.3271484,50.4267578 C36.596681,50.7959003 36.9716773,50.9804688 37.4521484,50.9804688 C37.9326196,50.9804688 38.3066393,50.7929706 38.5742188,50.4179688 C38.8417982,50.0429669 38.9755859,49.4941442 38.9755859,48.7714844 C38.9755859,48.1308562 38.837892,47.6230487 38.5625,47.2480469 C38.287108,46.873045 37.9130883,46.6855469 37.4404297,46.6855469 C36.9755836,46.6855469 36.6064467,46.8701153 36.3330078,47.2392578 C36.0595689,47.6084003 35.9228516,48.1601526 35.9228516,48.8945312 Z M42.9365234,45.6601562 L42.9775391,46.3222656 C43.4228538,45.8027318 44.0322227,45.5429688 44.8056641,45.5429688 C45.6533246,45.5429688 46.2333969,45.8671843 46.5458984,46.515625 C47.0068382,45.8671843 47.6552693,45.5429688 48.4912109,45.5429688 C49.1904332,45.5429688 49.7109358,45.7363262 50.0527344,46.1230469 C50.394533,46.5097676 50.5693359,47.0800744 50.5771484,47.8339844 L50.5771484,52 L49.1533203,52 L49.1533203,47.875 C49.1533203,47.4726542 49.0654306,47.1777353 48.8896484,46.9902344 C48.7138663,46.8027334 48.4228536,46.7089844 48.0166016,46.7089844 C47.6923812,46.7089844 47.4277354,46.7958976 47.2226562,46.9697266 C47.0175771,47.1435556 46.8740238,47.3710923 46.7919922,47.6523438 L46.7978516,52 L45.3740234,52 L45.3740234,47.828125 C45.3544921,47.0820275 44.9736365,46.7089844 44.2314453,46.7089844 C43.66113,46.7089844 43.2568371,46.9414039 43.0185547,47.40625 L43.0185547,52 L41.5947266,52 L41.5947266,45.6601562 L42.9365234,45.6601562 Z M54.8310547,52.1171875 C53.9287064,52.1171875 53.1972684,51.8330107 52.6367188,51.2646484 C52.0761691,50.6962862 51.7958984,49.9394579 51.7958984,48.9941406 L51.7958984,48.8183594 C51.7958984,48.1855437 51.9179675,47.6201197 52.1621094,47.1220703 C52.4062512,46.6240209 52.7490212,46.2363295 53.1904297,45.9589844 C53.6318381,45.6816392 54.1240207,45.5429688 54.6669922,45.5429688 C55.5302778,45.5429688 56.1972633,45.8183566 56.6679688,46.3691406 C57.1386742,46.9199246 57.3740234,47.6992137 57.3740234,48.7070312 L57.3740234,49.28125 L53.2314453,49.28125 C53.2744143,49.8046901 53.4492172,50.2187485 53.7558594,50.5234375 C54.0625015,50.8281265 54.4482399,50.9804688 54.9130859,50.9804688 C55.5654329,50.9804688 56.0966776,50.7167995 56.5068359,50.1894531 L57.2744141,50.921875 C57.0205065,51.3007831 56.6816427,51.5947255 56.2578125,51.8037109 C55.8339823,52.0126964 55.3584011,52.1171875 54.8310547,52.1171875 Z M54.6611328,46.6855469 C54.2705059,46.6855469 53.9550793,46.8222643 53.7148438,47.0957031 C53.4746082,47.369142 53.3212894,47.7499976 53.2548828,48.2382812 L55.9677734,48.2382812 L55.9677734,48.1328125 C55.9365233,47.6562476 55.8095714,47.2958997 55.5869141,47.0517578 C55.3642567,46.807616 55.055666,46.6855469 54.6611328,46.6855469 Z M19.3378906,57.28125 L18.3710938,57.28125 L18.3710938,66.7910156 L19.3378906,66.7910156 L19.3378906,67.8984375 L16.9472656,67.8984375 L16.9472656,56.1679688 L19.3378906,56.1679688 L19.3378906,57.28125 Z M28.765625,58.2597656 L25.3554688,66 L23.8613281,66 L27.265625,58.6113281 L22.8535156,58.6113281 L22.8535156,57.46875 L28.765625,57.46875 L28.765625,58.2597656 Z M32.6035156,64.9804688 C32.9589862,64.9804688 33.2539051,64.8769542 33.4882812,64.6699219 C33.7226574,64.4628896 33.8476562,64.2070328 33.8632812,63.9023438 L35.2050781,63.9023438 C35.189453,64.296877 35.0664074,64.6650374 34.8359375,65.0068359 C34.6054676,65.3486345 34.2929707,65.6191396 33.8984375,65.8183594 C33.5039043,66.0175791 33.0781273,66.1171875 32.6210938,66.1171875 C31.7343706,66.1171875 31.0312526,65.830081 30.5117188,65.2558594 C29.9921849,64.6816378 29.7324219,63.8886769 29.7324219,62.8769531 L29.7324219,62.7304688 C29.7324219,61.7656202 29.9902318,60.993167 30.5058594,60.4130859 C31.021487,59.8330049 31.7246049,59.5429688 32.6152344,59.5429688 C33.3691444,59.5429688 33.9833961,59.7626931 34.4580078,60.2021484 C34.9326196,60.6416038 35.1816405,61.2187464 35.2050781,61.9335938 L33.8632812,61.9335938 C33.8476562,61.5703107 33.723634,61.2714855 33.4912109,61.0371094 C33.2587879,60.8027332 32.9628924,60.6855469 32.6035156,60.6855469 C32.1425758,60.6855469 31.7871106,60.8525374 31.5371094,61.1865234 C31.2871081,61.5205095 31.1601563,62.0273404 31.15625,62.7070312 L31.15625,62.9355469 C31.15625,63.6230503 31.2802722,64.1357405 31.5283203,64.4736328 C31.7763684,64.8115251 32.1347633,64.9804688 32.6035156,64.9804688 Z M38.609375,56.1679688 L41.0117188,56.1679688 L41.0117188,67.8984375 L38.609375,67.8984375 L38.609375,66.7910156 L39.5878906,66.7910156 L39.5878906,57.28125 L38.609375,57.28125 L38.609375,56.1679688 Z" id="path-1"></path>
        <filter x="-50%" y="-50%" width="200%" height="200%" filterUnits="objectBoundingBox" id="filter-2">
            <feOffset dx="0" dy="2" in="SourceAlpha" result="shadowOffsetOuter1"></feOffset>
            <feGaussianBlur stdDeviation="1" in="shadowOffsetOuter1" result="shadowBlurOuter1"></feGaussianBlur>
            <feColorMatrix values="0 0 0 0 0   0 0 0 0 0   0 0 0 0 0  0 0 0 0.5 0" type="matrix" in="shadowBlurOuter1"></feColorMatrix>
        </filter>
        <ellipse id="path-3" cx="20" cy="20" rx="20" ry="20"></ellipse>
        <filter x="-50%" y="-50%" width="200%" height="200%" filterUnits="objectBoundingBox" id="filter-4">
            <feOffset dx="0" dy="2" in="SourceAlpha" result="shadowOffsetOuter1"></feOffset>
            <feGaussianBlur stdDeviation="2" in="shadowOffsetOuter1" result="shadowBlurOuter1"></feGaussianBlur>
            <feColorMatrix values="0 0 0 0 0   0 0 0 0 0   0 0 0 0 0  0 0 0 0.5 0" type="matrix" in="shadowBlurOuter1"></feColorMatrix>
        </filter>
    </defs>
    <g id="Page-1" stroke="none" stroke-width="1" fill="none" fill-rule="evenodd">
        <g id="Group-41" transform="translate(2.000000, 2.000000)">
            <g id="Sem-nome-[-7c-]">
                <use fill="black" fill-opacity="1" filter="url(#filter-2)" xlink:href="#path-1"></use>
                <use fill="#FFFFFF" fill-rule="evenodd" xlink:href="#path-1"></use>
            </g>
            <g id="Group-5" transform="translate(10.000000, 0.000000)">
                <g id="Group-2">
                    <g id="Group" opacity="0.3">
                        <g id="Oval-6">
                            <use fill="black" fill-opacity="1" filter="url(#filter-4)" xlink:href="#path-3"></use>
                            <use fill="#FFFFFF" fill-rule="evenodd" xlink:href="#path-3"></use>
                        </g>
                    </g>
                    <ellipse id="Oval-5" stroke="#FFFFFF" stroke-width="5" fill="#DC1E65" cx="20" cy="20" rx="8" ry="8"></ellipse>
                </g>
            </g>
            <ellipse id="Oval-3" fill="#DC1E65" cx="30" cy="20" rx="13" ry="13"></ellipse>
            <path d="M31.9345703,14.9990234 L31.9345703,16.3730469 L31.7294922,16.3730469 C30.7998,16.3867188 30.0569689,16.6419246 29.5009766,17.1386719 C28.9449842,17.6354192 28.6145839,18.3395137 28.5097656,19.2509766 C29.0429714,18.6904269 29.7242797,18.4101562 30.5537109,18.4101562 C31.4332726,18.4101562 32.1271133,18.720049 32.6352539,19.3398438 C33.1433945,19.9596385 33.3974609,20.7594352 33.3974609,21.7392578 C33.3974609,22.7509816 33.1001006,23.5701466 32.5053711,24.1967773 C31.9106416,24.8234081 31.1302132,25.1367188 30.1640625,25.1367188 C29.1705679,25.1367188 28.3650747,24.7698604 27.7475586,24.0361328 C27.1300425,23.3024052 26.8212891,22.3408263 26.8212891,21.1513672 L26.8212891,20.5839844 C26.8212891,18.8385329 27.2462523,17.4713591 28.0961914,16.4824219 C28.9461306,15.4934846 30.1686118,14.9990234 31.7636719,14.9990234 L31.9345703,14.9990234 Z M30.1503906,19.75 C29.7858055,19.75 29.4519872,19.852538 29.1489258,20.0576172 C28.8458644,20.2626963 28.6236986,20.5361311 28.4824219,20.8779297 L28.4824219,21.3837891 C28.4824219,22.122074 28.6373682,22.7088194 28.9472656,23.144043 C29.257163,23.5792665 29.6582007,23.796875 30.1503906,23.796875 C30.6425806,23.796875 31.0322251,23.6123065 31.3193359,23.2431641 C31.6064467,22.8740216 31.75,22.3886749 31.75,21.7871094 C31.75,21.1855439 31.6041681,20.6956399 31.3125,20.3173828 C31.0208319,19.9391257 30.633466,19.75 30.1503906,19.75 Z" id="6" fill="#FFFFFF"></path>
        </g>
    </g>
</svg>